999
dxfrw 0.6.3
  0
SECTION
  2
HEADER
  9
$ACADVER
  1
AC1021
  9
$DWGCODEPAGE
  3
ANSI_1252
  9
$INSBASE
 10
0
 20
0
 30
0
  9
$EXTMIN
 10
-4312.5
 20
-9218.388347648321
 30
0
  9
$EXTMAX
 10
18588.38834764832
 20
11100
 30
0
  9
$LIMMIN
 10
0
 20
0
  9
$LIMMAX
 10
420
 20
297
  9
$ORTHOMODE
 70
    0
  9
$REGENMODE
 70
    1
  9
$FILLMODE
 70
    1
  9
$QTEXTMODE
 70
    0
  9
$MIRRTEXT
 70
    0
  9
$LTSCALE
 40
1
  9
$ATTMODE
 70
    0
  9
$TEXTSIZE
 40
2.5
  9
$TRACEWID
 40
15.68
  9
$TEXTSTYLE
  7
STANDARD
  9
$CLAYER
  8
dimenzije krov
  9
$CELTYPE
  6
BYLAYER
  9
$CECOLOR
 62
  256
  9
$CELTSCALE
 40
1
  9
$DISPSILH
 70
    0
  9
$DIMSCALE
 40
100
  9
$DIMASZ
 40
2.5
  9
$DIMEXO
 40
0.625
  9
$DIMDLI
 40
3.75
  9
$DIMRND
 40
0
  9
$DIMDLE
 40
0
  9
$DIMEXE
 40
1.25
  9
$DIMTP
 40
0
  9
$DIMTM
 40
0
  9
$DIMTXT
 40
2.5
  9
$DIMCEN
 40
2.5
  9
$DIMTSZ
 40
0
  9
$DIMTOL
 70
    0
  9
$DIMLIM
 70
    0
  9
$DIMTIH
 70
    0
  9
$DIMTOH
 70
    0
  9
$DIMSE1
 70
    0
  9
$DIMSE2
 70
    0
  9
$DIMTAD
 70
    1
  9
$DIMZIN
 70
    8
  9
$DIMBLK
  1

  9
$DIMASO
 70
    1
  9
$DIMSHO
 70
    1
  9
$DIMPOST
  1

  9
$DIMAPOST
  1

  9
$DIMALT
 70
    0
  9
$DIMALTD
 70
    3
  9
$DIMALTF
 40
0.03937
  9
$DIMLFAC
 40
1
  9
$DIMTOFL
 70
    1
  9
$DIMTVP
 40
0
  9
$DIMTIX
 70
    0
  9
$DIMSOXD
 70
    0
  9
$DIMSAH
 70
    0
  9
$DIMBLK1
  1

  9
$DIMBLK2
  1

  9
$DIMSTYLE
  2
STANDARD
  9
$DIMCLRD
 70
    0
  9
$DIMCLRE
 70
    0
  9
$DIMCLRT
 70
    0
  9
$DIMTFAC
 40
1
  9
$DIMGAP
 40
0.625
  9
$DIMJUST
 70
    0
  9
$DIMSD1
 70
    0
  9
$DIMSD2
 70
    0
  9
$DIMTOLJ
 70
    0
  9
$DIMTZIN
 70
    8
  9
$DIMALTZ
 70
    0
  9
$DIMALTTZ
 70
    0
  9
$DIMUPT
 70
    0
  9
$DIMDEC
 70
    2
  9
$DIMTDEC
 70
    2
  9
$DIMALTU
 70
    2
  9
$DIMALTTD
 70
    3
  9
$DIMTXSTY
  7
standard
  9
$DIMAUNIT
 70
    0
  9
$DIMADEC
 70
    0
  9
$DIMALTRND
 40
0
  9
$DIMAZIN
 70
    0
  9
$DIMDSEP
 70
   44
  9
$DIMATFIT
 70
    3
  9
$DIMFRAC
 70
    0
  9
$DIMLDRBLK
  1
STANDARD
  9
$DIMLUNIT
 70
    2
  9
$DIMLWD
 70
   -2
  9
$DIMLWE
 70
   -2
  9
$DIMTMOVE
 70
    0
  9
$DIMFXL
 40
1
  9
$DIMFXLON
 70
    0
  9
$DIMJOGANG
 40
0.7854
  9
$DIMTFILL
 70
    0
  9
$DIMTFILLCLR
 70
    0
  9
$DIMARCSYM
 70
    0
  9
$DIMLTYPE
  6

  9
$DIMLTEX1
  6

  9
$DIMLTEX2
  6

  9
$LUNITS
 70
    2
  9
$LUPREC
 70
    4
  9
$SKETCHINC
 40
1
  9
$FILLETRAD
 40
0
  9
$AUNITS
 70
    0
  9
$AUPREC
 70
    2
  9
$MENU
  1
.
  9
$ELEVATION
 40
0
  9
$PELEVATION
 40
0
  9
$THICKNESS
 40
0
  9
$LIMCHECK
 70
    0
  9
$CHAMFERA
 40
0
  9
$CHAMFERB
 40
0
  9
$CHAMFERC
 40
0
  9
$CHAMFERD
 40
0
  9
$SKPOLY
 70
    0
  9
$USRTIMER
 70
    1
  9
$ANGBASE
 50
0
  9
$ANGDIR
 70
    0
  9
$PDMODE
 70
   34
  9
$PDSIZE
 40
0
  9
$PLINEWID
 40
0
  9
$SPLFRAME
 70
    0
  9
$SPLINETYPE
 70
    2
  9
$SPLINESEGS
 70
    8
  9
$HANDSEED
  5
20000
  9
$SURFTAB1
 70
    6
  9
$SURFTAB2
 70
    6
  9
$SURFTYPE
 70
    6
  9
$SURFU
 70
    6
  9
$SURFV
 70
    6
  9
$UCSBASE
  2

  9
$UCSNAME
  2

  9
$UCSORG
 10
0
 20
0
 30
0
  9
$UCSXDIR
 10
1
 20
0
 30
0
  9
$UCSYDIR
 10
0
 20
1
 30
0
  9
$UCSORTHOREF
  2

  9
$UCSORTHOVIEW
 70
    0
  9
$UCSORGTOP
 10
0
 20
0
 30
0
  9
$UCSORGBOTTOM
 10
0
 20
0
 30
0
  9
$UCSORGLEFT
 10
0
 20
0
 30
0
  9
$UCSORGRIGHT
 10
0
 20
0
 30
0
  9
$UCSORGFRONT
 10
0
 20
0
 30
0
  9
$UCSORGBACK
 10
0
 20
0
 30
0
  9
$PUCSBASE
  2

  9
$PUCSNAME
  2

  9
$PUCSORG
 10
0
 20
0
 30
0
  9
$PUCSXDIR
 10
1
 20
0
 30
0
  9
$PUCSYDIR
 10
0
 20
1
 30
0
  9
$PUCSORTHOREF
  2

  9
$PUCSORTHOVIEW
 70
    0
  9
$PUCSORGTOP
 10
0
 20
0
 30
0
  9
$PUCSORGBOTTOM
 10
0
 20
0
 30
0
  9
$PUCSORGLEFT
 10
0
 20
0
 30
0
  9
$PUCSORGRIGHT
 10
0
 20
0
 30
0
  9
$PUCSORGFRONT
 10
0
 20
0
 30
0
  9
$PUCSORGBACK
 10
0
 20
0
 30
0
  9
$USERI1
 70
    0
  9
$USERI2
 70
    0
  9
$USERI3
 70
    0
  9
$USERI4
 70
    0
  9
$USERI5
 70
    0
  9
$USERR1
 40
0
  9
$USERR2
 40
0
  9
$USERR3
 40
0
  9
$USERR4
 40
0
  9
$USERR5
 40
0
  9
$WORLDVIEW
 70
    1
  9
$SHADEDGE
 70
    3
  9
$SHADEDIF
 70
   70
  9
$TILEMODE
 70
    1
  9
$MAXACTVP
 70
   64
  9
$PINSBASE
 10
0
 20
0
 30
0
  9
$PLIMCHECK
 70
    0
  9
$PEXTMIN
 10
0
 20
0
 30
0
  9
$PEXTMAX
 10
0
 20
0
 30
0
  9
$GRIDMODE
 70
    1
  9
$SNAPSTYLE
 70
    0
  9
$GRIDUNIT
 10
0
 20
0
  9
$PLIMMIN
 10
0
 20
0
  9
$PLIMMAX
 10
210
 20
297
  9
$UNITMODE
 70
    0
  9
$VISRETAIN
 70
    1
  9
$PLINEGEN
 70
    0
  9
$PSLTSCALE
 70
    1
  9
$TREEDEPTH
 70
 3020
  9
$CMLSTYLE
  2
Standard
  9
$CMLJUST
 70
    0
  9
$CMLSCALE
 40
20
  9
$PROXYGRAPHICS
 70
    1
  9
$MEASUREMENT
 70
    1
  9
$CELWEIGHT
370
   -1
  9
$ENDCAPS
280
    0
  9
$JOINSTYLE
280
    0
  9
$LWDISPLAY
290
    0
  9
$INSUNITS
 70
    4
  9
$HYPERLINKBASE
  1

  9
$STYLESHEET
  1

  9
$XEDIT
290
    1
  9
$CEPSNTYPE
380
    0
  9
$PSTYLEMODE
290
    1
  9
$EXTNAMES
290
    1
  9
$PSVPSCALE
 40
1
  9
$OLESTARTUP
290
    0
  9
$SORTENTS
280
  127
  9
$INDEXCTL
280
    0
  9
$HIDETEXT
280
    1
  9
$XCLIPFRAME
290
    0
  9
$HALOGAP
280
    0
  9
$OBSCOLOR
 70
  257
  9
$OBSLTYPE
280
    0
  9
$INTERSECTIONDISPLAY
280
    0
  9
$INTERSECTIONCOLOR
 70
  257
  9
$DIMASSOC
280
    1
  9
$PROJECTNAME
  1

  9
$CAMERADISPLAY
290
    0
  9
$LENSLENGTH
 40
50
  9
$CAMERAHEIGHT
 40
0
  9
$STEPSPERSEC
 40
2
  9
$STEPSIZE
 40
50
  9
$3DDWFPREC
 40
2
  9
$PSOLWIDTH
 40
5
  9
$PSOLHEIGHT
 40
80
  9
$LOFTANG1
 40
1.570796326794897
  9
$LOFTANG2
 40
1.570796326794897
  9
$LOFTMAG1
 40
0
  9
$LOFTMAG2
 40
0
  9
$LOFTPARAM
 70
    7
  9
$LOFTNORMALS
280
    1
  9
$LATITUDE
 40
1
  9
$LONGITUDE
 40
1
  9
$NORTHDIRECTION
 40
0
  9
$TIMEZONE
 70
-8000
  9
$LIGHTGLYPHDISPLAY
280
    1
  9
$TILEMODELIGHTSYNCH
280
    1
  9
$SOLIDHIST
280
    1
  9
$SHOWHIST
280
    1
  9
$DWFFRAME
280
    2
  9
$DGNFRAME
280
    0
  9
$REALWORLDSCALE
290
    1
  9
$INTERFERECOLOR
 62
    1
  9
$CSHADOW
280
    0
  9
$SHADOWPLANELOCATION
 40
0
  0
ENDSEC
  0
SECTION
  2
CLASSES
  0
ENDSEC
  0
SECTION
  2
TABLES
  0
TABLE
  2
VPORT
  5
8
330
0
100
AcDbSymbolTable
 70
    1
  0
VPORT
  5
31
330
2
100
AcDbSymbolTableRecord
100
AcDbViewportTableRecord
  2
*ACTIVE
 70
    0
 10
0
 20
0
 11
1
 21
1
 12
10510.24912152052
 22
4243.344452795915
 13
0
 23
0
 14
10
 24
10
 15
10
 25
10
 16
0
 26
0
 36
1
 17
0
 27
0
 37
0
 40
17365.82585306074
 41
1.831920903954802
 42
50
 43
0
 44
0
 50
0
 51
0
 71
    0
 72
  100
 73
    1
 74
    3
 75
    0
 76
    1
 77
    0
 78
    0
281
    0
 65
    1
110
0
120
0
130
0
111
1
121
0
131
0
112
0
122
1
132
0
 79
    0
146
0
348
10020
 60
    7
 61
    5
292
1
282
    1
141
0
142
0
 63
  250
421
3358443
  0
ENDTAB
  0
TABLE
  2
LTYPE
  5
5
330
0
100
AcDbSymbolTable
 70
    4
  0
LTYPE
  5
14
330
5
100
AcDbSymbolTableRecord
100
AcDbLinetypeTableRecord
  2
ByBlock
 70
    0
  3

 72
   65
 73
    0
 40
0
  0
LTYPE
  5
15
330
5
100
AcDbSymbolTableRecord
100
AcDbLinetypeTableRecord
  2
ByLayer
 70
    0
  3

 72
   65
 73
    0
 40
0
  0
LTYPE
  5
16
330
5
100
AcDbSymbolTableRecord
100
AcDbLinetypeTableRecord
  2
Continuous
 70
    0
  3
Solid line
 72
   65
 73
    0
 40
0
  0
LTYPE
  5
32
330
5
100
AcDbSymbolTableRecord
100
AcDbLinetypeTableRecord
  2
DOT
 70
    0
  3
Dot . . . . . . . . . . . . . . . . . . . . . .
 72
   65
 73
    2
 40
6.35
 49
0
 74
    0
 49
-6.35
 74
    0
  0
LTYPE
  5
33
330
5
100
AcDbSymbolTableRecord
100
AcDbLinetypeTableRecord
  2
DOTTINY
 70
    0
  3
Dot (.15x) .....................................
 72
   65
 73
    2
 40
0.9525
 49
0
 74
    0
 49
-0.9525
 74
    0
  0
LTYPE
  5
34
330
5
100
AcDbSymbolTableRecord
100
AcDbLinetypeTableRecord
  2
DOT2
 70
    0
  3
Dot (.5x) .....................................
 72
   65
 73
    2
 40
3.175
 49
0
 74
    0
 49
-3.175
 74
    0
  0
LTYPE
  5
35
330
5
100
AcDbSymbolTableRecord
100
AcDbLinetypeTableRecord
  2
DOTX2
 70
    0
  3
Dot (2x) .  .  .  .  .  .  .  .  .  .  .  .  .
 72
   65
 73
    2
 40
12.7
 49
0
 74
    0
 49
-12.7
 74
    0
  0
LTYPE
  5
36
330
5
100
AcDbSymbolTableRecord
100
AcDbLinetypeTableRecord
  2
DASHED
 70
    0
  3
Dashed _ _ _ _ _ _ _ _ _ _ _ _ _ _ _ _ _
 72
   65
 73
    2
 40
19.05
 49
12.7
 74
    0
 49
-6.35
 74
    0
  0
LTYPE
  5
37
330
5
100
AcDbSymbolTableRecord
100
AcDbLinetypeTableRecord
  2
DASHEDTINY
 70
    0
  3
Dashed (.15x) _ _ _ _ _ _ _ _ _ _ _ _ _ _ _ _ _
 72
   65
 73
    2
 40
2.8575
 49
1.905
 74
    0
 49
-0.9525
 74
    0
  0
LTYPE
  5
38
330
5
100
AcDbSymbolTableRecord
100
AcDbLinetypeTableRecord
  2
DASHED2
 70
    0
  3
Dashed (.5x) _ _ _ _ _ _ _ _ _ _ _ _ _ _ _ _ _
 72
   65
 73
    2
 40
9.524999999999999
 49
6.35
 74
    0
 49
-3.175
 74
    0
  0
LTYPE
  5
39
330
5
100
AcDbSymbolTableRecord
100
AcDbLinetypeTableRecord
  2
DASHEDX2
 70
    0
  3
Dashed (2x) ____  ____  ____  ____  ____  ___
 72
   65
 73
    2
 40
38.09999999999999
 49
25.4
 74
    0
 49
-12.7
 74
    0
  0
LTYPE
  5
3A
330
5
100
AcDbSymbolTableRecord
100
AcDbLinetypeTableRecord
  2
DASHDOT
 70
    0
  3
Dash dot __ . __ . __ . __ . __ . __ . __ . __
 72
   65
 73
    4
 40
25.4
 49
12.7
 74
    0
 49
-6.35
 74
    0
 49
0
 74
    0
 49
-6.35
 74
    0
  0
LTYPE
  5
3B
330
5
100
AcDbSymbolTableRecord
100
AcDbLinetypeTableRecord
  2
DASHDOTTINY
 70
    0
  3
Dash dot (.15x) _._._._._._._._._._._._._._._.
 72
   65
 73
    4
 40
3.81
 49
1.905
 74
    0
 49
-0.9525
 74
    0
 49
0
 74
    0
 49
-0.9525
 74
    0
  0
LTYPE
  5
3C
330
5
100
AcDbSymbolTableRecord
100
AcDbLinetypeTableRecord
  2
DASHDOT2
 70
    0
  3
Dash dot (.5x) _._._._._._._._._._._._._._._.
 72
   65
 73
    4
 40
12.7
 49
6.35
 74
    0
 49
-3.175
 74
    0
 49
0
 74
    0
 49
-3.175
 74
    0
  0
LTYPE
  5
3D
330
5
100
AcDbSymbolTableRecord
100
AcDbLinetypeTableRecord
  2
DASHDOTX2
 70
    0
  3
Dash dot (2x) ____  .  ____  .  ____  .  ___
 72
   65
 73
    4
 40
50.8
 49
25.4
 74
    0
 49
-12.7
 74
    0
 49
0
 74
    0
 49
-12.7
 74
    0
  0
LTYPE
  5
3E
330
5
100
AcDbSymbolTableRecord
100
AcDbLinetypeTableRecord
  2
DIVIDE
 70
    0
  3
Divide ____ . . ____ . . ____ . . ____ . . ____
 72
   65
 73
    6
 40
31.75
 49
12.7
 74
    0
 49
-6.35
 74
    0
 49
0
 74
    0
 49
-6.35
 74
    0
 49
0
 74
    0
 49
-6.35
 74
    0
  0
LTYPE
  5
3F
330
5
100
AcDbSymbolTableRecord
100
AcDbLinetypeTableRecord
  2
DIVIDETINY
 70
    0
  3
Divide (.15x) __..__..__..__..__..__..__..__.._
 72
   65
 73
    6
 40
4.7625
 49
1.905
 74
    0
 49
-0.9525
 74
    0
 49
0
 74
    0
 49
-0.9525
 74
    0
 49
0
 74
    0
 49
-0.9525
 74
    0
  0
LTYPE
  5
40
330
5
100
AcDbSymbolTableRecord
100
AcDbLinetypeTableRecord
  2
DIVIDE2
 70
    0
  3
Divide (.5x) __..__..__..__..__..__..__..__.._
 72
   65
 73
    6
 40
15.875
 49
6.35
 74
    0
 49
-3.175
 74
    0
 49
0
 74
    0
 49
-3.175
 74
    0
 49
0
 74
    0
 49
-3.175
 74
    0
  0
LTYPE
  5
41
330
5
100
AcDbSymbolTableRecord
100
AcDbLinetypeTableRecord
  2
DIVIDEX2
 70
    0
  3
Divide (2x) ________  .  .  ________  .  .  _
 72
   65
 73
    6
 40
63.5
 49
25.4
 74
    0
 49
-12.7
 74
    0
 49
0
 74
    0
 49
-12.7
 74
    0
 49
0
 74
    0
 49
-12.7
 74
    0
  0
LTYPE
  5
42
330
5
100
AcDbSymbolTableRecord
100
AcDbLinetypeTableRecord
  2
BORDER
 70
    0
  3
Border __ __ . __ __ . __ __ . __ __ . __ __ .
 72
   65
 73
    6
 40
44.45
 49
12.7
 74
    0
 49
-6.35
 74
    0
 49
12.7
 74
    0
 49
-6.35
 74
    0
 49
0
 74
    0
 49
-6.35
 74
    0
  0
LTYPE
  5
43
330
5
100
AcDbSymbolTableRecord
100
AcDbLinetypeTableRecord
  2
BORDERTINY
 70
    0
  3
Border (.15x) __.__.__.__.__.__.__.__.__.__.__.
 72
   65
 73
    6
 40
6.6675
 49
1.905
 74
    0
 49
-0.9525
 74
    0
 49
1.905
 74
    0
 49
-0.9525
 74
    0
 49
0
 74
    0
 49
-0.9525
 74
    0
  0
LTYPE
  5
44
330
5
100
AcDbSymbolTableRecord
100
AcDbLinetypeTableRecord
  2
BORDER2
 70
    0
  3
Border (.5x) __.__.__.__.__.__.__.__.__.__.__.
 72
   65
 73
    6
 40
22.225
 49
6.35
 74
    0
 49
-3.175
 74
    0
 49
6.35
 74
    0
 49
-3.175
 74
    0
 49
0
 74
    0
 49
-3.175
 74
    0
  0
LTYPE
  5
45
330
5
100
AcDbSymbolTableRecord
100
AcDbLinetypeTableRecord
  2
BORDERX2
 70
    0
  3
Border (2x) ____  ____  .  ____  ____  .  ___
 72
   65
 73
    6
 40
88.89999999999999
 49
25.4
 74
    0
 49
-12.7
 74
    0
 49
25.4
 74
    0
 49
-12.7
 74
    0
 49
0
 74
    0
 49
-12.7
 74
    0
  0
LTYPE
  5
46
330
5
100
AcDbSymbolTableRecord
100
AcDbLinetypeTableRecord
  2
CENTER
 70
    0
  3
Center ____ _ ____ _ ____ _ ____ _ ____ _ ____
 72
   65
 73
    4
 40
50.8
 49
31.75
 74
    0
 49
-6.35
 74
    0
 49
6.35
 74
    0
 49
-6.35
 74
    0
  0
LTYPE
  5
47
330
5
100
AcDbSymbolTableRecord
100
AcDbLinetypeTableRecord
  2
CENTERTINY
 70
    0
  3
Center (.15x) ___ _ ___ _ ___ _ ___ _ ___ _ ___
 72
   65
 73
    4
 40
7.619999999999999
 49
4.7625
 74
    0
 49
-0.9525
 74
    0
 49
0.9525
 74
    0
 49
-0.9525
 74
    0
  0
LTYPE
  5
48
330
5
100
AcDbSymbolTableRecord
100
AcDbLinetypeTableRecord
  2
CENTER2
 70
    0
  3
Center (.5x) ___ _ ___ _ ___ _ ___ _ ___ _ ___
 72
   65
 73
    4
 40
28.575
 49
19.05
 74
    0
 49
-3.175
 74
    0
 49
3.175
 74
    0
 49
-3.175
 74
    0
  0
LTYPE
  5
49
330
5
100
AcDbSymbolTableRecord
100
AcDbLinetypeTableRecord
  2
CENTERX2
 70
    0
  3
Center (2x) ________  __  ________  __  _____
 72
   65
 73
    4
 40
101.6
 49
63.5
 74
    0
 49
-12.7
 74
    0
 49
12.7
 74
    0
 49
-12.7
 74
    0
  0
ENDTAB
  0
TABLE
  2
LAYER
  5
2
330
0
100
AcDbSymbolTable
 70
    1
  0
LAYER
  5
10
330
2
100
AcDbSymbolTableRecord
100
AcDbLayerTableRecord
  2
0
 70
    1
 62
    7
  6
CONTINUOUS
370
    0
390
F
  0
LAYER
  5
4A
330
2
100
AcDbSymbolTableRecord
100
AcDbLayerTableRecord
  2
dimenzije krov
 70
    0
 62
   21
420
16755327
  6
CONTINUOUS
370
    0
390
F
  0
LAYER
  5
4B
330
2
100
AcDbSymbolTableRecord
100
AcDbLayerTableRecord
  2
dimenzije novo stanje
 70
    1
 62
   96
420
32768
  6
CONTINUOUS
370
    0
390
F
  0
LAYER
  5
4C
330
2
100
AcDbSymbolTableRecord
100
AcDbLayerTableRecord
  2
dimenzije postojece stanje
 70
    1
 62
   56
420
8421376
  6
CONTINUOUS
370
    0
390
F
  0
LAYER
  5
4D
330
2
100
AcDbSymbolTableRecord
100
AcDbLayerTableRecord
  2
dimenzije stepeniste
 70
    1
 62
  136
420
32896
  6
CONTINUOUS
370
    0
390
F
  0
LAYER
  5
4E
330
2
100
AcDbSymbolTableRecord
100
AcDbLayerTableRecord
  2
instalacije temelj
 70
    1
 62
    5
  6
CONTINUOUS
370
    0
390
F
  0
LAYER
  5
4F
330
2
100
AcDbSymbolTableRecord
100
AcDbLayerTableRecord
  2
kontura
 70
    1
 62
    1
  6
DASHED
370
    0
390
F
  0
LAYER
  5
50
330
2
100
AcDbSymbolTableRecord
100
AcDbLayerTableRecord
  2
krov
 70
    0
 62
   40
420
16755200
  6
CONTINUOUS
370
    0
390
F
  0
LAYER
  5
51
330
2
100
AcDbSymbolTableRecord
100
AcDbLayerTableRecord
  2
novo stanje
 70
    1
 62
    3
  6
CONTINUOUS
370
    0
390
F
  0
LAYER
  5
52
330
2
100
AcDbSymbolTableRecord
100
AcDbLayerTableRecord
  2
podrum
 70
    1
 62
  253
420
10526884
  6
CONTINUOUS
370
    0
390
F
  0
LAYER
  5
53
330
2
100
AcDbSymbolTableRecord
100
AcDbLayerTableRecord
  2
postojece stanje
 70
    1
 62
    2
  6
CONTINUOUS
370
    0
390
F
  0
LAYER
  5
54
330
2
100
AcDbSymbolTableRecord
100
AcDbLayerTableRecord
  2
stepeniste
 70
    1
 62
    4
  6
CONTINUOUS
370
    0
390
F
  0
LAYER
  5
55
330
2
100
AcDbSymbolTableRecord
100
AcDbLayerTableRecord
  2
temelj
 70
    1
 62
    6
  6
CONTINUOUS
370
    0
390
F
  0
ENDTAB
  0
TABLE
  2
STYLE
  5
3
330
0
100
AcDbSymbolTable
 70
    3
  0
STYLE
  5
56
330
2
100
AcDbSymbolTableRecord
100
AcDbTextStyleTableRecord
  2
Standard
 70
    0
 40
0
 41
1
 50
0
 71
    0
 42
1
  3
txt
  4

  0
ENDTAB
  0
TABLE
  2
VIEW
  5
6
330
0
100
AcDbSymbolTable
 70
    0
  0
ENDTAB
  0
TABLE
  2
UCS
  5
7
330
0
100
AcDbSymbolTable
 70
    0
  0
ENDTAB
  0
TABLE
  2
APPID
  5
9
330
0
100
AcDbSymbolTable
 70
    1
  0
APPID
  5
12
330
9
100
AcDbSymbolTableRecord
100
AcDbRegAppTableRecord
  2
ACAD
 70
    0
  0
APPID
  5
57
330
9
100
AcDbSymbolTableRecord
100
AcDbRegAppTableRecord
  2
LibreCad
 70
    0
  0
ENDTAB
  0
TABLE
  2
DIMSTYLE
  5
A
330
0
100
AcDbSymbolTable
 70
    1
100
AcDbDimStyleTable
 71
    1
  0
DIMSTYLE
105
58
330
A
100
AcDbSymbolTableRecord
100
AcDbDimStyleTableRecord
  2
Standard
 70
    0
 40
100
 41
2.5
 42
0.625
 43
0.38
 44
1.25
 45
0
 46
0
 47
0
 48
0
 49
1
140
2.5
141
0.09
142
0
143
25.4
144
1
145
0
146
1
147
0.625
148
0
 71
    0
 72
    0
 73
    0
 74
    1
 75
    0
 76
    0
 77
    0
 78
    8
 79
    0
170
    0
171
    2
172
    0
173
    0
174
    0
175
    0
176
    0
177
    0
178
    0
179
    0
271
    2
272
    4
273
    2
274
    2
275
    0
276
    0
277
    2
278
   44
279
    0
280
    0
281
    0
282
    0
283
    1
284
    0
285
    0
286
    0
288
    0
289
    3
340
standard
341

371
   -2
372
   -2
  0
ENDTAB
  0
TABLE
  2
BLOCK_RECORD
  5
1
330
0
100
AcDbSymbolTable
 70
    2
  0
BLOCK_RECORD
  5
1F
330
1
100
AcDbSymbolTableRecord
100
AcDbBlockTableRecord
  2
*Model_Space
 70
    0
280
    1
281
    0
  0
BLOCK_RECORD
  5
1E
330
1
100
AcDbSymbolTableRecord
100
AcDbBlockTableRecord
  2
*Paper_Space
 70
    0
280
    1
281
    0
  0
BLOCK_RECORD
  5
59
330
1
100
AcDbSymbolTableRecord
100
AcDbBlockTableRecord
  2
*D19
 70
    0
280
    1
281
    0
  0
BLOCK_RECORD
  5
5C
330
1
100
AcDbSymbolTableRecord
100
AcDbBlockTableRecord
  2
*D7
 70
    0
280
    1
281
    0
  0
BLOCK_RECORD
  5
5F
330
1
100
AcDbSymbolTableRecord
100
AcDbBlockTableRecord
  2
*D18
 70
    0
280
    1
281
    0
  0
BLOCK_RECORD
  5
62
330
1
100
AcDbSymbolTableRecord
100
AcDbBlockTableRecord
  2
*D34
 70
    0
280
    1
281
    0
  0
BLOCK_RECORD
  5
65
330
1
100
AcDbSymbolTableRecord
100
AcDbBlockTableRecord
  2
*D31
 70
    0
280
    1
281
    0
  0
BLOCK_RECORD
  5
68
330
1
100
AcDbSymbolTableRecord
100
AcDbBlockTableRecord
  2
*D17
 70
    0
280
    1
281
    0
  0
BLOCK_RECORD
  5
6B
330
1
100
AcDbSymbolTableRecord
100
AcDbBlockTableRecord
  2
*D30
 70
    0
280
    1
281
    0
  0
BLOCK_RECORD
  5
6E
330
1
100
AcDbSymbolTableRecord
100
AcDbBlockTableRecord
  2
*D11
 70
    0
280
    1
281
    0
  0
BLOCK_RECORD
  5
71
330
1
100
AcDbSymbolTableRecord
100
AcDbBlockTableRecord
  2
*D6
 70
    0
280
    1
281
    0
  0
BLOCK_RECORD
  5
74
330
1
100
AcDbSymbolTableRecord
100
AcDbBlockTableRecord
  2
*D16
 70
    0
280
    1
281
    0
  0
BLOCK_RECORD
  5
77
330
1
100
AcDbSymbolTableRecord
100
AcDbBlockTableRecord
  2
*D35
 70
    0
280
    1
281
    0
  0
BLOCK_RECORD
  5
7A
330
1
100
AcDbSymbolTableRecord
100
AcDbBlockTableRecord
  2
*D39
 70
    0
280
    1
281
    0
  0
BLOCK_RECORD
  5
7D
330
1
100
AcDbSymbolTableRecord
100
AcDbBlockTableRecord
  2
*D4
 70
    0
280
    1
281
    0
  0
BLOCK_RECORD
  5
80
330
1
100
AcDbSymbolTableRecord
100
AcDbBlockTableRecord
  2
*D21
 70
    0
280
    1
281
    0
  0
BLOCK_RECORD
  5
83
330
1
100
AcDbSymbolTableRecord
100
AcDbBlockTableRecord
  2
*D36
 70
    0
280
    1
281
    0
  0
BLOCK_RECORD
  5
86
330
1
100
AcDbSymbolTableRecord
100
AcDbBlockTableRecord
  2
*D14
 70
    0
280
    1
281
    0
  0
BLOCK_RECORD
  5
89
330
1
100
AcDbSymbolTableRecord
100
AcDbBlockTableRecord
  2
*D29
 70
    0
280
    1
281
    0
  0
BLOCK_RECORD
  5
8C
330
1
100
AcDbSymbolTableRecord
100
AcDbBlockTableRecord
  2
*D9
 70
    0
280
    1
281
    0
  0
BLOCK_RECORD
  5
8F
330
1
100
AcDbSymbolTableRecord
100
AcDbBlockTableRecord
  2
*D23
 70
    0
280
    1
281
    0
  0
BLOCK_RECORD
  5
92
330
1
100
AcDbSymbolTableRecord
100
AcDbBlockTableRecord
  2
*D32
 70
    0
280
    1
281
    0
  0
BLOCK_RECORD
  5
95
330
1
100
AcDbSymbolTableRecord
100
AcDbBlockTableRecord
  2
*D2
 70
    0
280
    1
281
    0
  0
BLOCK_RECORD
  5
98
330
1
100
AcDbSymbolTableRecord
100
AcDbBlockTableRecord
  2
*D12
 70
    0
280
    1
281
    0
  0
BLOCK_RECORD
  5
9B
330
1
100
AcDbSymbolTableRecord
100
AcDbBlockTableRecord
  2
*D27
 70
    0
280
    1
281
    0
  0
BLOCK_RECORD
  5
9E
330
1
100
AcDbSymbolTableRecord
100
AcDbBlockTableRecord
  2
*D20
 70
    0
280
    1
281
    0
  0
BLOCK_RECORD
  5
A1
330
1
100
AcDbSymbolTableRecord
100
AcDbBlockTableRecord
  2
*D1
 70
    0
280
    1
281
    0
  0
BLOCK_RECORD
  5
A4
330
1
100
AcDbSymbolTableRecord
100
AcDbBlockTableRecord
  2
*D3
 70
    0
280
    1
281
    0
  0
BLOCK_RECORD
  5
A7
330
1
100
AcDbSymbolTableRecord
100
AcDbBlockTableRecord
  2
*D15
 70
    0
280
    1
281
    0
  0
BLOCK_RECORD
  5
AA
330
1
100
AcDbSymbolTableRecord
100
AcDbBlockTableRecord
  2
*D40
 70
    0
280
    1
281
    0
  0
BLOCK_RECORD
  5
AD
330
1
100
AcDbSymbolTableRecord
100
AcDbBlockTableRecord
  2
*D22
 70
    0
280
    1
281
    0
  0
BLOCK_RECORD
  5
B0
330
1
100
AcDbSymbolTableRecord
100
AcDbBlockTableRecord
  2
*D26
 70
    0
280
    1
281
    0
  0
BLOCK_RECORD
  5
B3
330
1
100
AcDbSymbolTableRecord
100
AcDbBlockTableRecord
  2
*D38
 70
    0
280
    1
281
    0
  0
BLOCK_RECORD
  5
B6
330
1
100
AcDbSymbolTableRecord
100
AcDbBlockTableRecord
  2
*D24
 70
    0
280
    1
281
    0
  0
BLOCK_RECORD
  5
B9
330
1
100
AcDbSymbolTableRecord
100
AcDbBlockTableRecord
  2
*D5
 70
    0
280
    1
281
    0
  0
BLOCK_RECORD
  5
BC
330
1
100
AcDbSymbolTableRecord
100
AcDbBlockTableRecord
  2
*D13
 70
    0
280
    1
281
    0
  0
BLOCK_RECORD
  5
BF
330
1
100
AcDbSymbolTableRecord
100
AcDbBlockTableRecord
  2
*D8
 70
    0
280
    1
281
    0
  0
BLOCK_RECORD
  5
C2
330
1
100
AcDbSymbolTableRecord
100
AcDbBlockTableRecord
  2
*D25
 70
    0
280
    1
281
    0
  0
BLOCK_RECORD
  5
C5
330
1
100
AcDbSymbolTableRecord
100
AcDbBlockTableRecord
  2
*D28
 70
    0
280
    1
281
    0
  0
BLOCK_RECORD
  5
C8
330
1
100
AcDbSymbolTableRecord
100
AcDbBlockTableRecord
  2
*D33
 70
    0
280
    1
281
    0
  0
BLOCK_RECORD
  5
CB
330
1
100
AcDbSymbolTableRecord
100
AcDbBlockTableRecord
  2
*D10
 70
    0
280
    1
281
    0
  0
BLOCK_RECORD
  5
CE
330
1
100
AcDbSymbolTableRecord
100
AcDbBlockTableRecord
  2
*D37
 70
    0
280
    1
281
    0
  0
ENDTAB
  0
ENDSEC
  0
SECTION
  2
BLOCKS
  0
BLOCK
  5
20
330
1F
100
AcDbEntity
  8
0
100
AcDbBlockBegin
  2
*Model_Space
 70
    0
 10
0
 20
0
 30
0
  3
*Model_Space
  1

  0
ENDBLK
  5
21
330
1F
100
AcDbEntity
  8
0
100
AcDbBlockEnd
  0
BLOCK
  5
1C
330
1B
100
AcDbEntity
  8
0
100
AcDbBlockBegin
  2
*Paper_Space
 70
    0
 10
0
 20
0
 30
0
  3
*Paper_Space
  1

  0
ENDBLK
  5
1D
330
1F
100
AcDbEntity
  8
0
100
AcDbBlockEnd
  0
BLOCK
  5
5A
330
59
100
AcDbEntity
  8
0
100
AcDbBlockBegin
  2
*D19
 70
    1
 10
0
 20
0
  3
*D19
  1

  0
LINE
  5
D1
100
AcDbEntity
  8
dimenzije stepeniste
  6
ByBlock
 62
    0
370
   -2
100
AcDbLine
 10
-62.50000000000126
 20
-540.0000000000002
 11
-668.6150262915569
 21
-540.0000000000023
  0
LINE
  5
D2
100
AcDbEntity
  8
dimenzije stepeniste
  6
ByBlock
 62
    0
370
   -2
100
AcDbLine
 10
-62.50000000000015
 20
-810.0000000000002
 11
-668.6150262915558
 21
-810.0000000000023
  0
LINE
  5
D3
100
AcDbEntity
  8
dimenzije stepeniste
  6
ByBlock
 62
    0
370
   -2
100
AcDbLine
 10
-543.6150262915589
 20
-40.00000000000182
 11
-543.6150262915537
 21
-1310.000000000002
  0
SOLID
  5
D4
100
AcDbEntity
  8
dimenzije stepeniste
  6
ByBlock
 62
    0
370
   -2
100
AcDbTrace
 10
-543.6150262915569
 20
-540.0000000000018
 30
0
 11
-585.243492068842
 21
-290.000000000002
 31
0
 12
-501.9865605142739
 22
-290.0000000000016
 32
0
 13
-501.9865605142739
 23
-290.0000000000016
 33
0
  0
SOLID
  5
D5
100
AcDbEntity
  8
dimenzije stepeniste
  6
ByBlock
 62
    0
370
   -2
100
AcDbTrace
 10
-543.6150262915558
 20
-810.0000000000018
 30
0
 11
-501.9865605142706
 21
-1060.000000000002
 31
0
 12
-585.2434920688388
 22
-1060.000000000002
 32
0
 13
-585.2434920688388
 23
-1060.000000000002
 33
0
  0
MTEXT
  5
D6
100
AcDbEntity
  8
dimenzije stepeniste
  6
CONTINUOUS
 62
    0
370
   -2
100
AcDbMText
 10
-731.1150262915579
 20
-227.5000000000025
 30
0
 40
250
 41
500
 71
    5
 72
    1
  1
270
  7
standard
210
0
220
0
230
1
 50
90.0000000000002
 73
    2
 44
1
  0
ENDBLK
  5
5B
330
59
100
AcDbEntity
  8
0
100
AcDbBlockEnd
  0
BLOCK
  5
5D
330
5C
100
AcDbEntity
  8
0
100
AcDbBlockBegin
  2
*D7
 70
    1
 10
0
 20
0
  3
*D7
  1

  0
LINE
  5
D7
100
AcDbEntity
  8
dimenzije novo stanje
  6
ByBlock
 62
    0
370
   -2
100
AcDbLine
 10
9532.5
 20
0
 11
14125
 21
0
  0
LINE
  5
D8
100
AcDbEntity
  8
dimenzije novo stanje
  6
ByBlock
 62
    0
370
   -2
100
AcDbLine
 10
9532.5
 20
9469.999999999998
 11
14125
 21
9469.999999999998
  0
LINE
  5
D9
100
AcDbEntity
  8
dimenzije novo stanje
  6
ByBlock
 62
    0
370
   -2
100
AcDbLine
 10
14000
 20
0
 11
14000
 21
9469.999999999998
  0
SOLID
  5
DA
100
AcDbEntity
  8
dimenzije novo stanje
  6
ByBlock
 62
    0
370
   -2
100
AcDbTrace
 10
14000
 20
0
 30
0
 11
13958.37153422272
 21
250
 31
0
 12
14041.62846577728
 22
250
 32
0
 13
14041.62846577728
 23
250
 33
0
  0
SOLID
  5
DB
100
AcDbEntity
  8
dimenzije novo stanje
  6
ByBlock
 62
    0
370
   -2
100
AcDbTrace
 10
14000
 20
9469.999999999998
 30
0
 11
14041.62846577728
 21
9219.999999999998
 31
0
 12
13958.37153422272
 22
9219.999999999998
 32
0
 13
13958.37153422272
 23
9219.999999999998
 33
0
  0
MTEXT
  5
DC
100
AcDbEntity
  8
dimenzije novo stanje
  6
CONTINUOUS
 62
    0
370
   -2
100
AcDbMText
 10
13812.5
 20
4734.999999999999
 30
0
 40
250
 41
722.2222222222374
 71
    5
 72
    1
  1
9470
  7
standard
210
0
220
0
230
1
 50
90
 73
    2
 44
1
  0
ENDBLK
  5
5E
330
5C
100
AcDbEntity
  8
0
100
AcDbBlockEnd
  0
BLOCK
  5
60
330
5F
100
AcDbEntity
  8
0
100
AcDbBlockBegin
  2
*D18
 70
    1
 10
0
 20
0
  3
*D18
  1

  0
LINE
  5
DD
100
AcDbEntity
  8
dimenzije stepeniste
  6
ByBlock
 62
    0
370
   -2
100
AcDbLine
 10
-62.50000000000116
 20
7.654042494670958e-15
 11
-1118.003448025908
 21
1.369159344060631e-13
  0
LINE
  5
DE
100
AcDbEntity
  8
dimenzije stepeniste
  6
ByBlock
 62
    0
370
   -2
100
AcDbLine
 10
-62.50000000000131
 20
-810
 11
-1118.003448025908
 21
-809.9999999999999
  0
LINE
  5
DF
100
AcDbEntity
  8
dimenzije stepeniste
  6
ByBlock
 62
    0
370
   -2
100
AcDbLine
 10
-993.0034480259076
 20
1.216078494167211e-13
 11
-993.0034480259078
 21
-809.9999999999999
  0
SOLID
  5
E0
100
AcDbEntity
  8
dimenzije stepeniste
  6
ByBlock
 62
    0
370
   -2
100
AcDbTrace
 10
-993.0034480259076
 20
1.216078494167211e-13
 30
0
 11
-951.3749822486236
 21
-249.9999999999999
 31
0
 12
-1034.631913803192
 22
-249.9999999999999
 32
0
 13
-1034.631913803192
 23
-249.9999999999999
 33
0
  0
SOLID
  5
E1
100
AcDbEntity
  8
dimenzije stepeniste
  6
ByBlock
 62
    0
370
   -2
100
AcDbTrace
 10
-993.0034480259078
 20
-809.9999999999999
 30
0
 11
-1034.631913803192
 21
-559.9999999999999
 31
0
 12
-951.3749822486237
 22
-559.9999999999999
 32
0
 13
-951.3749822486237
 23
-559.9999999999999
 33
0
  0
MTEXT
  5
E2
100
AcDbEntity
  8
dimenzije stepeniste
  6
CONTINUOUS
 62
    0
370
   -2
100
AcDbMText
 10
-1180.503448025908
 20
-404.9999999999999
 30
0
 40
250
 41
444.4444444444445
 71
    5
 72
    1
  1
810
  7
standard
210
0
220
0
230
1
 50
90
 73
    2
 44
1
  0
ENDBLK
  5
61
330
5F
100
AcDbEntity
  8
0
100
AcDbBlockEnd
  0
BLOCK
  5
63
330
62
100
AcDbEntity
  8
0
100
AcDbBlockBegin
  2
*D34
 70
    1
 10
0
 20
0
  3
*D34
  1

  0
LINE
  5
E3
100
AcDbEntity
  8
dimenzije stepeniste
  6
ByBlock
 62
    0
370
   -2
100
AcDbLine
 10
37.49999999999973
 20
-69.99999999999999
 11
-1725
 21
-69.99999999999977
  0
LINE
  5
E4
100
AcDbEntity
  8
dimenzije stepeniste
  6
ByBlock
 62
    0
370
   -2
100
AcDbLine
 10
37.4999999999994
 20
1750
 11
-1725
 21
1750
  0
LINE
  5
E5
100
AcDbEntity
  8
dimenzije stepeniste
  6
ByBlock
 62
    0
370
   -2
100
AcDbLine
 10
-1600
 20
-69.99999999999979
 11
-1600
 21
1750
  0
SOLID
  5
E6
100
AcDbEntity
  8
dimenzije stepeniste
  6
ByBlock
 62
    0
370
   -2
100
AcDbTrace
 10
-1600
 20
-69.99999999999979
 30
0
 11
-1641.628465777284
 21
180.0000000000002
 31
0
 12
-1558.371534222715
 22
180.0000000000002
 32
0
 13
-1558.371534222715
 23
180.0000000000002
 33
0
  0
SOLID
  5
E7
100
AcDbEntity
  8
dimenzije stepeniste
  6
ByBlock
 62
    0
370
   -2
100
AcDbTrace
 10
-1600
 20
1750
 30
0
 11
-1558.371534222716
 21
1500
 31
0
 12
-1641.628465777284
 22
1500
 32
0
 13
-1641.628465777284
 23
1500
 33
0
  0
MTEXT
  5
E8
100
AcDbEntity
  8
dimenzije stepeniste
  6
CONTINUOUS
 62
    0
370
   -2
100
AcDbMText
 10
-1412.5
 20
840.0000000000002
 30
0
 40
250
 41
638.8888888888889
 71
    5
 72
    1
  1
1820
  7
standard
210
0
220
0
230
1
 50
270
 73
    2
 44
1
  0
ENDBLK
  5
64
330
62
100
AcDbEntity
  8
0
100
AcDbBlockEnd
  0
BLOCK
  5
66
330
65
100
AcDbEntity
  8
0
100
AcDbBlockBegin
  2
*D31
 70
    1
 10
0
 20
0
  3
*D31
  1

  0
LINE
  5
E9
100
AcDbEntity
  8
kontura
  6
ByBlock
 62
    0
370
   -2
100
AcDbLine
 10
-62.50000000000017
 20
-915
 11
-473.1680730196863
 21
-915
  0
LINE
  5
EA
100
AcDbEntity
  8
kontura
  6
ByBlock
 62
    0
370
   -2
100
AcDbLine
 10
-62.5000000000002
 20
-1080
 11
-473.1680730196863
 21
-1080
  0
LINE
  5
EB
100
AcDbEntity
  8
kontura
  6
ByBlock
 62
    0
370
   -2
100
AcDbLine
 10
-348.1680730196862
 20
-415
 11
-348.1680730196863
 21
-1580
  0
SOLID
  5
EC
100
AcDbEntity
  8
kontura
  6
ByBlock
 62
    0
370
   -2
100
AcDbTrace
 10
-348.1680730196863
 20
-915
 30
0
 11
-389.7965387969703
 21
-665
 31
0
 12
-306.5396072424022
 22
-665
 32
0
 13
-306.5396072424022
 23
-665
 33
0
  0
SOLID
  5
ED
100
AcDbEntity
  8
kontura
  6
ByBlock
 62
    0
370
   -2
100
AcDbTrace
 10
-348.1680730196863
 20
-1080
 30
0
 11
-306.5396072424023
 21
-1330
 31
0
 12
-389.7965387969704
 22
-1330
 32
0
 13
-389.7965387969704
 23
-1330
 33
0
  0
MTEXT
  5
EE
100
AcDbEntity
  8
kontura
  6
CONTINUOUS
 62
    0
370
   -2
100
AcDbMText
 10
-535.6680730196863
 20
-630.2777777777623
 30
0
 40
250
 41
444.4444444444755
 71
    5
 72
    1
  1
165
  7
standard
210
0
220
0
230
1
 50
90
 73
    2
 44
1
  0
ENDBLK
  5
67
330
65
100
AcDbEntity
  8
0
100
AcDbBlockEnd
  0
BLOCK
  5
69
330
68
100
AcDbEntity
  8
0
100
AcDbBlockBegin
  2
*D17
 70
    1
 10
0
 20
0
  3
*D17
  1

  0
LINE
  5
EF
100
AcDbEntity
  8
dimenzije novo stanje
  6
ByBlock
 62
    0
370
   -2
100
AcDbLine
 10
-7.340226752389447e-13
 20
2317.5
 11
-1.558312858418787e-12
 21
-2169.726759333087
  0
LINE
  5
F0
100
AcDbEntity
  8
dimenzije novo stanje
  6
ByBlock
 62
    0
370
   -2
100
AcDbLine
 10
4920
 20
2317.5
 11
4919.999999999999
 21
-2169.726759333087
  0
LINE
  5
F1
100
AcDbEntity
  8
dimenzije novo stanje
  6
ByBlock
 62
    0
370
   -2
100
AcDbLine
 10
-1.535350730934774e-12
 20
-2044.726759333087
 11
4919.999999999999
 21
-2044.726759333087
  0
SOLID
  5
F2
100
AcDbEntity
  8
dimenzije novo stanje
  6
ByBlock
 62
    0
370
   -2
100
AcDbTrace
 10
-1.535350730934774e-12
 20
-2044.726759333087
 30
0
 11
249.9999999999985
 21
-2003.098293555803
 31
0
 12
249.9999999999985
 22
-2086.355225110371
 32
0
 13
249.9999999999985
 23
-2086.355225110371
 33
0
  0
SOLID
  5
F3
100
AcDbEntity
  8
dimenzije novo stanje
  6
ByBlock
 62
    0
370
   -2
100
AcDbTrace
 10
4919.999999999999
 20
-2044.726759333087
 30
0
 11
4669.999999999999
 21
-2086.355225110371
 31
0
 12
4669.999999999999
 22
-2003.098293555803
 32
0
 13
4669.999999999999
 23
-2003.098293555803
 33
0
  0
MTEXT
  5
F4
100
AcDbEntity
  8
dimenzije novo stanje
  6
CONTINUOUS
 62
    0
370
   -2
100
AcDbMText
 10
2459.999999999999
 20
-1857.226759333087
 30
0
 40
250
 41
722.2222222222222
 71
    5
 72
    1
  1
4920
  7
standard
210
0
220
0
230
1
 50
0
 73
    2
 44
1
  0
ENDBLK
  5
6A
330
68
100
AcDbEntity
  8
0
100
AcDbBlockEnd
  0
BLOCK
  5
6C
330
6B
100
AcDbEntity
  8
0
100
AcDbBlockBegin
  2
*D30
 70
    1
 10
0
 20
0
  3
*D30
  1

  0
LINE
  5
F5
100
AcDbEntity
  8
dimenzije stepeniste
  6
ByBlock
 62
    0
370
   -2
100
AcDbLine
 10
6062.5
 20
-1080
 11
8565.296626326839
 21
-1080
  0
LINE
  5
F6
100
AcDbEntity
  8
dimenzije stepeniste
  6
ByBlock
 62
    0
370
   -2
100
AcDbLine
 10
6062.5
 20
1940
 11
8565.296626326839
 21
1940
  0
LINE
  5
F7
100
AcDbEntity
  8
dimenzije stepeniste
  6
ByBlock
 62
    0
370
   -2
100
AcDbLine
 10
8440.296626326839
 20
-1080
 11
8440.296626326839
 21
1940
  0
SOLID
  5
F8
100
AcDbEntity
  8
dimenzije stepeniste
  6
ByBlock
 62
    0
370
   -2
100
AcDbTrace
 10
8440.296626326839
 20
-1080
 30
0
 11
8398.668160549554
 21
-830
 31
0
 12
8481.925092104124
 22
-830
 32
0
 13
8481.925092104124
 23
-830
 33
0
  0
SOLID
  5
F9
100
AcDbEntity
  8
dimenzije stepeniste
  6
ByBlock
 62
    0
370
   -2
100
AcDbTrace
 10
8440.296626326839
 20
1940
 30
0
 11
8481.925092104124
 21
1690
 31
0
 12
8398.668160549554
 22
1690
 32
0
 13
8398.668160549554
 23
1690
 33
0
  0
MTEXT
  5
FA
100
AcDbEntity
  8
dimenzije stepeniste
  6
CONTINUOUS
 62
    0
370
   -2
100
AcDbMText
 10
8252.796626326839
 20
430
 30
0
 40
250
 41
694.44444444446
 71
    5
 72
    1
  1
3020
  7
standard
210
0
220
0
230
1
 50
90
 73
    2
 44
1
  0
ENDBLK
  5
6D
330
6B
100
AcDbEntity
  8
0
100
AcDbBlockEnd
  0
BLOCK
  5
6F
330
6E
100
AcDbEntity
  8
0
100
AcDbBlockBegin
  2
*D11
 70
    1
 10
0
 20
0
  3
*D11
  1

  0
LINE
  5
FB
100
AcDbEntity
  8
dimenzije novo stanje
  6
ByBlock
 62
    0
370
   -2
100
AcDbLine
 10
-62.50000000000072
 20
2380
 11
-3125.000000000002
 21
2380
  0
LINE
  5
FC
100
AcDbEntity
  8
dimenzije novo stanje
  6
ByBlock
 62
    0
370
   -2
100
AcDbLine
 10
-62.5
 20
7.654042494670958e-15
 11
-3125.000000000001
 21
3.82702124733548e-13
  0
LINE
  5
FD
100
AcDbEntity
  8
dimenzije novo stanje
  6
ByBlock
 62
    0
370
   -2
100
AcDbLine
 10
-3000.000000000002
 20
2380
 11
-3000.000000000001
 21
3.673940397442061e-13
  0
SOLID
  5
FE
100
AcDbEntity
  8
dimenzije novo stanje
  6
ByBlock
 62
    0
370
   -2
100
AcDbTrace
 10
-3000.000000000002
 20
2380
 30
0
 11
-2958.371534222718
 21
2130
 31
0
 12
-3041.628465777286
 22
2130
 32
0
 13
-3041.628465777286
 23
2130
 33
0
  0
SOLID
  5
FF
100
AcDbEntity
  8
dimenzije novo stanje
  6
ByBlock
 62
    0
370
   -2
100
AcDbTrace
 10
-3000.000000000001
 20
3.673940397442061e-13
 30
0
 11
-3041.628465777285
 21
250.0000000000004
 31
0
 12
-2958.371534222717
 22
250.0000000000004
 32
0
 13
-2958.371534222717
 23
250.0000000000004
 33
0
  0
MTEXT
  5
100
100
AcDbEntity
  8
dimenzije novo stanje
  6
CONTINUOUS
 62
    0
370
   -2
100
AcDbMText
 10
-3187.500000000001
 20
1190
 30
0
 40
250
 41
694.44444444446
 71
    5
 72
    1
  1
2380
  7
standard
210
0
220
0
230
1
 50
90
 73
    2
 44
1
  0
ENDBLK
  5
70
330
6E
100
AcDbEntity
  8
0
100
AcDbBlockEnd
  0
BLOCK
  5
72
330
71
100
AcDbEntity
  8
0
100
AcDbBlockBegin
  2
*D6
 70
    1
 10
0
 20
0
  3
*D6
  1

  0
LINE
  5
101
100
AcDbEntity
  8
dimenzije postojece stanje
  6
ByBlock
 62
    0
370
   -2
100
AcDbLine
 10
-62.5
 20
4980
 11
-4125
 21
4980.000000000001
  0
LINE
  5
102
100
AcDbEntity
  8
dimenzije postojece stanje
  6
ByBlock
 62
    0
370
   -2
100
AcDbLine
 10
-62.5
 20
9470.000000000002
 11
-4125
 21
9470.000000000002
  0
LINE
  5
103
100
AcDbEntity
  8
dimenzije postojece stanje
  6
ByBlock
 62
    0
370
   -2
100
AcDbLine
 10
-4000
 20
4980.000000000001
 11
-4000
 21
9470.000000000002
  0
SOLID
  5
104
100
AcDbEntity
  8
dimenzije postojece stanje
  6
ByBlock
 62
    0
370
   -2
100
AcDbTrace
 10
-4000
 20
4980.000000000001
 30
0
 11
-4041.628465777284
 21
5230.000000000001
 31
0
 12
-3958.371534222716
 22
5230.000000000001
 32
0
 13
-3958.371534222716
 23
5230.000000000001
 33
0
  0
SOLID
  5
105
100
AcDbEntity
  8
dimenzije postojece stanje
  6
ByBlock
 62
    0
370
   -2
100
AcDbTrace
 10
-4000
 20
9470.000000000002
 30
0
 11
-3958.371534222716
 21
9220.000000000002
 31
0
 12
-4041.628465777284
 22
9220.000000000002
 32
0
 13
-4041.628465777284
 23
9220.000000000002
 33
0
  0
MTEXT
  5
106
100
AcDbEntity
  8
dimenzije postojece stanje
  6
CONTINUOUS
 62
    0
370
   -2
100
AcDbMText
 10
-4187.5
 20
7225.000000000002
 30
0
 40
250
 41
750
 71
    5
 72
    1
  1
4490
  7
standard
210
0
220
0
230
1
 50
90
 73
    2
 44
1
  0
ENDBLK
  5
73
330
71
100
AcDbEntity
  8
0
100
AcDbBlockEnd
  0
BLOCK
  5
75
330
74
100
AcDbEntity
  8
0
100
AcDbBlockBegin
  2
*D16
 70
    1
 10
0
 20
0
  3
*D16
  1

  0
LINE
  5
107
100
AcDbEntity
  8
dimenzije novo stanje
  6
ByBlock
 62
    0
370
   -2
100
AcDbLine
 10
-62.5
 20
5865
 11
-1602.855182075668
 21
5865
  0
LINE
  5
108
100
AcDbEntity
  8
dimenzije novo stanje
  6
ByBlock
 62
    0
370
   -2
100
AcDbLine
 10
-62.50000000000068
 20
2520
 11
-1602.855182075669
 21
2520
  0
LINE
  5
109
100
AcDbEntity
  8
dimenzije novo stanje
  6
ByBlock
 62
    0
370
   -2
100
AcDbLine
 10
-1477.855182075668
 20
5865
 11
-1477.855182075669
 21
2520
  0
SOLID
  5
10A
100
AcDbEntity
  8
dimenzije novo stanje
  6
ByBlock
 62
    0
370
   -2
100
AcDbTrace
 10
-1477.855182075668
 20
5865
 30
0
 11
-1436.226716298384
 21
5615
 31
0
 12
-1519.483647852953
 22
5615
 32
0
 13
-1519.483647852953
 23
5615
 33
0
  0
SOLID
  5
10B
100
AcDbEntity
  8
dimenzije novo stanje
  6
ByBlock
 62
    0
370
   -2
100
AcDbTrace
 10
-1477.855182075669
 20
2520
 30
0
 11
-1519.483647852953
 21
2770
 31
0
 12
-1436.226716298385
 22
2770
 32
0
 13
-1436.226716298385
 23
2770
 33
0
  0
MTEXT
  5
10C
100
AcDbEntity
  8
dimenzije novo stanje
  6
CONTINUOUS
 62
    0
370
   -2
100
AcDbMText
 10
-1665.355182075669
 20
4192.5
 30
0
 40
250
 41
722.2222222222683
 71
    5
 72
    1
  1
3345
  7
standard
210
0
220
0
230
1
 50
90
 73
    2
 44
1
  0
ENDBLK
  5
76
330
74
100
AcDbEntity
  8
0
100
AcDbBlockEnd
  0
BLOCK
  5
78
330
77
100
AcDbEntity
  8
0
100
AcDbBlockBegin
  2
*D35
 70
    1
 10
0
 20
0
  3
*D35
  1

  0
LINE
  5
10D
100
AcDbEntity
  8
dimenzije stepeniste
  6
ByBlock
 62
    0
370
   -2
100
AcDbLine
 10
99.9999999999994
 20
1812.5
 11
99.99999999999949
 21
2925
  0
LINE
  5
10E
100
AcDbEntity
  8
dimenzije stepeniste
  6
ByBlock
 62
    0
370
   -2
100
AcDbLine
 10
1139.999999999999
 20
1812.5
 11
1139.999999999999
 21
2925
  0
LINE
  5
10F
100
AcDbEntity
  8
dimenzije stepeniste
  6
ByBlock
 62
    0
370
   -2
100
AcDbLine
 10
99.99999999999947
 20
2800
 11
1139.999999999999
 21
2800
  0
SOLID
  5
110
100
AcDbEntity
  8
dimenzije stepeniste
  6
ByBlock
 62
    0
370
   -2
100
AcDbTrace
 10
99.99999999999947
 20
2800
 30
0
 11
349.9999999999995
 21
2841.628465777284
 31
0
 12
349.9999999999995
 22
2758.371534222716
 32
0
 13
349.9999999999995
 23
2758.371534222716
 33
0
  0
SOLID
  5
111
100
AcDbEntity
  8
dimenzije stepeniste
  6
ByBlock
 62
    0
370
   -2
100
AcDbTrace
 10
1139.999999999999
 20
2800
 30
0
 11
889.9999999999991
 21
2758.371534222716
 31
0
 12
889.9999999999991
 22
2841.628465777284
 32
0
 13
889.9999999999991
 23
2841.628465777284
 33
0
  0
MTEXT
  5
112
100
AcDbEntity
  8
dimenzije stepeniste
  6
CONTINUOUS
 62
    0
370
   -2
100
AcDbMText
 10
619.9999999999994
 20
2987.5
 30
0
 40
250
 41
666.6666666666667
 71
    5
 72
    1
  1
1040
  7
standard
210
0
220
0
230
1
 50
0
 73
    2
 44
1
  0
ENDBLK
  5
79
330
77
100
AcDbEntity
  8
0
100
AcDbBlockEnd
  0
BLOCK
  5
7B
330
7A
100
AcDbEntity
  8
0
100
AcDbBlockBegin
  2
*D39
 70
    1
 10
0
 20
0
  3
*D39
  1

  0
LINE
  5
113
100
AcDbEntity
  8
dimenzije krov
  6
ByBlock
 62
    0
370
   -2
100
AcDbLine
 10
-1692.5
 20
11100
 11
-4125
 21
11100
  0
LINE
  5
114
100
AcDbEntity
  8
dimenzije krov
  6
ByBlock
 62
    0
370
   -2
100
AcDbLine
 10
-1692.5
 20
-1630
 11
-4125
 21
-1630
  0
LINE
  5
115
100
AcDbEntity
  8
dimenzije krov
  6
ByBlock
 62
    0
370
   -2
100
AcDbLine
 10
-4000
 20
11100
 11
-4000
 21
-1630
  0
SOLID
  5
116
100
AcDbEntity
  8
dimenzije krov
  6
ByBlock
 62
    0
370
   -2
100
AcDbTrace
 10
-4000
 20
11100
 30
0
 11
-3958.371534222716
 21
10850
 31
0
 12
-4041.628465777284
 22
10850
 32
0
 13
-4041.628465777284
 23
10850
 33
0
  0
SOLID
  5
117
100
AcDbEntity
  8
dimenzije krov
  6
ByBlock
 62
    0
370
   -2
100
AcDbTrace
 10
-4000
 20
-1630
 30
0
 11
-4041.628465777284
 21
-1380
 31
0
 12
-3958.371534222716
 22
-1380
 32
0
 13
-3958.371534222716
 23
-1380
 33
0
  0
MTEXT
  5
118
100
AcDbEntity
  8
dimenzije krov
  6
CONTINUOUS
 62
    0
370
   -2
100
AcDbMText
 10
-4187.5
 20
4734.999999999999
 30
0
 40
250
 41
833.3333333333489
 71
    5
 72
    1
  1
12730
  7
standard
210
0
220
0
230
1
 50
90
 73
    2
 44
1
  0
ENDBLK
  5
7C
330
7A
100
AcDbEntity
  8
0
100
AcDbBlockEnd
  0
BLOCK
  5
7E
330
7D
100
AcDbEntity
  8
0
100
AcDbBlockBegin
  2
*D4
 70
    1
 10
0
 20
0
  3
*D4
  1

  0
LINE
  5
119
100
AcDbEntity
  8
dimenzije postojece stanje
  6
ByBlock
 62
    0
370
   -2
100
AcDbLine
 10
990
 20
2717.5
 11
989.9999999999991
 21
-2125
  0
LINE
  5
11A
100
AcDbEntity
  8
dimenzije postojece stanje
  6
ByBlock
 62
    0
370
   -2
100
AcDbLine
 10
4920
 20
2717.5
 11
4919.999999999999
 21
-2125
  0
LINE
  5
11B
100
AcDbEntity
  8
dimenzije postojece stanje
  6
ByBlock
 62
    0
370
   -2
100
AcDbLine
 10
989.9999999999991
 20
-2000
 11
4919.999999999999
 21
-2000
  0
SOLID
  5
11C
100
AcDbEntity
  8
dimenzije postojece stanje
  6
ByBlock
 62
    0
370
   -2
100
AcDbTrace
 10
989.9999999999991
 20
-2000
 30
0
 11
1239.999999999999
 21
-1958.371534222716
 31
0
 12
1239.999999999999
 22
-2041.628465777284
 32
0
 13
1239.999999999999
 23
-2041.628465777284
 33
0
  0
SOLID
  5
11D
100
AcDbEntity
  8
dimenzije postojece stanje
  6
ByBlock
 62
    0
370
   -2
100
AcDbTrace
 10
4919.999999999999
 20
-2000
 30
0
 11
4669.999999999999
 21
-2041.628465777284
 31
0
 12
4669.999999999999
 22
-1958.371534222716
 32
0
 13
4669.999999999999
 23
-1958.371534222716
 33
0
  0
MTEXT
  5
11E
100
AcDbEntity
  8
dimenzije postojece stanje
  6
CONTINUOUS
 62
    0
370
   -2
100
AcDbMText
 10
2954.999999999999
 20
-1812.5
 30
0
 40
250
 41
694.4444444444755
 71
    5
 72
    1
  1
3930
  7
standard
210
0
220
0
230
1
 50
0
 73
    2
 44
1
  0
ENDBLK
  5
7F
330
7D
100
AcDbEntity
  8
0
100
AcDbBlockEnd
  0
BLOCK
  5
81
330
80
100
AcDbEntity
  8
0
100
AcDbBlockBegin
  2
*D21
 70
    1
 10
0
 20
0
  3
*D21
  1

  0
LINE
  5
11F
100
AcDbEntity
  8
dimenzije stepeniste
  6
ByBlock
 62
    0
370
   -2
100
AcDbLine
 10
-1.10677454472942e-13
 20
-602.5
 11
-5.474657454098083e-13
 21
-2980.264708654367
  0
LINE
  5
120
100
AcDbEntity
  8
dimenzije stepeniste
  6
ByBlock
 62
    0
370
   -2
100
AcDbLine
 10
5460
 20
-602.5000000000001
 11
5460
 21
-2980.264708654367
  0
LINE
  5
121
100
AcDbEntity
  8
dimenzije stepeniste
  6
ByBlock
 62
    0
370
   -2
100
AcDbLine
 10
-5.245036179257955e-13
 20
-2855.264708654367
 11
5460
 21
-2855.264708654367
  0
SOLID
  5
122
100
AcDbEntity
  8
dimenzije stepeniste
  6
ByBlock
 62
    0
370
   -2
100
AcDbTrace
 10
-5.245036179257955e-13
 20
-2855.264708654367
 30
0
 11
249.9999999999995
 21
-2813.636242877083
 31
0
 12
249.9999999999995
 22
-2896.893174431651
 32
0
 13
249.9999999999995
 23
-2896.893174431651
 33
0
  0
SOLID
  5
123
100
AcDbEntity
  8
dimenzije stepeniste
  6
ByBlock
 62
    0
370
   -2
100
AcDbTrace
 10
5460
 20
-2855.264708654367
 30
0
 11
5210
 21
-2896.893174431651
 31
0
 12
5210
 22
-2813.636242877083
 32
0
 13
5210
 23
-2813.636242877083
 33
0
  0
MTEXT
  5
124
100
AcDbEntity
  8
dimenzije stepeniste
  6
CONTINUOUS
 62
    0
370
   -2
100
AcDbMText
 10
2730
 20
-2667.764708654367
 30
0
 40
250
 41
722.2222222222532
 71
    5
 72
    1
  1
5460
  7
standard
210
0
220
0
230
1
 50
0
 73
    2
 44
1
  0
ENDBLK
  5
82
330
80
100
AcDbEntity
  8
0
100
AcDbBlockEnd
  0
BLOCK
  5
84
330
83
100
AcDbEntity
  8
0
100
AcDbBlockBegin
  2
*D36
 70
    1
 10
0
 20
0
  3
*D36
  1

  0
LINE
  5
125
100
AcDbEntity
  8
dimenzije postojece stanje
  6
ByBlock
 62
    0
370
   -2
100
AcDbLine
 10
3590
 20
9532.5
 11
3590
 21
10325
  0
LINE
  5
126
100
AcDbEntity
  8
dimenzije postojece stanje
  6
ByBlock
 62
    0
370
   -2
100
AcDbLine
 10
4920
 20
9532.5
 11
4920
 21
10325
  0
LINE
  5
127
100
AcDbEntity
  8
dimenzije postojece stanje
  6
ByBlock
 62
    0
370
   -2
100
AcDbLine
 10
3590
 20
10200
 11
4920
 21
10200
  0
SOLID
  5
128
100
AcDbEntity
  8
dimenzije postojece stanje
  6
ByBlock
 62
    0
370
   -2
100
AcDbTrace
 10
3590
 20
10200
 30
0
 11
3840
 21
10241.62846577728
 31
0
 12
3840
 22
10158.37153422272
 32
0
 13
3840
 23
10158.37153422272
 33
0
  0
SOLID
  5
129
100
AcDbEntity
  8
dimenzije postojece stanje
  6
ByBlock
 62
    0
370
   -2
100
AcDbTrace
 10
4920
 20
10200
 30
0
 11
4670
 21
10158.37153422272
 31
0
 12
4670
 22
10241.62846577728
 32
0
 13
4670
 23
10241.62846577728
 33
0
  0
MTEXT
  5
12A
100
AcDbEntity
  8
dimenzije postojece stanje
  6
CONTINUOUS
 62
    0
370
   -2
100
AcDbMText
 10
4255
 20
10387.5
 30
0
 40
250
 41
638.8888888889198
 71
    5
 72
    1
  1
1330
  7
standard
210
0
220
0
230
1
 50
0
 73
    2
 44
1
  0
ENDBLK
  5
85
330
83
100
AcDbEntity
  8
0
100
AcDbBlockEnd
  0
BLOCK
  5
87
330
86
100
AcDbEntity
  8
0
100
AcDbBlockBegin
  2
*D14
 70
    1
 10
0
 20
0
  3
*D14
  1

  0
LINE
  5
12B
100
AcDbEntity
  8
dimenzije novo stanje
  6
ByBlock
 62
    0
370
   -2
100
AcDbLine
 10
-62.50000000000068
 20
2520
 11
-2125.000000000001
 21
2520
  0
LINE
  5
12C
100
AcDbEntity
  8
dimenzije novo stanje
  6
ByBlock
 62
    0
370
   -2
100
AcDbLine
 10
-62.5
 20
9330
 11
-2125
 21
9330
  0
LINE
  5
12D
100
AcDbEntity
  8
dimenzije novo stanje
  6
ByBlock
 62
    0
370
   -2
100
AcDbLine
 10
-2000.000000000001
 20
2520
 11
-2000
 21
9330
  0
SOLID
  5
12E
100
AcDbEntity
  8
dimenzije novo stanje
  6
ByBlock
 62
    0
370
   -2
100
AcDbTrace
 10
-2000.000000000001
 20
2520
 30
0
 11
-2041.628465777285
 21
2770
 31
0
 12
-1958.371534222716
 22
2770
 32
0
 13
-1958.371534222716
 23
2770
 33
0
  0
SOLID
  5
12F
100
AcDbEntity
  8
dimenzije novo stanje
  6
ByBlock
 62
    0
370
   -2
100
AcDbTrace
 10
-2000
 20
9330
 30
0
 11
-1958.371534222716
 21
9080
 31
0
 12
-2041.628465777284
 22
9080
 32
0
 13
-2041.628465777284
 23
9080
 33
0
  0
MTEXT
  5
130
100
AcDbEntity
  8
dimenzije novo stanje
  6
CONTINUOUS
 62
    0
370
   -2
100
AcDbMText
 10
-2187.5
 20
5925
 30
0
 40
250
 41
638.8888888889044
 71
    5
 72
    1
  1
6810
  7
standard
210
0
220
0
230
1
 50
90
 73
    2
 44
1
  0
ENDBLK
  5
88
330
86
100
AcDbEntity
  8
0
100
AcDbBlockEnd
  0
BLOCK
  5
8A
330
89
100
AcDbEntity
  8
0
100
AcDbBlockBegin
  2
*D29
 70
    1
 10
0
 20
0
  3
*D29
  1

  0
LINE
  5
131
100
AcDbEntity
  8
dimenzije stepeniste
  6
ByBlock
 62
    0
370
   -2
100
AcDbLine
 10
-2.098738452038776e-13
 20
-1142.5
 11
-7.255862983719908e-13
 21
-3949.907836704005
  0
LINE
  5
132
100
AcDbEntity
  8
dimenzije stepeniste
  6
ByBlock
 62
    0
370
   -2
100
AcDbLine
 10
6000
 20
-1142.5
 11
5999.999999999999
 21
-3949.907836704005
  0
LINE
  5
133
100
AcDbEntity
  8
dimenzije stepeniste
  6
ByBlock
 62
    0
370
   -2
100
AcDbLine
 10
-7.02624170887978e-13
 20
-3824.907836704005
 11
5999.999999999999
 21
-3824.907836704005
  0
SOLID
  5
134
100
AcDbEntity
  8
dimenzije stepeniste
  6
ByBlock
 62
    0
370
   -2
100
AcDbTrace
 10
-7.02624170887978e-13
 20
-3824.907836704005
 30
0
 11
249.9999999999993
 21
-3783.279370926721
 31
0
 12
249.9999999999993
 22
-3866.536302481289
 32
0
 13
249.9999999999993
 23
-3866.536302481289
 33
0
  0
SOLID
  5
135
100
AcDbEntity
  8
dimenzije stepeniste
  6
ByBlock
 62
    0
370
   -2
100
AcDbTrace
 10
5999.999999999999
 20
-3824.907836704005
 30
0
 11
5749.999999999999
 21
-3866.536302481289
 31
0
 12
5749.999999999999
 22
-3783.279370926721
 32
0
 13
5749.999999999999
 23
-3783.279370926721
 33
0
  0
MTEXT
  5
136
100
AcDbEntity
  8
dimenzije stepeniste
  6
CONTINUOUS
 62
    0
370
   -2
100
AcDbMText
 10
2999.999999999999
 20
-3637.407836704005
 30
0
 40
250
 41
694.44444444446
 71
    5
 72
    1
  1
6000
  7
standard
210
0
220
0
230
1
 50
0
 73
    2
 44
1
  0
ENDBLK
  5
8B
330
89
100
AcDbEntity
  8
0
100
AcDbBlockEnd
  0
BLOCK
  5
8D
330
8C
100
AcDbEntity
  8
0
100
AcDbBlockBegin
  2
*D9
 70
    1
 10
0
 20
0
  3
*D9
  1

  0
LINE
  5
137
100
AcDbEntity
  8
dimenzije novo stanje
  6
ByBlock
 62
    0
370
   -2
100
AcDbLine
 10
-62.50000000000092
 20
7.654042494670958e-15
 11
-5125.000000000001
 21
6.276314845630186e-13
  0
LINE
  5
138
100
AcDbEntity
  8
dimenzije novo stanje
  6
ByBlock
 62
    0
370
   -2
100
AcDbLine
 10
-62.5
 20
9470.000000000002
 11
-5125
 21
9470.000000000002
  0
LINE
  5
139
100
AcDbEntity
  8
dimenzije novo stanje
  6
ByBlock
 62
    0
370
   -2
100
AcDbLine
 10
-5000.000000000001
 20
6.123233995736766e-13
 11
-5000
 21
9470.000000000002
  0
SOLID
  5
13A
100
AcDbEntity
  8
dimenzije novo stanje
  6
ByBlock
 62
    0
370
   -2
100
AcDbTrace
 10
-5000.000000000001
 20
6.123233995736766e-13
 30
0
 11
-5041.628465777285
 21
250.0000000000006
 31
0
 12
-4958.371534222717
 22
250.0000000000006
 32
0
 13
-4958.371534222717
 23
250.0000000000006
 33
0
  0
SOLID
  5
13B
100
AcDbEntity
  8
dimenzije novo stanje
  6
ByBlock
 62
    0
370
   -2
100
AcDbTrace
 10
-5000
 20
9470.000000000002
 30
0
 11
-4958.371534222716
 21
9220.000000000002
 31
0
 12
-5041.628465777284
 22
9220.000000000002
 32
0
 13
-5041.628465777284
 23
9220.000000000002
 33
0
  0
MTEXT
  5
13C
100
AcDbEntity
  8
dimenzije novo stanje
  6
CONTINUOUS
 62
    0
370
   -2
100
AcDbMText
 10
-5187.5
 20
4735.000000000001
 30
0
 40
250
 41
722.2222222222374
 71
    5
 72
    1
  1
9470
  7
standard
210
0
220
0
230
1
 50
90
 73
    2
 44
1
  0
ENDBLK
  5
8E
330
8C
100
AcDbEntity
  8
0
100
AcDbBlockEnd
  0
BLOCK
  5
90
330
8F
100
AcDbEntity
  8
0
100
AcDbBlockBegin
  2
*D23
 70
    1
 10
0
 20
0
  3
*D23
  1

  0
LINE
  5
13D
100
AcDbEntity
  8
dimenzije stepeniste
  6
ByBlock
 62
    0
370
   -2
100
AcDbLine
 10
4982.5
 20
0
 11
6517.383676091868
 21
0
  0
LINE
  5
13E
100
AcDbEntity
  8
dimenzije stepeniste
  6
ByBlock
 62
    0
370
   -2
100
AcDbLine
 10
4982.5
 20
1940
 11
6517.383676091868
 21
1940
  0
LINE
  5
13F
100
AcDbEntity
  8
dimenzije stepeniste
  6
ByBlock
 62
    0
370
   -2
100
AcDbLine
 10
6392.383676091868
 20
0
 11
6392.383676091868
 21
1940
  0
SOLID
  5
140
100
AcDbEntity
  8
dimenzije stepeniste
  6
ByBlock
 62
    0
370
   -2
100
AcDbTrace
 10
6392.383676091868
 20
0
 30
0
 11
6350.755210314584
 21
250
 31
0
 12
6434.012141869152
 22
250
 32
0
 13
6434.012141869152
 23
250
 33
0
  0
SOLID
  5
141
100
AcDbEntity
  8
dimenzije stepeniste
  6
ByBlock
 62
    0
370
   -2
100
AcDbTrace
 10
6392.383676091868
 20
1940
 30
0
 11
6434.012141869152
 21
1690
 31
0
 12
6350.755210314584
 22
1690
 32
0
 13
6350.755210314584
 23
1690
 33
0
  0
MTEXT
  5
142
100
AcDbEntity
  8
dimenzije stepeniste
  6
CONTINUOUS
 62
    0
370
   -2
100
AcDbMText
 10
6204.883676091868
 20
970
 30
0
 40
250
 41
666.6666666666667
 71
    5
 72
    1
  1
1940
  7
standard
210
0
220
0
230
1
 50
90
 73
    2
 44
1
  0
ENDBLK
  5
91
330
8F
100
AcDbEntity
  8
0
100
AcDbBlockEnd
  0
BLOCK
  5
93
330
92
100
AcDbEntity
  8
0
100
AcDbBlockBegin
  2
*D32
 70
    1
 10
0
 20
0
  3
*D32
  1

  0
LINE
  5
143
100
AcDbEntity
  8
temelj
  6
ByBlock
 62
    0
370
   -2
100
AcDbLine
 10
5252.5
 20
-270.0000000000001
 11
5315
 21
-270.0000000000001
  0
LINE
  5
144
100
AcDbEntity
  8
temelj
  6
ByBlock
 62
    0
370
   -2
100
AcDbLine
 10
6062.5
 20
-1080
 11
6125
 21
-1080
  0
LINE
  5
145
100
AcDbEntity
  8
temelj
  6
ByBlock
 62
    0
370
   -2
100
AcDbLine
 10
5190
 20
-270.0000000000001
 11
6000
 21
-1080
  0
SOLID
  5
146
100
AcDbEntity
  8
temelj
  6
ByBlock
 62
    0
370
   -2
100
AcDbTrace
 10
5190
 20
-270.0000000000001
 30
0
 11
5396.212465738146
 21
-417.3409248551274
 31
0
 12
5337.340924855127
 22
-476.2124657381466
 32
0
 13
5337.340924855127
 23
-476.2124657381466
 33
0
  0
SOLID
  5
147
100
AcDbEntity
  8
temelj
  6
ByBlock
 62
    0
370
   -2
100
AcDbTrace
 10
6000
 20
-1080
 30
0
 11
5793.787534261854
 21
-932.6590751448728
 31
0
 12
5852.659075144873
 22
-873.7875342618534
 32
0
 13
5852.659075144873
 23
-873.7875342618534
 33
0
  0
MTEXT
  5
148
100
AcDbEntity
  8
temelj
  6
CONTINUOUS
 62
    0
370
   -2
100
AcDbMText
 10
5727.582521472477
 20
-542.4174785275226
 30
0
 40
250
 41
1041.666666666698
 71
    5
 72
    1
  1
1145,51
  7
standard
210
0
220
0
230
1
 50
315
 73
    2
 44
1
  0
ENDBLK
  5
94
330
92
100
AcDbEntity
  8
0
100
AcDbBlockEnd
  0
BLOCK
  5
96
330
95
100
AcDbEntity
  8
0
100
AcDbBlockBegin
  2
*D2
 70
    1
 10
0
 20
0
  3
*D2
  1

  0
LINE
  5
149
100
AcDbEntity
  8
dimenzije postojece stanje
  6
ByBlock
 62
    0
370
   -2
100
AcDbLine
 10
9532.499999999998
 20
1940
 11
13125
 21
1940
  0
LINE
  5
14A
100
AcDbEntity
  8
dimenzije postojece stanje
  6
ByBlock
 62
    0
370
   -2
100
AcDbLine
 10
9532.5
 20
9470
 11
13125
 21
9470
  0
LINE
  5
14B
100
AcDbEntity
  8
dimenzije postojece stanje
  6
ByBlock
 62
    0
370
   -2
100
AcDbLine
 10
13000
 20
1940
 11
13000
 21
9470
  0
SOLID
  5
14C
100
AcDbEntity
  8
dimenzije postojece stanje
  6
ByBlock
 62
    0
370
   -2
100
AcDbTrace
 10
13000
 20
1940
 30
0
 11
12958.37153422271
 21
2190
 31
0
 12
13041.62846577728
 22
2190
 32
0
 13
13041.62846577728
 23
2190
 33
0
  0
SOLID
  5
14D
100
AcDbEntity
  8
dimenzije postojece stanje
  6
ByBlock
 62
    0
370
   -2
100
AcDbTrace
 10
13000
 20
9470
 30
0
 11
13041.62846577728
 21
9220
 31
0
 12
12958.37153422272
 22
9220
 32
0
 13
12958.37153422272
 23
9220
 33
0
  0
MTEXT
  5
14E
100
AcDbEntity
  8
dimenzije postojece stanje
  6
CONTINUOUS
 62
    0
370
   -2
100
AcDbMText
 10
12812.5
 20
5705
 30
0
 40
250
 41
694.4444444444755
 71
    5
 72
    1
  1
7530
  7
standard
210
0
220
0
230
1
 50
89.99999999999999
 73
    2
 44
1
  0
ENDBLK
  5
97
330
95
100
AcDbEntity
  8
0
100
AcDbBlockEnd
  0
BLOCK
  5
99
330
98
100
AcDbEntity
  8
0
100
AcDbBlockBegin
  2
*D12
 70
    1
 10
0
 20
0
  3
*D12
  1

  0
LINE
  5
14F
100
AcDbEntity
  8
dimenzije novo stanje
  6
ByBlock
 62
    0
370
   -2
100
AcDbLine
 10
4857.5
 20
2380
 11
-1125
 21
2380.000000000001
  0
LINE
  5
150
100
AcDbEntity
  8
dimenzije novo stanje
  6
ByBlock
 62
    0
370
   -2
100
AcDbLine
 10
4857.5
 20
1940
 11
-1125
 21
1940.000000000001
  0
LINE
  5
151
100
AcDbEntity
  8
dimenzije novo stanje
  6
ByBlock
 62
    0
370
   -2
100
AcDbLine
 10
-1000
 20
2880.000000000001
 11
-1000
 21
1440.000000000001
  0
SOLID
  5
152
100
AcDbEntity
  8
dimenzije novo stanje
  6
ByBlock
 62
    0
370
   -2
100
AcDbTrace
 10
-1000
 20
2380.000000000001
 30
0
 11
-1041.628465777284
 21
2630.000000000001
 31
0
 12
-958.3715342227159
 22
2630.000000000001
 32
0
 13
-958.3715342227159
 23
2630.000000000001
 33
0
  0
SOLID
  5
153
100
AcDbEntity
  8
dimenzije novo stanje
  6
ByBlock
 62
    0
370
   -2
100
AcDbTrace
 10
-1000
 20
1940.000000000001
 30
0
 11
-958.3715342227159
 21
1690.000000000001
 31
0
 12
-1041.628465777284
 22
1690.000000000001
 32
0
 13
-1041.628465777284
 23
1690.000000000001
 33
0
  0
MTEXT
  5
154
100
AcDbEntity
  8
dimenzije novo stanje
  6
CONTINUOUS
 62
    0
370
   -2
100
AcDbMText
 10
-1187.5
 20
2720.277777777779
 30
0
 40
250
 41
555.5555555555557
 71
    5
 72
    1
  1
440
  7
standard
210
0
220
0
230
1
 50
90
 73
    2
 44
1
  0
ENDBLK
  5
9A
330
98
100
AcDbEntity
  8
0
100
AcDbBlockEnd
  0
BLOCK
  5
9C
330
9B
100
AcDbEntity
  8
0
100
AcDbBlockBegin
  2
*D27
 70
    1
 10
0
 20
0
  3
*D27
  1

  0
LINE
  5
155
100
AcDbEntity
  8
kontura
  6
ByBlock
 62
    0
370
   -2
100
AcDbLine
 10
-62.50000000000015
 20
-809.9999999999993
 11
-257.7759600498789
 21
-809.9999999999972
  0
LINE
  5
156
100
AcDbEntity
  8
kontura
  6
ByBlock
 62
    0
370
   -2
100
AcDbLine
 10
-62.50000000000133
 20
-914.9999999999993
 11
-257.7759600498801
 21
-914.9999999999972
  0
LINE
  5
157
100
AcDbEntity
  8
kontura
  6
ByBlock
 62
    0
370
   -2
100
AcDbLine
 10
-132.7759600498732
 20
-309.9999999999985
 11
-132.7759600498858
 21
-1414.999999999999
  0
SOLID
  5
158
100
AcDbEntity
  8
kontura
  6
ByBlock
 62
    0
370
   -2
100
AcDbTrace
 10
-132.7759600498789
 20
-809.9999999999985
 30
0
 11
-174.40442582716
 21
-559.9999999999981
 31
0
 12
-91.14749427259193
 22
-559.999999999999
 32
0
 13
-91.14749427259193
 23
-559.999999999999
 33
0
  0
SOLID
  5
159
100
AcDbEntity
  8
kontura
  6
ByBlock
 62
    0
370
   -2
100
AcDbTrace
 10
-132.7759600498801
 20
-914.9999999999985
 30
0
 11
-91.14749427259889
 21
-1164.999999999999
 31
0
 12
-174.404425827167
 22
-1164.999999999998
 32
0
 13
-174.404425827167
 23
-1164.999999999998
 33
0
  0
MTEXT
  5
15A
100
AcDbEntity
  8
kontura
  6
CONTINUOUS
 62
    0
370
   -2
100
AcDbMText
 10
-320.2759600498756
 20
-525.2777777777665
 30
0
 40
250
 41
444.44444444446
 71
    5
 72
    1
  1
105
  7
standard
210
0
220
0
230
1
 50
89.99999999999933
 73
    2
 44
1
  0
ENDBLK
  5
9D
330
9B
100
AcDbEntity
  8
0
100
AcDbBlockEnd
  0
BLOCK
  5
9F
330
9E
100
AcDbEntity
  8
0
100
AcDbBlockBegin
  2
*D20
 70
    1
 10
0
 20
0
  3
*D20
  1

  0
LINE
  5
15B
100
AcDbEntity
  8
dimenzije stepeniste
  6
ByBlock
 62
    0
370
   -2
100
AcDbLine
 10
-6.107925910747424e-14
 20
-332.5
 11
-4.672245202793696e-13
 21
-2543.451824121423
  0
LINE
  5
15C
100
AcDbEntity
  8
dimenzije stepeniste
  6
ByBlock
 62
    0
370
   -2
100
AcDbLine
 10
5190
 20
-332.5000000000001
 11
5190
 21
-2543.451824121423
  0
LINE
  5
15D
100
AcDbEntity
  8
dimenzije stepeniste
  6
ByBlock
 62
    0
370
   -2
100
AcDbLine
 10
-4.442623927953568e-13
 20
-2418.451824121423
 11
5190
 21
-2418.451824121423
  0
SOLID
  5
15E
100
AcDbEntity
  8
dimenzije stepeniste
  6
ByBlock
 62
    0
370
   -2
100
AcDbTrace
 10
-4.442623927953568e-13
 20
-2418.451824121423
 30
0
 11
249.9999999999995
 21
-2376.823358344139
 31
0
 12
249.9999999999995
 22
-2460.080289898707
 32
0
 13
249.9999999999995
 23
-2460.080289898707
 33
0
  0
SOLID
  5
15F
100
AcDbEntity
  8
dimenzije stepeniste
  6
ByBlock
 62
    0
370
   -2
100
AcDbTrace
 10
5190
 20
-2418.451824121423
 30
0
 11
4940
 21
-2460.080289898707
 31
0
 12
4940
 22
-2376.823358344139
 32
0
 13
4940
 23
-2376.823358344139
 33
0
  0
MTEXT
  5
160
100
AcDbEntity
  8
dimenzije stepeniste
  6
CONTINUOUS
 62
    0
370
   -2
100
AcDbMText
 10
2595
 20
-2230.951824121423
 30
0
 40
250
 41
638.8888888889044
 71
    5
 72
    1
  1
5190
  7
standard
210
0
220
0
230
1
 50
0
 73
    2
 44
1
  0
ENDBLK
  5
A0
330
9E
100
AcDbEntity
  8
0
100
AcDbBlockEnd
  0
BLOCK
  5
A2
330
A1
100
AcDbEntity
  8
0
100
AcDbBlockBegin
  2
*D1
 70
    1
 10
0
 20
0
  3
*D1
  1

  0
LINE
  5
161
100
AcDbEntity
  8
dimenzije postojece stanje
  6
ByBlock
 62
    0
370
   -2
100
AcDbLine
 10
3.827021247335479e-15
 20
9532.500000000002
 11
2.238042025441788e-13
 21
13125
  0
LINE
  5
162
100
AcDbEntity
  8
dimenzije postojece stanje
  6
ByBlock
 62
    0
370
   -2
100
AcDbLine
 10
9470
 20
9532.5
 11
9470
 21
13125
  0
LINE
  5
163
100
AcDbEntity
  8
dimenzije postojece stanje
  6
ByBlock
 62
    0
370
   -2
100
AcDbLine
 10
2.161501600495078e-13
 20
13000
 11
9470
 21
13000
  0
SOLID
  5
164
100
AcDbEntity
  8
dimenzije postojece stanje
  6
ByBlock
 62
    0
370
   -2
100
AcDbTrace
 10
2.161501600495078e-13
 20
13000
 30
0
 11
250.0000000000002
 21
13041.62846577729
 31
0
 12
250.0000000000002
 22
12958.37153422272
 32
0
 13
250.0000000000002
 23
12958.37153422272
 33
0
  0
SOLID
  5
165
100
AcDbEntity
  8
dimenzije postojece stanje
  6
ByBlock
 62
    0
370
   -2
100
AcDbTrace
 10
9470
 20
13000
 30
0
 11
9220
 21
12958.37153422272
 31
0
 12
9220
 22
13041.62846577728
 32
0
 13
9220
 23
13041.62846577728
 33
0
  0
MTEXT
  5
166
100
AcDbEntity
  8
dimenzije postojece stanje
  6
CONTINUOUS
 62
    0
370
   -2
100
AcDbMText
 10
4735
 20
13187.5
 30
0
 40
250
 41
722.2222222222374
 71
    5
 72
    1
  1
9470
  7
standard
210
0
220
0
230
1
 50
0
 73
    2
 44
1
  0
ENDBLK
  5
A3
330
A1
100
AcDbEntity
  8
0
100
AcDbBlockEnd
  0
BLOCK
  5
A5
330
A4
100
AcDbEntity
  8
0
100
AcDbBlockBegin
  2
*D3
 70
    1
 10
0
 20
0
  3
*D3
  1

  0
LINE
  5
167
100
AcDbEntity
  8
dimenzije postojece stanje
  6
ByBlock
 62
    0
370
   -2
100
AcDbLine
 10
4920
 20
1877.5
 11
4919.999999999999
 21
-2125
  0
LINE
  5
168
100
AcDbEntity
  8
dimenzije postojece stanje
  6
ByBlock
 62
    0
370
   -2
100
AcDbLine
 10
9470
 20
1877.5
 11
9470
 21
-2125
  0
LINE
  5
169
100
AcDbEntity
  8
dimenzije postojece stanje
  6
ByBlock
 62
    0
370
   -2
100
AcDbLine
 10
4919.999999999999
 20
-2000
 11
9470
 21
-2000
  0
SOLID
  5
16A
100
AcDbEntity
  8
dimenzije postojece stanje
  6
ByBlock
 62
    0
370
   -2
100
AcDbTrace
 10
4919.999999999999
 20
-2000
 30
0
 11
5169.999999999999
 21
-1958.371534222716
 31
0
 12
5169.999999999999
 22
-2041.628465777284
 32
0
 13
5169.999999999999
 23
-2041.628465777284
 33
0
  0
SOLID
  5
16B
100
AcDbEntity
  8
dimenzije postojece stanje
  6
ByBlock
 62
    0
370
   -2
100
AcDbTrace
 10
9470
 20
-2000
 30
0
 11
9220
 21
-2041.628465777284
 31
0
 12
9220
 22
-1958.371534222716
 32
0
 13
9220
 23
-1958.371534222716
 33
0
  0
MTEXT
  5
16C
100
AcDbEntity
  8
dimenzije postojece stanje
  6
CONTINUOUS
 62
    0
370
   -2
100
AcDbMText
 10
7195
 20
-1812.5
 30
0
 40
250
 41
722.2222222222532
 71
    5
 72
    1
  1
4550
  7
standard
210
0
220
0
230
1
 50
0
 73
    2
 44
1
  0
ENDBLK
  5
A6
330
A4
100
AcDbEntity
  8
0
100
AcDbBlockEnd
  0
BLOCK
  5
A8
330
A7
100
AcDbEntity
  8
0
100
AcDbBlockBegin
  2
*D15
 70
    1
 10
0
 20
0
  3
*D15
  1

  0
LINE
  5
16D
100
AcDbEntity
  8
dimenzije novo stanje
  6
ByBlock
 62
    0
370
   -2
100
AcDbLine
 10
-62.5
 20
9330
 11
-1602.85518207567
 21
9330
  0
LINE
  5
16E
100
AcDbEntity
  8
dimenzije novo stanje
  6
ByBlock
 62
    0
370
   -2
100
AcDbLine
 10
-62.5
 20
5985
 11
-1602.85518207567
 21
5985
  0
LINE
  5
16F
100
AcDbEntity
  8
dimenzije novo stanje
  6
ByBlock
 62
    0
370
   -2
100
AcDbLine
 10
-1477.85518207567
 20
9330
 11
-1477.85518207567
 21
5985
  0
SOLID
  5
170
100
AcDbEntity
  8
dimenzije novo stanje
  6
ByBlock
 62
    0
370
   -2
100
AcDbTrace
 10
-1477.85518207567
 20
9330
 30
0
 11
-1436.226716298386
 21
9080
 31
0
 12
-1519.483647852954
 22
9080
 32
0
 13
-1519.483647852954
 23
9080
 33
0
  0
SOLID
  5
171
100
AcDbEntity
  8
dimenzije novo stanje
  6
ByBlock
 62
    0
370
   -2
100
AcDbTrace
 10
-1477.85518207567
 20
5985
 30
0
 11
-1519.483647852954
 21
6235
 31
0
 12
-1436.226716298386
 22
6235
 32
0
 13
-1436.226716298386
 23
6235
 33
0
  0
MTEXT
  5
172
100
AcDbEntity
  8
dimenzije novo stanje
  6
CONTINUOUS
 62
    0
370
   -2
100
AcDbMText
 10
-1665.35518207567
 20
7657.5
 30
0
 40
250
 41
722.2222222222683
 71
    5
 72
    1
  1
3345
  7
standard
210
0
220
0
230
1
 50
90
 73
    2
 44
1
  0
ENDBLK
  5
A9
330
A7
100
AcDbEntity
  8
0
100
AcDbBlockEnd
  0
BLOCK
  5
AB
330
AA
100
AcDbEntity
  8
0
100
AcDbBlockBegin
  2
*D40
 70
    1
 10
0
 20
0
  3
*D40
  1

  0
LINE
  5
173
100
AcDbEntity
  8
dimenzije krov
  6
ByBlock
 62
    0
370
   -2
100
AcDbLine
 10
4797.499999999998
 20
4734.999999999998
 11
4859.999999999998
 21
4734.999999999998
  0
LINE
  5
174
100
AcDbEntity
  8
dimenzije krov
  6
ByBlock
 62
    0
370
   -2
100
AcDbLine
 10
4797.499999999998
 20
-1630
 11
4859.999999999998
 21
-1630
  0
LINE
  5
175
100
AcDbEntity
  8
dimenzije krov
  6
ByBlock
 62
    0
370
   -2
100
AcDbLine
 10
4734.999999999998
 20
4734.999999999998
 11
4734.999999999998
 21
-1630
  0
SOLID
  5
176
100
AcDbEntity
  8
dimenzije krov
  6
ByBlock
 62
    0
370
   -2
100
AcDbTrace
 10
4734.999999999998
 20
4734.999999999998
 30
0
 11
4776.628465777282
 21
4484.999999999998
 31
0
 12
4693.371534222714
 22
4484.999999999998
 32
0
 13
4693.371534222714
 23
4484.999999999998
 33
0
  0
SOLID
  5
177
100
AcDbEntity
  8
dimenzije krov
  6
ByBlock
 62
    0
370
   -2
100
AcDbTrace
 10
4734.999999999998
 20
-1630
 30
0
 11
4693.371534222714
 21
-1380
 31
0
 12
4776.628465777282
 22
-1380
 32
0
 13
4776.628465777282
 23
-1380
 33
0
  0
MTEXT
  5
178
100
AcDbEntity
  8
dimenzije krov
  6
CONTINUOUS
 62
    0
370
   -2
100
AcDbMText
 10
4547.499999999998
 20
1552.499999999999
 30
0
 40
250
 41
694.4444444445061
 71
    5
 72
    1
  1
6365
  7
standard
210
0
220
0
230
1
 50
90
 73
    2
 44
1
  0
ENDBLK
  5
AC
330
AA
100
AcDbEntity
  8
0
100
AcDbBlockEnd
  0
BLOCK
  5
AE
330
AD
100
AcDbEntity
  8
0
100
AcDbBlockBegin
  2
*D22
 70
    1
 10
0
 20
0
  3
*D22
  1

  0
LINE
  5
179
100
AcDbEntity
  8
dimenzije stepeniste
  6
ByBlock
 62
    0
370
   -2
100
AcDbLine
 10
-1.602756498384098e-13
 20
-872.5
 11
-6.531493102157524e-13
 21
-3555.579239502636
  0
LINE
  5
17A
100
AcDbEntity
  8
dimenzije stepeniste
  6
ByBlock
 62
    0
370
   -2
100
AcDbLine
 10
5730
 20
-872.5000000000002
 11
5729.999999999999
 21
-3555.579239502636
  0
LINE
  5
17B
100
AcDbEntity
  8
dimenzije stepeniste
  6
ByBlock
 62
    0
370
   -2
100
AcDbLine
 10
-6.301871827317395e-13
 20
-3430.579239502636
 11
5729.999999999999
 21
-3430.579239502636
  0
SOLID
  5
17C
100
AcDbEntity
  8
dimenzije stepeniste
  6
ByBlock
 62
    0
370
   -2
100
AcDbTrace
 10
-6.301871827317395e-13
 20
-3430.579239502636
 30
0
 11
249.9999999999994
 21
-3388.950773725352
 31
0
 12
249.9999999999994
 22
-3472.20770527992
 32
0
 13
249.9999999999994
 23
-3472.20770527992
 33
0
  0
SOLID
  5
17D
100
AcDbEntity
  8
dimenzije stepeniste
  6
ByBlock
 62
    0
370
   -2
100
AcDbTrace
 10
5729.999999999999
 20
-3430.579239502636
 30
0
 11
5479.999999999999
 21
-3472.20770527992
 31
0
 12
5479.999999999999
 22
-3388.950773725352
 32
0
 13
5479.999999999999
 23
-3388.950773725352
 33
0
  0
MTEXT
  5
17E
100
AcDbEntity
  8
dimenzije stepeniste
  6
CONTINUOUS
 62
    0
370
   -2
100
AcDbMText
 10
2864.999999999999
 20
-3243.079239502636
 30
0
 40
250
 41
694.4444444444755
 71
    5
 72
    1
  1
5730
  7
standard
210
0
220
0
230
1
 50
0
 73
    2
 44
1
  0
ENDBLK
  5
AF
330
AD
100
AcDbEntity
  8
0
100
AcDbBlockEnd
  0
BLOCK
  5
B1
330
B0
100
AcDbEntity
  8
0
100
AcDbBlockBegin
  2
*D26
 70
    1
 10
0
 20
0
  3
*D26
  1

  0
LINE
  5
17F
100
AcDbEntity
  8
dimenzije stepeniste
  6
ByBlock
 62
    0
370
   -2
100
AcDbLine
 10
5792.5
 20
-810
 11
8008.93986717997
 21
-810
  0
LINE
  5
180
100
AcDbEntity
  8
dimenzije stepeniste
  6
ByBlock
 62
    0
370
   -2
100
AcDbLine
 10
5792.5
 20
1940
 11
8008.93986717997
 21
1940
  0
LINE
  5
181
100
AcDbEntity
  8
dimenzije stepeniste
  6
ByBlock
 62
    0
370
   -2
100
AcDbLine
 10
7883.93986717997
 20
-810
 11
7883.93986717997
 21
1940
  0
SOLID
  5
182
100
AcDbEntity
  8
dimenzije stepeniste
  6
ByBlock
 62
    0
370
   -2
100
AcDbTrace
 10
7883.93986717997
 20
-810
 30
0
 11
7842.311401402686
 21
-560
 31
0
 12
7925.568332957254
 22
-560
 32
0
 13
7925.568332957254
 23
-560
 33
0
  0
SOLID
  5
183
100
AcDbEntity
  8
dimenzije stepeniste
  6
ByBlock
 62
    0
370
   -2
100
AcDbTrace
 10
7883.93986717997
 20
1940
 30
0
 11
7925.568332957254
 21
1690
 31
0
 12
7842.311401402686
 22
1690
 32
0
 13
7842.311401402686
 23
1690
 33
0
  0
MTEXT
  5
184
100
AcDbEntity
  8
dimenzije stepeniste
  6
CONTINUOUS
 62
    0
370
   -2
100
AcDbMText
 10
7696.43986717997
 20
565
 30
0
 40
250
 41
694.44444444446
 71
    5
 72
    1
  1
2750
  7
standard
210
0
220
0
230
1
 50
90
 73
    2
 44
1
  0
ENDBLK
  5
B2
330
B0
100
AcDbEntity
  8
0
100
AcDbBlockEnd
  0
BLOCK
  5
B4
330
B3
100
AcDbEntity
  8
0
100
AcDbBlockBegin
  2
*D38
 70
    1
 10
0
 20
0
  3
*D38
  1

  0
LINE
  5
185
100
AcDbEntity
  8
dimenzije krov
  6
ByBlock
 62
    0
370
   -2
100
AcDbLine
 10
-1585.805826175841
 20
-1674.194173824159
 11
5458.388347648316
 21
-8718.388347648319
  0
LINE
  5
186
100
AcDbEntity
  8
dimenzije krov
  6
ByBlock
 62
    0
370
   -2
100
AcDbLine
 10
4779.194173824159
 20
4690.805826175841
 11
11823.38834764832
 21
-2353.388347648318
  0
LINE
  5
187
100
AcDbEntity
  8
dimenzije krov
  6
ByBlock
 62
    0
370
   -2
100
AcDbLine
 10
5369.999999999997
 20
-8630
 11
11735
 21
-2265
  0
SOLID
  5
188
100
AcDbEntity
  8
dimenzije krov
  6
ByBlock
 62
    0
370
   -2
100
AcDbTrace
 10
5369.999999999997
 20
-8630
 30
0
 11
5517.340924855124
 21
-8423.787534261854
 31
0
 12
5576.212465738144
 22
-8482.659075144873
 32
0
 13
5576.212465738144
 23
-8482.659075144873
 33
0
  0
SOLID
  5
189
100
AcDbEntity
  8
dimenzije krov
  6
ByBlock
 62
    0
370
   -2
100
AcDbTrace
 10
11735
 20
-2265
 30
0
 11
11587.65907514487
 21
-2471.212465738146
 31
0
 12
11528.78753426185
 22
-2412.340924855127
 32
0
 13
11528.78753426185
 23
-2412.340924855127
 33
0
  0
MTEXT
  5
18A
100
AcDbEntity
  8
dimenzije krov
  6
CONTINUOUS
 62
    0
370
   -2
100
AcDbMText
 10
8419.917478527519
 20
-5314.917478527523
 30
0
 40
250
 41
1152.777777777794
 71
    5
 72
    1
  1
9001,47
  7
standard
210
0
220
0
230
1
 50
45
 73
    2
 44
1
  0
ENDBLK
  5
B5
330
B3
100
AcDbEntity
  8
0
100
AcDbBlockEnd
  0
BLOCK
  5
B7
330
B6
100
AcDbEntity
  8
0
100
AcDbBlockBegin
  2
*D24
 70
    1
 10
0
 20
0
  3
*D24
  1

  0
LINE
  5
18B
100
AcDbEntity
  8
dimenzije stepeniste
  6
ByBlock
 62
    0
370
   -2
100
AcDbLine
 10
5252.5
 20
-270
 11
7039.428342972704
 21
-270
  0
LINE
  5
18C
100
AcDbEntity
  8
dimenzije stepeniste
  6
ByBlock
 62
    0
370
   -2
100
AcDbLine
 10
5252.5
 20
1940
 11
7039.428342972704
 21
1940
  0
LINE
  5
18D
100
AcDbEntity
  8
dimenzije stepeniste
  6
ByBlock
 62
    0
370
   -2
100
AcDbLine
 10
6914.428342972704
 20
-270
 11
6914.428342972704
 21
1940
  0
SOLID
  5
18E
100
AcDbEntity
  8
dimenzije stepeniste
  6
ByBlock
 62
    0
370
   -2
100
AcDbTrace
 10
6914.428342972704
 20
-270
 30
0
 11
6872.79987719542
 21
-20
 31
0
 12
6956.056808749988
 22
-20
 32
0
 13
6956.056808749988
 23
-20
 33
0
  0
SOLID
  5
18F
100
AcDbEntity
  8
dimenzije stepeniste
  6
ByBlock
 62
    0
370
   -2
100
AcDbTrace
 10
6914.428342972704
 20
1940
 30
0
 11
6956.056808749988
 21
1690
 31
0
 12
6872.79987719542
 22
1690
 32
0
 13
6872.79987719542
 23
1690
 33
0
  0
MTEXT
  5
190
100
AcDbEntity
  8
dimenzije stepeniste
  6
CONTINUOUS
 62
    0
370
   -2
100
AcDbMText
 10
6726.928342972704
 20
835
 30
0
 40
250
 41
638.8888888888889
 71
    5
 72
    1
  1
2210
  7
standard
210
0
220
0
230
1
 50
90
 73
    2
 44
1
  0
ENDBLK
  5
B8
330
B6
100
AcDbEntity
  8
0
100
AcDbBlockEnd
  0
BLOCK
  5
BA
330
B9
100
AcDbEntity
  8
0
100
AcDbBlockBegin
  2
*D5
 70
    1
 10
0
 20
0
  3
*D5
  1

  0
LINE
  5
191
100
AcDbEntity
  8
dimenzije postojece stanje
  6
ByBlock
 62
    0
370
   -2
100
AcDbLine
 10
-1.148106374200644e-14
 20
4917.5
 11
-1.305167326191292e-12
 21
-2125
  0
LINE
  5
192
100
AcDbEntity
  8
dimenzije postojece stanje
  6
ByBlock
 62
    0
370
   -2
100
AcDbLine
 10
990
 20
4917.5
 11
989.9999999999987
 21
-2125
  0
LINE
  5
193
100
AcDbEntity
  8
dimenzije postojece stanje
  6
ByBlock
 62
    0
370
   -2
100
AcDbLine
 10
-1.282205198707279e-12
 20
-2000
 11
989.9999999999987
 21
-2000
  0
SOLID
  5
194
100
AcDbEntity
  8
dimenzije postojece stanje
  6
ByBlock
 62
    0
370
   -2
100
AcDbTrace
 10
-1.282205198707279e-12
 20
-2000
 30
0
 11
249.9999999999987
 21
-1958.371534222716
 31
0
 12
249.9999999999987
 22
-2041.628465777284
 32
0
 13
249.9999999999987
 23
-2041.628465777284
 33
0
  0
SOLID
  5
195
100
AcDbEntity
  8
dimenzije postojece stanje
  6
ByBlock
 62
    0
370
   -2
100
AcDbTrace
 10
989.9999999999987
 20
-2000
 30
0
 11
739.9999999999987
 21
-2041.628465777284
 31
0
 12
739.9999999999987
 22
-1958.371534222716
 32
0
 13
739.9999999999987
 23
-1958.371534222716
 33
0
  0
MTEXT
  5
196
100
AcDbEntity
  8
dimenzije postojece stanje
  6
CONTINUOUS
 62
    0
370
   -2
100
AcDbMText
 10
494.9999999999987
 20
-1812.5
 30
0
 40
250
 41
500.0000000000152
 71
    5
 72
    1
  1
990
  7
standard
210
0
220
0
230
1
 50
0
 73
    2
 44
1
  0
ENDBLK
  5
BB
330
B9
100
AcDbEntity
  8
0
100
AcDbBlockEnd
  0
BLOCK
  5
BD
330
BC
100
AcDbEntity
  8
0
100
AcDbBlockBegin
  2
*D13
 70
    1
 10
0
 20
0
  3
*D13
  1

  0
LINE
  5
197
100
AcDbEntity
  8
dimenzije novo stanje
  6
ByBlock
 62
    0
370
   -2
100
AcDbLine
 10
4857.5
 20
1940
 11
-1125
 21
1940.000000000001
  0
LINE
  5
198
100
AcDbEntity
  8
dimenzije novo stanje
  6
ByBlock
 62
    0
370
   -2
100
AcDbLine
 10
4857.5
 20
7.654042494670958e-15
 11
-1125
 21
7.40298990084575e-13
  0
LINE
  5
199
100
AcDbEntity
  8
dimenzije novo stanje
  6
ByBlock
 62
    0
370
   -2
100
AcDbLine
 10
-1000
 20
1940.000000000001
 11
-1000
 21
7.249909050952331e-13
  0
SOLID
  5
19A
100
AcDbEntity
  8
dimenzije novo stanje
  6
ByBlock
 62
    0
370
   -2
100
AcDbTrace
 10
-1000
 20
1940.000000000001
 30
0
 11
-958.3715342227159
 21
1690.000000000001
 31
0
 12
-1041.628465777284
 22
1690.000000000001
 32
0
 13
-1041.628465777284
 23
1690.000000000001
 33
0
  0
SOLID
  5
19B
100
AcDbEntity
  8
dimenzije novo stanje
  6
ByBlock
 62
    0
370
   -2
100
AcDbTrace
 10
-1000
 20
7.249909050952331e-13
 30
0
 11
-1041.628465777284
 21
250.0000000000007
 31
0
 12
-958.3715342227159
 22
250.0000000000007
 32
0
 13
-958.3715342227159
 23
250.0000000000007
 33
0
  0
MTEXT
  5
19C
100
AcDbEntity
  8
dimenzije novo stanje
  6
CONTINUOUS
 62
    0
370
   -2
100
AcDbMText
 10
-1187.5
 20
970.0000000000007
 30
0
 40
250
 41
666.6666666666667
 71
    5
 72
    1
  1
1940
  7
standard
210
0
220
0
230
1
 50
90
 73
    2
 44
1
  0
ENDBLK
  5
BE
330
BC
100
AcDbEntity
  8
0
100
AcDbBlockEnd
  0
BLOCK
  5
C0
330
BF
100
AcDbEntity
  8
0
100
AcDbBlockBegin
  2
*D8
 70
    1
 10
0
 20
0
  3
*D8
  1

  0
LINE
  5
19D
100
AcDbEntity
  8
dimenzije novo stanje
  6
ByBlock
 62
    0
370
   -2
100
AcDbLine
 10
9470
 20
-62.5
 11
9470
 21
-3125
  0
LINE
  5
19E
100
AcDbEntity
  8
dimenzije novo stanje
  6
ByBlock
 62
    0
370
   -2
100
AcDbLine
 10
-9.262922227050792e-13
 20
-62.5
 11
-1.488864346063394e-12
 21
-3125
  0
LINE
  5
19F
100
AcDbEntity
  8
dimenzije novo stanje
  6
ByBlock
 62
    0
370
   -2
100
AcDbLine
 10
9470
 20
-3000
 11
-1.465902218579382e-12
 21
-3000
  0
SOLID
  5
1A0
100
AcDbEntity
  8
dimenzije novo stanje
  6
ByBlock
 62
    0
370
   -2
100
AcDbTrace
 10
9470
 20
-3000
 30
0
 11
9220
 21
-3041.628465777284
 31
0
 12
9220
 22
-2958.371534222716
 32
0
 13
9220
 23
-2958.371534222716
 33
0
  0
SOLID
  5
1A1
100
AcDbEntity
  8
dimenzije novo stanje
  6
ByBlock
 62
    0
370
   -2
100
AcDbTrace
 10
-1.465902218579382e-12
 20
-3000
 30
0
 11
249.9999999999985
 21
-2958.371534222716
 31
0
 12
249.9999999999985
 22
-3041.628465777284
 32
0
 13
249.9999999999985
 23
-3041.628465777284
 33
0
  0
MTEXT
  5
1A2
100
AcDbEntity
  8
dimenzije novo stanje
  6
CONTINUOUS
 62
    0
370
   -2
100
AcDbMText
 10
4734.999999999999
 20
-2812.5
 30
0
 40
250
 41
722.2222222222374
 71
    5
 72
    1
  1
9470
  7
standard
210
0
220
0
230
1
 50
360
 73
    2
 44
1
  0
ENDBLK
  5
C1
330
BF
100
AcDbEntity
  8
0
100
AcDbBlockEnd
  0
BLOCK
  5
C3
330
C2
100
AcDbEntity
  8
0
100
AcDbBlockBegin
  2
*D25
 70
    1
 10
0
 20
0
  3
*D25
  1

  0
LINE
  5
1A3
100
AcDbEntity
  8
dimenzije stepeniste
  6
ByBlock
 62
    0
370
   -2
100
AcDbLine
 10
5522.5
 20
-540
 11
7518.857118679593
 21
-540
  0
LINE
  5
1A4
100
AcDbEntity
  8
dimenzije stepeniste
  6
ByBlock
 62
    0
370
   -2
100
AcDbLine
 10
5522.5
 20
1940
 11
7518.857118679593
 21
1940
  0
LINE
  5
1A5
100
AcDbEntity
  8
dimenzije stepeniste
  6
ByBlock
 62
    0
370
   -2
100
AcDbLine
 10
7393.857118679593
 20
-540
 11
7393.857118679593
 21
1940
  0
SOLID
  5
1A6
100
AcDbEntity
  8
dimenzije stepeniste
  6
ByBlock
 62
    0
370
   -2
100
AcDbTrace
 10
7393.857118679593
 20
-540
 30
0
 11
7352.228652902309
 21
-290
 31
0
 12
7435.485584456877
 22
-290
 32
0
 13
7435.485584456877
 23
-290
 33
0
  0
SOLID
  5
1A7
100
AcDbEntity
  8
dimenzije stepeniste
  6
ByBlock
 62
    0
370
   -2
100
AcDbTrace
 10
7393.857118679593
 20
1940
 30
0
 11
7435.485584456877
 21
1690
 31
0
 12
7352.228652902309
 22
1690
 32
0
 13
7352.228652902309
 23
1690
 33
0
  0
MTEXT
  5
1A8
100
AcDbEntity
  8
dimenzije stepeniste
  6
CONTINUOUS
 62
    0
370
   -2
100
AcDbMText
 10
7206.357118679593
 20
700
 30
0
 40
250
 41
722.2222222222222
 71
    5
 72
    1
  1
2480
  7
standard
210
0
220
0
230
1
 50
90
 73
    2
 44
1
  0
ENDBLK
  5
C4
330
C2
100
AcDbEntity
  8
0
100
AcDbBlockEnd
  0
BLOCK
  5
C6
330
C5
100
AcDbEntity
  8
0
100
AcDbBlockBegin
  2
*D28
 70
    1
 10
0
 20
0
  3
*D28
  1

  0
LINE
  5
1A9
100
AcDbEntity
  8
dimenzije novo stanje
  6
ByBlock
 62
    0
370
   -2
100
AcDbLine
 10
4920
 20
1877.5
 11
4919.999999999999
 21
-2163.422611630878
  0
LINE
  5
1AA
100
AcDbEntity
  8
dimenzije novo stanje
  6
ByBlock
 62
    0
370
   -2
100
AcDbLine
 10
9470
 20
1877.5
 11
9470
 21
-2163.422611630878
  0
LINE
  5
1AB
100
AcDbEntity
  8
dimenzije novo stanje
  6
ByBlock
 62
    0
370
   -2
100
AcDbLine
 10
4919.999999999999
 20
-2038.422611630878
 11
9470
 21
-2038.422611630878
  0
SOLID
  5
1AC
100
AcDbEntity
  8
dimenzije novo stanje
  6
ByBlock
 62
    0
370
   -2
100
AcDbTrace
 10
4919.999999999999
 20
-2038.422611630878
 30
0
 11
5169.999999999999
 21
-1996.794145853594
 31
0
 12
5169.999999999999
 22
-2080.051077408162
 32
0
 13
5169.999999999999
 23
-2080.051077408162
 33
0
  0
SOLID
  5
1AD
100
AcDbEntity
  8
dimenzije novo stanje
  6
ByBlock
 62
    0
370
   -2
100
AcDbTrace
 10
9470
 20
-2038.422611630878
 30
0
 11
9220
 21
-2080.051077408162
 31
0
 12
9220
 22
-1996.794145853594
 32
0
 13
9220
 23
-1996.794145853594
 33
0
  0
MTEXT
  5
1AE
100
AcDbEntity
  8
dimenzije novo stanje
  6
CONTINUOUS
 62
    0
370
   -2
100
AcDbMText
 10
7195
 20
-1850.922611630878
 30
0
 40
250
 41
722.2222222222532
 71
    5
 72
    1
  1
4550
  7
standard
210
0
220
0
230
1
 50
0
 73
    2
 44
1
  0
ENDBLK
  5
C7
330
C5
100
AcDbEntity
  8
0
100
AcDbBlockEnd
  0
BLOCK
  5
C9
330
C8
100
AcDbEntity
  8
0
100
AcDbBlockBegin
  2
*D33
 70
    1
 10
0
 20
0
  3
*D33
  1

  0
LINE
  5
1AF
100
AcDbEntity
  8
temelj
  6
ByBlock
 62
    0
370
   -2
100
AcDbLine
 10
5685.805826175841
 20
-854.1941738241594
 11
5371.611652351681
 21
-1168.388347648319
  0
LINE
  5
1B0
100
AcDbEntity
  8
temelj
  6
ByBlock
 62
    0
370
   -2
100
AcDbLine
 10
5955.805826175841
 20
-1124.194173824159
 11
5641.611652351681
 21
-1438.388347648318
  0
LINE
  5
1B1
100
AcDbEntity
  8
temelj
  6
ByBlock
 62
    0
370
   -2
100
AcDbLine
 10
5106.446609406727
 20
-726.4466094067266
 11
6083.553390593273
 21
-1703.553390593274
  0
SOLID
  5
1B2
100
AcDbEntity
  8
temelj
  6
ByBlock
 62
    0
370
   -2
100
AcDbTrace
 10
5460
 20
-1080
 30
0
 11
5253.787534261854
 21
-932.6590751448732
 31
0
 12
5312.659075144873
 22
-873.7875342618538
 32
0
 13
5312.659075144873
 23
-873.7875342618538
 33
0
  0
SOLID
  5
1B3
100
AcDbEntity
  8
temelj
  6
ByBlock
 62
    0
370
   -2
100
AcDbTrace
 10
5730
 20
-1350
 30
0
 11
5936.212465738146
 21
-1497.340924855127
 31
0
 12
5877.340924855127
 22
-1556.212465738146
 32
0
 13
5877.340924855127
 23
-1556.212465738146
 33
0
  0
MTEXT
  5
1B4
100
AcDbEntity
  8
temelj
  6
CONTINUOUS
 62
    0
370
   -2
100
AcDbMText
 10
6245.598694615196
 20
-1600.433651670241
 30
0
 40
250
 41
958.3333333333488
 71
    5
 72
    1
  1
381,84
  7
standard
210
0
220
0
230
1
 50
315
 73
    2
 44
1
  0
ENDBLK
  5
CA
330
C8
100
AcDbEntity
  8
0
100
AcDbBlockEnd
  0
BLOCK
  5
CC
330
CB
100
AcDbEntity
  8
0
100
AcDbBlockBegin
  2
*D10
 70
    1
 10
0
 20
0
  3
*D10
  1

  0
LINE
  5
1B5
100
AcDbEntity
  8
dimenzije novo stanje
  6
ByBlock
 62
    0
370
   -2
100
AcDbLine
 10
-62.50000000000072
 20
2380
 11
-3125.000000000001
 21
2380
  0
LINE
  5
1B6
100
AcDbEntity
  8
dimenzije novo stanje
  6
ByBlock
 62
    0
370
   -2
100
AcDbLine
 10
-62.5
 20
9470.000000000002
 11
-3125
 21
9470.000000000002
  0
LINE
  5
1B7
100
AcDbEntity
  8
dimenzije novo stanje
  6
ByBlock
 62
    0
370
   -2
100
AcDbLine
 10
-3000.000000000001
 20
2380
 11
-3000
 21
9470.000000000002
  0
SOLID
  5
1B8
100
AcDbEntity
  8
dimenzije novo stanje
  6
ByBlock
 62
    0
370
   -2
100
AcDbTrace
 10
-3000.000000000001
 20
2380
 30
0
 11
-3041.628465777285
 21
2630
 31
0
 12
-2958.371534222717
 22
2630
 32
0
 13
-2958.371534222717
 23
2630
 33
0
  0
SOLID
  5
1B9
100
AcDbEntity
  8
dimenzije novo stanje
  6
ByBlock
 62
    0
370
   -2
100
AcDbTrace
 10
-3000
 20
9470.000000000002
 30
0
 11
-2958.371534222716
 21
9220.000000000002
 31
0
 12
-3041.628465777284
 22
9220.000000000002
 32
0
 13
-3041.628465777284
 23
9220.000000000002
 33
0
  0
MTEXT
  5
1BA
100
AcDbEntity
  8
dimenzije novo stanje
  6
CONTINUOUS
 62
    0
370
   -2
100
AcDbMText
 10
-3187.5
 20
5925.000000000001
 30
0
 40
250
 41
694.4444444444445
 71
    5
 72
    1
  1
7090
  7
standard
210
0
220
0
230
1
 50
90
 73
    2
 44
1
  0
ENDBLK
  5
CD
330
CB
100
AcDbEntity
  8
0
100
AcDbBlockEnd
  0
BLOCK
  5
CF
330
CE
100
AcDbEntity
  8
0
100
AcDbBlockBegin
  2
*D37
 70
    1
 10
0
 20
0
  3
*D37
  1

  0
LINE
  5
1BB
100
AcDbEntity
  8
dimenzije krov
  6
ByBlock
 62
    0
370
   -2
100
AcDbLine
 10
-1585.805826175841
 20
-1674.194173824159
 11
5958.388347648318
 21
-9218.388347648321
  0
LINE
  5
1BC
100
AcDbEntity
  8
dimenzije krov
  6
ByBlock
 62
    0
370
   -2
100
AcDbLine
 10
11044.19417382416
 20
10955.80582617584
 11
18588.38834764832
 21
3411.611652351679
  0
LINE
  5
1BD
100
AcDbEntity
  8
dimenzije krov
  6
ByBlock
 62
    0
370
   -2
100
AcDbLine
 10
5869.999999999999
 20
-9130.000000000002
 11
18500
 21
3499.999999999997
  0
SOLID
  5
1BE
100
AcDbEntity
  8
dimenzije krov
  6
ByBlock
 62
    0
370
   -2
100
AcDbTrace
 10
5869.999999999999
 20
-9130.000000000002
 30
0
 11
6017.340924855126
 21
-8923.787534261855
 31
0
 12
6076.212465738146
 22
-8982.659075144875
 32
0
 13
6076.212465738146
 23
-8982.659075144875
 33
0
  0
SOLID
  5
1BF
100
AcDbEntity
  8
dimenzije krov
  6
ByBlock
 62
    0
370
   -2
100
AcDbTrace
 10
18500
 20
3499.999999999997
 30
0
 11
18352.65907514487
 21
3293.787534261851
 31
0
 12
18293.78753426185
 22
3352.65907514487
 32
0
 13
18293.78753426185
 23
3352.65907514487
 33
0
  0
MTEXT
  5
1C0
100
AcDbEntity
  8
dimenzije krov
  6
CONTINUOUS
 62
    0
370
   -2
100
AcDbMText
 10
12052.41747852752
 20
-2682.417478527525
 30
0
 40
250
 41
1263.88888888892
 71
    5
 72
    1
  1
17861,52
  7
standard
210
0
220
0
230
1
 50
45
 73
    2
 44
1
  0
ENDBLK
  5
D0
330
CE
100
AcDbEntity
  8
0
100
AcDbBlockEnd
  0
ENDSEC
  0
SECTION
  2
ENTITIES
  0
LINE
  5
1C1
100
AcDbEntity
  8
novo stanje
  6
ByLayer
 62
  256
370
   -1
100
AcDbLine
 10
9469.999999999998
 20
1940
 11
4920
 21
1940
  0
LINE
  5
1C2
100
AcDbEntity
  8
novo stanje
  6
ByLayer
 62
  256
370
   -1
100
AcDbLine
 10
4920
 20
1940
 11
4920
 21
9470
  0
LINE
  5
1C3
100
AcDbEntity
  8
novo stanje
  6
ByLayer
 62
  256
370
   -1
100
AcDbLine
 10
5060
 20
4980
 11
5060
 21
9470
  0
LINE
  5
1C4
100
AcDbEntity
  8
novo stanje
  6
ByLayer
 62
  256
370
   -1
100
AcDbLine
 10
5060
 20
1936.736653420695
 11
5060
 21
9470
  0
LINE
  5
1C5
100
AcDbEntity
  8
novo stanje
  6
ByLayer
 62
  256
370
   -1
100
AcDbLine
 10
9469.999999999998
 20
2080
 11
4920
 21
2080
  0
LINE
  5
1C6
100
AcDbEntity
  8
postojece stanje
  6
ByLayer
 62
  256
370
   -1
100
AcDbLine
 10
4920
 20
4980
 11
-8.247996192257423e-13
 21
4980
  0
LINE
  5
1C7
100
AcDbEntity
  8
postojece stanje
  6
ByLayer
 62
  256
370
   -1
100
AcDbLine
 10
5060
 20
5120
 11
-7.81936981255585e-13
 21
5120
  0
LINE
  5
1C8
100
AcDbEntity
  8
kontura
  6
ByLayer
 62
  256
370
   -1
100
AcDbLine
 10
-1.159740518792543e-12
 20
0
 11
9469.999999999998
 21
0
  0
LINE
  5
1C9
100
AcDbEntity
  8
kontura
  6
ByLayer
 62
  256
370
   -1
100
AcDbLine
 10
0
 20
4980
 11
0
 21
1.159740518792543e-12
  0
LINE
  5
1CA
100
AcDbEntity
  8
novo stanje
  6
ByLayer
 62
  256
370
   -1
100
AcDbLine
 10
9470
 20
9469.999999999998
 11
9470
 21
1940
  0
LINE
  5
1CB
100
AcDbEntity
  8
kontura
  6
ByLayer
 62
  256
370
   -1
100
AcDbLine
 10
9470
 20
1940
 11
9470
 21
-2.319481037585087e-12
  0
LINE
  5
1CC
100
AcDbEntity
  8
novo stanje
  6
ByLayer
 62
  256
370
   -1
100
AcDbLine
 10
9330
 20
1940
 11
9330
 21
9470
  0
LINE
  5
1CD
100
AcDbEntity
  8
postojece stanje
  6
ByLayer
 62
  256
370
   -1
100
AcDbLine
 10
4920
 20
2780
 11
990
 21
2780
  0
LINE
  5
1CE
100
AcDbEntity
  8
postojece stanje
  6
ByLayer
 62
  256
370
   -1
100
AcDbLine
 10
5060
 20
2920
 11
990
 21
2920
  0
LINE
  5
1CF
100
AcDbEntity
  8
postojece stanje
  6
ByLayer
 62
  256
370
   -1
100
AcDbLine
 10
1130
 20
2780
 11
1130
 21
5120
  0
LINE
  5
1D0
100
AcDbEntity
  8
postojece stanje
  6
ByLayer
 62
  256
370
   -1
100
AcDbLine
 10
990
 20
2780
 11
990
 21
5120
  0
LINE
  5
1D1
100
AcDbEntity
  8
novo stanje
  6
ByLayer
 62
  256
370
   -1
100
AcDbLine
 10
9470
 20
9330
 11
5060
 21
9330
  0
LINE
  5
1D2
100
AcDbEntity
  8
novo stanje
  6
ByLayer
 62
  256
370
   -1
100
AcDbLine
 10
5060
 20
9330
 11
-2.571758278209442e-14
 21
9330
  0
LINE
  5
1D3
100
AcDbEntity
  8
novo stanje
  6
ByLayer
 62
  256
370
   -1
100
AcDbLine
 10
5.798702593962717e-13
 20
9470
 11
5060
 21
9470
  0
LINE
  5
1D4
100
AcDbEntity
  8
novo stanje
  6
ByLayer
 62
  256
370
   -1
100
AcDbLine
 10
5060
 20
9470
 11
9470
 21
9470
  0
LINE
  5
1D5
100
AcDbEntity
  8
postojece stanje
  6
ByLayer
 62
  256
370
   -1
100
AcDbLine
 10
9470
 20
5780
 11
5059.999999999999
 21
5780
  0
LINE
  5
1D6
100
AcDbEntity
  8
postojece stanje
  6
ByLayer
 62
  256
370
   -1
100
AcDbLine
 10
5059.999999999999
 20
5920
 11
9470
 21
5920
  0
LINE
  5
1D7
100
AcDbEntity
  8
postojece stanje
  6
ByLayer
 62
  256
370
   -1
100
AcDbLine
 10
3450
 20
7970
 11
5060
 21
7970
  0
LINE
  5
1D8
100
AcDbEntity
  8
postojece stanje
  6
ByLayer
 62
  256
370
   -1
100
AcDbLine
 10
5060
 20
7830
 11
3450
 21
7830
  0
LINE
  5
1D9
100
AcDbEntity
  8
novo stanje
  6
ByLayer
 62
  256
370
   -1
100
AcDbLine
 10
3450
 20
7830
 11
3450
 21
9470
  0
LINE
  5
1DA
100
AcDbEntity
  8
novo stanje
  6
ByLayer
 62
  256
370
   -1
100
AcDbLine
 10
3590
 20
7830
 11
3590
 21
9470
  0
LINE
  5
1DB
100
AcDbEntity
  8
novo stanje
  6
ByLayer
 62
  256
370
   -1
100
AcDbLine
 10
3450
 20
5120
 11
3450
 21
7830
  0
LWPOLYLINE
  5
1DC
100
AcDbEntity
  8
novo stanje
  6
ByLayer
 62
  256
370
   -1
100
AcDbPolyline
 90
    4
 70
    1
 43
0
 10
9470
 20
0
 10
9220
 20
0
 10
9220
 20
250
 10
9470
 20
250
  0
LWPOLYLINE
  5
1DD
100
AcDbEntity
  8
novo stanje
  6
ByLayer
 62
  256
370
   -1
100
AcDbPolyline
 90
    4
 70
    1
 43
0
 10
0
 20
0
 10
250
 20
0
 10
250
 20
250
 10
0
 20
250
  0
LINE
  5
1DE
100
AcDbEntity
  8
postojece stanje
  6
ByLayer
 62
  256
370
   -1
100
AcDbLine
 10
140
 20
9470
 11
140
 21
4980
  0
LINE
  5
1DF
100
AcDbEntity
  8
postojece stanje
  6
ByLayer
 62
  256
370
   -1
100
AcDbLine
 10
0
 20
9470.000000000002
 11
0
 21
4980
  0
LINE
  5
1E0
100
AcDbEntity
  8
postojece stanje
  6
ByLayer
 62
  256
370
   -1
100
AcDbLine
 10
9469.999999999998
 20
1940
 11
4920
 21
1940
  0
LINE
  5
1E1
100
AcDbEntity
  8
postojece stanje
  6
ByLayer
 62
  256
370
   -1
100
AcDbLine
 10
4920
 20
1940
 11
4920
 21
9470
  0
LINE
  5
1E2
100
AcDbEntity
  8
postojece stanje
  6
ByLayer
 62
  256
370
   -1
100
AcDbLine
 10
5060
 20
1936.736653420695
 11
5060
 21
9470
  0
LINE
  5
1E3
100
AcDbEntity
  8
postojece stanje
  6
ByLayer
 62
  256
370
   -1
100
AcDbLine
 10
9469.999999999998
 20
2080
 11
4920
 21
2080
  0
LINE
  5
1E4
100
AcDbEntity
  8
postojece stanje
  6
ByLayer
 62
  256
370
   -1
100
AcDbLine
 10
9470
 20
9469.999999999998
 11
9470
 21
1940
  0
LINE
  5
1E5
100
AcDbEntity
  8
postojece stanje
  6
ByLayer
 62
  256
370
   -1
100
AcDbLine
 10
9330
 20
1940
 11
9330
 21
9470
  0
LINE
  5
1E6
100
AcDbEntity
  8
postojece stanje
  6
ByLayer
 62
  256
370
   -1
100
AcDbLine
 10
9470
 20
9330
 11
5060
 21
9330
  0
LINE
  5
1E7
100
AcDbEntity
  8
postojece stanje
  6
ByLayer
 62
  256
370
   -1
100
AcDbLine
 10
5060
 20
9330
 11
-2.571758278209442e-14
 21
9330
  0
LINE
  5
1E8
100
AcDbEntity
  8
postojece stanje
  6
ByLayer
 62
  256
370
   -1
100
AcDbLine
 10
5.798702593962717e-13
 20
9470
 11
5060
 21
9470
  0
LINE
  5
1E9
100
AcDbEntity
  8
postojece stanje
  6
ByLayer
 62
  256
370
   -1
100
AcDbLine
 10
5060
 20
9470
 11
9470
 21
9470
  0
DIMENSION
  5
1EA
100
AcDbEntity
  8
dimenzije postojece stanje
  6
ByLayer
 62
  256
370
   -1
100
AcDbDimension
  2
*D1
 10
9470
 20
13000
 30
0
 11
4735
 21
13187.5
 31
0
 70
   33
 71
    5
  3
Standard
 53
0
210
0
220
0
230
1
100
AcDbAlignedDimension
 13
0
 23
9470.000000000002
 33
0
 14
9470
 24
9470
 34
0
  0
DIMENSION
  5
1EB
100
AcDbEntity
  8
dimenzije postojece stanje
  6
ByLayer
 62
  256
370
   -1
100
AcDbDimension
  2
*D2
 10
13000
 20
9470
 30
0
 11
12812.5
 21
5705
 31
0
 70
   33
 71
    5
  3
Standard
 53
0
210
0
220
0
230
1
100
AcDbAlignedDimension
 13
9469.999999999998
 23
1940
 33
0
 14
9470
 24
9470
 34
0
  0
DIMENSION
  5
1EC
100
AcDbEntity
  8
dimenzije postojece stanje
  6
ByLayer
 62
  256
370
   -1
100
AcDbDimension
  2
*D3
 10
9470
 20
-2000
 30
0
 11
7195
 21
-1812.5
 31
0
 70
   33
 71
    5
  3
Standard
 53
0
210
0
220
0
230
1
100
AcDbAlignedDimension
 13
4920
 23
1940
 33
0
 14
9470
 24
1940
 34
0
  0
DIMENSION
  5
1ED
100
AcDbEntity
  8
dimenzije postojece stanje
  6
ByLayer
 62
  256
370
   -1
100
AcDbDimension
  2
*D4
 10
4920
 20
-2000
 30
0
 11
2954.999999999999
 21
-1812.5
 31
0
 70
   33
 71
    5
  3
Standard
 53
0
210
0
220
0
230
1
100
AcDbAlignedDimension
 13
990
 23
2780
 33
0
 14
4920
 24
2780
 34
0
  0
DIMENSION
  5
1EE
100
AcDbEntity
  8
dimenzije postojece stanje
  6
ByLayer
 62
  256
370
   -1
100
AcDbDimension
  2
*D5
 10
990
 20
-2000
 30
0
 11
494.9999999999987
 21
-1812.5
 31
0
 70
   33
 71
    5
  3
Standard
 53
0
210
0
220
0
230
1
100
AcDbAlignedDimension
 13
0
 23
4980
 33
0
 14
990
 24
4980
 34
0
  0
DIMENSION
  5
1EF
100
AcDbEntity
  8
dimenzije postojece stanje
  6
ByLayer
 62
  256
370
   -1
100
AcDbDimension
  2
*D6
 10
-4000
 20
9470.000000000002
 30
0
 11
-4187.5
 21
7225.000000000002
 31
0
 70
   33
 71
    5
  3
Standard
 53
0
210
0
220
0
230
1
100
AcDbAlignedDimension
 13
0
 23
4980
 33
0
 14
0
 24
9470.000000000002
 34
0
  0
DIMENSION
  5
1F0
100
AcDbEntity
  8
dimenzije novo stanje
  6
ByLayer
 62
  256
370
   -1
100
AcDbDimension
  2
*D7
 10
14000
 20
9469.999999999998
 30
0
 11
13812.5
 21
4734.999999999999
 31
0
 70
   33
 71
    5
  3
Standard
 53
0
210
0
220
0
230
1
100
AcDbAlignedDimension
 13
9470
 23
0
 33
0
 14
9470
 24
9469.999999999998
 34
0
  0
DIMENSION
  5
1F1
100
AcDbEntity
  8
dimenzije novo stanje
  6
ByLayer
 62
  256
370
   -1
100
AcDbDimension
  2
*D8
 10
-1.487168047339957e-12
 20
-3000
 30
0
 11
4734.999999999999
 21
-2812.5
 31
0
 70
   33
 71
    5
  3
Standard
 53
0
210
0
220
0
230
1
100
AcDbAlignedDimension
 13
9470
 23
0
 33
0
 14
-9.148111589630727e-13
 24
0
 34
0
  0
DIMENSION
  5
1F2
100
AcDbEntity
  8
dimenzije novo stanje
  6
ByLayer
 62
  256
370
   -1
100
AcDbDimension
  2
*D9
 10
-5000
 20
9470.000000000002
 30
0
 11
-5187.5
 21
4735.000000000001
 31
0
 70
   33
 71
    5
  3
Standard
 53
0
210
0
220
0
230
1
100
AcDbAlignedDimension
 13
-9.148111589630727e-13
 23
0
 33
0
 14
0
 24
9470.000000000002
 34
0
  0
LINE
  5
1F3
100
AcDbEntity
  8
novo stanje
  6
ByLayer
 62
  256
370
   -1
100
AcDbLine
 10
-7.225416114969383e-13
 20
2380
 11
5059.999999999999
 21
2380
  0
DIMENSION
  5
1F4
100
AcDbEntity
  8
dimenzije novo stanje
  6
ByLayer
 62
  256
370
   -1
100
AcDbDimension
  2
*D10
 10
-3000
 20
9470.000000000002
 30
0
 11
-3187.5
 21
5925.000000000001
 31
0
 70
   33
 71
    5
  3
Standard
 53
0
210
0
220
0
230
1
100
AcDbAlignedDimension
 13
-7.225416114969383e-13
 23
2380
 33
0
 14
0
 24
9470.000000000002
 34
0
  0
LINE
  5
1F5
100
AcDbEntity
  8
novo stanje
  6
ByLayer
 62
  256
370
   -1
100
AcDbLine
 10
-1.000000000000714
 20
2520
 11
5059.999999999999
 21
2520
  0
LINE
  5
1F6
100
AcDbEntity
  8
novo stanje
  6
ByLayer
 62
  256
370
   -1
100
AcDbLine
 10
140
 20
9470
 11
140
 21
4965
  0
LINE
  5
1F7
100
AcDbEntity
  8
novo stanje
  6
ByLayer
 62
  256
370
   -1
100
AcDbLine
 10
0
 20
9470.000000000002
 11
-5.51091059616309e-16
 21
4977
  0
LINE
  5
1F8
100
AcDbEntity
  8
novo stanje
  6
ByLayer
 62
  256
370
   -1
100
AcDbLine
 10
-5.51091059616309e-16
 20
4977
 11
-7.225416114969383e-13
 21
2380
  0
LINE
  5
1F9
100
AcDbEntity
  8
novo stanje
  6
ByLayer
 62
  256
370
   -1
100
AcDbLine
 10
140
 20
4965
 11
140
 21
2380
  0
LINE
  5
1FA
100
AcDbEntity
  8
postojece stanje
  6
ByLayer
 62
  256
370
   -1
100
AcDbLine
 10
3450
 20
7830
 11
3450
 21
9470
  0
LINE
  5
1FB
100
AcDbEntity
  8
postojece stanje
  6
ByLayer
 62
  256
370
   -1
100
AcDbLine
 10
3590
 20
7830
 11
3590
 21
9470
  0
LINE
  5
1FC
100
AcDbEntity
  8
postojece stanje
  6
ByLayer
 62
  256
370
   -1
100
AcDbLine
 10
3450
 20
5120
 11
3450
 21
7830
  0
LINE
  5
1FD
100
AcDbEntity
  8
postojece stanje
  6
ByLayer
 62
  256
370
   -1
100
AcDbLine
 10
3590
 20
4980
 11
3590
 21
7830
  0
DIMENSION
  5
1FE
100
AcDbEntity
  8
dimenzije novo stanje
  6
ByLayer
 62
  256
370
   -1
100
AcDbDimension
  2
*D11
 10
-3000.000000000001
 20
-1.084201324057444e-12
 30
0
 11
-3187.500000000001
 21
1190
 31
0
 70
   33
 71
    5
  3
Standard
 53
0
210
0
220
0
230
1
100
AcDbAlignedDimension
 13
-7.225416114969383e-13
 23
2380
 33
0
 14
0
 24
0
 34
0
  0
DIMENSION
  5
1FF
100
AcDbEntity
  8
dimenzije novo stanje
  6
ByLayer
 62
  256
370
   -1
100
AcDbDimension
  2
*D12
 10
-1000
 20
1940
 30
0
 11
-1187.5
 21
2160.000000000001
 31
0
 70
   33
 71
    5
  3
Standard
 53
0
210
0
220
0
230
1
100
AcDbAlignedDimension
 13
4920
 23
2380
 33
0
 14
4920
 24
1940
 34
0
  0
DIMENSION
  5
200
100
AcDbEntity
  8
dimenzije novo stanje
  6
ByLayer
 62
  256
370
   -1
100
AcDbDimension
  2
*D13
 10
-1000
 20
8.573975753107367e-14
 30
0
 11
-1187.5
 21
970.0000000000007
 31
0
 70
   33
 71
    5
  3
Standard
 53
0
210
0
220
0
230
1
100
AcDbAlignedDimension
 13
4920
 23
1940
 33
0
 14
4920
 24
0
 34
0
  0
DIMENSION
  5
201
100
AcDbEntity
  8
dimenzije novo stanje
  6
ByLayer
 62
  256
370
   -1
100
AcDbDimension
  2
*D14
 10
-2000
 20
9330
 30
0
 11
-2187.5
 21
5925
 31
0
 70
   33
 71
    5
  3
Standard
 53
0
210
0
220
0
230
1
100
AcDbAlignedDimension
 13
-6.836202896404789e-13
 23
2520
 33
0
 14
-1.717176682534694e-17
 24
9330
 34
0
  0
DIMENSION
  5
202
100
AcDbEntity
  8
dimenzije novo stanje
  6
ByLayer
 62
  256
370
   -1
100
AcDbDimension
  2
*D15
 10
-1477.85518207567
 20
5985
 30
0
 11
-1665.35518207567
 21
7657.5
 31
0
 70
   33
 71
    5
  3
Standard
 53
0
210
0
220
0
230
1
100
AcDbAlignedDimension
 13
-1.717176682534694e-17
 23
9330
 33
0
 14
-4.274543384738119e-16
 24
5985
 34
0
  0
DIMENSION
  5
203
100
AcDbEntity
  8
dimenzije novo stanje
  6
ByLayer
 62
  256
370
   -1
100
AcDbDimension
  2
*D16
 10
-1477.855182075669
 20
2520
 30
0
 11
-1665.355182075669
 21
4192.5
 31
0
 70
   33
 71
    5
  3
Standard
 53
0
210
0
220
0
230
1
100
AcDbAlignedDimension
 13
-4.421729957526806e-16
 23
5865
 33
0
 14
-6.836202896404789e-13
 24
2520
 34
0
  0
LINE
  5
204
100
AcDbEntity
  8
novo stanje
  6
ByLayer
 62
  256
370
   -1
100
AcDbLine
 10
3590
 20
5985
 11
-6.328362334593947e-13
 21
5985
  0
LINE
  5
205
100
AcDbEntity
  8
novo stanje
  6
ByLayer
 62
  256
370
   -1
100
AcDbLine
 10
3590
 20
5865
 11
-6.622277566389312e-13
 21
5865
  0
LINE
  5
206
100
AcDbEntity
  8
novo stanje
  6
ByLayer
 62
  256
370
   -1
100
AcDbLine
 10
3590
 20
4979
 11
3590
 21
7830
  0
LINE
  5
207
100
AcDbEntity
  8
novo stanje
  6
ByLayer
 62
  256
370
   -1
100
AcDbLine
 10
3590
 20
4979
 11
3590
 21
2520
  0
LINE
  5
208
100
AcDbEntity
  8
novo stanje
  6
ByLayer
 62
  256
370
   -1
100
AcDbLine
 10
3450
 20
4979
 11
3450
 21
5120
  0
LINE
  5
209
100
AcDbEntity
  8
novo stanje
  6
ByLayer
 62
  256
370
   -1
100
AcDbLine
 10
3450
 20
4979
 11
3450
 21
2520
  0
LINE
  5
20A
100
AcDbEntity
  8
novo stanje
  6
ByLayer
 62
  256
370
   -1
100
AcDbLine
 10
-7.225416114969383e-13
 20
2380
 11
0
 21
0
  0
DIMENSION
  5
20B
100
AcDbEntity
  8
dimenzije novo stanje
  6
ByLayer
 62
  256
370
   -1
100
AcDbDimension
  2
*D17
 10
4920
 20
-2044.726759333087
 30
0
 11
2459.999999999999
 21
-1857.226759333087
 31
0
 70
   33
 71
    5
  3
Standard
 53
0
210
0
220
0
230
1
100
AcDbAlignedDimension
 13
-7.225416114969383e-13
 23
2380
 33
0
 14
4920
 24
2380
 34
0
  0
LINE
  5
20C
100
AcDbEntity
  8
novo stanje
  6
ByLayer
 62
  256
370
   -1
100
AcDbLine
 10
0
 20
0
 11
4920
 21
0
  0
LINE
  5
20D
100
AcDbEntity
  8
novo stanje
  6
ByLayer
 62
  256
370
   -1
100
AcDbLine
 10
4920
 20
1940
 11
4920
 21
0
  0
LINE
  5
20E
100
AcDbEntity
  8
stepeniste
  6
ByLayer
 62
  256
370
   -1
100
AcDbLine
 10
-4.95981953654678e-14
 20
-270
 11
5190
 21
-270
  0
LINE
  5
20F
100
AcDbEntity
  8
stepeniste
  6
ByLayer
 62
  256
370
   -1
100
AcDbLine
 10
5190
 20
1940
 11
5190
 21
-270.0000000000001
  0
LINE
  5
210
100
AcDbEntity
  8
stepeniste
  6
ByLayer
 62
  256
370
   -1
100
AcDbLine
 10
-9.919639073093561e-14
 20
-540
 11
5460
 21
-540
  0
LINE
  5
211
100
AcDbEntity
  8
stepeniste
  6
ByLayer
 62
  256
370
   -1
100
AcDbLine
 10
5460
 20
1940
 11
5460
 21
-540.0000000000001
  0
LINE
  5
212
100
AcDbEntity
  8
stepeniste
  6
ByLayer
 62
  256
370
   -1
100
AcDbLine
 10
-1.487945860964034e-13
 20
-810
 11
5730
 21
-810
  0
LINE
  5
213
100
AcDbEntity
  8
stepeniste
  6
ByLayer
 62
  256
370
   -1
100
AcDbLine
 10
5730
 20
1940
 11
5730
 21
-810.0000000000002
  0
DIMENSION
  5
214
100
AcDbEntity
  8
dimenzije stepeniste
  6
ByLayer
 62
  256
370
   -1
100
AcDbDimension
  2
*D18
 10
-993.0034480259078
 20
-810
 30
0
 11
-1180.503448025908
 21
-404.9999999999999
 31
0
 70
   33
 71
    5
  3
Standard
 53
0
210
0
220
0
230
1
100
AcDbAlignedDimension
 13
-1.159740518792543e-12
 23
0
 33
0
 14
-1.308535104888947e-12
 24
-810
 34
0
  0
DIMENSION
  5
215
100
AcDbEntity
  8
dimenzije stepeniste
  6
ByLayer
 62
  256
370
   -1
100
AcDbDimension
  2
*D19
 10
-543.6150262915558
 20
-810.0000000000022
 30
0
 11
-731.1150262915563
 21
-675.0000000000025
 31
0
 70
   33
 71
    5
  3
Standard
 53
0
210
0
220
0
230
1
100
AcDbAlignedDimension
 13
-1.258936909523479e-12
 23
-540
 33
0
 14
-1.487945860964034e-13
 24
-810
 34
0
  0
DIMENSION
  5
216
100
AcDbEntity
  8
dimenzije stepeniste
  6
ByLayer
 62
  256
370
   -1
100
AcDbDimension
  2
*D20
 10
5190
 20
-2418.451824121423
 30
0
 11
2595
 21
-2230.951824121423
 31
0
 70
   33
 71
    5
  3
Standard
 53
0
210
0
220
0
230
1
100
AcDbAlignedDimension
 13
-4.95981953654678e-14
 23
-270
 33
0
 14
5190
 24
-270.0000000000001
 34
0
  0
DIMENSION
  5
217
100
AcDbEntity
  8
dimenzije stepeniste
  6
ByLayer
 62
  256
370
   -1
100
AcDbDimension
  2
*D21
 10
5460
 20
-2855.264708654367
 30
0
 11
2730
 21
-2667.764708654367
 31
0
 70
   33
 71
    5
  3
Standard
 53
0
210
0
220
0
230
1
100
AcDbAlignedDimension
 13
-9.919639073093561e-14
 23
-540
 33
0
 14
5460
 24
-540.0000000000001
 34
0
  0
DIMENSION
  5
218
100
AcDbEntity
  8
dimenzije stepeniste
  6
ByLayer
 62
  256
370
   -1
100
AcDbDimension
  2
*D22
 10
5730
 20
-3430.579239502636
 30
0
 11
2864.999999999999
 21
-3243.079239502636
 31
0
 70
   33
 71
    5
  3
Standard
 53
0
210
0
220
0
230
1
100
AcDbAlignedDimension
 13
-1.487945860964034e-13
 23
-810
 33
0
 14
5730
 24
-810.0000000000002
 34
0
  0
DIMENSION
  5
219
100
AcDbEntity
  8
dimenzije stepeniste
  6
ByLayer
 62
  256
370
   -1
100
AcDbDimension
  2
*D23
 10
6392.383676091868
 20
1940
 30
0
 11
6204.883676091868
 21
970
 31
0
 70
   33
 71
    5
  3
Standard
 53
0
210
0
220
0
230
1
100
AcDbAlignedDimension
 13
4920
 23
0
 33
0
 14
4920
 24
1940
 34
0
  0
DIMENSION
  5
21A
100
AcDbEntity
  8
dimenzije stepeniste
  6
ByLayer
 62
  256
370
   -1
100
AcDbDimension
  2
*D24
 10
6914.428342972704
 20
1940
 30
0
 11
6726.928342972704
 21
835
 31
0
 70
   33
 71
    5
  3
Standard
 53
0
210
0
220
0
230
1
100
AcDbAlignedDimension
 13
5190
 23
-270
 33
0
 14
5190
 24
1940
 34
0
  0
DIMENSION
  5
21B
100
AcDbEntity
  8
dimenzije stepeniste
  6
ByLayer
 62
  256
370
   -1
100
AcDbDimension
  2
*D25
 10
7393.857118679593
 20
1940
 30
0
 11
7206.357118679593
 21
700
 31
0
 70
   33
 71
    5
  3
Standard
 53
0
210
0
220
0
230
1
100
AcDbAlignedDimension
 13
5460
 23
-540
 33
0
 14
5460
 24
1940
 34
0
  0
DIMENSION
  5
21C
100
AcDbEntity
  8
dimenzije stepeniste
  6
ByLayer
 62
  256
370
   -1
100
AcDbDimension
  2
*D26
 10
7883.93986717997
 20
1940
 30
0
 11
7696.43986717997
 21
565
 31
0
 70
   33
 71
    5
  3
Standard
 53
0
210
0
220
0
230
1
100
AcDbAlignedDimension
 13
5730
 23
-810
 33
0
 14
5730
 24
1940
 34
0
  0
LINE
  5
21D
100
AcDbEntity
  8
stepeniste
  6
ByLayer
 62
  256
370
   -1
100
AcDbLine
 10
-7.225416114969383e-13
 20
2380
 11
4920
 21
2380
  0
LINE
  5
21E
100
AcDbEntity
  8
stepeniste
  6
ByLayer
 62
  256
370
   -1
100
AcDbLine
 10
4920
 20
2380
 11
4920
 21
1940
  0
LINE
  5
21F
100
AcDbEntity
  8
kontura
  6
ByLayer
 62
  256
370
   -1
100
AcDbLine
 10
-1.327823291975517e-12
 20
-915
 11
9469.999999999998
 21
-915
  0
DIMENSION
  5
220
100
AcDbEntity
  8
kontura
  6
ByLayer
 62
  256
370
   -1
100
AcDbDimension
  2
*D27
 10
-132.7759600498801
 20
-914.9999999999985
 30
0
 11
-320.2759600498795
 21
-862.4999999999965
 31
0
 70
   33
 71
    5
  3
Standard
 53
0
210
0
220
0
230
1
100
AcDbAlignedDimension
 13
-1.487945860964034e-13
 23
-810
 33
0
 14
-1.327823291975517e-12
 24
-915
 34
0
  0
DIMENSION
  5
221
100
AcDbEntity
  8
dimenzije novo stanje
  6
ByLayer
 62
  256
370
   -1
100
AcDbDimension
  2
*D28
 10
9470
 20
-2038.422611630878
 30
0
 11
7195
 21
-1850.922611630878
 31
0
 70
   33
 71
    5
  3
Standard
 53
0
210
0
220
0
230
1
100
AcDbAlignedDimension
 13
4920
 23
1940
 33
0
 14
9470
 24
1940
 34
0
  0
LINE
  5
222
100
AcDbEntity
  8
stepeniste
  6
ByLayer
 62
  256
370
   -1
100
AcDbLine
 10
-1.983927814618712e-13
 20
-1080
 11
6000
 21
-1080
  0
DIMENSION
  5
223
100
AcDbEntity
  8
dimenzije stepeniste
  6
ByLayer
 62
  256
370
   -1
100
AcDbDimension
  2
*D29
 10
6000
 20
-3824.907836704005
 30
0
 11
2999.999999999999
 21
-3637.407836704005
 31
0
 70
   33
 71
    5
  3
Standard
 53
0
210
0
220
0
230
1
100
AcDbAlignedDimension
 13
-1.983927814618712e-13
 23
-1080
 33
0
 14
6000
 24
-1080
 34
0
  0
LINE
  5
224
100
AcDbEntity
  8
stepeniste
  6
ByLayer
 62
  256
370
   -1
100
AcDbLine
 10
6000
 20
1940
 11
6000
 21
-1080
  0
DIMENSION
  5
225
100
AcDbEntity
  8
dimenzije stepeniste
  6
ByLayer
 62
  256
370
   -1
100
AcDbDimension
  2
*D30
 10
8440.296626326839
 20
1940
 30
0
 11
8252.796626326839
 21
430
 31
0
 70
   33
 71
    5
  3
Standard
 53
0
210
0
220
0
230
1
100
AcDbAlignedDimension
 13
6000
 23
-1080
 33
0
 14
6000
 24
1940
 34
0
  0
DIMENSION
  5
226
100
AcDbEntity
  8
kontura
  6
ByLayer
 62
  256
370
   -1
100
AcDbDimension
  2
*D31
 10
-348.1680730196863
 20
-1080
 30
0
 11
-535.6680730196863
 21
-997.5
 31
0
 70
   33
 71
    5
  3
Standard
 53
0
210
0
220
0
230
1
100
AcDbAlignedDimension
 13
-1.680827731829743e-13
 23
-915
 33
0
 14
-1.983927814618712e-13
 24
-1080
 34
0
  0
LINE
  5
227
100
AcDbEntity
  8
stepeniste
  6
ByLayer
 62
  256
370
   -1
100
AcDbLine
 10
-1.053752745551342e-13
 20
-1080
 11
-7.225416114969383e-13
 21
2380
  0
LINE
  5
228
100
AcDbEntity
  8
stepeniste
  6
ByLayer
 62
  256
370
   -1
100
AcDbLine
 10
4920
 20
1940
 11
6000
 21
1940
  0
LINE
  5
229
100
AcDbEntity
  8
instalacije temelj
  6
ByLayer
 62
  256
370
   -1
100
AcDbLine
 10
9470
 20
1940
 11
11070
 21
1940
  0
LINE
  5
22A
100
AcDbEntity
  8
instalacije temelj
  6
ByLayer
 62
  256
370
   -1
100
AcDbLine
 10
11070
 20
1940
 11
11070
 21
1790
  0
CIRCLE
  5
22B
100
AcDbEntity
  8
instalacije temelj
  6
ByLayer
 62
  256
370
   -1
100
AcDbCircle
 10
11070
 20
1790
 40
150
  0
LINE
  5
22C
100
AcDbEntity
  8
instalacije temelj
  6
ByLayer
 62
  256
370
   -1
100
AcDbLine
 10
4920
 20
1940
 11
4920
 21
-2860
  0
LINE
  5
22D
100
AcDbEntity
  8
instalacije temelj
  6
ByLayer
 62
  256
370
   -1
100
AcDbLine
 10
4920
 20
-2860
 11
5120
 21
-2860
  0
CIRCLE
  5
22E
100
AcDbEntity
  8
instalacije temelj
  6
ByLayer
 62
  256
370
   -1
100
AcDbCircle
 10
5120
 20
-2860
 40
150
  0
LINE
  5
22F
100
AcDbEntity
  8
instalacije temelj
  6
ByLayer
 62
  256
370
   -1
100
AcDbLine
 10
3590
 20
9470
 11
3740
 21
9470
  0
LINE
  5
230
100
AcDbEntity
  8
instalacije temelj
  6
ByLayer
 62
  256
370
   -1
100
AcDbLine
 10
3740
 20
9470
 11
3740
 21
9620
  0
CIRCLE
  5
231
100
AcDbEntity
  8
instalacije temelj
  6
ByLayer
 62
  256
370
   -1
100
AcDbCircle
 10
3740
 20
9620
 40
150
  0
LINE
  5
232
100
AcDbEntity
  8
temelj
  6
ByLayer
 62
  256
370
   -1
100
AcDbLine
 10
-350
 20
4977
 11
-350.0000000000007
 21
2380
  0
LINE
  5
233
100
AcDbEntity
  8
temelj
  6
ByLayer
 62
  256
370
   -1
100
AcDbLine
 10
-349.9999999999999
 20
9820.000000000002
 11
-350
 21
4977
  0
LINE
  5
234
100
AcDbEntity
  8
temelj
  6
ByLayer
 62
  256
370
   -1
100
AcDbLine
 10
-349.9999999999994
 20
9820
 11
5060
 21
9820
  0
LINE
  5
235
100
AcDbEntity
  8
temelj
  6
ByLayer
 62
  256
370
   -1
100
AcDbLine
 10
5060
 20
9820
 11
9820
 21
9820
  0
LINE
  5
236
100
AcDbEntity
  8
temelj
  6
ByLayer
 62
  256
370
   -1
100
AcDbLine
 10
9820
 20
9819.999999999998
 11
9819.999999999998
 21
1590
  0
LINE
  5
237
100
AcDbEntity
  8
temelj
  6
ByLayer
 62
  256
370
   -1
100
AcDbLine
 10
9819.999999999998
 20
1590
 11
9820
 21
450
  0
LINE
  5
238
100
AcDbEntity
  8
temelj
  6
ByLayer
 62
  256
370
   -1
100
AcDbLine
 10
9820
 20
450
 11
9820
 21
-350
  0
LINE
  5
239
100
AcDbEntity
  8
temelj
  6
ByLayer
 62
  256
370
   -1
100
AcDbLine
 10
9469.999999999998
 20
1590
 11
9470
 21
449.9999999999995
  0
LINE
  5
23A
100
AcDbEntity
  8
temelj
  6
ByLayer
 62
  256
370
   -1
100
AcDbLine
 10
-350.0000000000003
 20
4.286263797015726e-14
 11
0
 21
0
  0
LINE
  5
23B
100
AcDbEntity
  8
temelj
  6
ByLayer
 62
  256
370
   -1
100
AcDbLine
 10
4920
 20
1590
 11
4920
 21
1940
  0
LINE
  5
23C
100
AcDbEntity
  8
temelj
  6
ByLayer
 62
  256
370
   -1
100
AcDbLine
 10
-3.410605131648481e-13
 20
-4.286263797015747e-14
 11
-7.389644451905042e-13
 21
2380
  0
LINE
  5
23D
100
AcDbEntity
  8
temelj
  6
ByLayer
 62
  256
370
   -1
100
AcDbLine
 10
9469.999999999998
 20
1590
 11
4920
 21
1590
  0
LINE
  5
23E
100
AcDbEntity
  8
temelj
  6
ByLayer
 62
  256
370
   -1
100
AcDbLine
 10
9469.999999999998
 20
1940
 11
4920
 21
1940
  0
LINE
  5
23F
100
AcDbEntity
  8
temelj
  6
ByLayer
 62
  256
370
   -1
100
AcDbLine
 10
5060
 20
9470
 11
9470
 21
9469.999999999998
  0
LINE
  5
240
100
AcDbEntity
  8
temelj
  6
ByLayer
 62
  256
370
   -1
100
AcDbLine
 10
9470
 20
9469.999999999998
 11
9469.999999999998
 21
1940
  0
LINE
  5
241
100
AcDbEntity
  8
temelj
  6
ByLayer
 62
  256
370
   -1
100
AcDbLine
 10
-1.97215226305253e-31
 20
9470
 11
5060
 21
9470
  0
LINE
  5
242
100
AcDbEntity
  8
temelj
  6
ByLayer
 62
  256
370
   -1
100
AcDbLine
 10
5.273538735114811e-14
 20
9470
 11
0
 21
4977
  0
LINE
  5
243
100
AcDbEntity
  8
temelj
  6
ByLayer
 62
  256
370
   -1
100
AcDbLine
 10
0
 20
4977
 11
-7.389644451905042e-13
 21
2380
  0
LWPOLYLINE
  5
244
100
AcDbEntity
  8
temelj
  6
ByLayer
 62
  256
370
   -1
100
AcDbPolyline
 90
    4
 70
    1
 43
0
 10
9820
 20
9820
 10
9220
 20
9820
 10
9220
 20
9220
 10
9820
 20
9220
  0
LWPOLYLINE
  5
245
100
AcDbEntity
  8
temelj
  6
ByLayer
 62
  256
370
   -1
100
AcDbPolyline
 90
    4
 70
    1
 43
0
 10
-349.9999999999994
 20
9820
 10
250.0000000000006
 20
9820
 10
250.0000000000006
 20
9220
 10
-349.9999999999994
 20
9220
  0
LWPOLYLINE
  5
246
100
AcDbEntity
  8
temelj
  6
ByLayer
 62
  256
370
   -1
100
AcDbPolyline
 90
    4
 70
    1
 43
0
 10
4920
 20
1940
 10
5520
 20
1940
 10
5520
 20
1340
 10
4920
 20
1340
  0
LWPOLYLINE
  5
247
100
AcDbEntity
  8
temelj
  6
ByLayer
 62
  256
370
   -1
100
AcDbPolyline
 90
    4
 70
    1
 43
0
 10
9820
 20
-350
 10
9020
 20
-350
 10
9020
 20
450
 10
9820
 20
450
  0
LINE
  5
248
100
AcDbEntity
  8
temelj
  6
ByLayer
 62
  256
370
   -1
100
AcDbLine
 10
3820
 20
9220
 11
3820
 21
9820
  0
LINE
  5
249
100
AcDbEntity
  8
temelj
  6
ByLayer
 62
  256
370
   -1
100
AcDbLine
 10
3220
 20
9220
 11
3820
 21
9220
  0
LINE
  5
24A
100
AcDbEntity
  8
temelj
  6
ByLayer
 62
  256
370
   -1
100
AcDbLine
 10
3220
 20
9220
 11
3220
 21
9820
  0
LINE
  5
24B
100
AcDbEntity
  8
temelj
  6
ByLayer
 62
  256
370
   -1
100
AcDbLine
 10
4690
 20
9220
 11
5060
 21
9220
  0
LINE
  5
24C
100
AcDbEntity
  8
temelj
  6
ByLayer
 62
  256
370
   -1
100
AcDbLine
 10
4690
 20
9220
 11
4690
 21
9820
  0
LINE
  5
24D
100
AcDbEntity
  8
temelj
  6
ByLayer
 62
  256
370
   -1
100
AcDbLine
 10
5060
 20
9220
 11
5290
 21
9220
  0
LINE
  5
24E
100
AcDbEntity
  8
temelj
  6
ByLayer
 62
  256
370
   -1
100
AcDbLine
 10
5290
 20
9220
 11
5290
 21
9820
  0
LINE
  5
24F
100
AcDbEntity
  8
temelj
  6
ByLayer
 62
  256
370
   -1
100
AcDbLine
 10
250
 20
6215
 11
-350.0000000000006
 21
6215
  0
LINE
  5
250
100
AcDbEntity
  8
temelj
  6
ByLayer
 62
  256
370
   -1
100
AcDbLine
 10
250.0000000000001
 20
5635
 11
-350.0000000000007
 21
5635
  0
LINE
  5
251
100
AcDbEntity
  8
temelj
  6
ByLayer
 62
  256
370
   -1
100
AcDbLine
 10
250
 20
6215
 11
250.0000000000001
 21
5635
  0
LINE
  5
252
100
AcDbEntity
  8
temelj
  6
ByLayer
 62
  256
370
   -1
100
AcDbLine
 10
249.9999999999994
 20
2750
 11
249.9999999999993
 21
2380
  0
LINE
  5
253
100
AcDbEntity
  8
temelj
  6
ByLayer
 62
  256
370
   -1
100
AcDbLine
 10
249.9999999999993
 20
2150
 11
249.9999999999993
 21
2380
  0
LINE
  5
254
100
AcDbEntity
  8
temelj
  6
ByLayer
 62
  256
370
   -1
100
AcDbLine
 10
-351.0000000000007
 20
2750
 11
249.9999999999994
 21
2750
  0
LINE
  5
255
100
AcDbEntity
  8
temelj
  6
ByLayer
 62
  256
370
   -1
100
AcDbLine
 10
-350.0000000000007
 20
2150
 11
249.9999999999993
 21
2150
  0
LINE
  5
256
100
AcDbEntity
  8
temelj
  6
ByLayer
 62
  256
370
   -1
100
AcDbLine
 10
7669.999999999999
 20
2190
 11
7669.999999999998
 21
1590.000000000001
  0
LINE
  5
257
100
AcDbEntity
  8
temelj
  6
ByLayer
 62
  256
370
   -1
100
AcDbLine
 10
8269.999999999998
 20
2190
 11
7669.999999999999
 21
2190
  0
LINE
  5
258
100
AcDbEntity
  8
temelj
  6
ByLayer
 62
  256
370
   -1
100
AcDbLine
 10
8269.999999999998
 20
2190
 11
8269.999999999998
 21
1590
  0
LINE
  5
259
100
AcDbEntity
  8
temelj
  6
ByLayer
 62
  256
370
   -1
100
AcDbLine
 10
9819.999999999998
 20
3740
 11
9219.999999999998
 21
3740
  0
LINE
  5
25A
100
AcDbEntity
  8
temelj
  6
ByLayer
 62
  256
370
   -1
100
AcDbLine
 10
9219.999999999998
 20
3740
 11
9219.999999999998
 21
3140
  0
LINE
  5
25B
100
AcDbEntity
  8
temelj
  6
ByLayer
 62
  256
370
   -1
100
AcDbLine
 10
9819.999999999998
 20
3140
 11
9219.999999999998
 21
3140
  0
LINE
  5
25C
100
AcDbEntity
  8
temelj
  6
ByLayer
 62
  256
370
   -1
100
AcDbLine
 10
9220
 20
6150
 11
9820
 21
6150
  0
LINE
  5
25D
100
AcDbEntity
  8
temelj
  6
ByLayer
 62
  256
370
   -1
100
AcDbLine
 10
9220
 20
6150
 11
9220
 21
5550
  0
LINE
  5
25E
100
AcDbEntity
  8
temelj
  6
ByLayer
 62
  256
370
   -1
100
AcDbLine
 10
9820
 20
5550
 11
9220
 21
5550
  0
LINE
  5
25F
100
AcDbEntity
  8
temelj
  6
ByLayer
 62
  256
370
   -1
100
AcDbLine
 10
-350.0000000000004
 20
-299.9999999999999
 11
-5.510910596163089e-14
 21
-300
  0
LINE
  5
260
100
AcDbEntity
  8
temelj
  6
ByLayer
 62
  256
370
   -1
100
AcDbLine
 10
-350.0000000000003
 20
-299.9999999999999
 11
-350.0000000000007
 21
2380
  0
LINE
  5
261
100
AcDbEntity
  8
temelj
  6
ByLayer
 62
  256
370
   -1
100
AcDbLine
 10
-5.510910596163089e-14
 20
-300
 11
299.9999999999999
 21
-300
  0
LINE
  5
262
100
AcDbEntity
  8
temelj
  6
ByLayer
 62
  256
370
   -1
100
AcDbLine
 10
-350.0000000000003
 20
300.0000000000001
 11
1.83697019872103e-14
 21
300
  0
LINE
  5
263
100
AcDbEntity
  8
temelj
  6
ByLayer
 62
  256
370
   -1
100
AcDbLine
 10
1.83697019872103e-14
 20
300
 11
299.9999999999998
 21
300
  0
LINE
  5
264
100
AcDbEntity
  8
podrum
  6
ByLayer
 62
  256
370
   -1
100
AcDbLine
 10
7.34788079488412e-15
 20
120
 11
4920
 21
120
  0
LINE
  5
265
100
AcDbEntity
  8
temelj
  6
ByLayer
 62
  256
370
   -1
100
AcDbLine
 10
299.9999999999998
 20
300
 11
299.9999999999999
 21
-300.0000000000001
  0
LINE
  5
266
100
AcDbEntity
  8
podrum
  6
ByLayer
 62
  256
370
   -1
100
AcDbLine
 10
7.34788079488412e-15
 20
120
 11
4920
 21
120
  0
LINE
  5
267
100
AcDbEntity
  8
podrum
  6
ByLayer
 62
  256
370
   -1
100
AcDbLine
 10
-1.469576158976824e-14
 20
0
 11
4920
 21
0
  0
LINE
  5
268
100
AcDbEntity
  8
podrum
  6
ByLayer
 62
  256
370
   -1
100
AcDbLine
 10
4800
 20
1940
 11
4800
 21
2380
  0
LINE
  5
269
100
AcDbEntity
  8
podrum
  6
ByLayer
 62
  256
370
   -1
100
AcDbLine
 10
4920
 20
1940
 11
4920
 21
2380
  0
LINE
  5
26A
100
AcDbEntity
  8
podrum
  6
ByLayer
 62
  256
370
   -1
100
AcDbLine
 10
-2.287716368206244e-13
 20
5080
 11
0
 21
1.469576158976823e-14
  0
LINE
  5
26B
100
AcDbEntity
  8
podrum
  6
ByLayer
 62
  256
370
   -1
100
AcDbLine
 10
4800
 20
4940
 11
4800
 21
0
  0
LINE
  5
26C
100
AcDbEntity
  8
podrum
  6
ByLayer
 62
  256
370
   -1
100
AcDbLine
 10
4920
 20
4940
 11
4920
 21
0
  0
LINE
  5
26D
100
AcDbEntity
  8
podrum
  6
ByLayer
 62
  256
370
   -1
100
AcDbLine
 10
119.9999999999998
 20
5080
 11
119.9999999999998
 21
0
  0
LINE
  5
26E
100
AcDbEntity
  8
podrum
  6
ByLayer
 62
  256
370
   -1
100
AcDbLine
 10
0
 20
5120
 11
4920
 21
5120
  0
LINE
  5
26F
100
AcDbEntity
  8
podrum
  6
ByLayer
 62
  256
370
   -1
100
AcDbLine
 10
-2.204364238465236e-14
 20
5000
 11
4920
 21
5000
  0
LINE
  5
270
100
AcDbEntity
  8
podrum
  6
ByLayer
 62
  256
370
   -1
100
AcDbLine
 10
4800
 20
4940
 11
4800.045652890668
 21
5120.048696416713
  0
LINE
  5
271
100
AcDbEntity
  8
podrum
  6
ByLayer
 62
  256
370
   -1
100
AcDbLine
 10
4920
 20
4940
 11
4920
 21
5120
  0
LINE
  5
272
100
AcDbEntity
  8
podrum
  6
ByLayer
 62
  256
370
   -1
100
AcDbLine
 10
-2.287716368206244e-13
 20
5080
 11
0
 21
5120
  0
LINE
  5
273
100
AcDbEntity
  8
podrum
  6
ByLayer
 62
  256
370
   -1
100
AcDbLine
 10
119.9999999999998
 20
5080
 11
119.9999999999998
 21
5120.000000090059
  0
LWPOLYLINE
  5
274
100
AcDbEntity
  8
temelj
  6
ByLayer
 62
  256
370
   -1
100
AcDbPolyline
 90
    4
 70
    1
 43
0
 10
4796.709944013723
 20
1869.242301871532
 10
5196.709944013723
 20
1869.242301871532
 10
5196.709944013723
 20
2669.242301871532
 10
4796.709944013723
 20
2669.242301871532
  0
LWPOLYLINE
  5
275
100
AcDbEntity
  8
temelj
  6
ByLayer
 62
  256
370
   -1
100
AcDbPolyline
 90
    4
 70
    1
 43
0
 10
4800.015213514424
 20
5000
 10
5300.015213514424
 20
5000
 10
5300.015213514424
 20
5500
 10
4800.015213514424
 20
5500
  0
LWPOLYLINE
  5
276
100
AcDbEntity
  8
temelj
  6
ByLayer
 62
  256
370
   -1
100
AcDbPolyline
 90
    4
 70
    1
 43
0
 10
119.9999999999998
 20
5000
 10
-380.0000000000002
 20
5000
 10
-380.0000000000002
 20
5500
 10
119.9999999999998
 20
5500
  0
LINE
  5
277
100
AcDbEntity
  8
temelj
  6
ByLayer
 62
  256
370
   -1
100
AcDbLine
 10
5150
 20
4940
 11
5150
 21
-5.633375276077825e-14
  0
LINE
  5
278
100
AcDbEntity
  8
temelj
  6
ByLayer
 62
  256
370
   -1
100
AcDbLine
 10
-5.694607616035192e-14
 20
-230
 11
4920
 21
-230
  0
LINE
  5
279
100
AcDbEntity
  8
temelj
  6
ByLayer
 62
  256
370
   -1
100
AcDbLine
 10
2.143131898507868e-14
 20
350
 11
4920
 21
350
  0
LINE
  5
27A
100
AcDbEntity
  8
temelj
  6
ByLayer
 62
  256
370
   -1
100
AcDbLine
 10
4570
 20
350
 11
4570
 21
8.450062914116737e-14
  0
DIMENSION
  5
27B
100
AcDbEntity
  8
temelj
  6
ByLayer
 62
  256
370
   -1
100
AcDbDimension
  2
*D32
 10
6000
 20
-1080
 30
0
 11
5727.582521472477
 21
-542.4174785275226
 31
0
 70
   33
 71
    5
 72
    0
  3
Standard
 53
0
210
0
220
0
230
1
100
AcDbAlignedDimension
 13
5190
 23
-270.0000000000001
 33
0
 14
6000
 24
-1080
 34
0
  0
DIMENSION
  5
27C
100
AcDbEntity
  8
temelj
  6
ByLayer
 62
  256
370
   -1
100
AcDbDimension
  2
*D33
 10
5730
 20
-1350
 30
0
 11
5727.582521472477
 21
-1082.417478527522
 31
0
 70
   33
 71
    5
 72
    0
  3
Standard
 53
0
210
0
220
0
230
1
100
AcDbAlignedDimension
 13
5730
 23
-810.0000000000002
 33
0
 14
6000
 24
-1080
 34
0
  0
LINE
  5
27D
100
AcDbEntity
  8
stepeniste
  6
ByLayer
 62
  256
370
   -1
100
AcDbLine
 10
-3.735172737399426e-14
 20
-70
 11
5190
 21
-70
  0
LINE
  5
27E
100
AcDbEntity
  8
stepeniste
  6
ByLayer
 62
  256
370
   -1
100
AcDbLine
 10
99.9999999999999
 20
-1080
 11
99.9999999999994
 21
1750
  0
DIMENSION
  5
27F
100
AcDbEntity
  8
dimenzije stepeniste
  6
ByLayer
 62
  256
370
   -1
100
AcDbDimension
  2
*D34
 10
-1600
 20
1750
 30
0
 11
-1412.5
 21
840.0000000000002
 31
0
 70
   33
 71
    5
  3
Standard
 53
0
210
0
220
0
230
1
100
AcDbAlignedDimension
 13
99.99999999999973
 23
-70
 33
0
 14
99.9999999999994
 24
1750
 34
0
  0
LINE
  5
280
100
AcDbEntity
  8
dimenzije stepeniste
  6
ByLayer
 62
  256
370
   -1
100
AcDbLine
 10
1140
 20
-70.00000000000003
 11
1139.999999999999
 21
1750
  0
LINE
  5
281
100
AcDbEntity
  8
stepeniste
  6
ByLayer
 62
  256
370
   -1
100
AcDbLine
 10
99.9999999999994
 20
1750
 11
1139.999999999999
 21
1750
  0
DIMENSION
  5
282
100
AcDbEntity
  8
dimenzije stepeniste
  6
ByLayer
 62
  256
370
   -1
100
AcDbDimension
  2
*D35
 10
1139.999999999999
 20
2800
 30
0
 11
619.9999999999994
 21
2987.5
 31
0
 70
   33
 71
    5
  3
Standard
 53
0
210
0
220
0
230
1
100
AcDbAlignedDimension
 13
99.9999999999994
 23
1750
 33
0
 14
1139.999999999999
 24
1750
 34
0
  0
DIMENSION
  5
283
100
AcDbEntity
  8
dimenzije postojece stanje
  6
ByLayer
 62
  256
370
   -1
100
AcDbDimension
  2
*D36
 10
4920
 20
10200
 30
0
 11
4255
 21
10387.5
 31
0
 70
   33
 71
    5
 72
    0
  3
Standard
 53
0
210
0
220
0
230
1
100
AcDbAlignedDimension
 13
3590
 23
9470
 33
0
 14
4920
 24
9470
 34
0
  0
LINE
  5
284
100
AcDbEntity
  8
krov
  6
ByLayer
 62
  256
370
   -1
100
AcDbLine
 10
9470
 20
9470
 11
9478.660254037844
 21
9475
  0
LINE
  5
285
100
AcDbEntity
  8
krov
  6
ByLayer
 62
  256
370
   -1
100
AcDbLine
 10
4735
 20
4735
 11
4743.660254037844
 21
4740
  0
LINE
  5
286
100
AcDbEntity
  8
krov
  6
ByLayer
 62
  256
370
   -1
100
AcDbLine
 10
9470
 20
9469.999999999998
 11
9478.660254037844
 21
9474.999999999998
  0
LINE
  5
287
100
AcDbEntity
  8
krov
  6
ByLayer
 62
  256
370
   -1
100
AcDbLine
 10
4735
 20
4735
 11
4743.660254037844
 21
4740
  0
LINE
  5
288
100
AcDbEntity
  8
krov
  6
ByLayer
 62
  256
370
   -1
100
AcDbLine
 10
9469.999999999995
 20
9469.999999999995
 11
9478.660254037839
 21
9474.999999999995
  0
LINE
  5
289
100
AcDbEntity
  8
krov
  6
ByLayer
 62
  256
370
   -1
100
AcDbLine
 10
0
 20
-0
 11
8.660254037844387
 21
4.999999999999999
  0
LINE
  5
28A
100
AcDbEntity
  8
krov
  6
ByLayer
 62
  256
370
   -1
100
AcDbLine
 10
9470
 20
-0
 11
9478.660254037844
 21
4.999999999999999
  0
LINE
  5
28B
100
AcDbEntity
  8
krov
  6
ByLayer
 62
  256
370
   -1
100
AcDbLine
 10
-0
 20
0
 11
8.660254037844387
 21
4.999999999999999
  0
LINE
  5
28C
100
AcDbEntity
  8
krov
  6
ByLayer
 62
  256
370
   -1
100
AcDbLine
 10
9470
 20
-0
 11
9478.660254037844
 21
4.999999999999999
  0
LINE
  5
28D
100
AcDbEntity
  8
krov
  6
ByLayer
 62
  256
370
   -1
100
AcDbLine
 10
0
 20
-0
 11
8.660254037844387
 21
4.999999999999999
  0
LINE
  5
28E
100
AcDbEntity
  8
krov
  6
ByLayer
 62
  256
370
   -1
100
AcDbLine
 10
9470
 20
-0
 11
9478.660254037844
 21
4.999999999999999
  0
LINE
  5
28F
100
AcDbEntity
  8
krov
  6
ByLayer
 62
  256
370
   -1
100
AcDbLine
 10
11100
 20
-1630
 11
11100
 21
11100
  0
LINE
  5
290
100
AcDbEntity
  8
krov
  6
ByLayer
 62
  256
370
   -1
100
AcDbLine
 10
11100
 20
-1630
 11
-1630
 21
-1630
  0
LINE
  5
291
100
AcDbEntity
  8
krov
  6
ByLayer
 62
  256
370
   -1
100
AcDbLine
 10
-1630
 20
-1630
 11
-1630
 21
11100
  0
LINE
  5
292
100
AcDbEntity
  8
krov
  6
ByLayer
 62
  256
370
   -1
100
AcDbLine
 10
-1630
 20
11100
 11
11100
 21
11100
  0
LINE
  5
293
100
AcDbEntity
  8
krov
  6
ByLayer
 62
  256
370
   -1
100
AcDbLine
 10
9470
 20
-1.484978040559188e-13
 11
-7.424890202795938e-14
 21
-7.424890202795938e-14
  0
LINE
  5
294
100
AcDbEntity
  8
krov
  6
ByLayer
 62
  256
370
   -1
100
AcDbLine
 10
-7.424890202795938e-14
 20
-7.424890202795938e-14
 11
7.424890202795937e-14
 21
9470
  0
LINE
  5
295
100
AcDbEntity
  8
krov
  6
ByLayer
 62
  256
370
   -1
100
AcDbLine
 10
0
 20
9470
 11
9470.000000000004
 21
9470
  0
LINE
  5
296
100
AcDbEntity
  8
krov
  6
ByLayer
 62
  256
370
   -1
100
AcDbLine
 10
9469.999999999996
 20
-1.484978040559186e-13
 11
9470
 21
9470
  0
LINE
  5
297
100
AcDbEntity
  8
krov
  6
ByLayer
 62
  256
370
   -1
100
AcDbLine
 10
9740
 20
-270.0000000000003
 11
-270.0000000000001
 21
-269.9999999999999
  0
LINE
  5
298
100
AcDbEntity
  8
krov
  6
ByLayer
 62
  256
370
   -1
100
AcDbLine
 10
9740
 20
-270.0000000000001
 11
9740
 21
9740
  0
LINE
  5
299
100
AcDbEntity
  8
krov
  6
ByLayer
 62
  256
370
   -1
100
AcDbLine
 10
-270
 20
9740
 11
9742
 21
9740
  0
LINE
  5
29A
100
AcDbEntity
  8
krov
  6
ByLayer
 62
  256
370
   -1
100
AcDbLine
 10
-270.0000000000001
 20
-270.0000000000001
 11
-269.9999999999999
 21
9740
  0
LINE
  5
29B
100
AcDbEntity
  8
krov
  6
ByLayer
 62
  256
370
   -1
100
AcDbLine
 10
-1630
 20
-1630
 11
11100
 21
11100
  0
LINE
  5
29C
100
AcDbEntity
  8
krov
  6
ByLayer
 62
  256
370
   -1
100
AcDbLine
 10
-1630
 20
11100
 11
11100
 21
-1630
  0
DIMENSION
  5
29D
100
AcDbEntity
  8
dimenzije krov
  6
ByLayer
 62
  256
370
   -1
100
AcDbDimension
  2
*D37
 10
18500
 20
3499.999999999999
 30
0
 11
12052.41747852752
 21
-2682.417478527525
 31
0
 70
   33
 71
    5
  3
Standard
 53
0
210
0
220
0
230
1
100
AcDbAlignedDimension
 13
-1630
 23
-1630
 33
0
 14
11000
 24
11000
 34
0
  0
DIMENSION
  5
29E
100
AcDbEntity
  8
dimenzije krov
  6
ByLayer
 62
  256
370
   -1
100
AcDbDimension
  2
*D38
 10
11735
 20
-2264.999999999998
 30
0
 11
8419.917478527519
 21
-5314.917478527523
 31
0
 70
   33
 71
    5
  3
Standard
 53
0
210
0
220
0
230
1
100
AcDbAlignedDimension
 13
-1630
 23
-1630
 33
0
 14
4735
 24
4735
 34
0
  0
DIMENSION
  5
29F
100
AcDbEntity
  8
dimenzije krov
  6
ByLayer
 62
  256
370
   -1
100
AcDbDimension
  2
*D39
 10
-4000
 20
-1630
 30
0
 11
-4187.5
 21
4734.999999999999
 31
0
 70
   33
 71
    5
  3
Standard
 53
0
210
0
220
0
230
1
100
AcDbAlignedDimension
 13
-1630
 23
11100
 33
0
 14
-1630
 24
-1630
 34
0
  0
DIMENSION
  5
2A0
100
AcDbEntity
  8
dimenzije krov
  6
ByLayer
 62
  256
370
   -1
100
AcDbDimension
  2
*D40
 10
4734.999999999998
 20
-1630
 30
0
 11
4547.499999999998
 21
1552.499999999999
 31
0
 70
   33
 71
    5
  3
Standard
 53
0
210
0
220
0
230
1
100
AcDbAlignedDimension
 13
4734.999999999998
 23
4734.999999999998
 33
0
 14
4734.999999999998
 24
-1630
 34
0
  0
ENDSEC
  0
SECTION
  2
OBJECTS
  0
DICTIONARY
  5
C
330
0
100
AcDbDictionary
281
    1
  3
ACAD_GROUP
350
D
  0
DICTIONARY
  5
D
330
C
100
AcDbDictionary
281
    1
  0
ENDSEC
  0
EOF
