999
dxfrw 0.6.3
  0
SECTION
  2
HEADER
  9
$ACADVER
  1
AC1021
  9
$DWGCODEPAGE
  3
ANSI_1252
  9
$INSBASE
 10
0
 20
0
 30
0
  9
$EXTMIN
 10
-6013.803639840204
 20
-2004.930555555556
 30
0
  9
$EXTMAX
 10
6532.464873468877
 20
7338.546382614532
 30
0
  9
$LIMMIN
 10
0
 20
0
  9
$LIMMAX
 10
420
 20
297
  9
$ORTHOMODE
 70
    0
  9
$REGENMODE
 70
    1
  9
$FILLMODE
 70
    1
  9
$QTEXTMODE
 70
    0
  9
$MIRRTEXT
 70
    0
  9
$LTSCALE
 40
1
  9
$ATTMODE
 70
    0
  9
$TEXTSIZE
 40
2.5
  9
$TRACEWID
 40
15.68
  9
$TEXTSTYLE
  7
STANDARD
  9
$CLAYER
  8
poklopci 
  9
$CELTYPE
  6
BYLAYER
  9
$CECOLOR
 62
  256
  9
$CELTSCALE
 40
1
  9
$DISPSILH
 70
    0
  9
$DIMSCALE
 40
1
  9
$DIMASZ
 40
2.5
  9
$DIMEXO
 40
0.625
  9
$DIMDLI
 40
3.75
  9
$DIMRND
 40
0
  9
$DIMDLE
 40
0
  9
$DIMEXE
 40
1.25
  9
$DIMTP
 40
0
  9
$DIMTM
 40
0
  9
$DIMTXT
 40
25
  9
$DIMCEN
 40
2.5
  9
$DIMTSZ
 40
0
  9
$DIMTOL
 70
    0
  9
$DIMLIM
 70
    0
  9
$DIMTIH
 70
    0
  9
$DIMTOH
 70
    0
  9
$DIMSE1
 70
    0
  9
$DIMSE2
 70
    0
  9
$DIMTAD
 70
    1
  9
$DIMZIN
 70
    1
  9
$DIMBLK
  1

  9
$DIMASO
 70
    1
  9
$DIMSHO
 70
    1
  9
$DIMPOST
  1

  9
$DIMAPOST
  1

  9
$DIMALT
 70
    0
  9
$DIMALTD
 70
    3
  9
$DIMALTF
 40
0.03937
  9
$DIMLFAC
 40
1
  9
$DIMTOFL
 70
    1
  9
$DIMTVP
 40
0
  9
$DIMTIX
 70
    0
  9
$DIMSOXD
 70
    0
  9
$DIMSAH
 70
    0
  9
$DIMBLK1
  1

  9
$DIMBLK2
  1

  9
$DIMSTYLE
  2
STANDARD
  9
$DIMCLRD
 70
    0
  9
$DIMCLRE
 70
    0
  9
$DIMCLRT
 70
    0
  9
$DIMTFAC
 40
1
  9
$DIMGAP
 40
0.625
  9
$DIMJUST
 70
    0
  9
$DIMSD1
 70
    0
  9
$DIMSD2
 70
    0
  9
$DIMTOLJ
 70
    0
  9
$DIMTZIN
 70
    8
  9
$DIMALTZ
 70
    0
  9
$DIMALTTZ
 70
    0
  9
$DIMUPT
 70
    0
  9
$DIMDEC
 70
    4
  9
$DIMTDEC
 70
    2
  9
$DIMALTU
 70
    2
  9
$DIMALTTD
 70
    3
  9
$DIMTXSTY
  7
standard
  9
$DIMAUNIT
 70
    0
  9
$DIMADEC
 70
    2
  9
$DIMALTRND
 40
0
  9
$DIMAZIN
 70
    0
  9
$DIMDSEP
 70
   44
  9
$DIMATFIT
 70
    3
  9
$DIMFRAC
 70
    0
  9
$DIMLDRBLK
  1
STANDARD
  9
$DIMLUNIT
 70
    2
  9
$DIMLWD
 70
   -2
  9
$DIMLWE
 70
   -2
  9
$DIMTMOVE
 70
    0
  9
$DIMFXL
 40
1
  9
$DIMFXLON
 70
    0
  9
$DIMJOGANG
 40
0.7854
  9
$DIMTFILL
 70
    0
  9
$DIMTFILLCLR
 70
    0
  9
$DIMARCSYM
 70
    0
  9
$DIMLTYPE
  6

  9
$DIMLTEX1
  6

  9
$DIMLTEX2
  6

  9
$LUNITS
 70
    2
  9
$LUPREC
 70
    4
  9
$SKETCHINC
 40
1
  9
$FILLETRAD
 40
0
  9
$AUNITS
 70
    0
  9
$AUPREC
 70
    2
  9
$MENU
  1
.
  9
$ELEVATION
 40
0
  9
$PELEVATION
 40
0
  9
$THICKNESS
 40
0
  9
$LIMCHECK
 70
    0
  9
$CHAMFERA
 40
0
  9
$CHAMFERB
 40
0
  9
$CHAMFERC
 40
0
  9
$CHAMFERD
 40
0
  9
$SKPOLY
 70
    0
  9
$USRTIMER
 70
    1
  9
$ANGBASE
 50
0
  9
$ANGDIR
 70
    0
  9
$PDMODE
 70
   34
  9
$PDSIZE
 40
0
  9
$PLINEWID
 40
0
  9
$SPLFRAME
 70
    0
  9
$SPLINETYPE
 70
    2
  9
$SPLINESEGS
 70
    8
  9
$HANDSEED
  5
20000
  9
$SURFTAB1
 70
    6
  9
$SURFTAB2
 70
    6
  9
$SURFTYPE
 70
    6
  9
$SURFU
 70
    6
  9
$SURFV
 70
    6
  9
$UCSBASE
  2

  9
$UCSNAME
  2

  9
$UCSORG
 10
0
 20
0
 30
0
  9
$UCSXDIR
 10
1
 20
0
 30
0
  9
$UCSYDIR
 10
0
 20
1
 30
0
  9
$UCSORTHOREF
  2

  9
$UCSORTHOVIEW
 70
    0
  9
$UCSORGTOP
 10
0
 20
0
 30
0
  9
$UCSORGBOTTOM
 10
0
 20
0
 30
0
  9
$UCSORGLEFT
 10
0
 20
0
 30
0
  9
$UCSORGRIGHT
 10
0
 20
0
 30
0
  9
$UCSORGFRONT
 10
0
 20
0
 30
0
  9
$UCSORGBACK
 10
0
 20
0
 30
0
  9
$PUCSBASE
  2

  9
$PUCSNAME
  2

  9
$PUCSORG
 10
0
 20
0
 30
0
  9
$PUCSXDIR
 10
1
 20
0
 30
0
  9
$PUCSYDIR
 10
0
 20
1
 30
0
  9
$PUCSORTHOREF
  2

  9
$PUCSORTHOVIEW
 70
    0
  9
$PUCSORGTOP
 10
0
 20
0
 30
0
  9
$PUCSORGBOTTOM
 10
0
 20
0
 30
0
  9
$PUCSORGLEFT
 10
0
 20
0
 30
0
  9
$PUCSORGRIGHT
 10
0
 20
0
 30
0
  9
$PUCSORGFRONT
 10
0
 20
0
 30
0
  9
$PUCSORGBACK
 10
0
 20
0
 30
0
  9
$USERI1
 70
    0
  9
$USERI2
 70
    0
  9
$USERI3
 70
    0
  9
$USERI4
 70
    0
  9
$USERI5
 70
    0
  9
$USERR1
 40
0
  9
$USERR2
 40
0
  9
$USERR3
 40
0
  9
$USERR4
 40
0
  9
$USERR5
 40
0
  9
$WORLDVIEW
 70
    1
  9
$SHADEDGE
 70
    3
  9
$SHADEDIF
 70
   70
  9
$TILEMODE
 70
    1
  9
$MAXACTVP
 70
   64
  9
$PINSBASE
 10
0
 20
0
 30
0
  9
$PLIMCHECK
 70
    0
  9
$PEXTMIN
 10
0
 20
0
 30
0
  9
$PEXTMAX
 10
0
 20
0
 30
0
  9
$GRIDMODE
 70
    1
  9
$SNAPSTYLE
 70
    0
  9
$GRIDUNIT
 10
0
 20
0
  9
$PLIMMIN
 10
0
 20
0
  9
$PLIMMAX
 10
297
 20
210
  9
$UNITMODE
 70
    0
  9
$VISRETAIN
 70
    1
  9
$PLINEGEN
 70
    0
  9
$PSLTSCALE
 70
    1
  9
$TREEDEPTH
 70
 3020
  9
$CMLSTYLE
  2
Standard
  9
$CMLJUST
 70
    0
  9
$CMLSCALE
 40
20
  9
$PROXYGRAPHICS
 70
    1
  9
$MEASUREMENT
 70
    1
  9
$CELWEIGHT
370
   -1
  9
$ENDCAPS
280
    0
  9
$JOINSTYLE
280
    0
  9
$LWDISPLAY
290
    0
  9
$INSUNITS
 70
    0
  9
$HYPERLINKBASE
  1

  9
$STYLESHEET
  1

  9
$XEDIT
290
    1
  9
$CEPSNTYPE
380
    0
  9
$PSTYLEMODE
290
    1
  9
$EXTNAMES
290
    1
  9
$PSVPSCALE
 40
0
  9
$OLESTARTUP
290
    0
  9
$SORTENTS
280
  127
  9
$INDEXCTL
280
    0
  9
$HIDETEXT
280
    1
  9
$XCLIPFRAME
290
    0
  9
$HALOGAP
280
    0
  9
$OBSCOLOR
 70
  257
  9
$OBSLTYPE
280
    0
  9
$INTERSECTIONDISPLAY
280
    0
  9
$INTERSECTIONCOLOR
 70
  257
  9
$DIMASSOC
280
    1
  9
$PROJECTNAME
  1

  9
$CAMERADISPLAY
290
    0
  9
$LENSLENGTH
 40
50
  9
$CAMERAHEIGHT
 40
0
  9
$STEPSPERSEC
 40
2
  9
$STEPSIZE
 40
50
  9
$3DDWFPREC
 40
2
  9
$PSOLWIDTH
 40
5
  9
$PSOLHEIGHT
 40
80
  9
$LOFTANG1
 40
1.570796326794897
  9
$LOFTANG2
 40
1.570796326794897
  9
$LOFTMAG1
 40
0
  9
$LOFTMAG2
 40
0
  9
$LOFTPARAM
 70
    7
  9
$LOFTNORMALS
280
    1
  9
$LATITUDE
 40
1
  9
$LONGITUDE
 40
1
  9
$NORTHDIRECTION
 40
0
  9
$TIMEZONE
 70
-8000
  9
$LIGHTGLYPHDISPLAY
280
    1
  9
$TILEMODELIGHTSYNCH
280
    1
  9
$SOLIDHIST
280
    1
  9
$SHOWHIST
280
    1
  9
$DWFFRAME
280
    2
  9
$DGNFRAME
280
    0
  9
$REALWORLDSCALE
290
    1
  9
$INTERFERECOLOR
 62
    1
  9
$CSHADOW
280
    0
  9
$SHADOWPLANELOCATION
 40
0
  0
ENDSEC
  0
SECTION
  2
CLASSES
  0
ENDSEC
  0
SECTION
  2
TABLES
  0
TABLE
  2
VPORT
  5
8
330
0
100
AcDbSymbolTable
 70
    1
  0
VPORT
  5
31
330
2
100
AcDbSymbolTableRecord
100
AcDbViewportTableRecord
  2
*ACTIVE
 70
    0
 10
0
 20
0
 11
1
 21
1
 12
-1498.493949173801
 22
-515.107295028494
 13
0
 23
0
 14
10
 24
10
 15
10
 25
10
 16
0
 26
0
 36
1
 17
0
 27
0
 37
0
 40
829.5234361497826
 41
1.629032258064516
 42
50
 43
0
 44
0
 50
0
 51
0
 71
    0
 72
  100
 73
    1
 74
    3
 75
    0
 76
    1
 77
    0
 78
    0
281
    0
 65
    1
110
0
120
0
130
0
111
1
121
0
131
0
112
0
122
1
132
0
 79
    0
146
0
348
10020
 60
    7
 61
    5
292
1
282
    1
141
0
142
0
 63
  250
421
3358443
  0
ENDTAB
  0
TABLE
  2
LTYPE
  5
5
330
0
100
AcDbSymbolTable
 70
    4
  0
LTYPE
  5
14
330
5
100
AcDbSymbolTableRecord
100
AcDbLinetypeTableRecord
  2
ByBlock
 70
    0
  3

 72
   65
 73
    0
 40
0
  0
LTYPE
  5
15
330
5
100
AcDbSymbolTableRecord
100
AcDbLinetypeTableRecord
  2
ByLayer
 70
    0
  3

 72
   65
 73
    0
 40
0
  0
LTYPE
  5
16
330
5
100
AcDbSymbolTableRecord
100
AcDbLinetypeTableRecord
  2
Continuous
 70
    0
  3
Solid line
 72
   65
 73
    0
 40
0
  0
LTYPE
  5
32
330
5
100
AcDbSymbolTableRecord
100
AcDbLinetypeTableRecord
  2
DOT
 70
    0
  3
Dot . . . . . . . . . . . . . . . . . . . . . .
 72
   65
 73
    2
 40
6.35
 49
0
 74
    0
 49
-6.35
 74
    0
  0
LTYPE
  5
33
330
5
100
AcDbSymbolTableRecord
100
AcDbLinetypeTableRecord
  2
DOTTINY
 70
    0
  3
Dot (.15x) .....................................
 72
   65
 73
    2
 40
0.9525
 49
0
 74
    0
 49
-0.9525
 74
    0
  0
LTYPE
  5
34
330
5
100
AcDbSymbolTableRecord
100
AcDbLinetypeTableRecord
  2
DOT2
 70
    0
  3
Dot (.5x) .....................................
 72
   65
 73
    2
 40
3.175
 49
0
 74
    0
 49
-3.175
 74
    0
  0
LTYPE
  5
35
330
5
100
AcDbSymbolTableRecord
100
AcDbLinetypeTableRecord
  2
DOTX2
 70
    0
  3
Dot (2x) .  .  .  .  .  .  .  .  .  .  .  .  .
 72
   65
 73
    2
 40
12.7
 49
0
 74
    0
 49
-12.7
 74
    0
  0
LTYPE
  5
36
330
5
100
AcDbSymbolTableRecord
100
AcDbLinetypeTableRecord
  2
DASHED
 70
    0
  3
Dashed _ _ _ _ _ _ _ _ _ _ _ _ _ _ _ _ _
 72
   65
 73
    2
 40
19.05
 49
12.7
 74
    0
 49
-6.35
 74
    0
  0
LTYPE
  5
37
330
5
100
AcDbSymbolTableRecord
100
AcDbLinetypeTableRecord
  2
DASHEDTINY
 70
    0
  3
Dashed (.15x) _ _ _ _ _ _ _ _ _ _ _ _ _ _ _ _ _
 72
   65
 73
    2
 40
2.8575
 49
1.905
 74
    0
 49
-0.9525
 74
    0
  0
LTYPE
  5
38
330
5
100
AcDbSymbolTableRecord
100
AcDbLinetypeTableRecord
  2
DASHED2
 70
    0
  3
Dashed (.5x) _ _ _ _ _ _ _ _ _ _ _ _ _ _ _ _ _
 72
   65
 73
    2
 40
9.524999999999999
 49
6.35
 74
    0
 49
-3.175
 74
    0
  0
LTYPE
  5
39
330
5
100
AcDbSymbolTableRecord
100
AcDbLinetypeTableRecord
  2
DASHEDX2
 70
    0
  3
Dashed (2x) ____  ____  ____  ____  ____  ___
 72
   65
 73
    2
 40
38.09999999999999
 49
25.4
 74
    0
 49
-12.7
 74
    0
  0
LTYPE
  5
3A
330
5
100
AcDbSymbolTableRecord
100
AcDbLinetypeTableRecord
  2
DASHDOT
 70
    0
  3
Dash dot __ . __ . __ . __ . __ . __ . __ . __
 72
   65
 73
    4
 40
25.4
 49
12.7
 74
    0
 49
-6.35
 74
    0
 49
0
 74
    0
 49
-6.35
 74
    0
  0
LTYPE
  5
3B
330
5
100
AcDbSymbolTableRecord
100
AcDbLinetypeTableRecord
  2
DASHDOTTINY
 70
    0
  3
Dash dot (.15x) _._._._._._._._._._._._._._._.
 72
   65
 73
    4
 40
3.81
 49
1.905
 74
    0
 49
-0.9525
 74
    0
 49
0
 74
    0
 49
-0.9525
 74
    0
  0
LTYPE
  5
3C
330
5
100
AcDbSymbolTableRecord
100
AcDbLinetypeTableRecord
  2
DASHDOT2
 70
    0
  3
Dash dot (.5x) _._._._._._._._._._._._._._._.
 72
   65
 73
    4
 40
12.7
 49
6.35
 74
    0
 49
-3.175
 74
    0
 49
0
 74
    0
 49
-3.175
 74
    0
  0
LTYPE
  5
3D
330
5
100
AcDbSymbolTableRecord
100
AcDbLinetypeTableRecord
  2
DASHDOTX2
 70
    0
  3
Dash dot (2x) ____  .  ____  .  ____  .  ___
 72
   65
 73
    4
 40
50.8
 49
25.4
 74
    0
 49
-12.7
 74
    0
 49
0
 74
    0
 49
-12.7
 74
    0
  0
LTYPE
  5
3E
330
5
100
AcDbSymbolTableRecord
100
AcDbLinetypeTableRecord
  2
DIVIDE
 70
    0
  3
Divide ____ . . ____ . . ____ . . ____ . . ____
 72
   65
 73
    6
 40
31.75
 49
12.7
 74
    0
 49
-6.35
 74
    0
 49
0
 74
    0
 49
-6.35
 74
    0
 49
0
 74
    0
 49
-6.35
 74
    0
  0
LTYPE
  5
3F
330
5
100
AcDbSymbolTableRecord
100
AcDbLinetypeTableRecord
  2
DIVIDETINY
 70
    0
  3
Divide (.15x) __..__..__..__..__..__..__..__.._
 72
   65
 73
    6
 40
4.7625
 49
1.905
 74
    0
 49
-0.9525
 74
    0
 49
0
 74
    0
 49
-0.9525
 74
    0
 49
0
 74
    0
 49
-0.9525
 74
    0
  0
LTYPE
  5
40
330
5
100
AcDbSymbolTableRecord
100
AcDbLinetypeTableRecord
  2
DIVIDE2
 70
    0
  3
Divide (.5x) __..__..__..__..__..__..__..__.._
 72
   65
 73
    6
 40
15.875
 49
6.35
 74
    0
 49
-3.175
 74
    0
 49
0
 74
    0
 49
-3.175
 74
    0
 49
0
 74
    0
 49
-3.175
 74
    0
  0
LTYPE
  5
41
330
5
100
AcDbSymbolTableRecord
100
AcDbLinetypeTableRecord
  2
DIVIDEX2
 70
    0
  3
Divide (2x) ________  .  .  ________  .  .  _
 72
   65
 73
    6
 40
63.5
 49
25.4
 74
    0
 49
-12.7
 74
    0
 49
0
 74
    0
 49
-12.7
 74
    0
 49
0
 74
    0
 49
-12.7
 74
    0
  0
LTYPE
  5
42
330
5
100
AcDbSymbolTableRecord
100
AcDbLinetypeTableRecord
  2
BORDER
 70
    0
  3
Border __ __ . __ __ . __ __ . __ __ . __ __ .
 72
   65
 73
    6
 40
44.45
 49
12.7
 74
    0
 49
-6.35
 74
    0
 49
12.7
 74
    0
 49
-6.35
 74
    0
 49
0
 74
    0
 49
-6.35
 74
    0
  0
LTYPE
  5
43
330
5
100
AcDbSymbolTableRecord
100
AcDbLinetypeTableRecord
  2
BORDERTINY
 70
    0
  3
Border (.15x) __.__.__.__.__.__.__.__.__.__.__.
 72
   65
 73
    6
 40
6.6675
 49
1.905
 74
    0
 49
-0.9525
 74
    0
 49
1.905
 74
    0
 49
-0.9525
 74
    0
 49
0
 74
    0
 49
-0.9525
 74
    0
  0
LTYPE
  5
44
330
5
100
AcDbSymbolTableRecord
100
AcDbLinetypeTableRecord
  2
BORDER2
 70
    0
  3
Border (.5x) __.__.__.__.__.__.__.__.__.__.__.
 72
   65
 73
    6
 40
22.225
 49
6.35
 74
    0
 49
-3.175
 74
    0
 49
6.35
 74
    0
 49
-3.175
 74
    0
 49
0
 74
    0
 49
-3.175
 74
    0
  0
LTYPE
  5
45
330
5
100
AcDbSymbolTableRecord
100
AcDbLinetypeTableRecord
  2
BORDERX2
 70
    0
  3
Border (2x) ____  ____  .  ____  ____  .  ___
 72
   65
 73
    6
 40
88.89999999999999
 49
25.4
 74
    0
 49
-12.7
 74
    0
 49
25.4
 74
    0
 49
-12.7
 74
    0
 49
0
 74
    0
 49
-12.7
 74
    0
  0
LTYPE
  5
46
330
5
100
AcDbSymbolTableRecord
100
AcDbLinetypeTableRecord
  2
CENTER
 70
    0
  3
Center ____ _ ____ _ ____ _ ____ _ ____ _ ____
 72
   65
 73
    4
 40
50.8
 49
31.75
 74
    0
 49
-6.35
 74
    0
 49
6.35
 74
    0
 49
-6.35
 74
    0
  0
LTYPE
  5
47
330
5
100
AcDbSymbolTableRecord
100
AcDbLinetypeTableRecord
  2
CENTERTINY
 70
    0
  3
Center (.15x) ___ _ ___ _ ___ _ ___ _ ___ _ ___
 72
   65
 73
    4
 40
7.619999999999999
 49
4.7625
 74
    0
 49
-0.9525
 74
    0
 49
0.9525
 74
    0
 49
-0.9525
 74
    0
  0
LTYPE
  5
48
330
5
100
AcDbSymbolTableRecord
100
AcDbLinetypeTableRecord
  2
CENTER2
 70
    0
  3
Center (.5x) ___ _ ___ _ ___ _ ___ _ ___ _ ___
 72
   65
 73
    4
 40
28.575
 49
19.05
 74
    0
 49
-3.175
 74
    0
 49
3.175
 74
    0
 49
-3.175
 74
    0
  0
LTYPE
  5
49
330
5
100
AcDbSymbolTableRecord
100
AcDbLinetypeTableRecord
  2
CENTERX2
 70
    0
  3
Center (2x) ________  __  ________  __  _____
 72
   65
 73
    4
 40
101.6
 49
63.5
 74
    0
 49
-12.7
 74
    0
 49
12.7
 74
    0
 49
-12.7
 74
    0
  0
ENDTAB
  0
TABLE
  2
LAYER
  5
2
330
0
100
AcDbSymbolTable
 70
    1
  0
LAYER
  5
10
330
2
100
AcDbSymbolTableRecord
100
AcDbLayerTableRecord
  2
0
 70
    0
 62
    7
  6
CONTINUOUS
370
    0
390
F
  0
LAYER
  5
4A
330
2
100
AcDbSymbolTableRecord
100
AcDbLayerTableRecord
  2
crep 40 kolona
 70
    0
 62
   30
420
16738877
  6
CONTINUOUS
370
    0
390
F
  0
LAYER
  5
4B
330
2
100
AcDbSymbolTableRecord
100
AcDbLayerTableRecord
  2
crep od omaije
 70
    0
 62
    6
  6
CONTINUOUS
370
    0
390
F
  0
LAYER
  5
4C
330
2
100
AcDbSymbolTableRecord
100
AcDbLayerTableRecord
  2
crep v1 duplo
 70
    1
 62
    3
  6
CONTINUOUS
370
    0
390
F
  0
LAYER
  5
4D
330
2
100
AcDbSymbolTableRecord
100
AcDbLayerTableRecord
  2
crep v1 sneg
 70
    0
 62
    5
  6
CONTINUOUS
370
    0
390
F
  0
LAYER
  5
4E
330
2
100
AcDbSymbolTableRecord
100
AcDbLayerTableRecord
  2
crep v1 ventilacioni
 70
    0
 62
    4
  6
CONTINUOUS
370
    0
390
F
  0
LAYER
  5
4F
330
2
100
AcDbSymbolTableRecord
100
AcDbLayerTableRecord
  2
krov
 70
    0
 62
    1
  6
CONTINUOUS
370
    0
390
F
  0
LAYER
  5
50
330
2
100
AcDbSymbolTableRecord
100
AcDbLayerTableRecord
  2
letve 24 reda
 70
    0
 62
    2
  6
CONTINUOUS
370
    0
390
F
  0
LAYER
  5
51
330
2
100
AcDbSymbolTableRecord
100
AcDbLayerTableRecord
  2
poklopci 
 70
    0
 62
   94
420
43520
  6
CONTINUOUS
370
    0
390
F
  0
ENDTAB
  0
TABLE
  2
STYLE
  5
3
330
0
100
AcDbSymbolTable
 70
    3
  0
STYLE
  5
52
330
2
100
AcDbSymbolTableRecord
100
AcDbTextStyleTableRecord
  2
Standard
 70
    0
 40
0
 41
1
 50
0
 71
    0
 42
1
  3
txt
  4

  0
ENDTAB
  0
TABLE
  2
VIEW
  5
6
330
0
100
AcDbSymbolTable
 70
    0
  0
ENDTAB
  0
TABLE
  2
UCS
  5
7
330
0
100
AcDbSymbolTable
 70
    0
  0
ENDTAB
  0
TABLE
  2
APPID
  5
9
330
0
100
AcDbSymbolTable
 70
    1
  0
APPID
  5
12
330
9
100
AcDbSymbolTableRecord
100
AcDbRegAppTableRecord
  2
ACAD
 70
    0
  0
APPID
  5
53
330
9
100
AcDbSymbolTableRecord
100
AcDbRegAppTableRecord
  2
LibreCad
 70
    0
  0
ENDTAB
  0
TABLE
  2
DIMSTYLE
  5
A
330
0
100
AcDbSymbolTable
 70
    1
100
AcDbDimStyleTable
 71
    1
  0
DIMSTYLE
105
54
330
A
100
AcDbSymbolTableRecord
100
AcDbDimStyleTableRecord
  2
Standard
 70
    0
 40
1
 41
2.5
 42
0.625
 43
0.38
 44
1.25
 45
0
 46
0
 47
0
 48
0
 49
1
140
25
141
0.09
142
0
143
25.4
144
1
145
0
146
1
147
0.625
148
0
 71
    0
 72
    0
 73
    0
 74
    1
 75
    0
 76
    0
 77
    0
 78
    1
 79
    0
170
    0
171
    2
172
    0
173
    0
174
    0
175
    0
176
    0
177
    0
178
    0
179
    2
271
    4
272
    4
273
    2
274
    2
275
    0
276
    0
277
    2
278
   44
279
    0
280
    0
281
    0
282
    0
283
    1
284
    0
285
    0
286
    0
288
    0
289
    3
340
standard
341

371
   -2
372
   -2
  0
ENDTAB
  0
TABLE
  2
BLOCK_RECORD
  5
1
330
0
100
AcDbSymbolTable
 70
    2
  0
BLOCK_RECORD
  5
1F
330
1
100
AcDbSymbolTableRecord
100
AcDbBlockTableRecord
  2
*Model_Space
 70
    0
280
    1
281
    0
  0
BLOCK_RECORD
  5
1E
330
1
100
AcDbSymbolTableRecord
100
AcDbBlockTableRecord
  2
*Paper_Space
 70
    0
280
    1
281
    0
  0
BLOCK_RECORD
  5
55
330
1
100
AcDbSymbolTableRecord
100
AcDbBlockTableRecord
  2
*D20
 70
    0
280
    1
281
    0
  0
BLOCK_RECORD
  5
58
330
1
100
AcDbSymbolTableRecord
100
AcDbBlockTableRecord
  2
*D32
 70
    0
280
    1
281
    0
  0
BLOCK_RECORD
  5
5B
330
1
100
AcDbSymbolTableRecord
100
AcDbBlockTableRecord
  2
*D9
 70
    0
280
    1
281
    0
  0
BLOCK_RECORD
  5
5E
330
1
100
AcDbSymbolTableRecord
100
AcDbBlockTableRecord
  2
*D47
 70
    0
280
    1
281
    0
  0
BLOCK_RECORD
  5
61
330
1
100
AcDbSymbolTableRecord
100
AcDbBlockTableRecord
  2
*D36
 70
    0
280
    1
281
    0
  0
BLOCK_RECORD
  5
64
330
1
100
AcDbSymbolTableRecord
100
AcDbBlockTableRecord
  2
*D11
 70
    0
280
    1
281
    0
  0
BLOCK_RECORD
  5
67
330
1
100
AcDbSymbolTableRecord
100
AcDbBlockTableRecord
  2
*D18
 70
    0
280
    1
281
    0
  0
BLOCK_RECORD
  5
6A
330
1
100
AcDbSymbolTableRecord
100
AcDbBlockTableRecord
  2
*D29
 70
    0
280
    1
281
    0
  0
BLOCK_RECORD
  5
6D
330
1
100
AcDbSymbolTableRecord
100
AcDbBlockTableRecord
  2
*D39
 70
    0
280
    1
281
    0
  0
BLOCK_RECORD
  5
70
330
1
100
AcDbSymbolTableRecord
100
AcDbBlockTableRecord
  2
*D6
 70
    0
280
    1
281
    0
  0
BLOCK_RECORD
  5
73
330
1
100
AcDbSymbolTableRecord
100
AcDbBlockTableRecord
  2
*D46
 70
    0
280
    1
281
    0
  0
BLOCK_RECORD
  5
76
330
1
100
AcDbSymbolTableRecord
100
AcDbBlockTableRecord
  2
*D34
 70
    0
280
    1
281
    0
  0
BLOCK_RECORD
  5
79
330
1
100
AcDbSymbolTableRecord
100
AcDbBlockTableRecord
  2
*D22
 70
    0
280
    1
281
    0
  0
BLOCK_RECORD
  5
7C
330
1
100
AcDbSymbolTableRecord
100
AcDbBlockTableRecord
  2
*D27
 70
    0
280
    1
281
    0
  0
BLOCK_RECORD
  5
7F
330
1
100
AcDbSymbolTableRecord
100
AcDbBlockTableRecord
  2
*D21
 70
    0
280
    1
281
    0
  0
BLOCK_RECORD
  5
82
330
1
100
AcDbSymbolTableRecord
100
AcDbBlockTableRecord
  2
*D3
 70
    0
280
    1
281
    0
  0
BLOCK_RECORD
  5
85
330
1
100
AcDbSymbolTableRecord
100
AcDbBlockTableRecord
  2
*D30
 70
    0
280
    1
281
    0
  0
BLOCK_RECORD
  5
88
330
1
100
AcDbSymbolTableRecord
100
AcDbBlockTableRecord
  2
*D25
 70
    0
280
    1
281
    0
  0
BLOCK_RECORD
  5
8B
330
1
100
AcDbSymbolTableRecord
100
AcDbBlockTableRecord
  2
*D4
 70
    0
280
    1
281
    0
  0
BLOCK_RECORD
  5
8E
330
1
100
AcDbSymbolTableRecord
100
AcDbBlockTableRecord
  2
*D16
 70
    0
280
    1
281
    0
  0
BLOCK_RECORD
  5
91
330
1
100
AcDbSymbolTableRecord
100
AcDbBlockTableRecord
  2
*D8
 70
    0
280
    1
281
    0
  0
BLOCK_RECORD
  5
94
330
1
100
AcDbSymbolTableRecord
100
AcDbBlockTableRecord
  2
*D44
 70
    0
280
    1
281
    0
  0
BLOCK_RECORD
  5
97
330
1
100
AcDbSymbolTableRecord
100
AcDbBlockTableRecord
  2
*D10
 70
    0
280
    1
281
    0
  0
BLOCK_RECORD
  5
9A
330
1
100
AcDbSymbolTableRecord
100
AcDbBlockTableRecord
  2
*D19
 70
    0
280
    1
281
    0
  0
BLOCK_RECORD
  5
9D
330
1
100
AcDbSymbolTableRecord
100
AcDbBlockTableRecord
  2
*D45
 70
    0
280
    1
281
    0
  0
BLOCK_RECORD
  5
A0
330
1
100
AcDbSymbolTableRecord
100
AcDbBlockTableRecord
  2
*D35
 70
    0
280
    1
281
    0
  0
BLOCK_RECORD
  5
A3
330
1
100
AcDbSymbolTableRecord
100
AcDbBlockTableRecord
  2
*D38
 70
    0
280
    1
281
    0
  0
BLOCK_RECORD
  5
A6
330
1
100
AcDbSymbolTableRecord
100
AcDbBlockTableRecord
  2
*D7
 70
    0
280
    1
281
    0
  0
BLOCK_RECORD
  5
A9
330
1
100
AcDbSymbolTableRecord
100
AcDbBlockTableRecord
  2
*D28
 70
    0
280
    1
281
    0
  0
BLOCK_RECORD
  5
AC
330
1
100
AcDbSymbolTableRecord
100
AcDbBlockTableRecord
  2
*D5
 70
    0
280
    1
281
    0
  0
BLOCK_RECORD
  5
AF
330
1
100
AcDbSymbolTableRecord
100
AcDbBlockTableRecord
  2
*D14
 70
    0
280
    1
281
    0
  0
BLOCK_RECORD
  5
B2
330
1
100
AcDbSymbolTableRecord
100
AcDbBlockTableRecord
  2
*D13
 70
    0
280
    1
281
    0
  0
BLOCK_RECORD
  5
B5
330
1
100
AcDbSymbolTableRecord
100
AcDbBlockTableRecord
  2
*D31
 70
    0
280
    1
281
    0
  0
BLOCK_RECORD
  5
B8
330
1
100
AcDbSymbolTableRecord
100
AcDbBlockTableRecord
  2
*D33
 70
    0
280
    1
281
    0
  0
BLOCK_RECORD
  5
BB
330
1
100
AcDbSymbolTableRecord
100
AcDbBlockTableRecord
  2
*D17
 70
    0
280
    1
281
    0
  0
BLOCK_RECORD
  5
BE
330
1
100
AcDbSymbolTableRecord
100
AcDbBlockTableRecord
  2
*D12
 70
    0
280
    1
281
    0
  0
BLOCK_RECORD
  5
C1
330
1
100
AcDbSymbolTableRecord
100
AcDbBlockTableRecord
  2
*D43
 70
    0
280
    1
281
    0
  0
BLOCK_RECORD
  5
C4
330
1
100
AcDbSymbolTableRecord
100
AcDbBlockTableRecord
  2
*D1
 70
    0
280
    1
281
    0
  0
BLOCK_RECORD
  5
C7
330
1
100
AcDbSymbolTableRecord
100
AcDbBlockTableRecord
  2
*D26
 70
    0
280
    1
281
    0
  0
BLOCK_RECORD
  5
CA
330
1
100
AcDbSymbolTableRecord
100
AcDbBlockTableRecord
  2
*D15
 70
    0
280
    1
281
    0
  0
BLOCK_RECORD
  5
CD
330
1
100
AcDbSymbolTableRecord
100
AcDbBlockTableRecord
  2
*D37
 70
    0
280
    1
281
    0
  0
BLOCK_RECORD
  5
D0
330
1
100
AcDbSymbolTableRecord
100
AcDbBlockTableRecord
  2
*D42
 70
    0
280
    1
281
    0
  0
BLOCK_RECORD
  5
D3
330
1
100
AcDbSymbolTableRecord
100
AcDbBlockTableRecord
  2
*D23
 70
    0
280
    1
281
    0
  0
BLOCK_RECORD
  5
D6
330
1
100
AcDbSymbolTableRecord
100
AcDbBlockTableRecord
  2
*D41
 70
    0
280
    1
281
    0
  0
BLOCK_RECORD
  5
D9
330
1
100
AcDbSymbolTableRecord
100
AcDbBlockTableRecord
  2
*D40
 70
    0
280
    1
281
    0
  0
BLOCK_RECORD
  5
DC
330
1
100
AcDbSymbolTableRecord
100
AcDbBlockTableRecord
  2
*D24
 70
    0
280
    1
281
    0
  0
BLOCK_RECORD
  5
DF
330
1
100
AcDbSymbolTableRecord
100
AcDbBlockTableRecord
  2
*D2
 70
    0
280
    1
281
    0
  0
ENDTAB
  0
ENDSEC
  0
SECTION
  2
BLOCKS
  0
BLOCK
  5
20
330
1F
100
AcDbEntity
  8
0
100
AcDbBlockBegin
  2
*Model_Space
 70
    0
 10
0
 20
0
 30
0
  3
*Model_Space
  1

  0
ENDBLK
  5
21
330
1F
100
AcDbEntity
  8
0
100
AcDbBlockEnd
  0
BLOCK
  5
1C
330
1B
100
AcDbEntity
  8
0
100
AcDbBlockBegin
  2
*Paper_Space
 70
    0
 10
0
 20
0
 30
0
  3
*Paper_Space
  1

  0
ENDBLK
  5
1D
330
1F
100
AcDbEntity
  8
0
100
AcDbBlockEnd
  0
BLOCK
  5
56
330
55
100
AcDbEntity
  8
0
100
AcDbBlockBegin
  2
*D20
 70
    1
 10
0
 20
0
  3
*D20
  1

  0
LINE
  5
E2
100
AcDbEntity
  8
crep v1 duplo
  6
ByBlock
 62
    0
370
   -2
100
AcDbLine
 10
5824
 20
-0.625
 11
5824
 21
-401.25
  0
LINE
  5
E3
100
AcDbEntity
  8
crep v1 duplo
  6
ByBlock
 62
    0
370
   -2
100
AcDbLine
 10
5700
 20
-0.625
 11
5700
 21
-401.25
  0
LINE
  5
E4
100
AcDbEntity
  8
crep v1 duplo
  6
ByBlock
 62
    0
370
   -2
100
AcDbLine
 10
5824
 20
-400
 11
5700
 21
-400
  0
SOLID
  5
E5
100
AcDbEntity
  8
crep v1 duplo
  6
ByBlock
 62
    0
370
   -2
100
AcDbTrace
 10
5824
 20
-400
 30
0
 11
5821.5
 21
-400.4162846577728
 31
0
 12
5821.5
 22
-399.5837153422272
 32
0
 13
5821.5
 23
-399.5837153422272
 33
0
  0
SOLID
  5
E6
100
AcDbEntity
  8
crep v1 duplo
  6
ByBlock
 62
    0
370
   -2
100
AcDbTrace
 10
5700
 20
-400
 30
0
 11
5702.5
 21
-399.5837153422272
 31
0
 12
5702.5
 22
-400.4162846577728
 32
0
 13
5702.5
 23
-400.4162846577728
 33
0
  0
MTEXT
  5
E7
100
AcDbEntity
  8
crep v1 duplo
  6
CONTINUOUS
 62
    0
370
   -2
100
AcDbMText
 10
5891.986111111111
 20
-386.875
 30
0
 40
25
 41
134.7222222222222
 71
    5
 72
    1
  1
124,0000
  7
standard
210
0
220
0
230
1
 50
0
 73
    2
 44
1
  0
ENDBLK
  5
57
330
55
100
AcDbEntity
  8
0
100
AcDbBlockEnd
  0
BLOCK
  5
59
330
58
100
AcDbEntity
  8
0
100
AcDbBlockBegin
  2
*D32
 70
    1
 10
0
 20
0
  3
*D32
  1

  0
LINE
  5
E8
100
AcDbEntity
  8
crep v1 duplo
  6
ByBlock
 62
    0
370
   -2
100
AcDbLine
 10
1199.999999999999
 20
5269.375
 11
1199.999999999998
 21
-401.25
  0
LINE
  5
E9
100
AcDbEntity
  8
crep v1 duplo
  6
ByBlock
 62
    0
370
   -2
100
AcDbLine
 10
1259.437453531598
 20
5269.375
 11
1259.437453531597
 21
-401.25
  0
LINE
  5
EA
100
AcDbEntity
  8
crep v1 duplo
  6
ByBlock
 62
    0
370
   -2
100
AcDbLine
 10
1199.999999999998
 20
-400
 11
1259.437453531597
 21
-400
  0
SOLID
  5
EB
100
AcDbEntity
  8
crep v1 duplo
  6
ByBlock
 62
    0
370
   -2
100
AcDbTrace
 10
1199.999999999998
 20
-400
 30
0
 11
1202.499999999998
 21
-399.5837153422272
 31
0
 12
1202.499999999998
 22
-400.4162846577728
 32
0
 13
1202.499999999998
 23
-400.4162846577728
 33
0
  0
SOLID
  5
EC
100
AcDbEntity
  8
crep v1 duplo
  6
ByBlock
 62
    0
370
   -2
100
AcDbTrace
 10
1259.437453531597
 20
-400
 30
0
 11
1256.937453531597
 21
-400.4162846577728
 31
0
 12
1256.937453531597
 22
-399.5837153422272
 32
0
 13
1256.937453531597
 23
-399.5837153422272
 33
0
  0
MTEXT
  5
ED
100
AcDbEntity
  8
crep v1 duplo
  6
CONTINUOUS
 62
    0
370
   -2
100
AcDbMText
 10
1320.479120198266
 20
-386.875
 30
0
 40
25
 41
120.833333333338
 71
    5
 72
    1
  1
59,4375
  7
standard
210
0
220
0
230
1
 50
0
 73
    2
 44
1
  0
ENDBLK
  5
5A
330
58
100
AcDbEntity
  8
0
100
AcDbBlockEnd
  0
BLOCK
  5
5C
330
5B
100
AcDbEntity
  8
0
100
AcDbBlockBegin
  2
*D9
 70
    1
 10
0
 20
0
  3
*D9
  1

  0
LINE
  5
EE
100
AcDbEntity
  8
crep od omaije
  6
ByBlock
 62
    0
370
   -2
100
AcDbLine
 10
-3927.196386117359
 20
2188.639057108458
 11
-3926.711020145406
 21
-401.2737464652145
  0
LINE
  5
EF
100
AcDbEntity
  8
crep od omaije
  6
ByBlock
 62
    0
370
   -2
100
AcDbLine
 10
-3750.410236805467
 20
2188.672187946326
 11
-3749.924870833514
 21
-401.2406156273464
  0
LINE
  5
F0
100
AcDbEntity
  8
crep od omaije
  6
ByBlock
 62
    0
370
   -2
100
AcDbLine
 10
-3926.711254403275
 20
-400.0237464871652
 11
-3749.925105091383
 21
-399.9906156492971
  0
SOLID
  5
F1
100
AcDbEntity
  8
crep od omaije
  6
ByBlock
 62
    0
370
   -2
100
AcDbTrace
 10
-3926.711254403275
 20
-400.0237464871652
 30
0
 11
-3924.211332461542
 21
-399.6069933209645
 31
0
 12
-3924.211176432811
 22
-400.4395626218899
 32
0
 13
-3924.211176432811
 23
-400.4395626218899
 33
0
  0
SOLID
  5
F2
100
AcDbEntity
  8
crep od omaije
  6
ByBlock
 62
    0
370
   -2
100
AcDbTrace
 10
-3749.925105091383
 20
-399.9906156492971
 30
0
 11
-3752.425027033116
 21
-400.4073688154978
 31
0
 12
-3752.425183061847
 22
-399.5747995145724
 32
0
 13
-3752.425183061847
 23
-399.5747995145724
 33
0
  0
MTEXT
  5
F3
100
AcDbEntity
  8
crep od omaije
  6
CONTINUOUS
 62
    0
370
   -2
100
AcDbMText
 10
-3838.320639454953
 20
-386.8821812987135
 30
0
 40
25
 41
131.9444444444475
 71
    5
 72
    1
  1
176,7862
  7
standard
210
0
220
0
230
1
 50
0.01073758983237727
 73
    2
 44
1
  0
ENDBLK
  5
5D
330
5B
100
AcDbEntity
  8
0
100
AcDbBlockEnd
  0
BLOCK
  5
5F
330
5E
100
AcDbEntity
  8
0
100
AcDbBlockBegin
  2
*D47
 70
    1
 10
0
 20
0
  3
*D47
  1

  0
LINE
  5
F4
100
AcDbEntity
  8
poklopci 
  6
ByBlock
 62
    0
370
   -2
100
AcDbLine
 10
-5404.935450006054
 20
637.6033337811128
 11
-5529.360914098354
 21
745.3585609742072
  0
LINE
  5
F5
100
AcDbEntity
  8
poklopci 
  6
ByBlock
 62
    0
370
   -2
100
AcDbLine
 10
-5889.378175747904
 20
78.21505585976853
 11
-6013.803639840204
 21
185.9702830528628
  0
LINE
  5
F6
100
AcDbEntity
  8
poklopci 
  6
ByBlock
 62
    0
370
   -2
100
AcDbLine
 10
-5528.41600146673
 20
744.5402455591027
 11
-6012.85872720858
 21
185.1519676377583
  0
SOLID
  5
F7
100
AcDbEntity
  8
poklopci 
  6
ByBlock
 62
    0
370
   -2
100
AcDbTrace
 10
-5528.41600146673
 20
744.5402455591027
 30
0
 11
-5529.737950191754
 21
742.3778985738332
 31
0
 12
-5530.367314402123
 22
742.9229420178765
 32
0
 13
-5530.367314402123
 23
742.9229420178765
 33
0
  0
SOLID
  5
F8
100
AcDbEntity
  8
poklopci 
  6
ByBlock
 62
    0
370
   -2
100
AcDbTrace
 10
-6012.85872720858
 20
185.1519676377583
 30
0
 11
-6011.536778483555
 21
187.3143146230277
 31
0
 12
-6010.907414273186
 22
186.7692711789845
 32
0
 13
-6010.907414273186
 23
186.7692711789845
 33
0
  0
MTEXT
  5
F9
100
AcDbEntity
  8
poklopci 
  6
CONTINUOUS
 62
    0
370
   -2
100
AcDbMText
 10
-5780.558946969705
 20
473.4384184570275
 30
0
 40
25
 41
140.2777777777778
 71
    5
 72
    1
  1
740,0000
  7
standard
210
0
220
0
230
1
 50
49.10670681208426
 73
    2
 44
1
  0
ENDBLK
  5
60
330
5E
100
AcDbEntity
  8
0
100
AcDbBlockEnd
  0
BLOCK
  5
62
330
61
100
AcDbEntity
  8
0
100
AcDbBlockBegin
  2
*D36
 70
    1
 10
0
 20
0
  3
*D36
  1

  0
LINE
  5
FA
100
AcDbEntity
  8
poklopci 
  6
ByBlock
 62
    0
370
   -2
100
AcDbLine
 10
-76.06546684572318
 20
6790.87439091591
 11
-182.9699000341127
 21
6883.456014542555
  0
LINE
  5
FB
100
AcDbEntity
  8
poklopci 
  6
ByBlock
 62
    0
370
   -2
100
AcDbLine
 10
-560.5081925875688
 20
6231.486112994565
 11
-667.4126257759583
 21
6324.067736621209
  0
LINE
  5
FC
100
AcDbEntity
  8
poklopci 
  6
ByBlock
 62
    0
370
   -2
100
AcDbLine
 10
-182.0249874024888
 20
6882.63769912745
 11
-666.4677131443344
 21
6323.249421206105
  0
SOLID
  5
FD
100
AcDbEntity
  8
poklopci 
  6
ByBlock
 62
    0
370
   -2
100
AcDbTrace
 10
-182.0249874024888
 20
6882.63769912745
 30
0
 11
-183.3469361275131
 21
6880.475352142181
 31
0
 12
-183.9763003378824
 22
6881.020395586224
 32
0
 13
-183.9763003378824
 23
6881.020395586224
 33
0
  0
SOLID
  5
FE
100
AcDbEntity
  8
poklopci 
  6
ByBlock
 62
    0
370
   -2
100
AcDbTrace
 10
-666.4677131443344
 20
6323.249421206105
 30
0
 11
-665.1457644193101
 21
6325.411768191374
 31
0
 12
-664.5164002089408
 22
6324.86672474733
 32
0
 13
-664.5164002089408
 23
6324.86672474733
 33
0
  0
MTEXT
  5
FF
100
AcDbEntity
  8
poklopci 
  6
CONTINUOUS
 62
    0
370
   -2
100
AcDbMText
 10
-434.1679329054625
 20
6611.535872025374
 30
0
 40
25
 41
140.2777777777778
 71
    5
 72
    1
  1
740,0000
  7
standard
210
0
220
0
230
1
 50
49.10670681208456
 73
    2
 44
1
  0
ENDBLK
  5
63
330
61
100
AcDbEntity
  8
0
100
AcDbBlockEnd
  0
BLOCK
  5
65
330
64
100
AcDbEntity
  8
0
100
AcDbBlockBegin
  2
*D11
 70
    1
 10
0
 20
0
  3
*D11
  1

  0
LINE
  5
100
100
AcDbEntity
  8
crep od omaije
  6
ByBlock
 62
    0
370
   -2
100
AcDbLine
 10
-3199.895084120436
 20
3028.775372704229
 11
-3199.252272275755
 21
-401.2686005229152
  0
LINE
  5
101
100
AcDbEntity
  8
crep od omaije
  6
ByBlock
 62
    0
370
   -2
100
AcDbLine
 10
-3150.567668629777
 20
3028.78461697258
 11
-3149.924856785095
 21
-401.2593562545639
  0
LINE
  5
102
100
AcDbEntity
  8
crep od omaije
  6
ByBlock
 62
    0
370
   -2
100
AcDbLine
 10
-3199.252506533624
 20
-400.0186005448659
 11
-3149.925091042964
 21
-400.0093562765146
  0
SOLID
  5
103
100
AcDbEntity
  8
crep od omaije
  6
ByBlock
 62
    0
370
   -2
100
AcDbTrace
 10
-3199.252506533624
 20
-400.0186005448659
 30
0
 11
-3196.752584591891
 21
-399.6018473786652
 31
0
 12
-3196.75242856316
 22
-400.4344166795905
 32
0
 13
-3196.75242856316
 23
-400.4344166795905
 33
0
  0
SOLID
  5
104
100
AcDbEntity
  8
crep od omaije
  6
ByBlock
 62
    0
370
   -2
100
AcDbTrace
 10
-3149.925091042964
 20
-400.0093562765146
 30
0
 11
-3152.425012984697
 21
-400.4261094427152
 31
0
 12
-3152.425169013428
 22
-399.59354014179
 32
0
 13
-3152.425169013428
 23
-399.59354014179
 33
0
  0
MTEXT
  5
105
100
AcDbEntity
  8
crep od omaije
  6
CONTINUOUS
 62
    0
370
   -2
100
AcDbMText
 10
-3087.496996291348
 20
-386.8726566278729
 30
0
 40
25
 41
123.6111111111126
 71
    5
 72
    1
  1
49,3274
  7
standard
210
0
220
0
230
1
 50
0.01073758983204649
 73
    2
 44
1
  0
ENDBLK
  5
66
330
64
100
AcDbEntity
  8
0
100
AcDbBlockEnd
  0
BLOCK
  5
68
330
67
100
AcDbEntity
  8
0
100
AcDbBlockBegin
  2
*D18
 70
    1
 10
0
 20
0
  3
*D18
  1

  0
LINE
  5
106
100
AcDbEntity
  8
crep od omaije
  6
ByBlock
 62
    0
370
   -2
100
AcDbLine
 10
-532.6899619761722
 20
6109.275277830027
 11
-531.4698474273889
 21
-401.2558976695699
  0
LINE
  5
107
100
AcDbEntity
  8
crep od omaije
  6
ByBlock
 62
    0
370
   -2
100
AcDbLine
 10
-451.1449274325219
 20
6109.290559883111
 11
-449.9248128837387
 21
-401.2406156164861
  0
LINE
  5
108
100
AcDbEntity
  8
crep od omaije
  6
ByBlock
 62
    0
370
   -2
100
AcDbLine
 10
-531.4700816852579
 20
-400.0058976915207
 11
-449.9250471416077
 21
-399.9906156384368
  0
SOLID
  5
109
100
AcDbEntity
  8
crep od omaije
  6
ByBlock
 62
    0
370
   -2
100
AcDbTrace
 10
-531.4700816852579
 20
-400.0058976915207
 30
0
 11
-528.9701597435247
 21
-399.58914452532
 31
0
 12
-528.9700037147938
 22
-400.4217138262453
 32
0
 13
-528.9700037147938
 23
-400.4217138262453
 33
0
  0
SOLID
  5
10A
100
AcDbEntity
  8
crep od omaije
  6
ByBlock
 62
    0
370
   -2
100
AcDbTrace
 10
-449.9250471416077
 20
-399.9906156384368
 30
0
 11
-452.4249690833408
 21
-400.4073688046374
 31
0
 12
-452.4251251120718
 22
-399.5747995037121
 32
0
 13
-452.4251251120718
 23
-399.5747995037121
 33
0
  0
MTEXT
  5
10B
100
AcDbEntity
  8
crep od omaije
  6
CONTINUOUS
 62
    0
370
   -2
100
AcDbMText
 10
-391.6636189834882
 20
-386.8546968493587
 30
0
 40
25
 41
115.2777777777809
 71
    5
 72
    1
  1
81,5450
  7
standard
210
0
220
0
230
1
 50
0.01073758983179205
 73
    2
 44
1
  0
ENDBLK
  5
69
330
67
100
AcDbEntity
  8
0
100
AcDbBlockEnd
  0
BLOCK
  5
6B
330
6A
100
AcDbEntity
  8
0
100
AcDbBlockBegin
  2
*D29
 70
    1
 10
0
 20
0
  3
*D29
  1

  0
LINE
  5
10C
100
AcDbEntity
  8
crep v1 duplo
  6
ByBlock
 62
    0
370
   -2
100
AcDbLine
 10
2400
 20
3869.375
 11
2399.999999999999
 21
-401.25
  0
LINE
  5
10D
100
AcDbEntity
  8
crep v1 duplo
  6
ByBlock
 62
    0
370
   -2
100
AcDbLine
 10
2471.868680297397
 20
3869.375
 11
2471.868680297396
 21
-401.25
  0
LINE
  5
10E
100
AcDbEntity
  8
crep v1 duplo
  6
ByBlock
 62
    0
370
   -2
100
AcDbLine
 10
2399.999999999999
 20
-400
 11
2471.868680297396
 21
-400
  0
SOLID
  5
10F
100
AcDbEntity
  8
crep v1 duplo
  6
ByBlock
 62
    0
370
   -2
100
AcDbTrace
 10
2399.999999999999
 20
-400
 30
0
 11
2402.499999999999
 21
-399.5837153422272
 31
0
 12
2402.499999999999
 22
-400.4162846577728
 32
0
 13
2402.499999999999
 23
-400.4162846577728
 33
0
  0
SOLID
  5
110
100
AcDbEntity
  8
crep v1 duplo
  6
ByBlock
 62
    0
370
   -2
100
AcDbTrace
 10
2471.868680297396
 20
-400
 30
0
 11
2469.368680297396
 21
-400.4162846577728
 31
0
 12
2469.368680297396
 22
-399.5837153422272
 32
0
 13
2469.368680297396
 23
-399.5837153422272
 33
0
  0
MTEXT
  5
111
100
AcDbEntity
  8
crep v1 duplo
  6
CONTINUOUS
 62
    0
370
   -2
100
AcDbMText
 10
2528.743680297397
 20
-386.875
 30
0
 40
25
 41
112.5000000000015
 71
    5
 72
    1
  1
71,8687
  7
standard
210
0
220
0
230
1
 50
0
 73
    2
 44
1
  0
ENDBLK
  5
6C
330
6A
100
AcDbEntity
  8
0
100
AcDbBlockEnd
  0
BLOCK
  5
6E
330
6D
100
AcDbEntity
  8
0
100
AcDbBlockBegin
  2
*D39
 70
    1
 10
0
 20
0
  3
*D39
  1

  0
LINE
  5
112
100
AcDbEntity
  8
poklopci 
  6
ByBlock
 62
    0
370
   -2
100
AcDbLine
 10
-1529.393644071264
 20
5112.709557151871
 11
-1709.30520506108
 21
5268.516981866324
  0
LINE
  5
113
100
AcDbEntity
  8
poklopci 
  6
ByBlock
 62
    0
370
   -2
100
AcDbLine
 10
-2013.836369813111
 20
4553.321279230525
 11
-2193.747930802928
 21
4709.128703944978
  0
LINE
  5
114
100
AcDbEntity
  8
poklopci 
  6
ByBlock
 62
    0
370
   -2
100
AcDbLine
 10
-1708.360292429456
 20
5267.69866645122
 11
-2192.803018171304
 21
4708.310388529873
  0
SOLID
  5
115
100
AcDbEntity
  8
poklopci 
  6
ByBlock
 62
    0
370
   -2
100
AcDbTrace
 10
-1708.360292429456
 20
5267.69866645122
 30
0
 11
-1709.682241154481
 21
5265.53631946595
 31
0
 12
-1710.31160536485
 22
5266.081362909994
 32
0
 13
-1710.31160536485
 23
5266.081362909994
 33
0
  0
SOLID
  5
116
100
AcDbEntity
  8
poklopci 
  6
ByBlock
 62
    0
370
   -2
100
AcDbTrace
 10
-2192.803018171304
 20
4708.310388529873
 30
0
 11
-2191.481069446279
 21
4710.472735515143
 31
0
 12
-2190.85170523591
 22
4709.927692071099
 32
0
 13
-2190.85170523591
 23
4709.927692071099
 33
0
  0
MTEXT
  5
117
100
AcDbEntity
  8
poklopci 
  6
CONTINUOUS
 62
    0
370
   -2
100
AcDbMText
 10
-1960.503237932431
 20
4996.596839349143
 30
0
 40
25
 41
140.2777777777778
 71
    5
 72
    1
  1
740,0000
  7
standard
210
0
220
0
230
1
 50
49.10670681208452
 73
    2
 44
1
  0
ENDBLK
  5
6F
330
6D
100
AcDbEntity
  8
0
100
AcDbBlockEnd
  0
BLOCK
  5
71
330
70
100
AcDbEntity
  8
0
100
AcDbBlockBegin
  2
*D6
 70
    1
 10
0
 20
0
  3
*D6
  1

  0
LINE
  5
118
100
AcDbEntity
  8
crep od omaije
  6
ByBlock
 62
    0
370
   -2
100
AcDbLine
 10
-5139.365222778899
 20
788.4118644488415
 11
-5139.14226776558
 21
-401.2760761593169
  0
LINE
  5
119
100
AcDbEntity
  8
crep od omaije
  6
ByBlock
 62
    0
370
   -2
100
AcDbLine
 10
-4950.147846919507
 20
788.4473249768627
 11
-4949.924891906188
 21
-401.2406156312957
  0
LINE
  5
11A
100
AcDbEntity
  8
crep od omaije
  6
ByBlock
 62
    0
370
   -2
100
AcDbLine
 10
-5139.142502023449
 20
-400.0260761812676
 11
-4949.925126164057
 21
-399.9906156532464
  0
SOLID
  5
11B
100
AcDbEntity
  8
crep od omaije
  6
ByBlock
 62
    0
370
   -2
100
AcDbTrace
 10
-5139.142502023449
 20
-400.0260761812676
 30
0
 11
-5136.642580081716
 21
-399.6093230150669
 31
0
 12
-5136.642424052985
 22
-400.4418923159923
 32
0
 13
-5136.642424052985
 23
-400.4418923159923
 33
0
  0
SOLID
  5
11C
100
AcDbEntity
  8
crep od omaije
  6
ByBlock
 62
    0
370
   -2
100
AcDbTrace
 10
-4949.925126164057
 20
-399.9906156532464
 30
0
 11
-4952.425048105791
 21
-400.4073688194471
 31
0
 12
-4952.425204134522
 22
-399.5747995185218
 32
0
 13
-4952.425204134522
 23
-399.5747995185218
 33
0
  0
MTEXT
  5
11D
100
AcDbEntity
  8
crep od omaije
  6
CONTINUOUS
 62
    0
370
   -2
100
AcDbMText
 10
-5044.536273801377
 20
-386.8833461477394
 30
0
 40
25
 41
129.1666666666667
 71
    5
 72
    1
  1
189,2174
  7
standard
210
0
220
0
230
1
 50
0.01073758983235182
 73
    2
 44
1
  0
ENDBLK
  5
72
330
70
100
AcDbEntity
  8
0
100
AcDbBlockEnd
  0
BLOCK
  5
74
330
73
100
AcDbEntity
  8
0
100
AcDbBlockBegin
  2
*D46
 70
    1
 10
0
 20
0
  3
*D46
  1

  0
LINE
  5
11E
100
AcDbEntity
  8
poklopci 
  6
ByBlock
 62
    0
370
   -2
100
AcDbLine
 10
-4920.492724264203
 20
1196.991611702457
 11
-5056.125870103489
 21
1314.452941273908
  0
LINE
  5
11F
100
AcDbEntity
  8
poklopci 
  6
ByBlock
 62
    0
370
   -2
100
AcDbLine
 10
-5404.935450006054
 20
637.6033337811128
 11
-5540.56859584534
 21
755.064663352564
  0
LINE
  5
120
100
AcDbEntity
  8
poklopci 
  6
ByBlock
 62
    0
370
   -2
100
AcDbLine
 10
-5055.180957471865
 20
1313.634625858804
 11
-5539.623683213716
 21
754.2463479374595
  0
SOLID
  5
121
100
AcDbEntity
  8
poklopci 
  6
ByBlock
 62
    0
370
   -2
100
AcDbTrace
 10
-5055.180957471865
 20
1313.634625858804
 30
0
 11
-5056.50290619689
 21
1311.472278873535
 31
0
 12
-5057.132270407259
 22
1312.017322317578
 32
0
 13
-5057.132270407259
 23
1312.017322317578
 33
0
  0
SOLID
  5
122
100
AcDbEntity
  8
poklopci 
  6
ByBlock
 62
    0
370
   -2
100
AcDbTrace
 10
-5539.623683213716
 20
754.2463479374595
 30
0
 11
-5538.301734488691
 21
756.408694922729
 31
0
 12
-5537.672370278322
 22
755.8636514786857
 32
0
 13
-5537.672370278322
 23
755.8636514786857
 33
0
  0
MTEXT
  5
123
100
AcDbEntity
  8
poklopci 
  6
CONTINUOUS
 62
    0
370
   -2
100
AcDbMText
 10
-5307.323902974841
 20
1042.532798756729
 30
0
 40
25
 41
140.2777777777778
 71
    5
 72
    1
  1
740,0000
  7
standard
210
0
220
0
230
1
 50
49.10670681208426
 73
    2
 44
1
  0
ENDBLK
  5
75
330
73
100
AcDbEntity
  8
0
100
AcDbBlockEnd
  0
BLOCK
  5
77
330
76
100
AcDbEntity
  8
0
100
AcDbBlockBegin
  2
*D34
 70
    1
 10
0
 20
0
  3
*D34
  1

  0
LINE
  5
124
100
AcDbEntity
  8
crep v1 duplo
  6
ByBlock
 62
    0
370
   -2
100
AcDbLine
 10
600
 20
5829.375000000001
 11
599.9999999999657
 21
-401.2499999999973
  0
LINE
  5
125
100
AcDbEntity
  8
crep v1 duplo
  6
ByBlock
 62
    0
370
   -2
100
AcDbLine
 10
774.4649628252782
 20
5829.375
 11
774.4649628252439
 21
-401.2499999999982
  0
LINE
  5
126
100
AcDbEntity
  8
crep v1 duplo
  6
ByBlock
 62
    0
370
   -2
100
AcDbLine
 10
599.9999999999657
 20
-399.9999999999973
 11
774.4649628252439
 21
-399.9999999999982
  0
SOLID
  5
127
100
AcDbEntity
  8
crep v1 duplo
  6
ByBlock
 62
    0
370
   -2
100
AcDbTrace
 10
599.9999999999657
 20
-399.9999999999973
 30
0
 11
602.4999999999657
 21
-399.5837153422244
 31
0
 12
602.4999999999657
 22
-400.4162846577701
 32
0
 13
602.4999999999657
 23
-400.4162846577701
 33
0
  0
SOLID
  5
128
100
AcDbEntity
  8
crep v1 duplo
  6
ByBlock
 62
    0
370
   -2
100
AcDbTrace
 10
774.4649628252439
 20
-399.9999999999982
 30
0
 11
771.9649628252439
 21
-400.416284657771
 31
0
 12
771.9649628252439
 22
-399.5837153422253
 32
0
 13
771.9649628252439
 23
-399.5837153422253
 33
0
  0
MTEXT
  5
129
100
AcDbEntity
  8
crep v1 duplo
  6
CONTINUOUS
 62
    0
370
   -2
100
AcDbMText
 10
687.2324814126049
 20
-386.8749999999977
 30
0
 40
25
 41
137.5000000000031
 71
    5
 72
    1
  1
174,4650
  7
standard
210
0
220
0
230
1
 50
359.9999999999997
 73
    2
 44
1
  0
ENDBLK
  5
78
330
76
100
AcDbEntity
  8
0
100
AcDbBlockEnd
  0
BLOCK
  5
7A
330
79
100
AcDbEntity
  8
0
100
AcDbBlockBegin
  2
*D22
 70
    1
 10
0
 20
0
  3
*D22
  1

  0
LINE
  5
12A
100
AcDbEntity
  8
crep v1 duplo
  6
ByBlock
 62
    0
370
   -2
100
AcDbLine
 10
4800
 20
1069.375
 11
4800
 21
-401.25
  0
LINE
  5
12B
100
AcDbEntity
  8
crep v1 duplo
  6
ByBlock
 62
    0
370
   -2
100
AcDbLine
 10
4896.731133828995
 20
1069.375
 11
4896.731133828995
 21
-401.25
  0
LINE
  5
12C
100
AcDbEntity
  8
crep v1 duplo
  6
ByBlock
 62
    0
370
   -2
100
AcDbLine
 10
4800
 20
-400
 11
4896.731133828995
 21
-400
  0
SOLID
  5
12D
100
AcDbEntity
  8
crep v1 duplo
  6
ByBlock
 62
    0
370
   -2
100
AcDbTrace
 10
4800
 20
-400
 30
0
 11
4802.5
 21
-399.5837153422272
 31
0
 12
4802.5
 22
-400.4162846577728
 32
0
 13
4802.5
 23
-400.4162846577728
 33
0
  0
SOLID
  5
12E
100
AcDbEntity
  8
crep v1 duplo
  6
ByBlock
 62
    0
370
   -2
100
AcDbTrace
 10
4896.731133828995
 20
-400
 30
0
 11
4894.231133828995
 21
-400.4162846577728
 31
0
 12
4894.231133828995
 22
-399.5837153422272
 32
0
 13
4894.231133828995
 23
-399.5837153422272
 33
0
  0
MTEXT
  5
12F
100
AcDbEntity
  8
crep v1 duplo
  6
CONTINUOUS
 62
    0
370
   -2
100
AcDbMText
 10
4950.828356051219
 20
-386.875
 30
0
 40
25
 41
106.9444444444491
 71
    5
 72
    1
  1
96,7311
  7
standard
210
0
220
0
230
1
 50
0
 73
    2
 44
1
  0
ENDBLK
  5
7B
330
79
100
AcDbEntity
  8
0
100
AcDbBlockEnd
  0
BLOCK
  5
7D
330
7C
100
AcDbEntity
  8
0
100
AcDbBlockBegin
  2
*D27
 70
    1
 10
0
 20
0
  3
*D27
  1

  0
LINE
  5
130
100
AcDbEntity
  8
crep v1 duplo
  6
ByBlock
 62
    0
370
   -2
100
AcDbLine
 10
3300
 20
2749.375
 11
3300
 21
-401.25
  0
LINE
  5
131
100
AcDbEntity
  8
crep v1 duplo
  6
ByBlock
 62
    0
370
   -2
100
AcDbLine
 10
3441.813661710037
 20
2749.375
 11
3441.813661710037
 21
-401.25
  0
LINE
  5
132
100
AcDbEntity
  8
crep v1 duplo
  6
ByBlock
 62
    0
370
   -2
100
AcDbLine
 10
3300
 20
-400
 11
3441.813661710037
 21
-400
  0
SOLID
  5
133
100
AcDbEntity
  8
crep v1 duplo
  6
ByBlock
 62
    0
370
   -2
100
AcDbTrace
 10
3300
 20
-400
 30
0
 11
3302.5
 21
-399.5837153422272
 31
0
 12
3302.5
 22
-400.4162846577728
 32
0
 13
3302.5
 23
-400.4162846577728
 33
0
  0
SOLID
  5
134
100
AcDbEntity
  8
crep v1 duplo
  6
ByBlock
 62
    0
370
   -2
100
AcDbTrace
 10
3441.813661710037
 20
-400
 30
0
 11
3439.313661710037
 21
-400.4162846577728
 31
0
 12
3439.313661710037
 22
-399.5837153422272
 32
0
 13
3439.313661710037
 23
-399.5837153422272
 33
0
  0
MTEXT
  5
135
100
AcDbEntity
  8
crep v1 duplo
  6
CONTINUOUS
 62
    0
370
   -2
100
AcDbMText
 10
3370.906830855018
 20
-386.875
 30
0
 40
25
 41
123.6111111111127
 71
    5
 72
    1
  1
141,8137
  7
standard
210
0
220
0
230
1
 50
0
 73
    2
 44
1
  0
ENDBLK
  5
7E
330
7C
100
AcDbEntity
  8
0
100
AcDbBlockEnd
  0
BLOCK
  5
80
330
7F
100
AcDbEntity
  8
0
100
AcDbBlockBegin
  2
*D21
 70
    1
 10
0
 20
0
  3
*D21
  1

  0
LINE
  5
136
100
AcDbEntity
  8
crep v1 duplo
  6
ByBlock
 62
    0
370
   -2
100
AcDbLine
 10
5400
 20
229.375
 11
5400
 21
-401.25
  0
LINE
  5
137
100
AcDbEntity
  8
crep v1 duplo
  6
ByBlock
 62
    0
370
   -2
100
AcDbLine
 10
5623.564869888476
 20
229.375
 11
5623.564869888476
 21
-401.25
  0
LINE
  5
138
100
AcDbEntity
  8
crep v1 duplo
  6
ByBlock
 62
    0
370
   -2
100
AcDbLine
 10
5400
 20
-400
 11
5623.564869888476
 21
-400
  0
SOLID
  5
139
100
AcDbEntity
  8
crep v1 duplo
  6
ByBlock
 62
    0
370
   -2
100
AcDbTrace
 10
5400
 20
-400
 30
0
 11
5402.5
 21
-399.5837153422272
 31
0
 12
5402.5
 22
-400.4162846577728
 32
0
 13
5402.5
 23
-400.4162846577728
 33
0
  0
SOLID
  5
13A
100
AcDbEntity
  8
crep v1 duplo
  6
ByBlock
 62
    0
370
   -2
100
AcDbTrace
 10
5623.564869888476
 20
-400
 30
0
 11
5621.064869888476
 21
-400.4162846577728
 31
0
 12
5621.064869888476
 22
-399.5837153422272
 32
0
 13
5621.064869888476
 23
-399.5837153422272
 33
0
  0
MTEXT
  5
13B
100
AcDbEntity
  8
crep v1 duplo
  6
CONTINUOUS
 62
    0
370
   -2
100
AcDbMText
 10
5511.782434944238
 20
-386.875
 30
0
 40
25
 41
140.2777777777824
 71
    5
 72
    1
  1
223,5649
  7
standard
210
0
220
0
230
1
 50
0
 73
    2
 44
1
  0
ENDBLK
  5
81
330
7F
100
AcDbEntity
  8
0
100
AcDbBlockEnd
  0
BLOCK
  5
83
330
82
100
AcDbEntity
  8
0
100
AcDbBlockBegin
  2
*D3
 70
    1
 10
0
 20
0
  3
*D3
  1

  0
LINE
  5
13C
100
AcDbEntity
  8
0
  6
ByBlock
 62
    0
370
   -2
100
AcDbLine
 10
-5824
 20
-0.625
 11
-5824
 21
-2001.25
  0
LINE
  5
13D
100
AcDbEntity
  8
0
  6
ByBlock
 62
    0
370
   -2
100
AcDbLine
 10
5824
 20
-0.625
 11
5824
 21
-2001.25
  0
LINE
  5
13E
100
AcDbEntity
  8
0
  6
ByBlock
 62
    0
370
   -2
100
AcDbLine
 10
-5824
 20
-2000
 11
5824
 21
-2000
  0
SOLID
  5
13F
100
AcDbEntity
  8
0
  6
ByBlock
 62
    0
370
   -2
100
AcDbTrace
 10
-5824
 20
-2000
 30
0
 11
-5821.5
 21
-1999.583715342227
 31
0
 12
-5821.5
 22
-2000.416284657773
 32
0
 13
-5821.5
 23
-2000.416284657773
 33
0
  0
SOLID
  5
140
100
AcDbEntity
  8
0
  6
ByBlock
 62
    0
370
   -2
100
AcDbTrace
 10
5824
 20
-2000
 30
0
 11
5821.5
 21
-2000.416284657773
 31
0
 12
5821.5
 22
-1999.583715342227
 32
0
 13
5821.5
 23
-1999.583715342227
 33
0
  0
MTEXT
  5
141
100
AcDbEntity
  8
0
  6
CONTINUOUS
 62
    0
370
   -2
100
AcDbMText
 10
8.036744619404505e-16
 20
-1986.875
 30
0
 40
25
 41
168.0555555555571
 71
    5
 72
    1
  1
11648,0000
  7
standard
210
0
220
0
230
1
 50
0
 73
    2
 44
1
  0
ENDBLK
  5
84
330
82
100
AcDbEntity
  8
0
100
AcDbBlockEnd
  0
BLOCK
  5
86
330
85
100
AcDbEntity
  8
0
100
AcDbBlockBegin
  2
*D30
 70
    1
 10
0
 20
0
  3
*D30
  1

  0
LINE
  5
142
100
AcDbEntity
  8
crep v1 duplo
  6
ByBlock
 62
    0
370
   -2
100
AcDbLine
 10
2100
 20
4149.375
 11
2099.999999999999
 21
-401.25
  0
LINE
  5
143
100
AcDbEntity
  8
crep v1 duplo
  6
ByBlock
 62
    0
370
   -2
100
AcDbLine
 10
2229.382434944238
 20
4149.375
 11
2229.382434944237
 21
-401.25
  0
LINE
  5
144
100
AcDbEntity
  8
crep v1 duplo
  6
ByBlock
 62
    0
370
   -2
100
AcDbLine
 10
2099.999999999999
 20
-400
 11
2229.382434944237
 21
-400
  0
SOLID
  5
145
100
AcDbEntity
  8
crep v1 duplo
  6
ByBlock
 62
    0
370
   -2
100
AcDbTrace
 10
2099.999999999999
 20
-400
 30
0
 11
2102.499999999999
 21
-399.5837153422272
 31
0
 12
2102.499999999999
 22
-400.4162846577728
 32
0
 13
2102.499999999999
 23
-400.4162846577728
 33
0
  0
SOLID
  5
146
100
AcDbEntity
  8
crep v1 duplo
  6
ByBlock
 62
    0
370
   -2
100
AcDbTrace
 10
2229.382434944237
 20
-400
 30
0
 11
2226.882434944237
 21
-400.4162846577728
 31
0
 12
2226.882434944237
 22
-399.5837153422272
 32
0
 13
2226.882434944237
 23
-399.5837153422272
 33
0
  0
MTEXT
  5
147
100
AcDbEntity
  8
crep v1 duplo
  6
CONTINUOUS
 62
    0
370
   -2
100
AcDbMText
 10
2297.368546055349
 20
-386.875
 30
0
 40
25
 41
134.7222222222238
 71
    5
 72
    1
  1
129,3824
  7
standard
210
0
220
0
230
1
 50
0
 73
    2
 44
1
  0
ENDBLK
  5
87
330
85
100
AcDbEntity
  8
0
100
AcDbBlockEnd
  0
BLOCK
  5
89
330
88
100
AcDbEntity
  8
0
100
AcDbBlockBegin
  2
*D25
 70
    1
 10
0
 20
0
  3
*D25
  1

  0
LINE
  5
148
100
AcDbEntity
  8
crep v1 duplo
  6
ByBlock
 62
    0
370
   -2
100
AcDbLine
 10
3600
 20
2469.375
 11
3600
 21
-401.25
  0
LINE
  5
149
100
AcDbEntity
  8
crep v1 duplo
  6
ByBlock
 62
    0
370
   -2
100
AcDbLine
 10
3684.299907063198
 20
2469.375
 11
3684.299907063198
 21
-401.25
  0
LINE
  5
14A
100
AcDbEntity
  8
crep v1 duplo
  6
ByBlock
 62
    0
370
   -2
100
AcDbLine
 10
3600
 20
-400
 11
3684.299907063198
 21
-400
  0
SOLID
  5
14B
100
AcDbEntity
  8
crep v1 duplo
  6
ByBlock
 62
    0
370
   -2
100
AcDbTrace
 10
3600
 20
-400
 30
0
 11
3602.5
 21
-399.5837153422272
 31
0
 12
3602.5
 22
-400.4162846577728
 32
0
 13
3602.5
 23
-400.4162846577728
 33
0
  0
SOLID
  5
14C
100
AcDbEntity
  8
crep v1 duplo
  6
ByBlock
 62
    0
370
   -2
100
AcDbTrace
 10
3684.299907063198
 20
-400
 30
0
 11
3681.799907063198
 21
-400.4162846577728
 31
0
 12
3681.799907063198
 22
-399.5837153422272
 32
0
 13
3681.799907063198
 23
-399.5837153422272
 33
0
  0
MTEXT
  5
14D
100
AcDbEntity
  8
crep v1 duplo
  6
CONTINUOUS
 62
    0
370
   -2
100
AcDbMText
 10
3745.341573729865
 20
-386.875
 30
0
 40
25
 41
120.8333333333333
 71
    5
 72
    1
  1
84,2999
  7
standard
210
0
220
0
230
1
 50
0
 73
    2
 44
1
  0
ENDBLK
  5
8A
330
88
100
AcDbEntity
  8
0
100
AcDbBlockEnd
  0
BLOCK
  5
8C
330
8B
100
AcDbEntity
  8
0
100
AcDbBlockBegin
  2
*D4
 70
    1
 10
0
 20
0
  3
*D4
  1

  0
LINE
  5
14E
100
AcDbEntity
  8
crep od omaije
  6
ByBlock
 62
    0
370
   -2
100
AcDbLine
 10
-5824.002372484203
 20
-0.6249954970387426
 11
-5825.519896207952
 21
-400.3939350121249
  0
LINE
  5
14F
100
AcDbEntity
  8
crep od omaije
  6
ByBlock
 62
    0
370
   -2
100
AcDbLine
 10
-5550.002275023096
 20
-1.665100435433926
 11
-5551.519798746845
 21
-401.4340399505201
  0
LINE
  5
150
100
AcDbEntity
  8
crep od omaije
  6
ByBlock
 62
    0
370
   -2
100
AcDbLine
 10
-5825.515151239545
 20
-399.1439440180474
 11
-5551.515053778438
 21
-400.1840489564426
  0
SOLID
  5
151
100
AcDbEntity
  8
crep od omaije
  6
ByBlock
 62
    0
370
   -2
100
AcDbTrace
 10
-5825.515151239545
 20
-399.1439440180474
 30
0
 11
-5823.01358904535
 21
-398.7371522963099
 31
0
 12
-5823.01674945743
 22
-399.5697156134118
 32
0
 13
-5823.01674945743
 23
-399.5697156134118
 33
0
  0
SOLID
  5
152
100
AcDbEntity
  8
crep od omaije
  6
ByBlock
 62
    0
370
   -2
100
AcDbTrace
 10
-5551.515053778438
 20
-400.1840489564426
 30
0
 11
-5554.016615972632
 21
-400.5908406781801
 31
0
 12
-5554.013455560553
 22
-399.7582773610782
 32
0
 13
-5554.013455560553
 23
-399.7582773610782
 33
0
  0
MTEXT
  5
153
100
AcDbEntity
  8
crep od omaije
  6
CONTINUOUS
 62
    0
370
   -2
100
AcDbMText
 10
-5688.465280340721
 20
-386.5390910494314
 30
0
 40
25
 41
134.7222222222222
 71
    5
 72
    1
  1
274,0021
  7
standard
210
0
220
0
230
1
 50
359.7825061467689
 73
    2
 44
1
  0
ENDBLK
  5
8D
330
8B
100
AcDbEntity
  8
0
100
AcDbBlockEnd
  0
BLOCK
  5
8F
330
8E
100
AcDbEntity
  8
0
100
AcDbBlockBegin
  2
*D16
 70
    1
 10
0
 20
0
  3
*D16
  1

  0
LINE
  5
154
100
AcDbEntity
  8
crep od omaije
  6
ByBlock
 62
    0
370
   -2
100
AcDbLine
 10
-1502.858712794281
 20
4989.093442427691
 11
-1501.848521392994
 21
-401.2878277062009
  0
LINE
  5
155
100
AcDbEntity
  8
crep od omaije
  6
ByBlock
 62
    0
370
   -2
100
AcDbLine
 10
-1350.935016577388
 20
4989.121913885252
 11
-1349.924825176101
 21
-401.2593562486399
  0
LINE
  5
156
100
AcDbEntity
  8
crep od omaije
  6
ByBlock
 62
    0
370
   -2
100
AcDbLine
 10
-1501.848755650863
 20
-400.0378277281516
 11
-1349.92505943397
 21
-400.0093562705906
  0
SOLID
  5
157
100
AcDbEntity
  8
crep od omaije
  6
ByBlock
 62
    0
370
   -2
100
AcDbTrace
 10
-1501.848755650863
 20
-400.0378277281516
 30
0
 11
-1499.34883370913
 21
-399.6210745619509
 31
0
 12
-1499.348677680399
 22
-400.4536438628762
 32
0
 13
-1499.348677680399
 23
-400.4536438628762
 33
0
  0
SOLID
  5
158
100
AcDbEntity
  8
crep od omaije
  6
ByBlock
 62
    0
370
   -2
100
AcDbTrace
 10
-1349.92505943397
 20
-400.0093562705906
 30
0
 11
-1352.424981375703
 21
-400.4261094367913
 31
0
 12
-1352.425137404434
 22
-399.593540135866
 32
0
 13
-1352.425137404434
 23
-399.593540135866
 33
0
  0
MTEXT
  5
159
100
AcDbEntity
  8
crep od omaije
  6
CONTINUOUS
 62
    0
370
   -2
100
AcDbMText
 10
-1425.889367250041
 20
-386.8985922298534
 30
0
 40
25
 41
126.388888888892
 71
    5
 72
    1
  1
151,9237
  7
standard
210
0
220
0
230
1
 50
0.01073758983194471
 73
    2
 44
1
  0
ENDBLK
  5
90
330
8E
100
AcDbEntity
  8
0
100
AcDbBlockEnd
  0
BLOCK
  5
92
330
91
100
AcDbEntity
  8
0
100
AcDbBlockBegin
  2
*D8
 70
    1
 10
0
 20
0
  3
*D8
  1

  0
LINE
  5
15A
100
AcDbEntity
  8
crep od omaije
  6
ByBlock
 62
    0
370
   -2
100
AcDbLine
 10
-4169.630153449669
 20
1908.593618576535
 11
-4169.197268264597
 21
-401.281708655712
  0
LINE
  5
15B
100
AcDbEntity
  8
crep od omaije
  6
ByBlock
 62
    0
370
   -2
100
AcDbLine
 10
-4050.357757774641
 20
1908.615970974721
 11
-4049.92487258957
 21
-401.2593562575254
  0
LINE
  5
15C
100
AcDbEntity
  8
crep od omaije
  6
ByBlock
 62
    0
370
   -2
100
AcDbLine
 10
-4169.197502522466
 20
-400.0317086776627
 11
-4049.925106847439
 21
-400.0093562794762
  0
SOLID
  5
15D
100
AcDbEntity
  8
crep od omaije
  6
ByBlock
 62
    0
370
   -2
100
AcDbTrace
 10
-4169.197502522466
 20
-400.0317086776627
 30
0
 11
-4166.697580580733
 21
-399.614955511462
 31
0
 12
-4166.697424552002
 22
-400.4475248123873
 32
0
 13
-4166.697424552002
 23
-400.4475248123873
 33
0
  0
SOLID
  5
15E
100
AcDbEntity
  8
crep od omaije
  6
ByBlock
 62
    0
370
   -2
100
AcDbTrace
 10
-4049.925106847439
 20
-400.0093562794762
 30
0
 11
-4052.425028789172
 21
-400.4261094456768
 31
0
 12
-4052.425184817903
 22
-399.5935401447515
 32
0
 13
-4052.425184817903
 23
-399.5935401447515
 33
0
  0
MTEXT
  5
15F
100
AcDbEntity
  8
crep od omaije
  6
CONTINUOUS
 62
    0
370
   -2
100
AcDbMText
 10
-3984.719234366824
 20
-386.8721360577918
 30
0
 40
25
 41
129.1666666666667
 71
    5
 72
    1
  1
119,2724
  7
standard
210
0
220
0
230
1
 50
0.01073758983242816
 73
    2
 44
1
  0
ENDBLK
  5
93
330
91
100
AcDbEntity
  8
0
100
AcDbBlockEnd
  0
BLOCK
  5
95
330
94
100
AcDbEntity
  8
0
100
AcDbBlockBegin
  2
*D44
 70
    1
 10
0
 20
0
  3
*D44
  1

  0
LINE
  5
160
100
AcDbEntity
  8
poklopci 
  6
ByBlock
 62
    0
370
   -2
100
AcDbLine
 10
-3951.607272780498
 20
2315.768167545141
 11
-4109.655782113766
 21
2452.641701873311
  0
LINE
  5
161
100
AcDbEntity
  8
poklopci 
  6
ByBlock
 62
    0
370
   -2
100
AcDbLine
 10
-4436.049998522344
 20
1756.379889623794
 11
-4594.098507855612
 21
1893.253423951965
  0
LINE
  5
162
100
AcDbEntity
  8
poklopci 
  6
ByBlock
 62
    0
370
   -2
100
AcDbLine
 10
-4108.710869482142
 20
2451.823386458207
 11
-4593.153595223988
 21
1892.43510853686
  0
SOLID
  5
163
100
AcDbEntity
  8
poklopci 
  6
ByBlock
 62
    0
370
   -2
100
AcDbTrace
 10
-4108.710869482142
 20
2451.823386458207
 30
0
 11
-4110.032818207166
 21
2449.661039472937
 31
0
 12
-4110.662182417535
 22
2450.20608291698
 32
0
 13
-4110.662182417535
 23
2450.20608291698
 33
0
  0
SOLID
  5
164
100
AcDbEntity
  8
poklopci 
  6
ByBlock
 62
    0
370
   -2
100
AcDbTrace
 10
-4593.153595223988
 20
1892.43510853686
 30
0
 11
-4591.831646498964
 21
1894.597455522129
 31
0
 12
-4591.202282288595
 22
1894.052412078086
 32
0
 13
-4591.202282288595
 23
1894.052412078086
 33
0
  0
MTEXT
  5
165
100
AcDbEntity
  8
poklopci 
  6
CONTINUOUS
 62
    0
370
   -2
100
AcDbMText
 10
-4360.853814985116
 20
2180.72155935613
 30
0
 40
25
 41
140.2777777777778
 71
    5
 72
    1
  1
740,0000
  7
standard
210
0
220
0
230
1
 50
49.10670681208456
 73
    2
 44
1
  0
ENDBLK
  5
96
330
94
100
AcDbEntity
  8
0
100
AcDbBlockEnd
  0
BLOCK
  5
98
330
97
100
AcDbEntity
  8
0
100
AcDbBlockBegin
  2
*D10
 70
    1
 10
0
 20
0
  3
*D10
  1

  0
LINE
  5
166
100
AcDbEntity
  8
crep od omaije
  6
ByBlock
 62
    0
370
   -2
100
AcDbLine
 10
-3684.762618785053
 20
2468.684495640381
 11
-3684.224768514106
 21
-401.28452490391
  0
LINE
  5
167
100
AcDbEntity
  8
crep od omaije
  6
ByBlock
 62
    0
370
   -2
100
AcDbLine
 10
-3450.462715836293
 20
2468.728404917931
 11
-3449.924865565345
 21
-401.2406156263596
  0
LINE
  5
168
100
AcDbEntity
  8
crep od omaije
  6
ByBlock
 62
    0
370
   -2
100
AcDbLine
 10
-3684.225002771975
 20
-400.0345249258608
 11
-3449.925099823215
 21
-399.9906156483103
  0
SOLID
  5
169
100
AcDbEntity
  8
crep od omaije
  6
ByBlock
 62
    0
370
   -2
100
AcDbTrace
 10
-3684.225002771975
 20
-400.0345249258608
 30
0
 11
-3681.725080830241
 21
-399.6177717596601
 31
0
 12
-3681.72492480151
 22
-400.4503410605854
 32
0
 13
-3681.72492480151
 23
-400.4503410605854
 33
0
  0
SOLID
  5
16A
100
AcDbEntity
  8
crep od omaije
  6
ByBlock
 62
    0
370
   -2
100
AcDbTrace
 10
-3449.925099823215
 20
-399.9906156483103
 30
0
 11
-3452.425021764948
 21
-400.407368814511
 31
0
 12
-3452.425177793679
 22
-399.5747995135856
 32
0
 13
-3452.425177793679
 23
-399.5747995135856
 33
0
  0
MTEXT
  5
16B
100
AcDbEntity
  8
crep od omaije
  6
CONTINUOUS
 62
    0
370
   -2
100
AcDbMText
 10
-3567.077511005219
 20
-386.8875705175678
 30
0
 40
25
 41
140.2777777777793
 71
    5
 72
    1
  1
234,2999
  7
standard
210
0
220
0
230
1
 50
0.01073758983250449
 73
    2
 44
1
  0
ENDBLK
  5
99
330
97
100
AcDbEntity
  8
0
100
AcDbBlockEnd
  0
BLOCK
  5
9B
330
9A
100
AcDbEntity
  8
0
100
AcDbBlockBegin
  2
*D19
 70
    1
 10
0
 20
0
  3
*D19
  1

  0
LINE
  5
16C
100
AcDbEntity
  8
crep od omaije
  6
ByBlock
 62
    0
370
   -2
100
AcDbLine
 10
-290.6898761327398
 20
6389.320635087312
 11
-289.4172737728661
 21
-401.2854980120973
  0
LINE
  5
16D
100
AcDbEntity
  8
crep od omaije
  6
ByBlock
 62
    0
370
   -2
100
AcDbLine
 10
-151.1974064633484
 20
6389.346776854719
 11
-149.9248041034747
 21
-401.25935624469
  0
LINE
  5
16E
100
AcDbEntity
  8
crep od omaije
  6
ByBlock
 62
    0
370
   -2
100
AcDbLine
 10
-289.4175080307351
 20
-400.035498034048
 11
-149.9250383613437
 21
-400.0093562666407
  0
SOLID
  5
16F
100
AcDbEntity
  8
crep od omaije
  6
ByBlock
 62
    0
370
   -2
100
AcDbTrace
 10
-289.4175080307351
 20
-400.035498034048
 30
0
 11
-286.9175860890019
 21
-399.6187448678474
 31
0
 12
-286.917430060271
 22
-400.4513141687727
 32
0
 13
-286.917430060271
 23
-400.4513141687727
 33
0
  0
SOLID
  5
170
100
AcDbEntity
  8
crep od omaije
  6
ByBlock
 62
    0
370
   -2
100
AcDbTrace
 10
-149.9250383613437
 20
-400.0093562666407
 30
0
 11
-152.4249603030769
 21
-400.4261094328413
 31
0
 12
-152.4251163318078
 22
-399.593540131916
 32
0
 13
-152.4251163318078
 23
-399.593540131916
 33
0
  0
MTEXT
  5
171
100
AcDbEntity
  8
crep od omaije
  6
CONTINUOUS
 62
    0
370
   -2
100
AcDbMText
 10
-219.6737329036638
 20
-386.8974273808267
 30
0
 40
25
 41
134.7222222222253
 71
    5
 72
    1
  1
139,4925
  7
standard
210
0
220
0
230
1
 50
0.01073758983169027
 73
    2
 44
1
  0
ENDBLK
  5
9C
330
9A
100
AcDbEntity
  8
0
100
AcDbBlockEnd
  0
BLOCK
  5
9E
330
9D
100
AcDbEntity
  8
0
100
AcDbBlockBegin
  2
*D45
 70
    1
 10
0
 20
0
  3
*D45
  1

  0
LINE
  5
172
100
AcDbEntity
  8
poklopci 
  6
ByBlock
 62
    0
370
   -2
100
AcDbLine
 10
-4436.049998522353
 20
1756.379889623802
 11
-4582.890826108626
 21
1883.54732157361
  0
LINE
  5
173
100
AcDbEntity
  8
poklopci 
  6
ByBlock
 62
    0
370
   -2
100
AcDbLine
 10
-4920.492724264203
 20
1196.991611702457
 11
-5067.333551850476
 21
1324.159043652265
  0
LINE
  5
174
100
AcDbEntity
  8
poklopci 
  6
ByBlock
 62
    0
370
   -2
100
AcDbLine
 10
-4581.945913477002
 20
1882.729006158505
 11
-5066.388639218852
 21
1323.340728237161
  0
SOLID
  5
175
100
AcDbEntity
  8
poklopci 
  6
ByBlock
 62
    0
370
   -2
100
AcDbTrace
 10
-4581.945913477002
 20
1882.729006158505
 30
0
 11
-4583.267862202027
 21
1880.566659173236
 31
0
 12
-4583.897226412396
 22
1881.111702617279
 32
0
 13
-4583.897226412396
 23
1881.111702617279
 33
0
  0
SOLID
  5
176
100
AcDbEntity
  8
poklopci 
  6
ByBlock
 62
    0
370
   -2
100
AcDbTrace
 10
-5066.388639218852
 20
1323.340728237161
 30
0
 11
-5065.066690493828
 21
1325.50307522243
 31
0
 12
-5064.437326283459
 22
1324.958031778387
 32
0
 13
-5064.437326283459
 23
1324.958031778387
 33
0
  0
MTEXT
  5
177
100
AcDbEntity
  8
poklopci 
  6
CONTINUOUS
 62
    0
370
   -2
100
AcDbMText
 10
-4834.088858979978
 20
1611.62717905643
 30
0
 40
25
 41
140.2777777777778
 71
    5
 72
    1
  1
740,0000
  7
standard
210
0
220
0
230
1
 50
49.10670681208426
 73
    2
 44
1
  0
ENDBLK
  5
9F
330
9D
100
AcDbEntity
  8
0
100
AcDbBlockEnd
  0
BLOCK
  5
A1
330
A0
100
AcDbEntity
  8
0
100
AcDbBlockBegin
  2
*D35
 70
    1
 10
0
 20
0
  3
*D35
  1

  0
LINE
  5
178
100
AcDbEntity
  8
crep v1 duplo
  6
ByBlock
 62
    0
370
   -2
100
AcDbLine
 10
-76.06546684572363
 20
6790.87439091591
 11
-263.0806077752512
 21
6952.833674302315
  0
LINE
  5
179
100
AcDbEntity
  8
crep v1 duplo
  6
ByBlock
 62
    0
370
   -2
100
AcDbLine
 10
-802.729555458493
 20
5951.791974033891
 11
-989.7446963880205
 21
6113.751257420296
  0
LINE
  5
17A
100
AcDbEntity
  8
crep v1 duplo
  6
ByBlock
 62
    0
370
   -2
100
AcDbLine
 10
-262.1356951436273
 20
6952.01535888721
 11
-988.7997837563967
 21
6112.932942005191
  0
SOLID
  5
17B
100
AcDbEntity
  8
crep v1 duplo
  6
ByBlock
 62
    0
370
   -2
100
AcDbTrace
 10
-262.1356951436273
 20
6952.01535888721
 30
0
 11
-263.4576438686516
 21
6949.853011901941
 31
0
 12
-264.0870080790209
 22
6950.398055345984
 32
0
 13
-264.0870080790209
 23
6950.398055345984
 33
0
  0
SOLID
  5
17C
100
AcDbEntity
  8
crep v1 duplo
  6
ByBlock
 62
    0
370
   -2
100
AcDbTrace
 10
-988.7997837563967
 20
6112.932942005191
 30
0
 11
-987.4778350313724
 21
6115.09528899046
 31
0
 12
-986.848470821003
 22
6114.550245546417
 32
0
 13
-986.848470821003
 23
6114.550245546417
 33
0
  0
MTEXT
  5
17D
100
AcDbEntity
  8
crep v1 duplo
  6
CONTINUOUS
 62
    0
370
   -2
100
AcDbMText
 10
-635.3893220820629
 20
6541.066462304797
 30
0
 40
25
 41
140.2777777777778
 71
    5
 72
    1
  1
1110,0000
  7
standard
210
0
220
0
230
1
 50
49.10670681208456
 73
    2
 44
1
  0
ENDBLK
  5
A2
330
A0
100
AcDbEntity
  8
0
100
AcDbBlockEnd
  0
BLOCK
  5
A4
330
A3
100
AcDbEntity
  8
0
100
AcDbBlockBegin
  2
*D38
 70
    1
 10
0
 20
0
  3
*D38
  1

  0
LINE
  5
17E
100
AcDbEntity
  8
poklopci 
  6
ByBlock
 62
    0
370
   -2
100
AcDbLine
 10
-1044.950918329419
 20
5672.097835073219
 11
-1236.070161066216
 21
5837.611362166024
  0
LINE
  5
17F
100
AcDbEntity
  8
poklopci 
  6
ByBlock
 62
    0
370
   -2
100
AcDbLine
 10
-1529.393644071267
 20
5112.709557151874
 11
-1720.512886808064
 21
5278.223084244679
  0
LINE
  5
180
100
AcDbEntity
  8
poklopci 
  6
ByBlock
 62
    0
370
   -2
100
AcDbLine
 10
-1235.125248434592
 20
5836.79304675092
 11
-1719.56797417644
 21
5277.404768829574
  0
SOLID
  5
181
100
AcDbEntity
  8
poklopci 
  6
ByBlock
 62
    0
370
   -2
100
AcDbTrace
 10
-1235.125248434592
 20
5836.79304675092
 30
0
 11
-1236.447197159617
 21
5834.63069976565
 31
0
 12
-1237.076561369986
 22
5835.175743209694
 32
0
 13
-1237.076561369986
 23
5835.175743209694
 33
0
  0
SOLID
  5
182
100
AcDbEntity
  8
poklopci 
  6
ByBlock
 62
    0
370
   -2
100
AcDbTrace
 10
-1719.56797417644
 20
5277.404768829574
 30
0
 11
-1718.246025451416
 21
5279.567115814843
 31
0
 12
-1717.616661241047
 22
5279.0220723708
 32
0
 13
-1717.616661241047
 23
5279.0220723708
 33
0
  0
MTEXT
  5
183
100
AcDbEntity
  8
poklopci 
  6
CONTINUOUS
 62
    0
370
   -2
100
AcDbMText
 10
-1487.268193937567
 20
5565.691219648844
 30
0
 40
25
 41
140.2777777777778
 71
    5
 72
    1
  1
740,0000
  7
standard
210
0
220
0
230
1
 50
49.10670681208446
 73
    2
 44
1
  0
ENDBLK
  5
A5
330
A3
100
AcDbEntity
  8
0
100
AcDbBlockEnd
  0
BLOCK
  5
A7
330
A6
100
AcDbEntity
  8
0
100
AcDbBlockBegin
  2
*D7
 70
    1
 10
0
 20
0
  3
*D7
  1

  0
LINE
  5
184
100
AcDbEntity
  8
crep od omaije
  6
ByBlock
 62
    0
370
   -2
100
AcDbLine
 10
-4412.063920781978
 20
1628.548180044611
 11
-4411.683523408012
 21
-401.2521895878257
  0
LINE
  5
185
100
AcDbEntity
  8
crep od omaije
  6
ByBlock
 62
    0
370
   -2
100
AcDbLine
 10
-4350.305278743816
 20
1628.559754003116
 11
-4349.92488136985
 21
-401.2406156293211
  0
LINE
  5
186
100
AcDbEntity
  8
crep od omaije
  6
ByBlock
 62
    0
370
   -2
100
AcDbLine
 10
-4411.683757665881
 20
-400.0021896097765
 11
-4349.92511562772
 21
-399.9906156512718
  0
SOLID
  5
187
100
AcDbEntity
  8
crep od omaije
  6
ByBlock
 62
    0
370
   -2
100
AcDbTrace
 10
-4411.683757665881
 20
-400.0021896097765
 30
0
 11
-4409.183835724148
 21
-399.5854364435758
 31
0
 12
-4409.183679695417
 22
-400.4180057445011
 32
0
 13
-4409.183679695417
 23
-400.4180057445011
 33
0
  0
SOLID
  5
188
100
AcDbEntity
  8
crep od omaije
  6
ByBlock
 62
    0
370
   -2
100
AcDbTrace
 10
-4349.92511562772
 20
-399.9906156512718
 30
0
 11
-4352.425037569453
 21
-400.4073688174725
 31
0
 12
-4352.425193598184
 22
-399.5747995165472
 32
0
 13
-4352.425193598184
 23
-399.5747995165472
 33
0
  0
MTEXT
  5
189
100
AcDbEntity
  8
crep od omaije
  6
CONTINUOUS
 62
    0
370
   -2
100
AcDbMText
 10
-4293.052576334098
 20
-386.8549571487142
 30
0
 40
25
 41
112.5000000000046
 71
    5
 72
    1
  1
61,7586
  7
standard
210
0
220
0
230
1
 50
0.01073758983240271
 73
    2
 44
1
  0
ENDBLK
  5
A8
330
A6
100
AcDbEntity
  8
0
100
AcDbBlockEnd
  0
BLOCK
  5
AA
330
A9
100
AcDbEntity
  8
0
100
AcDbBlockBegin
  2
*D28
 70
    1
 10
0
 20
0
  3
*D28
  1

  0
LINE
  5
18A
100
AcDbEntity
  8
crep v1 duplo
  6
ByBlock
 62
    0
370
   -2
100
AcDbLine
 10
3000
 20
3029.375
 11
3000
 21
-401.25
  0
LINE
  5
18B
100
AcDbEntity
  8
crep v1 duplo
  6
ByBlock
 62
    0
370
   -2
100
AcDbLine
 10
3199.327416356877
 20
3029.375
 11
3199.327416356877
 21
-401.25
  0
LINE
  5
18C
100
AcDbEntity
  8
crep v1 duplo
  6
ByBlock
 62
    0
370
   -2
100
AcDbLine
 10
3000
 20
-400
 11
3199.327416356877
 21
-400
  0
SOLID
  5
18D
100
AcDbEntity
  8
crep v1 duplo
  6
ByBlock
 62
    0
370
   -2
100
AcDbTrace
 10
3000
 20
-400
 30
0
 11
3002.5
 21
-399.5837153422272
 31
0
 12
3002.5
 22
-400.4162846577728
 32
0
 13
3002.5
 23
-400.4162846577728
 33
0
  0
SOLID
  5
18E
100
AcDbEntity
  8
crep v1 duplo
  6
ByBlock
 62
    0
370
   -2
100
AcDbTrace
 10
3199.327416356877
 20
-400
 30
0
 11
3196.827416356877
 21
-400.4162846577728
 31
0
 12
3196.827416356877
 22
-399.5837153422272
 32
0
 13
3196.827416356877
 23
-399.5837153422272
 33
0
  0
MTEXT
  5
18F
100
AcDbEntity
  8
crep v1 duplo
  6
CONTINUOUS
 62
    0
370
   -2
100
AcDbMText
 10
3099.663708178438
 20
-386.875
 30
0
 40
25
 41
134.7222222222238
 71
    5
 72
    1
  1
199,3274
  7
standard
210
0
220
0
230
1
 50
0
 73
    2
 44
1
  0
ENDBLK
  5
AB
330
A9
100
AcDbEntity
  8
0
100
AcDbBlockEnd
  0
BLOCK
  5
AD
330
AC
100
AcDbEntity
  8
0
100
AcDbBlockBegin
  2
*D5
 70
    1
 10
0
 20
0
  3
*D5
  1

  0
LINE
  5
190
100
AcDbEntity
  8
crep od omaije
  6
ByBlock
 62
    0
370
   -2
100
AcDbLine
 10
-5381.798990111208
 20
508.3664259169184
 11
-5381.628519396883
 21
-401.2652977206224
  0
LINE
  5
191
100
AcDbEntity
  8
crep od omaije
  6
ByBlock
 62
    0
370
   -2
100
AcDbLine
 10
-5250.095367888682
 20
508.3911080052579
 11
-5249.924897174357
 21
-401.2406156322829
  0
LINE
  5
192
100
AcDbEntity
  8
crep od omaije
  6
ByBlock
 62
    0
370
   -2
100
AcDbLine
 10
-5381.628753654752
 20
-400.0152977425731
 11
-5249.925131432226
 21
-399.9906156542336
  0
SOLID
  5
193
100
AcDbEntity
  8
crep od omaije
  6
ByBlock
 62
    0
370
   -2
100
AcDbTrace
 10
-5381.628753654752
 20
-400.0152977425731
 30
0
 11
-5379.128831713019
 21
-399.5985445763724
 31
0
 12
-5379.128675684288
 22
-400.4311138772978
 32
0
 13
-5379.128675684288
 23
-400.4311138772978
 33
0
  0
SOLID
  5
194
100
AcDbEntity
  8
crep od omaije
  6
ByBlock
 62
    0
370
   -2
100
AcDbTrace
 10
-5249.925131432226
 20
-399.9906156542336
 30
0
 11
-5252.42505337396
 21
-400.4073688204343
 31
0
 12
-5252.425209402691
 22
-399.574799519509
 32
0
 13
-5252.425209402691
 23
-399.574799519509
 33
0
  0
MTEXT
  5
195
100
AcDbEntity
  8
crep od omaije
  6
CONTINUOUS
 62
    0
370
   -2
100
AcDbMText
 10
-5315.779402251113
 20
-386.8779569288857
 30
0
 40
25
 41
126.3888888888935
 71
    5
 72
    1
  1
131,7036
  7
standard
210
0
220
0
230
1
 50
0.01073758983240271
 73
    2
 44
1
  0
ENDBLK
  5
AE
330
AC
100
AcDbEntity
  8
0
100
AcDbBlockEnd
  0
BLOCK
  5
B0
330
AF
100
AcDbEntity
  8
0
100
AcDbBlockBegin
  2
*D14
 70
    1
 10
0
 20
0
  3
*D14
  1

  0
LINE
  5
196
100
AcDbEntity
  8
crep od omaije
  6
ByBlock
 62
    0
370
   -2
100
AcDbLine
 10
-2472.593782123512
 20
3868.911688299997
 11
-2471.793524406041
 21
-401.263454580614
  0
LINE
  5
197
100
AcDbEntity
  8
crep od omaije
  6
ByBlock
 62
    0
370
   -2
100
AcDbLine
 10
-2250.725105722253
 20
3868.953267887395
 11
-2249.924848004783
 21
-401.2218749932167
  0
LINE
  5
198
100
AcDbEntity
  8
crep od omaije
  6
ByBlock
 62
    0
370
   -2
100
AcDbLine
 10
-2471.79375866391
 20
-400.0134546025647
 11
-2249.925082262652
 21
-399.9718750151674
  0
SOLID
  5
199
100
AcDbEntity
  8
crep od omaije
  6
ByBlock
 62
    0
370
   -2
100
AcDbTrace
 10
-2471.79375866391
 20
-400.0134546025647
 30
0
 11
-2469.293836722177
 21
-399.596701436364
 31
0
 12
-2469.293680693446
 22
-400.4292707372894
 32
0
 13
-2469.293680693446
 23
-400.4292707372894
 33
0
  0
SOLID
  5
19A
100
AcDbEntity
  8
crep od omaije
  6
ByBlock
 62
    0
370
   -2
100
AcDbTrace
 10
-2249.925082262652
 20
-399.9718750151674
 30
0
 11
-2252.425004204385
 21
-400.3886281813681
 31
0
 12
-2252.425160233116
 22
-399.5560588804427
 32
0
 13
-2252.425160233116
 23
-399.5560588804427
 33
0
  0
MTEXT
  5
19B
100
AcDbEntity
  8
crep od omaije
  6
CONTINUOUS
 62
    0
370
   -2
100
AcDbMText
 10
-2360.861880170905
 20
-386.8676650393484
 30
0
 40
25
 41
131.944444444446
 71
    5
 72
    1
  1
221,8687
  7
standard
210
0
220
0
230
1
 50
0.01073758983247905
 73
    2
 44
1
  0
ENDBLK
  5
B1
330
AF
100
AcDbEntity
  8
0
100
AcDbBlockEnd
  0
BLOCK
  5
B3
330
B2
100
AcDbEntity
  8
0
100
AcDbBlockBegin
  2
*D13
 70
    1
 10
0
 20
0
  3
*D13
  1

  0
LINE
  5
19C
100
AcDbEntity
  8
crep od omaije
  6
ByBlock
 62
    0
370
   -2
100
AcDbLine
 10
-2715.027549455821
 20
3588.866249768075
 11
-2714.279769013138
 21
-401.2901574003039
  0
LINE
  5
19D
100
AcDbEntity
  8
crep od omaije
  6
ByBlock
 62
    0
370
   -2
100
AcDbLine
 10
-2550.672626691428
 20
3588.89705091579
 11
-2549.924846248745
 21
-401.2593562525889
  0
LINE
  5
19E
100
AcDbEntity
  8
crep od omaije
  6
ByBlock
 62
    0
370
   -2
100
AcDbLine
 10
-2714.280003271007
 20
-400.0401574222547
 11
-2549.925080506614
 21
-400.0093562745396
  0
SOLID
  5
19F
100
AcDbEntity
  8
crep od omaije
  6
ByBlock
 62
    0
370
   -2
100
AcDbTrace
 10
-2714.280003271007
 20
-400.0401574222547
 30
0
 11
-2711.780081329274
 21
-399.623404256054
 31
0
 12
-2711.779925300543
 22
-400.4559735569793
 32
0
 13
-2711.779925300543
 23
-400.4559735569793
 33
0
  0
SOLID
  5
1A0
100
AcDbEntity
  8
crep od omaije
  6
ByBlock
 62
    0
370
   -2
100
AcDbTrace
 10
-2549.925080506614
 20
-400.0093562745396
 30
0
 11
-2552.425002448348
 21
-400.4261094407403
 31
0
 12
-2552.425158477079
 22
-399.593540139815
 32
0
 13
-2552.425158477079
 23
-399.593540139815
 33
0
  0
MTEXT
  5
1A1
100
AcDbEntity
  8
crep od omaije
  6
CONTINUOUS
 62
    0
370
   -2
100
AcDbMText
 10
-2632.105001596436
 20
-386.8997570788795
 30
0
 40
25
 41
137.5000000000047
 71
    5
 72
    1
  1
164,3549
  7
standard
210
0
220
0
230
1
 50
0.01073758983232638
 73
    2
 44
1
  0
ENDBLK
  5
B4
330
B2
100
AcDbEntity
  8
0
100
AcDbBlockEnd
  0
BLOCK
  5
B6
330
B5
100
AcDbEntity
  8
0
100
AcDbBlockBegin
  2
*D31
 70
    1
 10
0
 20
0
  3
*D31
  1

  0
LINE
  5
1A2
100
AcDbEntity
  8
crep v1 duplo
  6
ByBlock
 62
    0
370
   -2
100
AcDbLine
 10
1800
 20
4429.375
 11
1799.999999999999
 21
-401.25
  0
LINE
  5
1A3
100
AcDbEntity
  8
crep v1 duplo
  6
ByBlock
 62
    0
370
   -2
100
AcDbLine
 10
1986.896189591078
 20
4429.375
 11
1986.896189591077
 21
-401.25
  0
LINE
  5
1A4
100
AcDbEntity
  8
crep v1 duplo
  6
ByBlock
 62
    0
370
   -2
100
AcDbLine
 10
1799.999999999999
 20
-400
 11
1986.896189591077
 21
-400
  0
SOLID
  5
1A5
100
AcDbEntity
  8
crep v1 duplo
  6
ByBlock
 62
    0
370
   -2
100
AcDbTrace
 10
1799.999999999999
 20
-400
 30
0
 11
1802.499999999999
 21
-399.5837153422272
 31
0
 12
1802.499999999999
 22
-400.4162846577728
 32
0
 13
1802.499999999999
 23
-400.4162846577728
 33
0
  0
SOLID
  5
1A6
100
AcDbEntity
  8
crep v1 duplo
  6
ByBlock
 62
    0
370
   -2
100
AcDbTrace
 10
1986.896189591077
 20
-400
 30
0
 11
1984.396189591077
 21
-400.4162846577728
 31
0
 12
1984.396189591077
 22
-399.5837153422272
 32
0
 13
1984.396189591077
 23
-399.5837153422272
 33
0
  0
MTEXT
  5
1A7
100
AcDbEntity
  8
crep v1 duplo
  6
CONTINUOUS
 62
    0
370
   -2
100
AcDbMText
 10
1893.448094795538
 20
-386.875
 30
0
 40
25
 41
131.9444444444476
 71
    5
 72
    1
  1
186,8962
  7
standard
210
0
220
0
230
1
 50
0
 73
    2
 44
1
  0
ENDBLK
  5
B7
330
B5
100
AcDbEntity
  8
0
100
AcDbBlockEnd
  0
BLOCK
  5
B9
330
B8
100
AcDbEntity
  8
0
100
AcDbBlockBegin
  2
*D33
 70
    1
 10
0
 20
0
  3
*D33
  1

  0
LINE
  5
1A8
100
AcDbEntity
  8
crep v1 duplo
  6
ByBlock
 62
    0
370
   -2
100
AcDbLine
 10
900
 20
5549.375
 11
899.9999999999989
 21
-401.25
  0
LINE
  5
1A9
100
AcDbEntity
  8
crep v1 duplo
  6
ByBlock
 62
    0
370
   -2
100
AcDbLine
 10
1016.95120817844
 20
5549.375
 11
1016.951208178439
 21
-401.25
  0
LINE
  5
1AA
100
AcDbEntity
  8
crep v1 duplo
  6
ByBlock
 62
    0
370
   -2
100
AcDbLine
 10
899.9999999999989
 20
-400
 11
1016.951208178439
 21
-400
  0
SOLID
  5
1AB
100
AcDbEntity
  8
crep v1 duplo
  6
ByBlock
 62
    0
370
   -2
100
AcDbTrace
 10
899.9999999999989
 20
-400
 30
0
 11
902.4999999999989
 21
-399.5837153422272
 31
0
 12
902.4999999999989
 22
-400.4162846577728
 32
0
 13
902.4999999999989
 23
-400.4162846577728
 33
0
  0
SOLID
  5
1AC
100
AcDbEntity
  8
crep v1 duplo
  6
ByBlock
 62
    0
370
   -2
100
AcDbTrace
 10
1016.951208178439
 20
-400
 30
0
 11
1014.451208178439
 21
-400.4162846577728
 31
0
 12
1014.451208178439
 22
-399.5837153422272
 32
0
 13
1014.451208178439
 23
-399.5837153422272
 33
0
  0
MTEXT
  5
1AD
100
AcDbEntity
  8
crep v1 duplo
  6
CONTINUOUS
 62
    0
370
   -2
100
AcDbMText
 10
1077.992874845107
 20
-386.875
 30
0
 40
25
 41
120.8333333333364
 71
    5
 72
    1
  1
116,9512
  7
standard
210
0
220
0
230
1
 50
0
 73
    2
 44
1
  0
ENDBLK
  5
BA
330
B8
100
AcDbEntity
  8
0
100
AcDbBlockEnd
  0
BLOCK
  5
BC
330
BB
100
AcDbEntity
  8
0
100
AcDbBlockBegin
  2
*D17
 70
    1
 10
0
 20
0
  3
*D17
  1

  0
LINE
  5
1AE
100
AcDbEntity
  8
crep od omaije
  6
ByBlock
 62
    0
370
   -2
100
AcDbLine
 10
-1260.266795100245
 20
5269.13891059799
 11
-1259.204115887818
 21
-401.3173171357147
  0
LINE
  5
1AF
100
AcDbEntity
  8
crep od omaije
  6
ByBlock
 62
    0
370
   -2
100
AcDbLine
 10
-1050.987495608214
 20
5269.17813085686
 11
-1049.924816395788
 21
-401.2780968768447
  0
LINE
  5
1B0
100
AcDbEntity
  8
crep od omaije
  6
ByBlock
 62
    0
370
   -2
100
AcDbLine
 10
-1259.204350145687
 20
-400.0673171576655
 11
-1049.925050653656
 21
-400.0280968987954
  0
SOLID
  5
1B1
100
AcDbEntity
  8
crep od omaije
  6
ByBlock
 62
    0
370
   -2
100
AcDbTrace
 10
-1259.204350145687
 20
-400.0673171576655
 30
0
 11
-1256.704428203954
 21
-399.6505639914648
 31
0
 12
-1256.704272175223
 22
-400.4831332923901
 32
0
 13
-1256.704272175223
 23
-400.4831332923901
 33
0
  0
SOLID
  5
1B2
100
AcDbEntity
  8
crep od omaije
  6
ByBlock
 62
    0
370
   -2
100
AcDbTrace
 10
-1049.925050653656
 20
-400.0280968987954
 30
0
 11
-1052.42497259539
 21
-400.4448500649961
 31
0
 12
-1052.42512862412
 22
-399.6122807640708
 32
0
 13
-1052.42512862412
 23
-399.6122807640708
 33
0
  0
MTEXT
  5
1B3
100
AcDbEntity
  8
crep od omaije
  6
CONTINUOUS
 62
    0
370
   -2
100
AcDbMText
 10
-1154.567160107297
 20
-386.9227072587128
 30
0
 40
25
 41
137.5000000000015
 71
    5
 72
    1
  1
209,2793
  7
standard
210
0
220
0
230
1
 50
0.01073758983240271
 73
    2
 44
1
  0
ENDBLK
  5
BD
330
BB
100
AcDbEntity
  8
0
100
AcDbBlockEnd
  0
BLOCK
  5
BF
330
BE
100
AcDbEntity
  8
0
100
AcDbBlockBegin
  2
*D12
 70
    1
 10
0
 20
0
  3
*D12
  1

  0
LINE
  5
1B4
100
AcDbEntity
  8
crep od omaije
  6
ByBlock
 62
    0
370
   -2
100
AcDbLine
 10
-2957.461316788129
 20
3308.820811236151
 11
-2956.766017132328
 21
-401.2981195908009
  0
LINE
  5
1B5
100
AcDbEntity
  8
crep od omaije
  6
ByBlock
 62
    0
370
   -2
100
AcDbLine
 10
-2850.620147660602
 20
3308.840833944184
 11
-2849.9248480048
 21
-401.2780968827678
  0
LINE
  5
1B6
100
AcDbEntity
  8
crep od omaije
  6
ByBlock
 62
    0
370
   -2
100
AcDbLine
 10
-2956.766251390197
 20
-400.0481196127516
 11
-2849.92508226267
 21
-400.0280969047185
  0
SOLID
  5
1B7
100
AcDbEntity
  8
crep od omaije
  6
ByBlock
 62
    0
370
   -2
100
AcDbTrace
 10
-2956.766251390197
 20
-400.0481196127516
 30
0
 11
-2954.266329448464
 21
-399.631366446551
 31
0
 12
-2954.266173419733
 22
-400.4639357474763
 32
0
 13
-2954.266173419733
 23
-400.4639357474763
 33
0
  0
SOLID
  5
1B8
100
AcDbEntity
  8
crep od omaije
  6
ByBlock
 62
    0
370
   -2
100
AcDbTrace
 10
-2849.92508226267
 20
-400.0280969047185
 30
0
 11
-2852.425004204403
 21
-400.4448500709191
 31
0
 12
-2852.425160233134
 22
-399.6122807699938
 32
0
 13
-2852.425160233134
 23
-399.6122807699938
 33
0
  0
MTEXT
  5
1B9
100
AcDbEntity
  8
crep od omaije
  6
CONTINUOUS
 62
    0
370
   -2
100
AcDbMText
 10
-2784.719209782055
 20
-386.8908766830343
 30
0
 40
25
 41
129.1666666666682
 71
    5
 72
    1
  1
106,8412
  7
standard
210
0
220
0
230
1
 50
0.01073758983227549
 73
    2
 44
1
  0
ENDBLK
  5
C0
330
BE
100
AcDbEntity
  8
0
100
AcDbBlockEnd
  0
BLOCK
  5
C2
330
C1
100
AcDbEntity
  8
0
100
AcDbBlockBegin
  2
*D43
 70
    1
 10
0
 20
0
  3
*D43
  1

  0
LINE
  5
1BA
100
AcDbEntity
  8
poklopci 
  6
ByBlock
 62
    0
370
   -2
100
AcDbLine
 10
-3467.164547038651
 20
2875.156445466487
 11
-3644.07662989603
 21
3028.366255215391
  0
LINE
  5
1BB
100
AcDbEntity
  8
poklopci 
  6
ByBlock
 62
    0
370
   -2
100
AcDbLine
 10
-3951.607272780498
 20
2315.768167545141
 11
-4128.519355637877
 21
2468.977977294044
  0
LINE
  5
1BC
100
AcDbEntity
  8
poklopci 
  6
ByBlock
 62
    0
370
   -2
100
AcDbLine
 10
-3643.131717264406
 20
3027.547939800286
 11
-4127.574443006253
 21
2468.15966187894
  0
SOLID
  5
1BD
100
AcDbEntity
  8
poklopci 
  6
ByBlock
 62
    0
370
   -2
100
AcDbTrace
 10
-3643.131717264406
 20
3027.547939800286
 30
0
 11
-3644.453665989431
 21
3025.385592815017
 31
0
 12
-3645.0830301998
 22
3025.93063625906
 32
0
 13
-3645.0830301998
 23
3025.93063625906
 33
0
  0
SOLID
  5
1BE
100
AcDbEntity
  8
poklopci 
  6
ByBlock
 62
    0
370
   -2
100
AcDbTrace
 10
-4127.574443006253
 20
2468.15966187894
 30
0
 11
-4126.252494281229
 21
2470.322008864209
 31
0
 12
-4125.62313007086
 22
2469.776965420166
 32
0
 13
-4125.62313007086
 23
2469.776965420166
 33
0
  0
MTEXT
  5
1BF
100
AcDbEntity
  8
poklopci 
  6
CONTINUOUS
 62
    0
370
   -2
100
AcDbMText
 10
-3895.274662767381
 20
2756.44611269821
 30
0
 40
25
 41
140.2777777777778
 71
    5
 72
    1
  1
740,0000
  7
standard
210
0
220
0
230
1
 50
49.10670681208456
 73
    2
 44
1
  0
ENDBLK
  5
C3
330
C1
100
AcDbEntity
  8
0
100
AcDbBlockEnd
  0
BLOCK
  5
C5
330
C4
100
AcDbEntity
  8
0
100
AcDbBlockBegin
  2
*D1
 70
    1
 10
0
 20
0
  3
*D1
  1

  0
LINE
  5
1C0
100
AcDbEntity
  8
0
  6
ByBlock
 62
    0
370
   -2
100
AcDbLine
 10
-1.148106374200643e-16
 20
-0.625
 11
-1.839266411469431e-13
 21
-1001.25
  0
LINE
  5
1C1
100
AcDbEntity
  8
0
  6
ByBlock
 62
    0
370
   -2
100
AcDbLine
 10
5824
 20
-0.625
 11
5824
 21
-1001.25
  0
LINE
  5
1C2
100
AcDbEntity
  8
0
  6
ByBlock
 62
    0
370
   -2
100
AcDbLine
 10
-1.83697019872103e-13
 20
-1000
 11
5824
 21
-1000
  0
SOLID
  5
1C3
100
AcDbEntity
  8
0
  6
ByBlock
 62
    0
370
   -2
100
AcDbTrace
 10
-1.83697019872103e-13
 20
-1000
 30
0
 11
2.499999999999816
 21
-999.5837153422272
 31
0
 12
2.499999999999816
 22
-1000.416284657773
 32
0
 13
2.499999999999816
 23
-1000.416284657773
 33
0
  0
SOLID
  5
1C4
100
AcDbEntity
  8
0
  6
ByBlock
 62
    0
370
   -2
100
AcDbTrace
 10
5824
 20
-1000
 30
0
 11
5821.5
 21
-1000.416284657773
 31
0
 12
5821.5
 22
-999.5837153422272
 32
0
 13
5821.5
 23
-999.5837153422272
 33
0
  0
MTEXT
  5
1C5
100
AcDbEntity
  8
0
  6
CONTINUOUS
 62
    0
370
   -2
100
AcDbMText
 10
2912
 20
-986.875
 30
0
 40
25
 41
159.7222222222238
 71
    5
 72
    1
  1
5824,0000
  7
standard
210
0
220
0
230
1
 50
0
 73
    2
 44
1
  0
ENDBLK
  5
C6
330
C4
100
AcDbEntity
  8
0
100
AcDbBlockEnd
  0
BLOCK
  5
C8
330
C7
100
AcDbEntity
  8
0
100
AcDbBlockBegin
  2
*D26
 70
    1
 10
0
 20
0
  3
*D26
  1

  0
LINE
  5
1C6
100
AcDbEntity
  8
crep v1 duplo
  6
ByBlock
 62
    0
370
   -2
100
AcDbLine
 10
3300
 20
2749.375
 11
3300
 21
-401.25
  0
LINE
  5
1C7
100
AcDbEntity
  8
crep v1 duplo
  6
ByBlock
 62
    0
370
   -2
100
AcDbLine
 10
3441.813661710037
 20
2749.375
 11
3441.813661710037
 21
-401.25
  0
LINE
  5
1C8
100
AcDbEntity
  8
crep v1 duplo
  6
ByBlock
 62
    0
370
   -2
100
AcDbLine
 10
3300
 20
-400
 11
3441.813661710037
 21
-400
  0
SOLID
  5
1C9
100
AcDbEntity
  8
crep v1 duplo
  6
ByBlock
 62
    0
370
   -2
100
AcDbTrace
 10
3300
 20
-400
 30
0
 11
3302.5
 21
-399.5837153422272
 31
0
 12
3302.5
 22
-400.4162846577728
 32
0
 13
3302.5
 23
-400.4162846577728
 33
0
  0
SOLID
  5
1CA
100
AcDbEntity
  8
crep v1 duplo
  6
ByBlock
 62
    0
370
   -2
100
AcDbTrace
 10
3441.813661710037
 20
-400
 30
0
 11
3439.313661710037
 21
-400.4162846577728
 31
0
 12
3439.313661710037
 22
-399.5837153422272
 32
0
 13
3439.313661710037
 23
-399.5837153422272
 33
0
  0
MTEXT
  5
1CB
100
AcDbEntity
  8
crep v1 duplo
  6
CONTINUOUS
 62
    0
370
   -2
100
AcDbMText
 10
3370.906830855018
 20
-386.875
 30
0
 40
25
 41
123.6111111111127
 71
    5
 72
    1
  1
141,8137
  7
standard
210
0
220
0
230
1
 50
0
 73
    2
 44
1
  0
ENDBLK
  5
C9
330
C7
100
AcDbEntity
  8
0
100
AcDbBlockEnd
  0
BLOCK
  5
CB
330
CA
100
AcDbEntity
  8
0
100
AcDbBlockBegin
  2
*D15
 70
    1
 10
0
 20
0
  3
*D15
  1

  0
LINE
  5
1CC
100
AcDbEntity
  8
crep od omaije
  6
ByBlock
 62
    0
370
   -2
100
AcDbLine
 10
-1745.292480126588
 20
4709.048003895768
 11
-1744.334773024293
 21
-401.2770492675072
  0
LINE
  5
1CD
100
AcDbEntity
  8
crep od omaije
  6
ByBlock
 62
    0
370
   -2
100
AcDbLine
 10
-1650.882537546562
 20
4709.065696913648
 11
-1649.924830444266
 21
-401.2593562496276
  0
LINE
  5
1CE
100
AcDbEntity
  8
crep od omaije
  6
ByBlock
 62
    0
370
   -2
100
AcDbLine
 10
-1744.335007282162
 20
-400.0270492894579
 11
-1649.925064702135
 21
-400.0093562715783
  0
SOLID
  5
1CF
100
AcDbEntity
  8
crep od omaije
  6
ByBlock
 62
    0
370
   -2
100
AcDbTrace
 10
-1744.335007282162
 20
-400.0270492894579
 30
0
 11
-1741.835085340428
 21
-399.6102961232572
 31
0
 12
-1741.834929311698
 22
-400.4428654241825
 32
0
 13
-1741.834929311698
 23
-400.4428654241825
 33
0
  0
SOLID
  5
1D0
100
AcDbEntity
  8
crep od omaije
  6
ByBlock
 62
    0
370
   -2
100
AcDbTrace
 10
-1649.925064702135
 20
-400.0093562715783
 30
0
 11
-1652.424986643869
 21
-400.426109437779
 31
0
 12
-1652.425142672599
 22
-399.5935401368537
 32
0
 13
-1652.425142672599
 23
-399.5935401368537
 33
0
  0
MTEXT
  5
1D1
100
AcDbEntity
  8
crep od omaije
  6
CONTINUOUS
 62
    0
370
   -2
100
AcDbMText
 10
-1587.496969950519
 20
-386.8726566229368
 30
0
 40
25
 41
123.6111111111126
 71
    5
 72
    1
  1
94,4099
  7
standard
210
0
220
0
230
1
 50
0.01073758983191927
 73
    2
 44
1
  0
ENDBLK
  5
CC
330
CA
100
AcDbEntity
  8
0
100
AcDbBlockEnd
  0
BLOCK
  5
CE
330
CD
100
AcDbEntity
  8
0
100
AcDbBlockBegin
  2
*D37
 70
    1
 10
0
 20
0
  3
*D37
  1

  0
LINE
  5
1D2
100
AcDbEntity
  8
poklopci 
  6
ByBlock
 62
    0
370
   -2
100
AcDbLine
 10
-560.5081925875714
 20
6231.486112994565
 11
-705.6920846615999
 21
6357.218601833099
  0
LINE
  5
1D3
100
AcDbEntity
  8
poklopci 
  6
ByBlock
 62
    0
370
   -2
100
AcDbLine
 10
-1044.950918329419
 20
5672.097835073219
 11
-1190.134810403448
 21
5797.830323911754
  0
LINE
  5
1D4
100
AcDbEntity
  8
poklopci 
  6
ByBlock
 62
    0
370
   -2
100
AcDbLine
 10
-704.747172029976
 20
6356.400286417995
 11
-1189.189897771824
 21
5797.012008496649
  0
SOLID
  5
1D5
100
AcDbEntity
  8
poklopci 
  6
ByBlock
 62
    0
370
   -2
100
AcDbTrace
 10
-704.747172029976
 20
6356.400286417995
 30
0
 11
-706.0691207550003
 21
6354.237939432725
 31
0
 12
-706.6984849653696
 22
6354.782982876769
 32
0
 13
-706.6984849653696
 23
6354.782982876769
 33
0
  0
SOLID
  5
1D6
100
AcDbEntity
  8
poklopci 
  6
ByBlock
 62
    0
370
   -2
100
AcDbTrace
 10
-1189.189897771824
 20
5797.012008496649
 30
0
 11
-1187.867949046799
 21
5799.174355481919
 31
0
 12
-1187.23858483643
 22
5798.629312037875
 32
0
 13
-1187.23858483643
 23
5798.629312037875
 33
0
  0
MTEXT
  5
1D7
100
AcDbEntity
  8
poklopci 
  6
CONTINUOUS
 62
    0
370
   -2
100
AcDbMText
 10
-956.8901175329507
 20
6085.298459315919
 30
0
 40
25
 41
140.2777777777778
 71
    5
 72
    1
  1
740,0000
  7
standard
210
0
220
0
230
1
 50
49.10670681208446
 73
    2
 44
1
  0
ENDBLK
  5
CF
330
CD
100
AcDbEntity
  8
0
100
AcDbBlockEnd
  0
BLOCK
  5
D1
330
D0
100
AcDbEntity
  8
0
100
AcDbBlockBegin
  2
*D42
 70
    1
 10
0
 20
0
  3
*D42
  1

  0
LINE
  5
1D8
100
AcDbEntity
  8
poklopci 
  6
ByBlock
 62
    0
370
   -2
100
AcDbLine
 10
-2982.72182129681
 20
3434.544723387838
 11
-3170.841585901167
 21
3597.46063551509
  0
LINE
  5
1D9
100
AcDbEntity
  8
poklopci 
  6
ByBlock
 62
    0
370
   -2
100
AcDbLine
 10
-3467.164547038657
 20
2875.156445466492
 11
-3655.284311643014
 21
3038.072357593745
  0
LINE
  5
1DA
100
AcDbEntity
  8
poklopci 
  6
ByBlock
 62
    0
370
   -2
100
AcDbLine
 10
-3169.896673269543
 20
3596.642320099986
 11
-3654.33939901139
 21
3037.254042178641
  0
SOLID
  5
1DB
100
AcDbEntity
  8
poklopci 
  6
ByBlock
 62
    0
370
   -2
100
AcDbTrace
 10
-3169.896673269543
 20
3596.642320099986
 30
0
 11
-3171.218621994567
 21
3594.479973114717
 31
0
 12
-3171.847986204936
 22
3595.02501655876
 32
0
 13
-3171.847986204936
 23
3595.02501655876
 33
0
  0
SOLID
  5
1DC
100
AcDbEntity
  8
poklopci 
  6
ByBlock
 62
    0
370
   -2
100
AcDbTrace
 10
-3654.33939901139
 20
3037.254042178641
 30
0
 11
-3653.017450286366
 21
3039.41638916391
 31
0
 12
-3652.388086075996
 22
3038.871345719867
 32
0
 13
-3652.388086075996
 23
3038.871345719867
 33
0
  0
MTEXT
  5
1DD
100
AcDbEntity
  8
poklopci 
  6
CONTINUOUS
 62
    0
370
   -2
100
AcDbMText
 10
-3422.039618772517
 20
3325.54049299791
 30
0
 40
25
 41
140.2777777777778
 71
    5
 72
    1
  1
740,0000
  7
standard
210
0
220
0
230
1
 50
49.10670681208446
 73
    2
 44
1
  0
ENDBLK
  5
D2
330
D0
100
AcDbEntity
  8
0
100
AcDbBlockEnd
  0
BLOCK
  5
D4
330
D3
100
AcDbEntity
  8
0
100
AcDbBlockBegin
  2
*D23
 70
    1
 10
0
 20
0
  3
*D23
  1

  0
LINE
  5
1DE
100
AcDbEntity
  8
crep v1 duplo
  6
ByBlock
 62
    0
370
   -2
100
AcDbLine
 10
4500
 20
1349.375
 11
4500
 21
-401.25
  0
LINE
  5
1DF
100
AcDbEntity
  8
crep v1 duplo
  6
ByBlock
 62
    0
370
   -2
100
AcDbLine
 10
4654.244888475836
 20
1349.375
 11
4654.244888475836
 21
-401.25
  0
LINE
  5
1E0
100
AcDbEntity
  8
crep v1 duplo
  6
ByBlock
 62
    0
370
   -2
100
AcDbLine
 10
4500
 20
-400
 11
4654.244888475836
 21
-400
  0
SOLID
  5
1E1
100
AcDbEntity
  8
crep v1 duplo
  6
ByBlock
 62
    0
370
   -2
100
AcDbTrace
 10
4500
 20
-400
 30
0
 11
4502.5
 21
-399.5837153422272
 31
0
 12
4502.5
 22
-400.4162846577728
 32
0
 13
4502.5
 23
-400.4162846577728
 33
0
  0
SOLID
  5
1E2
100
AcDbEntity
  8
crep v1 duplo
  6
ByBlock
 62
    0
370
   -2
100
AcDbTrace
 10
4654.244888475836
 20
-400
 30
0
 11
4651.744888475836
 21
-400.4162846577728
 31
0
 12
4651.744888475836
 22
-399.5837153422272
 32
0
 13
4651.744888475836
 23
-399.5837153422272
 33
0
  0
MTEXT
  5
1E3
100
AcDbEntity
  8
crep v1 duplo
  6
CONTINUOUS
 62
    0
370
   -2
100
AcDbMText
 10
4577.122444237918
 20
-386.875
 30
0
 40
25
 41
140.2777777777793
 71
    5
 72
    1
  1
154,2449
  7
standard
210
0
220
0
230
1
 50
0
 73
    2
 44
1
  0
ENDBLK
  5
D5
330
D3
100
AcDbEntity
  8
0
100
AcDbBlockEnd
  0
BLOCK
  5
D7
330
D6
100
AcDbEntity
  8
0
100
AcDbBlockBegin
  2
*D41
 70
    1
 10
0
 20
0
  3
*D41
  1

  0
LINE
  5
1E4
100
AcDbEntity
  8
poklopci 
  6
ByBlock
 62
    0
370
   -2
100
AcDbLine
 10
-2500.475687083214
 20
4000.405397087883
 11
-2651.044321035083
 21
4128.725227254696
  0
LINE
  5
1E5
100
AcDbEntity
  8
poklopci 
  6
ByBlock
 62
    0
370
   -2
100
AcDbLine
 10
-2982.725052064212
 20
3434.540962768168
 11
-3133.293686016081
 21
3562.860792934981
  0
LINE
  5
1E6
100
AcDbEntity
  8
poklopci 
  6
ByBlock
 62
    0
370
   -2
100
AcDbLine
 10
-2650.092946868656
 20
4127.91443307893
 11
-3132.342311849654
 21
3562.049998759216
  0
SOLID
  5
1E7
100
AcDbEntity
  8
poklopci 
  6
ByBlock
 62
    0
370
   -2
100
AcDbTrace
 10
-2650.092946868656
 20
4127.91443307893
 30
0
 11
-2651.397701244758
 21
4125.74166780529
 31
0
 12
-2652.031369195614
 22
4126.281701686861
 32
0
 13
-2652.031369195614
 23
4126.281701686861
 33
0
  0
SOLID
  5
1E8
100
AcDbEntity
  8
poklopci 
  6
ByBlock
 62
    0
370
   -2
100
AcDbTrace
 10
-3132.342311849654
 20
3562.049998759216
 30
0
 11
-3131.037557473552
 21
3564.222764032857
 31
0
 12
-3130.403889522696
 22
3563.682730151284
 32
0
 13
-3130.403889522696
 23
3563.682730151284
 33
0
  0
MTEXT
  5
1E9
100
AcDbEntity
  8
poklopci 
  6
CONTINUOUS
 62
    0
370
   -2
100
AcDbMText
 10
-2901.207058106643
 20
3853.495554764605
 30
0
 40
25
 41
143.0555555555586
 71
    5
 72
    1
  1
743,4830
  7
standard
210
0
220
0
230
1
 50
49.56120874878329
 73
    2
 44
1
  0
ENDBLK
  5
D8
330
D6
100
AcDbEntity
  8
0
100
AcDbBlockEnd
  0
BLOCK
  5
DA
330
D9
100
AcDbEntity
  8
0
100
AcDbBlockBegin
  2
*D40
 70
    1
 10
0
 20
0
  3
*D40
  1

  0
LINE
  5
1EA
100
AcDbEntity
  8
poklopci 
  6
ByBlock
 62
    0
370
   -2
100
AcDbLine
 10
-2013.833078547335
 20
4553.325049066041
 11
-2169.842259465628
 21
4690.633844271059
  0
LINE
  5
1EB
100
AcDbEntity
  8
poklopci 
  6
ByBlock
 62
    0
370
   -2
100
AcDbLine
 10
-2500.469165050036
 20
4000.412927543069
 11
-2656.478345968329
 21
4137.721722748087
  0
LINE
  5
1EC
100
AcDbEntity
  8
poklopci 
  6
ByBlock
 62
    0
370
   -2
100
AcDbLine
 10
-2168.903929365556
 20
4689.807989184922
 11
-2655.540015868257
 21
4136.89586766195
  0
SOLID
  5
1ED
100
AcDbEntity
  8
poklopci 
  6
ByBlock
 62
    0
370
   -2
100
AcDbTrace
 10
-2168.903929365556
 20
4689.807989184922
 30
0
 11
-2170.243149598161
 21
4687.656296343256
 31
0
 12
-2170.8681294775
 22
4688.2063616263
 32
0
 13
-2170.8681294775
 23
4688.2063616263
 33
0
  0
SOLID
  5
1EE
100
AcDbEntity
  8
poklopci 
  6
ByBlock
 62
    0
370
   -2
100
AcDbTrace
 10
-2655.540015868257
 20
4136.89586766195
 30
0
 11
-2654.200795635652
 21
4139.047560503615
 31
0
 12
-2653.575815756313
 22
4138.497495220571
 32
0
 13
-2653.575815756313
 23
4138.497495220571
 33
0
  0
MTEXT
  5
1EF
100
AcDbEntity
  8
poklopci 
  6
CONTINUOUS
 62
    0
370
   -2
100
AcDbMText
 10
-2422.074438667662
 20
4422.023406827877
 30
0
 40
25
 41
140.277777777784
 71
    5
 72
    1
  1
736,5640
  7
standard
210
0
220
0
230
1
 50
48.64793533903235
 73
    2
 44
1
  0
ENDBLK
  5
DB
330
D9
100
AcDbEntity
  8
0
100
AcDbBlockEnd
  0
BLOCK
  5
DD
330
DC
100
AcDbEntity
  8
0
100
AcDbBlockBegin
  2
*D24
 70
    1
 10
0
 20
0
  3
*D24
  1

  0
LINE
  5
1F0
100
AcDbEntity
  8
crep v1 duplo
  6
ByBlock
 62
    0
370
   -2
100
AcDbLine
 10
4200
 20
1629.375
 11
4200
 21
-401.25
  0
LINE
  5
1F1
100
AcDbEntity
  8
crep v1 duplo
  6
ByBlock
 62
    0
370
   -2
100
AcDbLine
 10
4411.758643122677
 20
1629.375
 11
4411.758643122677
 21
-401.25
  0
LINE
  5
1F2
100
AcDbEntity
  8
crep v1 duplo
  6
ByBlock
 62
    0
370
   -2
100
AcDbLine
 10
4200
 20
-400
 11
4411.758643122677
 21
-400
  0
SOLID
  5
1F3
100
AcDbEntity
  8
crep v1 duplo
  6
ByBlock
 62
    0
370
   -2
100
AcDbTrace
 10
4200
 20
-400
 30
0
 11
4202.5
 21
-399.5837153422272
 31
0
 12
4202.5
 22
-400.4162846577728
 32
0
 13
4202.5
 23
-400.4162846577728
 33
0
  0
SOLID
  5
1F4
100
AcDbEntity
  8
crep v1 duplo
  6
ByBlock
 62
    0
370
   -2
100
AcDbTrace
 10
4411.758643122677
 20
-400
 30
0
 11
4409.258643122677
 21
-400.4162846577728
 31
0
 12
4409.258643122677
 22
-399.5837153422272
 32
0
 13
4409.258643122677
 23
-399.5837153422272
 33
0
  0
MTEXT
  5
1F5
100
AcDbEntity
  8
crep v1 duplo
  6
CONTINUOUS
 62
    0
370
   -2
100
AcDbMText
 10
4305.879321561339
 20
-386.875
 30
0
 40
25
 41
126.388888888892
 71
    5
 72
    1
  1
211,7586
  7
standard
210
0
220
0
230
1
 50
0
 73
    2
 44
1
  0
ENDBLK
  5
DE
330
DC
100
AcDbEntity
  8
0
100
AcDbBlockEnd
  0
BLOCK
  5
E0
330
DF
100
AcDbEntity
  8
0
100
AcDbBlockBegin
  2
*D2
 70
    1
 10
0
 20
0
  3
*D2
  1

  0
LINE
  5
1F6
100
AcDbEntity
  8
0
  6
ByBlock
 62
    0
370
   -2
100
AcDbLine
 10
5824.472456315812
 20
0.4091577075522352
 11
6532.464873468877
 21
613.5463826145323
  0
LINE
  5
1F7
100
AcDbEntity
  8
0
  6
ByBlock
 62
    0
370
   -2
100
AcDbLine
 10
0.4724563158119485
 20
6725.409157707552
 11
708.4648734688767
 21
7338.546382614532
  0
LINE
  5
1F8
100
AcDbEntity
  8
0
  6
ByBlock
 62
    0
370
   -2
100
AcDbLine
 10
6531.519960837253
 20
612.7280671994278
 11
707.5199608372528
 21
7337.728067199428
  0
SOLID
  5
1F9
100
AcDbEntity
  8
0
  6
ByBlock
 62
    0
370
   -2
100
AcDbTrace
 10
6531.519960837253
 20
612.7280671994278
 30
0
 11
6529.56864790186
 21
614.3453707406539
 31
0
 12
6530.198012112229
 22
614.8904141846972
 32
0
 13
6530.198012112229
 23
614.8904141846972
 33
0
  0
SOLID
  5
1FA
100
AcDbEntity
  8
0
  6
ByBlock
 62
    0
370
   -2
100
AcDbTrace
 10
707.5199608372528
 20
7337.728067199428
 30
0
 11
709.4712737726464
 21
7336.110763658202
 31
0
 12
708.8419095622771
 22
7335.565720214158
 32
0
 13
708.8419095622771
 23
7335.565720214158
 33
0
  0
MTEXT
  5
1FB
100
AcDbEntity
  8
0
  6
CONTINUOUS
 62
    0
370
   -2
100
AcDbMText
 10
3629.441543469304
 20
3983.820379058025
 30
0
 40
25
 41
151.3888888888935
 71
    5
 72
    1
  1
8896,3251
  7
standard
210
0
220
0
230
1
 50
310.8932931879154
 73
    2
 44
1
  0
ENDBLK
  5
E1
330
DF
100
AcDbEntity
  8
0
100
AcDbBlockEnd
  0
ENDSEC
  0
SECTION
  2
ENTITIES
  0
DIMENSION
  5
1FC
100
AcDbEntity
  8
0
  6
ByLayer
 62
  256
370
   -1
100
AcDbDimension
  2
*D1
 10
5824
 20
-1000
 30
0
 11
2912
 21
-986.875
 31
0
 70
   33
 71
    5
 72
    0
  3
Standard
 53
0
210
0
220
0
230
1
100
AcDbAlignedDimension
 13
0
 23
0
 33
0
 14
5824
 24
0
 34
0
  0
DIMENSION
  5
1FD
100
AcDbEntity
  8
0
  6
ByLayer
 62
  256
370
   -1
100
AcDbDimension
  2
*D2
 10
707.5199608372529
 20
7337.728067199428
 30
0
 11
3629.441543469304
 21
3983.820379058025
 31
0
 70
   33
 71
    5
 72
    0
  3
Standard
 53
0
210
0
220
0
230
1
100
AcDbAlignedDimension
 13
5824
 23
0
 33
0
 14
0
 24
6725
 34
0
  0
DIMENSION
  5
1FE
100
AcDbEntity
  8
0
  6
ByLayer
 62
  256
370
   -1
100
AcDbDimension
  2
*D3
 10
5824
 20
-2000
 30
0
 11
8.036744619404505e-16
 21
-1986.875
 31
0
 70
   33
 71
    5
 72
    0
  3
Standard
 53
0
210
0
220
0
230
1
100
AcDbAlignedDimension
 13
-5824
 23
0
 33
0
 14
5824
 24
0
 34
0
  0
LINE
  5
1FF
100
AcDbEntity
  8
krov
  6
ByLayer
 62
  256
370
   -1
100
AcDbLine
 10
0
 20
0
 11
5824
 21
0
  0
LINE
  5
200
100
AcDbEntity
  8
krov
  6
ByLayer
 62
  256
370
   -1
100
AcDbLine
 10
-5824
 20
0
 11
0
 21
6725
  0
LINE
  5
201
100
AcDbEntity
  8
krov
  6
ByLayer
 62
  256
370
   -1
100
AcDbLine
 10
0
 20
0
 11
0
 21
6725
  0
LINE
  5
202
100
AcDbEntity
  8
krov
  6
ByLayer
 62
  256
370
   -1
100
AcDbLine
 10
0
 20
0
 11
0
 21
5824
  0
LINE
  5
203
100
AcDbEntity
  8
krov
  6
ByLayer
 62
  256
370
   -1
100
AcDbLine
 10
0
 20
0
 11
0
 21
5824
  0
LINE
  5
204
100
AcDbEntity
  8
krov
  6
ByLayer
 62
  256
370
   -1
100
AcDbLine
 10
0
 20
0
 11
0
 21
5824
  0
LINE
  5
205
100
AcDbEntity
  8
krov
  6
ByLayer
 62
  256
370
   -1
100
AcDbLine
 10
5824
 20
0
 11
0
 21
6725
  0
LINE
  5
206
100
AcDbEntity
  8
krov
  6
ByLayer
 62
  256
370
   -1
100
AcDbLine
 10
0
 20
0
 11
0
 21
5824
  0
LINE
  5
207
100
AcDbEntity
  8
letve 24 reda
  6
ByLayer
 62
  256
370
   -1
100
AcDbLine
 10
-3.673940397442059e-15
 20
0
 11
5824
 21
0
  0
LINE
  5
208
100
AcDbEntity
  8
krov
  6
ByLayer
 62
  256
370
   -1
100
AcDbLine
 10
-0.6249999999999963
 20
0
 11
-5824
 21
0
  0
LINE
  5
209
100
AcDbEntity
  8
krov
  6
ByLayer
 62
  256
370
   -1
100
AcDbLine
 10
-1.408343819019456e-14
 20
270
 11
-1.408343819019456e-14
 21
6094
  0
LINE
  5
20A
100
AcDbEntity
  8
letve 24 reda
  6
ByLayer
 62
  256
370
   -1
100
AcDbLine
 10
-0.6249999999998401
 20
510
 11
5382.328624535316
 21
510
  0
LINE
  5
20B
100
AcDbEntity
  8
letve 24 reda
  6
ByLayer
 62
  256
370
   -1
100
AcDbLine
 10
1.408343819019456e-14
 20
230
 11
5624.814869888476
 21
230
  0
LINE
  5
20C
100
AcDbEntity
  8
letve 24 reda
  6
ByLayer
 62
  256
370
   -1
100
AcDbLine
 10
4.898587196589414e-15
 20
180
 11
5668.115985130112
 21
180
  0
LINE
  5
20D
100
AcDbEntity
  8
letve 24 reda
  6
ByLayer
 62
  256
370
   -1
100
AcDbLine
 10
1.83697019872103e-15
 20
30
 11
5798.019330855019
 21
30
  0
LINE
  5
20E
100
AcDbEntity
  8
letve 24 reda
  6
ByLayer
 62
  256
370
   -1
100
AcDbLine
 10
-3.673940397442059e-15
 20
0
 11
5824
 21
0
  0
LINE
  5
20F
100
AcDbEntity
  8
letve 24 reda
  6
ByLayer
 62
  256
370
   -1
100
AcDbLine
 10
1.408343819019456e-14
 20
230
 11
5624.814869888476
 21
230
  0
LINE
  5
210
100
AcDbEntity
  8
letve 24 reda
  6
ByLayer
 62
  256
370
   -1
100
AcDbLine
 10
-0.625
 20
0
 11
5823.375
 21
0
  0
LINE
  5
211
100
AcDbEntity
  8
letve 24 reda
  6
ByLayer
 62
  256
370
   -1
100
AcDbLine
 10
-0.6249999999999822
 20
230
 11
5624.189869888476
 21
230
  0
LINE
  5
212
100
AcDbEntity
  8
letve 24 reda
  6
ByLayer
 62
  256
370
   -1
100
AcDbLine
 10
2.204364238465236e-14
 20
460
 11
5425.629739776951
 21
460
  0
LINE
  5
213
100
AcDbEntity
  8
letve 24 reda
  6
ByLayer
 62
  256
370
   -1
100
AcDbLine
 10
-1.249999999999837
 20
510
 11
5382.328624535316
 21
509.9999999999999
  0
LINE
  5
214
100
AcDbEntity
  8
letve 24 reda
  6
ByLayer
 62
  256
370
   -1
100
AcDbLine
 10
3.91886975727153e-14
 20
740
 11
5183.143494423792
 21
740
  0
LINE
  5
215
100
AcDbEntity
  8
letve 24 reda
  6
ByLayer
 62
  256
370
   -1
100
AcDbLine
 10
0
 20
790
 11
5139.842379182156
 21
790
  0
LINE
  5
216
100
AcDbEntity
  8
letve 24 reda
  6
ByLayer
 62
  256
370
   -1
100
AcDbLine
 10
5.633375276077825e-14
 20
1020
 11
4940.657249070632
 21
1020
  0
LINE
  5
217
100
AcDbEntity
  8
letve 24 reda
  6
ByLayer
 62
  256
370
   -1
100
AcDbLine
 10
0
 20
1070
 11
4897.356133828996
 21
1070
  0
LINE
  5
218
100
AcDbEntity
  8
letve 24 reda
  6
ByLayer
 62
  256
370
   -1
100
AcDbLine
 10
7.34788079488412e-14
 20
1300
 11
4698.171003717473
 21
1300
  0
LINE
  5
219
100
AcDbEntity
  8
letve 24 reda
  6
ByLayer
 62
  256
370
   -1
100
AcDbLine
 10
0
 20
1350
 11
4654.869888475836
 21
1350
  0
LINE
  5
21A
100
AcDbEntity
  8
letve 24 reda
  6
ByLayer
 62
  256
370
   -1
100
AcDbLine
 10
9.062386313690415e-14
 20
1580
 11
4455.684758364312
 21
1580
  0
LINE
  5
21B
100
AcDbEntity
  8
letve 24 reda
  6
ByLayer
 62
  256
370
   -1
100
AcDbLine
 10
0
 20
1630
 11
4412.383643122676
 21
1630
  0
LINE
  5
21C
100
AcDbEntity
  8
letve 24 reda
  6
ByLayer
 62
  256
370
   -1
100
AcDbLine
 10
1.077689183249671e-13
 20
1860
 11
4213.198513011152
 21
1860
  0
LINE
  5
21D
100
AcDbEntity
  8
letve 24 reda
  6
ByLayer
 62
  256
370
   -1
100
AcDbLine
 10
0
 20
1910
 11
4169.897397769517
 21
1910
  0
LINE
  5
21E
100
AcDbEntity
  8
letve 24 reda
  6
ByLayer
 62
  256
370
   -1
100
AcDbLine
 10
0
 20
2190
 11
3927.411152416357
 21
2190
  0
LINE
  5
21F
100
AcDbEntity
  8
letve 24 reda
  6
ByLayer
 62
  256
370
   -1
100
AcDbLine
 10
1.2491397351303e-13
 20
2140
 11
3970.712267657992
 21
2140
  0
LINE
  5
220
100
AcDbEntity
  8
letve 24 reda
  6
ByLayer
 62
  256
370
   -1
100
AcDbLine
 10
1.42059028701093e-13
 20
2420
 11
3728.226022304832
 21
2420
  0
LINE
  5
221
100
AcDbEntity
  8
letve 24 reda
  6
ByLayer
 62
  256
370
   -1
100
AcDbLine
 10
0
 20
2470
 11
3684.924907063197
 21
2470
  0
LINE
  5
222
100
AcDbEntity
  8
letve 24 reda
  6
ByLayer
 62
  256
370
   -1
100
AcDbLine
 10
0
 20
2700
 11
3485.739776951673
 21
2700
  0
LINE
  5
223
100
AcDbEntity
  8
letve 24 reda
  6
ByLayer
 62
  256
370
   -1
100
AcDbLine
 10
0
 20
2750
 11
3442.438661710037
 21
2750
  0
LINE
  5
224
100
AcDbEntity
  8
letve 24 reda
  6
ByLayer
 62
  256
370
   -1
100
AcDbLine
 10
1.763491390772189e-13
 20
2980
 11
3243.253531598513
 21
2980
  0
LINE
  5
225
100
AcDbEntity
  8
letve 24 reda
  6
ByLayer
 62
  256
370
   -1
100
AcDbLine
 10
0
 20
3030
 11
3199.952416356877
 21
3030
  0
LINE
  5
226
100
AcDbEntity
  8
letve 24 reda
  6
ByLayer
 62
  256
370
   -1
100
AcDbLine
 10
1.934941942652818e-13
 20
3260
 11
3000.767286245353
 21
3260
  0
LINE
  5
227
100
AcDbEntity
  8
letve 24 reda
  6
ByLayer
 62
  256
370
   -1
100
AcDbLine
 10
0
 20
3310
 11
2957.466171003717
 21
3310
  0
LINE
  5
228
100
AcDbEntity
  8
letve 24 reda
  6
ByLayer
 62
  256
370
   -1
100
AcDbLine
 10
2.106392494533448e-13
 20
3540
 11
2758.281040892193
 21
3540
  0
LINE
  5
229
100
AcDbEntity
  8
letve 24 reda
  6
ByLayer
 62
  256
370
   -1
100
AcDbLine
 10
0
 20
3590
 11
2714.979925650558
 21
3590
  0
LINE
  5
22A
100
AcDbEntity
  8
letve 24 reda
  6
ByLayer
 62
  256
370
   -1
100
AcDbLine
 10
2.277843046414077e-13
 20
3820
 11
2515.794795539033
 21
3820
  0
LINE
  5
22B
100
AcDbEntity
  8
letve 24 reda
  6
ByLayer
 62
  256
370
   -1
100
AcDbLine
 10
0
 20
3870
 11
2472.493680297398
 21
3870
  0
LINE
  5
22C
100
AcDbEntity
  8
letve 24 reda
  6
ByLayer
 62
  256
370
   -1
100
AcDbLine
 10
2.449293598294706e-13
 20
4100
 11
2273.308550185873
 21
4100
  0
LINE
  5
22D
100
AcDbEntity
  8
letve 24 reda
  6
ByLayer
 62
  256
370
   -1
100
AcDbLine
 10
0
 20
4150
 11
2230.007434944238
 21
4150
  0
LINE
  5
22E
100
AcDbEntity
  8
letve 24 reda
  6
ByLayer
 62
  256
370
   -1
100
AcDbLine
 10
0
 20
4430
 11
1987.521189591078
 21
4430
  0
LINE
  5
22F
100
AcDbEntity
  8
letve 24 reda
  6
ByLayer
 62
  256
370
   -1
100
AcDbLine
 10
2.620744150175336e-13
 20
4380
 11
2030.822304832714
 21
4380
  0
LINE
  5
230
100
AcDbEntity
  8
letve 24 reda
  6
ByLayer
 62
  256
370
   -1
100
AcDbLine
 10
2.792194702055965e-13
 20
4660
 11
1788.336059479554
 21
4660
  0
LINE
  5
231
100
AcDbEntity
  8
letve 24 reda
  6
ByLayer
 62
  256
370
   -1
100
AcDbLine
 10
0
 20
4710
 11
1745.034944237918
 21
4710
  0
LINE
  5
232
100
AcDbEntity
  8
letve 24 reda
  6
ByLayer
 62
  256
370
   -1
100
AcDbLine
 10
2.963645253936595e-13
 20
4940
 11
1545.849814126394
 21
4940
  0
LINE
  5
233
100
AcDbEntity
  8
letve 24 reda
  6
ByLayer
 62
  256
370
   -1
100
AcDbLine
 10
0
 20
4990
 11
1502.548698884758
 21
4990
  0
LINE
  5
234
100
AcDbEntity
  8
letve 24 reda
  6
ByLayer
 62
  256
370
   -1
100
AcDbLine
 10
3.135095805817224e-13
 20
5220
 11
1303.363568773234
 21
5220
  0
LINE
  5
235
100
AcDbEntity
  8
letve 24 reda
  6
ByLayer
 62
  256
370
   -1
100
AcDbLine
 10
0
 20
5270
 11
1260.062453531598
 21
5270
  0
LINE
  5
236
100
AcDbEntity
  8
letve 24 reda
  6
ByLayer
 62
  256
370
   -1
100
AcDbLine
 10
3.306546357697854e-13
 20
5500
 11
1060.877323420074
 21
5500
  0
LINE
  5
237
100
AcDbEntity
  8
letve 24 reda
  6
ByLayer
 62
  256
370
   -1
100
AcDbLine
 10
0
 20
5550
 11
1017.576208178439
 21
5550
  0
LINE
  5
238
100
AcDbEntity
  8
letve 24 reda
  6
ByLayer
 62
  256
370
   -1
100
AcDbLine
 10
3.477996909578483e-13
 20
5780
 11
818.3910780669139
 21
5780
  0
LINE
  5
239
100
AcDbEntity
  8
letve 24 reda
  6
ByLayer
 62
  256
370
   -1
100
AcDbLine
 10
3.649447461459112e-13
 20
6060
 11
575.9048327137543
 21
6060
  0
LINE
  5
23A
100
AcDbEntity
  8
letve 24 reda
  6
ByLayer
 62
  256
370
   -1
100
AcDbLine
 10
0
 20
6109.999999999999
 11
532.6037174721196
 21
6109.999999999999
  0
LINE
  5
23B
100
AcDbEntity
  8
letve 24 reda
  6
ByLayer
 62
  256
370
   -1
100
AcDbLine
 10
3.820898013339742e-13
 20
6340
 11
333.4185873605948
 21
6340
  0
LINE
  5
23C
100
AcDbEntity
  8
letve 24 reda
  6
ByLayer
 62
  256
370
   -1
100
AcDbLine
 10
0
 20
6390.000000000001
 11
290.1174721189573
 21
6390.000000000002
  0
LINE
  5
23D
100
AcDbEntity
  8
letve 24 reda
  6
ByLayer
 62
  256
370
   -1
100
AcDbLine
 10
3.992348565220372e-13
 20
6620
 11
90.93234200743518
 21
6619.999999999999
  0
LINE
  5
23E
100
AcDbEntity
  8
letve 24 reda
  6
ByLayer
 62
  256
370
   -1
100
AcDbLine
 10
0
 20
6670
 11
47.6312267657986
 21
6670
  0
LINE
  5
23F
100
AcDbEntity
  8
letve 24 reda
  6
ByLayer
 62
  256
370
   -1
100
AcDbLine
 10
3.508613079557167e-13
 20
5830
 11
775.0899628252782
 21
5830
  0
LINE
  5
240
100
AcDbEntity
  8
crep 40 kolona
  6
ByLayer
 62
  256
370
   -1
100
AcDbLine
 10
-1.250000000000037
 20
510
 11
5381.703624535316
 21
510
  0
LINE
  5
241
100
AcDbEntity
  8
crep 40 kolona
  6
ByLayer
 62
  256
370
   -1
100
AcDbLine
 10
-0.6250000000000373
 20
230
 11
5624.189869888476
 21
230
  0
LINE
  5
242
100
AcDbEntity
  8
crep 40 kolona
  6
ByLayer
 62
  256
370
   -1
100
AcDbLine
 10
-0.6250000000000373
 20
230
 11
5624.189869888476
 21
230
  0
LINE
  5
243
100
AcDbEntity
  8
crep 40 kolona
  6
ByLayer
 62
  256
370
   -1
100
AcDbLine
 10
-1.250000000000037
 20
230
 11
5623.564869888476
 21
230
  0
LINE
  5
244
100
AcDbEntity
  8
crep 40 kolona
  6
ByLayer
 62
  256
370
   -1
100
AcDbLine
 10
-1.875000000000037
 20
510
 11
5381.703624535316
 21
509.9999999999999
  0
LINE
  5
245
100
AcDbEntity
  8
crep 40 kolona
  6
ByLayer
 62
  256
370
   -1
100
AcDbLine
 10
-0.6250000000000373
 20
790
 11
5139.217379182155
 21
790
  0
LINE
  5
246
100
AcDbEntity
  8
crep 40 kolona
  6
ByLayer
 62
  256
370
   -1
100
AcDbLine
 10
-0.6250000000000373
 20
1070
 11
4896.731133828995
 21
1070
  0
LINE
  5
247
100
AcDbEntity
  8
crep 40 kolona
  6
ByLayer
 62
  256
370
   -1
100
AcDbLine
 10
-0.6250000000000373
 20
1350
 11
4654.244888475836
 21
1350
  0
LINE
  5
248
100
AcDbEntity
  8
crep 40 kolona
  6
ByLayer
 62
  256
370
   -1
100
AcDbLine
 10
-0.6250000000000373
 20
1630
 11
4411.758643122677
 21
1630
  0
LINE
  5
249
100
AcDbEntity
  8
crep 40 kolona
  6
ByLayer
 62
  256
370
   -1
100
AcDbLine
 10
-0.6250000000000373
 20
1910
 11
4169.272397769517
 21
1910
  0
LINE
  5
24A
100
AcDbEntity
  8
crep 40 kolona
  6
ByLayer
 62
  256
370
   -1
100
AcDbLine
 10
-0.6250000000000373
 20
2190
 11
3926.786152416356
 21
2190
  0
LINE
  5
24B
100
AcDbEntity
  8
crep 40 kolona
  6
ByLayer
 62
  256
370
   -1
100
AcDbLine
 10
-0.6250000000000373
 20
2470
 11
3684.299907063198
 21
2470
  0
LINE
  5
24C
100
AcDbEntity
  8
crep 40 kolona
  6
ByLayer
 62
  256
370
   -1
100
AcDbLine
 10
-0.6250000000000373
 20
2750
 11
3441.813661710037
 21
2750
  0
LINE
  5
24D
100
AcDbEntity
  8
crep 40 kolona
  6
ByLayer
 62
  256
370
   -1
100
AcDbLine
 10
-0.6250000000000373
 20
3030
 11
3199.327416356877
 21
3030
  0
LINE
  5
24E
100
AcDbEntity
  8
crep 40 kolona
  6
ByLayer
 62
  256
370
   -1
100
AcDbLine
 10
-0.6250000000000373
 20
3310
 11
2956.841171003718
 21
3310
  0
LINE
  5
24F
100
AcDbEntity
  8
crep 40 kolona
  6
ByLayer
 62
  256
370
   -1
100
AcDbLine
 10
-0.6250000000000373
 20
3590
 11
2714.354925650558
 21
3590
  0
LINE
  5
250
100
AcDbEntity
  8
crep 40 kolona
  6
ByLayer
 62
  256
370
   -1
100
AcDbLine
 10
-0.6250000000000373
 20
3870
 11
2471.868680297397
 21
3870
  0
LINE
  5
251
100
AcDbEntity
  8
crep 40 kolona
  6
ByLayer
 62
  256
370
   -1
100
AcDbLine
 10
-0.6250000000000373
 20
4150
 11
2229.382434944238
 21
4150
  0
LINE
  5
252
100
AcDbEntity
  8
crep 40 kolona
  6
ByLayer
 62
  256
370
   -1
100
AcDbLine
 10
-0.6250000000000373
 20
4430
 11
1986.896189591078
 21
4430
  0
LINE
  5
253
100
AcDbEntity
  8
crep 40 kolona
  6
ByLayer
 62
  256
370
   -1
100
AcDbLine
 10
-0.6250000000000373
 20
4710
 11
1744.409944237917
 21
4710
  0
LINE
  5
254
100
AcDbEntity
  8
crep 40 kolona
  6
ByLayer
 62
  256
370
   -1
100
AcDbLine
 10
-0.6250000000000373
 20
4990
 11
1501.923698884759
 21
4990
  0
LINE
  5
255
100
AcDbEntity
  8
crep 40 kolona
  6
ByLayer
 62
  256
370
   -1
100
AcDbLine
 10
-0.6250000000000373
 20
5270
 11
1259.437453531598
 21
5270
  0
LINE
  5
256
100
AcDbEntity
  8
crep 40 kolona
  6
ByLayer
 62
  256
370
   -1
100
AcDbLine
 10
-0.6250000000000373
 20
5550
 11
1016.95120817844
 21
5550
  0
LINE
  5
257
100
AcDbEntity
  8
crep 40 kolona
  6
ByLayer
 62
  256
370
   -1
100
AcDbLine
 10
-0.6250000000000373
 20
6109.999999999999
 11
531.9787174721196
 21
6109.999999999999
  0
LINE
  5
258
100
AcDbEntity
  8
crep 40 kolona
  6
ByLayer
 62
  256
370
   -1
100
AcDbLine
 10
-0.6250000000000373
 20
6390.000000000001
 11
289.4924721189572
 21
6390.000000000002
  0
LINE
  5
259
100
AcDbEntity
  8
crep 40 kolona
  6
ByLayer
 62
  256
370
   -1
100
AcDbLine
 10
-0.6250000000000373
 20
6670
 11
47.00622676579857
 21
6670
  0
LINE
  5
25A
100
AcDbEntity
  8
crep 40 kolona
  6
ByLayer
 62
  256
370
   -1
100
AcDbLine
 10
-0.6250000000000373
 20
5830
 11
774.4649628252782
 21
5830
  0
LINE
  5
25B
100
AcDbEntity
  8
crep 40 kolona
  6
ByLayer
 62
  256
370
   -1
100
AcDbLine
 10
-1.250000000000037
 20
-70
 11
-0.6250000000000373
 21
6670
  0
LINE
  5
25C
100
AcDbEntity
  8
crep 40 kolona
  6
ByLayer
 62
  256
370
   -1
100
AcDbLine
 10
300
 20
-70.00000000000007
 11
300
 21
6378.588598901099
  0
LINE
  5
25D
100
AcDbEntity
  8
crep 40 kolona
  6
ByLayer
 62
  256
370
   -1
100
AcDbLine
 10
600
 20
-70.00000000000014
 11
600
 21
6032.177197802198
  0
LINE
  5
25E
100
AcDbEntity
  8
crep 40 kolona
  6
ByLayer
 62
  256
370
   -1
100
AcDbLine
 10
900
 20
-70.00000000000023
 11
900
 21
5685.765796703296
  0
LINE
  5
25F
100
AcDbEntity
  8
crep 40 kolona
  6
ByLayer
 62
  256
370
   -1
100
AcDbLine
 10
1200
 20
-70.0000000000003
 11
1199.999999999999
 21
5339.354395604396
  0
LINE
  5
260
100
AcDbEntity
  8
crep 40 kolona
  6
ByLayer
 62
  256
370
   -1
100
AcDbLine
 10
1500
 20
-70.00000000000037
 11
1500
 21
4992.942994505494
  0
LINE
  5
261
100
AcDbEntity
  8
crep 40 kolona
  6
ByLayer
 62
  256
370
   -1
100
AcDbLine
 10
1800
 20
-70.00000000000044
 11
1800
 21
4646.531593406594
  0
LINE
  5
262
100
AcDbEntity
  8
crep 40 kolona
  6
ByLayer
 62
  256
370
   -1
100
AcDbLine
 10
2100
 20
-70.00000000000051
 11
2100
 21
4300.120192307692
  0
LINE
  5
263
100
AcDbEntity
  8
crep 40 kolona
  6
ByLayer
 62
  256
370
   -1
100
AcDbLine
 10
2400
 20
-70.00000000000058
 11
2400
 21
3953.708791208791
  0
LINE
  5
264
100
AcDbEntity
  8
crep 40 kolona
  6
ByLayer
 62
  256
370
   -1
100
AcDbLine
 10
2700
 20
-70.00000000000067
 11
2700
 21
3607.29739010989
  0
LINE
  5
265
100
AcDbEntity
  8
crep 40 kolona
  6
ByLayer
 62
  256
370
   -1
100
AcDbLine
 10
3000
 20
-70.00000000000074
 11
3000
 21
3260.885989010989
  0
LINE
  5
266
100
AcDbEntity
  8
crep 40 kolona
  6
ByLayer
 62
  256
370
   -1
100
AcDbLine
 10
3300
 20
-70.00000000000081
 11
3300
 21
2914.474587912088
  0
LINE
  5
267
100
AcDbEntity
  8
crep 40 kolona
  6
ByLayer
 62
  256
370
   -1
100
AcDbLine
 10
3600
 20
-70.00000000000088
 11
3600
 21
2568.063186813187
  0
LINE
  5
268
100
AcDbEntity
  8
crep 40 kolona
  6
ByLayer
 62
  256
370
   -1
100
AcDbLine
 10
3900
 20
-70.00000000000095
 11
3900
 21
2221.651785714286
  0
LINE
  5
269
100
AcDbEntity
  8
crep 40 kolona
  6
ByLayer
 62
  256
370
   -1
100
AcDbLine
 10
4200
 20
-70.00000000000102
 11
4200
 21
1875.240384615385
  0
LINE
  5
26A
100
AcDbEntity
  8
crep 40 kolona
  6
ByLayer
 62
  256
370
   -1
100
AcDbLine
 10
4500
 20
-70.00000000000111
 11
4500
 21
1528.828983516484
  0
LINE
  5
26B
100
AcDbEntity
  8
crep 40 kolona
  6
ByLayer
 62
  256
370
   -1
100
AcDbLine
 10
4800
 20
-70.00000000000118
 11
4800
 21
1182.417582417582
  0
LINE
  5
26C
100
AcDbEntity
  8
crep 40 kolona
  6
ByLayer
 62
  256
370
   -1
100
AcDbLine
 10
5100
 20
-70.00000000000125
 11
5100
 21
836.0061813186813
  0
LINE
  5
26D
100
AcDbEntity
  8
crep 40 kolona
  6
ByLayer
 62
  256
370
   -1
100
AcDbLine
 10
5400
 20
-70.00000000000132
 11
5400
 21
489.5947802197802
  0
LINE
  5
26E
100
AcDbEntity
  8
crep 40 kolona
  6
ByLayer
 62
  256
370
   -1
100
AcDbLine
 10
5700
 20
-70.00000000000139
 11
5700
 21
143.1833791208791
  0
LINE
  5
26F
100
AcDbEntity
  8
crep 40 kolona
  6
ByLayer
 62
  256
370
   -1
100
AcDbLine
 10
-1.250000000000037
 20
-70
 11
5824
 21
-70
  0
LINE
  5
270
100
AcDbEntity
  8
crep 40 kolona
  6
ByLayer
 62
  256
370
   -1
100
AcDbLine
 10
5824
 20
0
 11
5824
 21
-70
  0
LINE
  5
271
100
AcDbEntity
  8
letve 24 reda
  6
ByLayer
 62
  256
370
   -1
100
AcDbLine
 10
3.673940397442059e-15
 20
-1.99967971021581e-31
 11
-5824
 21
3.169930203659638e-13
  0
LINE
  5
272
100
AcDbEntity
  8
letve 24 reda
  6
ByLayer
 62
  256
370
   -1
100
AcDbLine
 10
0.6249999999998679
 20
510
 11
-5382.328624535316
 21
510.0000000000003
  0
LINE
  5
273
100
AcDbEntity
  8
letve 24 reda
  6
ByLayer
 62
  256
370
   -1
100
AcDbLine
 10
-1.564826465577168e-15
 20
230
 11
-5624.814869888476
 21
230.0000000000003
  0
LINE
  5
274
100
AcDbEntity
  8
letve 24 reda
  6
ByLayer
 62
  256
370
   -1
100
AcDbLine
 10
4.898587196589414e-15
 20
180
 11
-5668.115985130112
 21
180.0000000000003
  0
LINE
  5
275
100
AcDbEntity
  8
letve 24 reda
  6
ByLayer
 62
  256
370
   -1
100
AcDbLine
 10
-2.041077998578919e-16
 20
30
 11
-5798.019330855019
 21
30.00000000000031
  0
LINE
  5
276
100
AcDbEntity
  8
letve 24 reda
  6
ByLayer
 62
  256
370
   -1
100
AcDbLine
 10
3.673940397442059e-15
 20
-1.99967971021581e-31
 11
-5824
 21
3.169930203659638e-13
  0
LINE
  5
277
100
AcDbEntity
  8
letve 24 reda
  6
ByLayer
 62
  256
370
   -1
100
AcDbLine
 10
-1.564826465577168e-15
 20
230
 11
-5624.814869888476
 21
230.0000000000003
  0
LINE
  5
278
100
AcDbEntity
  8
letve 24 reda
  6
ByLayer
 62
  256
370
   -1
100
AcDbLine
 10
0.625
 20
-3.401796664298203e-17
 11
-5823.375
 21
3.169590023993208e-13
  0
LINE
  5
279
100
AcDbEntity
  8
letve 24 reda
  6
ByLayer
 62
  256
370
   -1
100
AcDbLine
 10
0.6249999999999948
 20
230
 11
-5624.189869888476
 21
230.0000000000003
  0
LINE
  5
27A
100
AcDbEntity
  8
letve 24 reda
  6
ByLayer
 62
  256
370
   -1
100
AcDbLine
 10
2.993581064582421e-15
 20
460
 11
-5425.629739776951
 21
460.0000000000003
  0
LINE
  5
27B
100
AcDbEntity
  8
letve 24 reda
  6
ByLayer
 62
  256
370
   -1
100
AcDbLine
 10
1.249999999999865
 20
510
 11
-5382.328624535316
 21
510.0000000000002
  0
LINE
  5
27C
100
AcDbEntity
  8
letve 24 reda
  6
ByLayer
 62
  256
370
   -1
100
AcDbLine
 10
1.088574932575436e-15
 20
740
 11
-5183.143494423792
 21
740.0000000000002
  0
LINE
  5
27D
100
AcDbEntity
  8
letve 24 reda
  6
ByLayer
 62
  256
370
   -1
100
AcDbLine
 10
4.29987098367293e-14
 20
790
 11
-5139.842379182156
 21
790.0000000000002
  0
LINE
  5
27E
100
AcDbEntity
  8
letve 24 reda
  6
ByLayer
 62
  256
370
   -1
100
AcDbLine
 10
-8.164311994315613e-16
 20
1020
 11
-4940.657249070632
 21
1020
  0
LINE
  5
27F
100
AcDbEntity
  8
letve 24 reda
  6
ByLayer
 62
  256
370
   -1
100
AcDbLine
 10
5.823875889278525e-14
 20
1070
 11
-4897.356133828996
 21
1070
  0
LINE
  5
280
100
AcDbEntity
  8
letve 24 reda
  6
ByLayer
 62
  256
370
   -1
100
AcDbLine
 10
-2.721437331438559e-15
 20
1300
 11
-4698.171003717473
 21
1300
  0
LINE
  5
281
100
AcDbEntity
  8
letve 24 reda
  6
ByLayer
 62
  256
370
   -1
100
AcDbLine
 10
7.34788079488412e-14
 20
1350
 11
-4654.869888475836
 21
1350
  0
LINE
  5
282
100
AcDbEntity
  8
letve 24 reda
  6
ByLayer
 62
  256
370
   -1
100
AcDbLine
 10
-4.62644346344555e-15
 20
1580
 11
-4455.684758364312
 21
1580
  0
LINE
  5
283
100
AcDbEntity
  8
letve 24 reda
  6
ByLayer
 62
  256
370
   -1
100
AcDbLine
 10
8.871885700489716e-14
 20
1630
 11
-4412.383643122676
 21
1630
  0
LINE
  5
284
100
AcDbEntity
  8
letve 24 reda
  6
ByLayer
 62
  256
370
   -1
100
AcDbLine
 10
-6.531449595452541e-15
 20
1860
 11
-4213.198513011152
 21
1860
  0
LINE
  5
285
100
AcDbEntity
  8
letve 24 reda
  6
ByLayer
 62
  256
370
   -1
100
AcDbLine
 10
1.039589060609531e-13
 20
1910
 11
-4169.897397769517
 21
1910
  0
LINE
  5
286
100
AcDbEntity
  8
letve 24 reda
  6
ByLayer
 62
  256
370
   -1
100
AcDbLine
 10
1.191989551170091e-13
 20
2190
 11
-3927.411152416357
 21
2190
  0
LINE
  5
287
100
AcDbEntity
  8
letve 24 reda
  6
ByLayer
 62
  256
370
   -1
100
AcDbLine
 10
-8.436455727459507e-15
 20
2140
 11
-3970.712267657992
 21
2140
  0
LINE
  5
288
100
AcDbEntity
  8
letve 24 reda
  6
ByLayer
 62
  256
370
   -1
100
AcDbLine
 10
-1.034146185946655e-14
 20
2420
 11
-3728.226022304832
 21
2420
  0
LINE
  5
289
100
AcDbEntity
  8
letve 24 reda
  6
ByLayer
 62
  256
370
   -1
100
AcDbLine
 10
1.34439004173065e-13
 20
2470
 11
-3684.924907063197
 21
2470
  0
LINE
  5
28A
100
AcDbEntity
  8
letve 24 reda
  6
ByLayer
 62
  256
370
   -1
100
AcDbLine
 10
1.469576158976824e-13
 20
2700
 11
-3485.739776951673
 21
2700
  0
LINE
  5
28B
100
AcDbEntity
  8
letve 24 reda
  6
ByLayer
 62
  256
370
   -1
100
AcDbLine
 10
1.49679053229121e-13
 20
2750
 11
-3442.438661710037
 21
2750
  0
LINE
  5
28C
100
AcDbEntity
  8
letve 24 reda
  6
ByLayer
 62
  256
370
   -1
100
AcDbLine
 10
-1.415147412348053e-14
 20
2980
 11
-3243.253531598513
 21
2980
  0
LINE
  5
28D
100
AcDbEntity
  8
letve 24 reda
  6
ByLayer
 62
  256
370
   -1
100
AcDbLine
 10
1.649191022851769e-13
 20
3030
 11
-3199.952416356877
 21
3030
  0
LINE
  5
28E
100
AcDbEntity
  8
letve 24 reda
  6
ByLayer
 62
  256
370
   -1
100
AcDbLine
 10
-1.60564802554875e-14
 20
3260
 11
-3000.767286245353
 21
3260
  0
LINE
  5
28F
100
AcDbEntity
  8
letve 24 reda
  6
ByLayer
 62
  256
370
   -1
100
AcDbLine
 10
1.801591513412329e-13
 20
3310
 11
-2957.466171003717
 21
3310
  0
LINE
  5
290
100
AcDbEntity
  8
letve 24 reda
  6
ByLayer
 62
  256
370
   -1
100
AcDbLine
 10
-1.796148638749454e-14
 20
3540
 11
-2758.281040892193
 21
3540
  0
LINE
  5
291
100
AcDbEntity
  8
letve 24 reda
  6
ByLayer
 62
  256
370
   -1
100
AcDbLine
 10
1.953992003972888e-13
 20
3590
 11
-2714.979925650558
 21
3590
  0
LINE
  5
292
100
AcDbEntity
  8
letve 24 reda
  6
ByLayer
 62
  256
370
   -1
100
AcDbLine
 10
-1.986649251950145e-14
 20
3820
 11
-2515.794795539033
 21
3820
  0
LINE
  5
293
100
AcDbEntity
  8
letve 24 reda
  6
ByLayer
 62
  256
370
   -1
100
AcDbLine
 10
2.106392494533448e-13
 20
3870
 11
-2472.493680297398
 21
3870
  0
LINE
  5
294
100
AcDbEntity
  8
letve 24 reda
  6
ByLayer
 62
  256
370
   -1
100
AcDbLine
 10
-2.17714986515084e-14
 20
4100
 11
-2273.308550185873
 21
4100
  0
LINE
  5
295
100
AcDbEntity
  8
letve 24 reda
  6
ByLayer
 62
  256
370
   -1
100
AcDbLine
 10
2.258792985094007e-13
 20
4150
 11
-2230.007434944238
 21
4150
  0
LINE
  5
296
100
AcDbEntity
  8
letve 24 reda
  6
ByLayer
 62
  256
370
   -1
100
AcDbLine
 10
2.411193475654567e-13
 20
4430
 11
-1987.521189591078
 21
4430
  0
LINE
  5
297
100
AcDbEntity
  8
letve 24 reda
  6
ByLayer
 62
  256
370
   -1
100
AcDbLine
 10
-2.367650478351546e-14
 20
4380
 11
-2030.822304832714
 21
4380
  0
LINE
  5
298
100
AcDbEntity
  8
letve 24 reda
  6
ByLayer
 62
  256
370
   -1
100
AcDbLine
 10
-2.55815109155224e-14
 20
4660
 11
-1788.336059479554
 21
4660
  0
LINE
  5
299
100
AcDbEntity
  8
letve 24 reda
  6
ByLayer
 62
  256
370
   -1
100
AcDbLine
 10
2.563593966215127e-13
 20
4710
 11
-1745.034944237918
 21
4710
  0
LINE
  5
29A
100
AcDbEntity
  8
letve 24 reda
  6
ByLayer
 62
  256
370
   -1
100
AcDbLine
 10
-2.748651704752944e-14
 20
4940
 11
-1545.849814126394
 21
4940
  0
LINE
  5
29B
100
AcDbEntity
  8
letve 24 reda
  6
ByLayer
 62
  256
370
   -1
100
AcDbLine
 10
2.715994456775686e-13
 20
4990
 11
-1502.548698884758
 21
4990
  0
LINE
  5
29C
100
AcDbEntity
  8
letve 24 reda
  6
ByLayer
 62
  256
370
   -1
100
AcDbLine
 10
-2.939152317953639e-14
 20
5220
 11
-1303.363568773234
 21
5220
  0
LINE
  5
29D
100
AcDbEntity
  8
letve 24 reda
  6
ByLayer
 62
  256
370
   -1
100
AcDbLine
 10
2.868394947336246e-13
 20
5270
 11
-1260.062453531598
 21
5270
  0
LINE
  5
29E
100
AcDbEntity
  8
letve 24 reda
  6
ByLayer
 62
  256
370
   -1
100
AcDbLine
 10
-3.129652931154343e-14
 20
5500
 11
-1060.877323420074
 21
5500
  0
LINE
  5
29F
100
AcDbEntity
  8
letve 24 reda
  6
ByLayer
 62
  256
370
   -1
100
AcDbLine
 10
3.020795437896805e-13
 20
5550
 11
-1017.576208178439
 21
5550
  0
LINE
  5
2A0
100
AcDbEntity
  8
letve 24 reda
  6
ByLayer
 62
  256
370
   -1
100
AcDbLine
 10
-3.320153544355037e-14
 20
5780
 11
-818.3910780669136
 21
5780
  0
LINE
  5
2A1
100
AcDbEntity
  8
letve 24 reda
  6
ByLayer
 62
  256
370
   -1
100
AcDbLine
 10
-3.510654157555731e-14
 20
6060
 11
-575.904832713754
 21
6060
  0
LINE
  5
2A2
100
AcDbEntity
  8
letve 24 reda
  6
ByLayer
 62
  256
370
   -1
100
AcDbLine
 10
3.325596419017923e-13
 20
6109.999999999999
 11
-532.6037174721192
 21
6109.999999999999
  0
LINE
  5
2A3
100
AcDbEntity
  8
letve 24 reda
  6
ByLayer
 62
  256
370
   -1
100
AcDbLine
 10
-3.70115477075644e-14
 20
6340
 11
-333.4185873605945
 21
6340
  0
LINE
  5
2A4
100
AcDbEntity
  8
letve 24 reda
  6
ByLayer
 62
  256
370
   -1
100
AcDbLine
 10
3.477996909578484e-13
 20
6390.000000000001
 11
-290.117472118957
 21
6390
  0
LINE
  5
2A5
100
AcDbEntity
  8
letve 24 reda
  6
ByLayer
 62
  256
370
   -1
100
AcDbLine
 10
-3.891655383957139e-14
 20
6620
 11
-90.93234200743483
 21
6619.999999999999
  0
LINE
  5
2A6
100
AcDbEntity
  8
letve 24 reda
  6
ByLayer
 62
  256
370
   -1
100
AcDbLine
 10
3.630397400139043e-13
 20
6670
 11
-47.63122676579824
 21
6670
  0
LINE
  5
2A7
100
AcDbEntity
  8
letve 24 reda
  6
ByLayer
 62
  256
370
   -1
100
AcDbLine
 10
-3.354171510998021e-14
 20
5830
 11
-775.0899628252779
 21
5830
  0
LINE
  5
2A8
100
AcDbEntity
  8
crep od omaije
  6
ByLayer
 62
  256
370
   -1
100
AcDbLine
 10
-0.625
 20
6670
 11
47.0062267657986
 21
6670
  0
LINE
  5
2A9
100
AcDbEntity
  8
crep od omaije
  6
ByLayer
 62
  256
370
   -1
100
AcDbLine
 10
-0.625
 20
6670
 11
-48.2562267657986
 21
6670
  0
LINE
  5
2AA
100
AcDbEntity
  8
crep od omaije
  6
ByLayer
 62
  256
370
   -1
100
AcDbLine
 10
-150
 20
1.83697019872103e-14
 11
-150
 21
6725
  0
LINE
  5
2AB
100
AcDbEntity
  8
crep od omaije
  6
ByLayer
 62
  256
370
   -1
100
AcDbLine
 10
150
 20
-3.673940397442059e-14
 11
150
 21
6551.794299450549
  0
LINE
  5
2AC
100
AcDbEntity
  8
crep od omaije
  6
ByLayer
 62
  256
370
   -1
100
AcDbLine
 10
1.154422767494192
 20
510.0002253019835
 11
-5381.799107240142
 21
508.9914259059431
  0
LINE
  5
2AD
100
AcDbEntity
  8
crep od omaije
  6
ByLayer
 62
  256
370
   -1
100
AcDbLine
 10
0.5818965411272483
 20
230.0001130900058
 11
-5624.232874572451
 21
228.9459873740198
  0
LINE
  5
2AE
100
AcDbEntity
  8
crep od omaije
  6
ByLayer
 62
  256
370
   -1
100
AcDbLine
 10
0.5818965411272483
 20
230.0001130900058
 11
-5624.232874572451
 21
228.9459873740198
  0
LINE
  5
2AF
100
AcDbEntity
  8
crep od omaije
  6
ByLayer
 62
  256
370
   -1
100
AcDbLine
 10
1.779422756518842
 20
510.000342430918
 11
-5381.799107240142
 21
508.9914259059431
  0
LINE
  5
2B0
100
AcDbEntity
  8
crep od omaije
  6
ByLayer
 62
  256
370
   -1
100
AcDbLine
 10
0.4769490158118355
 20
790.0001032560922
 11
-5139.365339907833
 21
789.0368644378661
  0
LINE
  5
2B1
100
AcDbEntity
  8
crep od omaije
  6
ByLayer
 62
  256
370
   -1
100
AcDbLine
 10
0.424475253154129
 20
1070.000098339136
 11
-4896.931572575525
 21
1069.08230296979
  0
LINE
  5
2B2
100
AcDbEntity
  8
crep od omaije
  6
ByLayer
 62
  256
370
   -1
100
AcDbLine
 10
0.3720014904964226
 20
1350.000093422178
 11
-4654.497805243218
 21
1349.127741501713
  0
LINE
  5
2B3
100
AcDbEntity
  8
crep od omaije
  6
ByLayer
 62
  256
370
   -1
100
AcDbLine
 10
0.3195277278387161
 20
1630.000088505222
 11
-4412.064037910912
 21
1629.173180033636
  0
LINE
  5
2B4
100
AcDbEntity
  8
crep od omaije
  6
ByLayer
 62
  256
370
   -1
100
AcDbLine
 10
0.2670539651810097
 20
1910.000083588265
 11
-4169.630270578603
 21
1909.21861856556
  0
LINE
  5
2B5
100
AcDbEntity
  8
crep od omaije
  6
ByLayer
 62
  256
370
   -1
100
AcDbLine
 10
0.2145802025233032
 20
2190.000078671308
 11
-3927.196503246294
 21
2189.264057097483
  0
LINE
  5
2B6
100
AcDbEntity
  8
crep od omaije
  6
ByLayer
 62
  256
370
   -1
100
AcDbLine
 10
0.1621064398655968
 20
2470.000073754351
 11
-3684.762735913988
 21
2469.309495629405
  0
LINE
  5
2B7
100
AcDbEntity
  8
crep od omaije
  6
ByLayer
 62
  256
370
   -1
100
AcDbLine
 10
0.1096326772078903
 20
2750.000068837395
 11
-3442.328968581679
 21
2749.354934161329
  0
LINE
  5
2B8
100
AcDbEntity
  8
crep od omaije
  6
ByLayer
 62
  256
370
   -1
100
AcDbLine
 10
0.05715891455018385
 20
3030.000063920438
 11
-3199.895201249371
 21
3029.400372693253
  0
LINE
  5
2B9
100
AcDbEntity
  8
crep od omaije
  6
ByLayer
 62
  256
370
   -1
100
AcDbLine
 10
0.004685151892477424
 20
3310.000059003482
 11
-2957.461433917064
 21
3309.445811225176
  0
LINE
  5
2BA
100
AcDbEntity
  8
crep od omaije
  6
ByLayer
 62
  256
370
   -1
100
AcDbLine
 10
-0.047788610765229
 20
3590.000054086525
 11
-2715.027666584755
 21
3589.491249757099
  0
LINE
  5
2BB
100
AcDbEntity
  8
crep od omaije
  6
ByLayer
 62
  256
370
   -1
100
AcDbLine
 10
-0.1002623734229355
 20
3870.000049169567
 11
-2472.593899252447
 21
3869.536688289022
  0
LINE
  5
2BC
100
AcDbEntity
  8
crep od omaije
  6
ByLayer
 62
  256
370
   -1
100
AcDbLine
 10
-0.152736136080642
 20
4150.000044252611
 11
-2230.16013192014
 21
4149.582126820946
  0
LINE
  5
2BD
100
AcDbEntity
  8
crep od omaije
  6
ByLayer
 62
  256
370
   -1
100
AcDbLine
 10
-0.2052098987383484
 20
4430.000039335655
 11
-1987.726364587831
 21
4429.62756535287
  0
LINE
  5
2BE
100
AcDbEntity
  8
crep od omaije
  6
ByLayer
 62
  256
370
   -1
100
AcDbLine
 10
-0.2576836613960548
 20
4710.000034418697
 11
-1745.292597255523
 21
4709.673003884793
  0
LINE
  5
2BF
100
AcDbEntity
  8
crep od omaije
  6
ByLayer
 62
  256
370
   -1
100
AcDbLine
 10
-0.3101574240537613
 20
4990.00002950174
 11
-1502.858829923216
 21
4989.718442416715
  0
LINE
  5
2C0
100
AcDbEntity
  8
crep od omaije
  6
ByLayer
 62
  256
370
   -1
100
AcDbLine
 10
-0.3626311867114678
 20
5270.000024584784
 11
-1260.425062590908
 21
5269.76388094864
  0
LINE
  5
2C1
100
AcDbEntity
  8
crep od omaije
  6
ByLayer
 62
  256
370
   -1
100
AcDbLine
 10
-0.4151049493691743
 20
5550.000019667827
 11
-1017.991295258601
 21
5549.809319480562
  0
LINE
  5
2C2
100
AcDbEntity
  8
crep od omaije
  6
ByLayer
 62
  256
370
   -1
100
AcDbLine
 10
-0.5200524746845869
 20
6110.000009833912
 11
-533.1237605939847
 21
6109.900196544409
  0
LINE
  5
2C3
100
AcDbEntity
  8
crep od omaije
  6
ByLayer
 62
  256
370
   -1
100
AcDbLine
 10
-0.5725262373422937
 20
6390.000004916958
 11
-290.6899932616743
 21
6389.945635076336
  0
LINE
  5
2C4
100
AcDbEntity
  8
crep od omaije
  6
ByLayer
 62
  256
370
   -1
100
AcDbLine
 10
-0.625
 20
6670
 11
-48.25622592936759
 21
6669.991073608257
  0
LINE
  5
2C5
100
AcDbEntity
  8
crep od omaije
  6
ByLayer
 62
  256
370
   -1
100
AcDbLine
 10
-0.4675787120268806
 20
5830.000014750871
 11
-775.5575279262914
 21
5829.854758012485
  0
LINE
  5
2C6
100
AcDbEntity
  8
crep od omaije
  6
ByLayer
 62
  256
370
   -1
100
AcDbLine
 10
-0.625
 20
6670
 11
47.00622592936759
 21
6670.008926391743
  0
LINE
  5
2C7
100
AcDbEntity
  8
crep od omaije
  6
ByLayer
 62
  256
370
   -1
100
AcDbLine
 10
149.999997365916
 20
0.02811094428093254
 11
148.739690030655
 21
6725.027992849517
  0
LINE
  5
2C8
100
AcDbEntity
  8
crep od omaije
  6
ByLayer
 62
  256
370
   -1
100
AcDbLine
 10
-149.999997365916
 20
-0.02811094428095091
 11
-151.2278448625285
 21
6551.766073453094
  0
LINE
  5
2C9
100
AcDbEntity
  8
crep od omaije
  6
ByLayer
 62
  256
370
   -1
100
AcDbLine
 10
-449.999992097748
 20
-0.08433283284285273
 11
-451.1629199170625
 21
6205.298456548806
  0
LINE
  5
2CA
100
AcDbEntity
  8
crep od omaije
  6
ByLayer
 62
  256
370
   -1
100
AcDbLine
 10
-749.9999868295801
 20
-0.1405547214047546
 11
-751.0979949715983
 21
5858.830839644525
  0
LINE
  5
2CB
100
AcDbEntity
  8
crep od omaije
  6
ByLayer
 62
  256
370
   -1
100
AcDbLine
 10
-1049.999981561412
 20
-0.1967766099666564
 11
-1051.033070026133
 21
5512.363222740238
  0
LINE
  5
2CC
100
AcDbEntity
  8
crep od omaije
  6
ByLayer
 62
  256
370
   -1
100
AcDbLine
 10
-1349.999976293244
 20
-0.2529984985285582
 11
-1350.968145080668
 21
5165.895605835954
  0
LINE
  5
2CD
100
AcDbEntity
  8
crep od omaije
  6
ByLayer
 62
  256
370
   -1
100
AcDbLine
 10
-1649.999971025076
 20
-0.30922038709046
 11
-1650.903220135203
 21
4819.427988931669
  0
LINE
  5
2CE
100
AcDbEntity
  8
crep od omaije
  6
ByLayer
 62
  256
370
   -1
100
AcDbLine
 10
-1949.999965756908
 20
-0.3654422756523618
 11
-1950.838295189738
 21
4472.960372027384
  0
LINE
  5
2CF
100
AcDbEntity
  8
crep od omaije
  6
ByLayer
 62
  256
370
   -1
100
AcDbLine
 10
-2249.99996048874
 20
-0.4216641642142636
 11
-2250.773370244273
 21
4126.492755123099
  0
LINE
  5
2D0
100
AcDbEntity
  8
crep od omaije
  6
ByLayer
 62
  256
370
   -1
100
AcDbLine
 10
-2549.999955220572
 20
-0.4778860527761655
 11
-2550.708445298808
 21
3780.025138218814
  0
LINE
  5
2D1
100
AcDbEntity
  8
crep od omaije
  6
ByLayer
 62
  256
370
   -1
100
AcDbLine
 10
-2849.999949952404
 20
-0.5341079413380674
 11
-2850.643520353343
 21
3433.557521314528
  0
LINE
  5
2D2
100
AcDbEntity
  8
crep od omaije
  6
ByLayer
 62
  256
370
   -1
100
AcDbLine
 10
-3149.999944684236
 20
-0.5903298298999692
 11
-3150.578595407878
 21
3087.089904410245
  0
LINE
  5
2D3
100
AcDbEntity
  8
crep od omaije
  6
ByLayer
 62
  256
370
   -1
100
AcDbLine
 10
-3449.999939416068
 20
-0.646551718461871
 11
-3450.513670462413
 21
2740.62228750596
  0
LINE
  5
2D4
100
AcDbEntity
  8
crep od omaije
  6
ByLayer
 62
  256
370
   -1
100
AcDbLine
 10
-3749.999934147901
 20
-0.7027736070237728
 11
-3750.448745516948
 21
2394.154670601675
  0
LINE
  5
2D5
100
AcDbEntity
  8
crep od omaije
  6
ByLayer
 62
  256
370
   -1
100
AcDbLine
 10
-4049.999928879733
 20
-0.7589954955856746
 11
-4050.383820571482
 21
2047.68705369739
  0
LINE
  5
2D6
100
AcDbEntity
  8
crep od omaije
  6
ByLayer
 62
  256
370
   -1
100
AcDbLine
 10
-4349.999923611565
 20
-0.8152173841475763
 11
-4350.318895626017
 21
1701.219436793106
  0
LINE
  5
2D7
100
AcDbEntity
  8
crep od omaije
  6
ByLayer
 62
  256
370
   -1
100
AcDbLine
 10
-4649.999918343397
 20
-0.8714392727094782
 11
-4650.253970680553
 21
1354.751819888821
  0
LINE
  5
2D8
100
AcDbEntity
  8
crep od omaije
  6
ByLayer
 62
  256
370
   -1
100
AcDbLine
 10
-4949.999913075229
 20
-0.92766116127138
 11
-4950.189045735087
 21
1008.284202984536
  0
LINE
  5
2D9
100
AcDbEntity
  8
crep od omaije
  6
ByLayer
 62
  256
370
   -1
100
AcDbLine
 10
-5249.99990780706
 20
-0.9838830498332819
 11
-5250.124120789622
 21
661.8165860802512
  0
LINE
  5
2DA
100
AcDbEntity
  8
crep od omaije
  6
ByLayer
 62
  256
370
   -1
100
AcDbLine
 10
-5549.999902538892
 20
-1.040104938395184
 11
-5550.059195844157
 21
315.3489691759664
  0
LINE
  5
2DB
100
AcDbEntity
  8
crep od omaije
  6
ByLayer
 62
  256
370
   -1
100
AcDbLine
 10
1.263118418713727
 20
-69.9997645128918
 11
-5849.986778830059
 21
-71.09632559771646
  0
LINE
  5
2DC
100
AcDbEntity
  8
crep od omaije
  6
ByLayer
 62
  256
370
   -1
100
AcDbLine
 10
1.206896530151898
 20
230.0002302189403
 11
-5850.043000718621
 21
228.9036691341155
  0
LINE
  5
2DD
100
AcDbEntity
  8
crep od omaije
  6
ByLayer
 62
  256
370
   -1
100
AcDbLine
 10
-5849.986778830059
 20
-71.09632559771646
 11
-5850.043000718621
 21
228.9036691341155
  0
DIMENSION
  5
2DE
100
AcDbEntity
  8
crep od omaije
  6
ByLayer
 62
  256
370
   -1
100
AcDbDimension
  2
*D4
 10
-5551.515053778438
 20
-400.1840489564426
 30
0
 11
-5688.465280340721
 21
-386.5390910494314
 31
0
 70
   33
 71
    5
  3
Standard
 53
0
210
0
220
0
230
1
100
AcDbAlignedDimension
 13
-5824
 23
0
 33
0
 14
-5549.999902538892
 24
-1.040104938395184
 34
0
  0
DIMENSION
  5
2DF
100
AcDbEntity
  8
crep od omaije
  6
ByLayer
 62
  256
370
   -1
100
AcDbDimension
  2
*D5
 10
-5249.925131432225
 20
-399.9906156542336
 30
0
 11
-5315.779402251113
 21
-386.8779569288857
 31
0
 70
   33
 71
    5
  3
Standard
 53
0
210
0
220
0
230
1
100
AcDbAlignedDimension
 13
-5381.799107240142
 23
508.9914259059431
 33
0
 14
-5250.095485017616
 24
509.0161079942825
 34
0
  0
DIMENSION
  5
2E0
100
AcDbEntity
  8
crep od omaije
  6
ByLayer
 62
  256
370
   -1
100
AcDbDimension
  2
*D6
 10
-4949.925126164057
 20
-399.9906156532464
 30
0
 11
-5044.536273801377
 21
-386.8833461477394
 31
0
 70
   33
 71
    5
  3
Standard
 53
0
210
0
220
0
230
1
100
AcDbAlignedDimension
 13
-5139.365339907833
 23
789.0368644378661
 33
0
 14
-4950.147964048441
 24
789.0723249658873
 34
0
  0
DIMENSION
  5
2E1
100
AcDbEntity
  8
crep od omaije
  6
ByLayer
 62
  256
370
   -1
100
AcDbDimension
  2
*D7
 10
-4349.92511562772
 20
-399.9906156512718
 30
0
 11
-4380.806896354425
 21
-386.8714028610065
 31
0
 70
   33
 71
    5
  3
Standard
 53
0
210
0
220
0
230
1
100
AcDbAlignedDimension
 13
-4412.064037910912
 23
1629.173180033636
 33
0
 14
-4350.305395872751
 24
1629.184753992141
 34
0
  0
DIMENSION
  5
2E2
100
AcDbEntity
  8
crep od omaije
  6
ByLayer
 62
  256
370
   -1
100
AcDbDimension
  2
*D8
 10
-4049.925106847439
 20
-400.0093562794762
 30
0
 11
-4109.563764392577
 21
-386.8955327090517
 31
0
 70
   33
 71
    5
  3
Standard
 53
0
210
0
220
0
230
1
100
AcDbAlignedDimension
 13
-4169.630270578603
 23
1909.21861856556
 33
0
 14
-4050.357874903576
 24
1909.240970963746
 34
0
  0
DIMENSION
  5
2E3
100
AcDbEntity
  8
crep od omaije
  6
ByLayer
 62
  256
370
   -1
100
AcDbDimension
  2
*D9
 10
-3749.925105091383
 20
-399.9906156492971
 30
0
 11
-3838.320639454953
 21
-386.8821812987135
 31
0
 70
   33
 71
    5
  3
Standard
 53
0
210
0
220
0
230
1
100
AcDbAlignedDimension
 13
-3927.196503246294
 23
2189.264057097483
 33
0
 14
-3750.410353934402
 24
2189.297187935351
 34
0
  0
DIMENSION
  5
2E4
100
AcDbEntity
  8
crep od omaije
  6
ByLayer
 62
  256
370
   -1
100
AcDbDimension
  2
*D10
 10
-3449.925099823215
 20
-399.9906156483103
 30
0
 11
-3567.077511005219
 21
-386.8875705175678
 31
0
 70
   33
 71
    5
  3
Standard
 53
0
210
0
220
0
230
1
100
AcDbAlignedDimension
 13
-3684.762735913988
 23
2469.309495629405
 33
0
 14
-3450.462832965228
 24
2469.353404906956
 34
0
  0
DIMENSION
  5
2E5
100
AcDbEntity
  8
crep od omaije
  6
ByLayer
 62
  256
370
   -1
100
AcDbDimension
  2
*D11
 10
-3149.925091042965
 20
-400.0093562765146
 30
0
 11
-3174.591258495919
 21
-386.8889786411726
 31
0
 70
   33
 71
    5
  3
Standard
 53
0
210
0
220
0
230
1
100
AcDbAlignedDimension
 13
-3199.895201249371
 23
3029.400372693253
 33
0
 14
-3150.567785758711
 24
3029.409616961605
 34
0
  0
DIMENSION
  5
2E6
100
AcDbEntity
  8
crep od omaije
  6
ByLayer
 62
  256
370
   -1
100
AcDbDimension
  2
*D12
 10
-2849.92508226267
 20
-400.0280969047185
 30
0
 11
-2903.348126534058
 21
-386.9131084892174
 31
0
 70
   33
 71
    5
  3
Standard
 53
0
210
0
220
0
230
1
100
AcDbAlignedDimension
 13
-2957.461433917064
 23
3309.445811225176
 33
0
 14
-2850.620264789537
 24
3309.465833933209
 34
0
  0
DIMENSION
  5
2E7
100
AcDbEntity
  8
crep od omaije
  6
ByLayer
 62
  256
370
   -1
100
AcDbDimension
  2
*D13
 10
-2549.925080506614
 20
-400.0093562745396
 30
0
 11
-2632.105001596436
 21
-386.8997570788795
 31
0
 70
   33
 71
    5
  3
Standard
 53
0
210
0
220
0
230
1
100
AcDbAlignedDimension
 13
-2715.027666584755
 23
3589.491249757099
 33
0
 14
-2550.672743820362
 24
3589.522050904814
 34
0
  0
DIMENSION
  5
2E8
100
AcDbEntity
  8
crep od omaije
  6
ByLayer
 62
  256
370
   -1
100
AcDbDimension
  2
*D14
 10
-2249.925082262651
 20
-399.9718750151683
 30
0
 11
-2360.861880170905
 21
-386.8676650393484
 31
0
 70
   33
 71
    5
  3
Standard
 53
0
210
0
220
0
230
1
100
AcDbAlignedDimension
 13
-2472.593899252447
 23
3869.536688289022
 33
0
 14
-2250.725222851188
 24
3869.578267876419
 34
0
  0
DIMENSION
  5
2E9
100
AcDbEntity
  8
crep od omaije
  6
ByLayer
 62
  256
370
   -1
100
AcDbDimension
  2
*D15
 10
-1649.925064702136
 20
-400.0093562715783
 30
0
 11
-1697.132495699773
 21
-386.8932030110004
 31
0
 70
   33
 71
    5
  3
Standard
 53
0
210
0
220
0
230
1
100
AcDbAlignedDimension
 13
-1745.292597255523
 23
4709.673003884793
 33
0
 14
-1650.882654675497
 24
4709.690696902672
 34
0
  0
DIMENSION
  5
2EA
100
AcDbEntity
  8
crep od omaije
  6
ByLayer
 62
  256
370
   -1
100
AcDbDimension
  2
*D16
 10
-1349.92505943397
 20
-400.0093562705906
 30
0
 11
-1425.889367250041
 21
-386.8985922298534
 31
0
 70
   33
 71
    5
  3
Standard
 53
0
210
0
220
0
230
1
100
AcDbAlignedDimension
 13
-1502.858829923216
 23
4989.718442416715
 33
0
 14
-1350.935133706323
 24
4989.746913874276
 34
0
  0
DIMENSION
  5
2EB
100
AcDbEntity
  8
crep od omaije
  6
ByLayer
 62
  256
370
   -1
100
AcDbDimension
  2
*D17
 10
-1049.925050653654
 20
-400.0280968987954
 30
0
 11
-1154.567160107297
 21
-386.9227072587128
 31
0
 70
   33
 71
    5
  3
Standard
 53
0
210
0
220
0
230
1
100
AcDbAlignedDimension
 13
-1260.266912229179
 23
5269.763910587014
 33
0
 14
-1050.987612737148
 24
5269.803130845884
 34
0
  0
DIMENSION
  5
2EC
100
AcDbEntity
  8
crep od omaije
  6
ByLayer
 62
  256
370
   -1
100
AcDbDimension
  2
*D18
 10
-449.9250471416038
 20
-399.9906156384368
 30
0
 11
-490.7000241210573
 21
-386.8732568954611
 31
0
 70
   33
 71
    5
  3
Standard
 53
0
210
0
220
0
230
1
100
AcDbAlignedDimension
 13
-532.6900791051066
 23
6109.900277819052
 33
0
 14
-451.1450445614564
 24
6109.915559872135
 34
0
  0
DIMENSION
  5
2ED
100
AcDbEntity
  8
crep od omaije
  6
ByLayer
 62
  256
370
   -1
100
AcDbDimension
  2
*D19
 10
-149.9250383613392
 20
-400.0093562666407
 30
0
 11
-219.6737329036638
 21
-386.8974273808267
 31
0
 70
   33
 71
    5
  3
Standard
 53
0
210
0
220
0
230
1
100
AcDbAlignedDimension
 13
-290.6899932616743
 23
6389.945635076336
 33
0
 14
-151.1975235922829
 24
6389.971776843743
 34
0
  0
DIMENSION
  5
2EE
100
AcDbEntity
  8
crep v1 duplo
  6
ByLayer
 62
  256
370
   -1
100
AcDbDimension
  2
*D20
 10
5700
 20
-400
 30
0
 11
5762
 21
-386.875
 31
0
 70
   33
 71
    5
  3
Standard
 53
0
210
0
220
0
230
1
100
AcDbAlignedDimension
 13
5824
 23
0
 33
0
 14
5700
 24
0
 34
0
  0
DIMENSION
  5
2EF
100
AcDbEntity
  8
crep v1 duplo
  6
ByLayer
 62
  256
370
   -1
100
AcDbDimension
  2
*D21
 10
5623.564869888476
 20
-400
 30
0
 11
5511.782434944238
 21
-386.875
 31
0
 70
   33
 71
    5
  3
Standard
 53
0
210
0
220
0
230
1
100
AcDbAlignedDimension
 13
5400
 23
230
 33
0
 14
5623.564869888476
 24
230
 34
0
  0
DIMENSION
  5
2F0
100
AcDbEntity
  8
crep v1 duplo
  6
ByLayer
 62
  256
370
   -1
100
AcDbDimension
  2
*D22
 10
4896.731133828995
 20
-400
 30
0
 11
4848.365566914497
 21
-386.875
 31
0
 70
   33
 71
    5
  3
Standard
 53
0
210
0
220
0
230
1
100
AcDbAlignedDimension
 13
4800
 23
1070
 33
0
 14
4896.731133828995
 24
1070
 34
0
  0
DIMENSION
  5
2F1
100
AcDbEntity
  8
crep v1 duplo
  6
ByLayer
 62
  256
370
   -1
100
AcDbDimension
  2
*D23
 10
4654.244888475836
 20
-400
 30
0
 11
4577.122444237918
 21
-386.875
 31
0
 70
   33
 71
    5
  3
Standard
 53
0
210
0
220
0
230
1
100
AcDbAlignedDimension
 13
4500
 23
1350
 33
0
 14
4654.244888475836
 24
1350
 34
0
  0
DIMENSION
  5
2F2
100
AcDbEntity
  8
crep v1 duplo
  6
ByLayer
 62
  256
370
   -1
100
AcDbDimension
  2
*D24
 10
4411.758643122677
 20
-400
 30
0
 11
4305.879321561339
 21
-386.875
 31
0
 70
   33
 71
    5
  3
Standard
 53
0
210
0
220
0
230
1
100
AcDbAlignedDimension
 13
4200
 23
1630
 33
0
 14
4411.758643122677
 24
1630
 34
0
  0
DIMENSION
  5
2F3
100
AcDbEntity
  8
crep v1 duplo
  6
ByLayer
 62
  256
370
   -1
100
AcDbDimension
  2
*D25
 10
3684.299907063198
 20
-400
 30
0
 11
3642.149953531599
 21
-386.875
 31
0
 70
   33
 71
    5
  3
Standard
 53
0
210
0
220
0
230
1
100
AcDbAlignedDimension
 13
3600
 23
2470
 33
0
 14
3684.299907063198
 24
2470
 34
0
  0
DIMENSION
  5
2F4
100
AcDbEntity
  8
crep v1 duplo
  6
ByLayer
 62
  256
370
   -1
100
AcDbDimension
  2
*D26
 10
3441.813661710037
 20
-400
 30
0
 11
3370.906830855018
 21
-386.875
 31
0
 70
   33
 71
    5
  3
Standard
 53
0
210
0
220
0
230
1
100
AcDbAlignedDimension
 13
3300
 23
2750
 33
0
 14
3441.813661710037
 24
2750
 34
0
  0
DIMENSION
  5
2F5
100
AcDbEntity
  8
crep v1 duplo
  6
ByLayer
 62
  256
370
   -1
100
AcDbDimension
  2
*D27
 10
3441.813661710037
 20
-400
 30
0
 11
3370.906830855018
 21
-386.875
 31
0
 70
   33
 71
    5
  3
Standard
 53
0
210
0
220
0
230
1
100
AcDbAlignedDimension
 13
3300
 23
2750
 33
0
 14
3441.813661710037
 24
2750
 34
0
  0
DIMENSION
  5
2F6
100
AcDbEntity
  8
crep v1 duplo
  6
ByLayer
 62
  256
370
   -1
100
AcDbDimension
  2
*D28
 10
3199.327416356877
 20
-400
 30
0
 11
3099.663708178438
 21
-386.875
 31
0
 70
   33
 71
    5
  3
Standard
 53
0
210
0
220
0
230
1
100
AcDbAlignedDimension
 13
3000
 23
3030
 33
0
 14
3199.327416356877
 24
3030
 34
0
  0
DIMENSION
  5
2F7
100
AcDbEntity
  8
crep v1 duplo
  6
ByLayer
 62
  256
370
   -1
100
AcDbDimension
  2
*D29
 10
2471.868680297397
 20
-400
 30
0
 11
2435.934340148698
 21
-386.875
 31
0
 70
   33
 71
    5
  3
Standard
 53
0
210
0
220
0
230
1
100
AcDbAlignedDimension
 13
2400
 23
3870
 33
0
 14
2471.868680297397
 24
3870
 34
0
  0
DIMENSION
  5
2F8
100
AcDbEntity
  8
crep v1 duplo
  6
ByLayer
 62
  256
370
   -1
100
AcDbDimension
  2
*D30
 10
2229.382434944238
 20
-400
 30
0
 11
2164.691217472118
 21
-386.875
 31
0
 70
   33
 71
    5
  3
Standard
 53
0
210
0
220
0
230
1
100
AcDbAlignedDimension
 13
2100
 23
4150
 33
0
 14
2229.382434944238
 24
4150
 34
0
  0
DIMENSION
  5
2F9
100
AcDbEntity
  8
crep v1 duplo
  6
ByLayer
 62
  256
370
   -1
100
AcDbDimension
  2
*D31
 10
1986.896189591078
 20
-400
 30
0
 11
1893.448094795538
 21
-386.875
 31
0
 70
   33
 71
    5
  3
Standard
 53
0
210
0
220
0
230
1
100
AcDbAlignedDimension
 13
1800
 23
4430
 33
0
 14
1986.896189591078
 24
4430
 34
0
  0
DIMENSION
  5
2FA
100
AcDbEntity
  8
crep v1 duplo
  6
ByLayer
 62
  256
370
   -1
100
AcDbDimension
  2
*D32
 10
1259.437453531598
 20
-400
 30
0
 11
1229.718726765797
 21
-386.875
 31
0
 70
   33
 71
    5
  3
Standard
 53
0
210
0
220
0
230
1
100
AcDbAlignedDimension
 13
1199.999999999999
 23
5270
 33
0
 14
1259.437453531598
 24
5270
 34
0
  0
DIMENSION
  5
2FB
100
AcDbEntity
  8
crep v1 duplo
  6
ByLayer
 62
  256
370
   -1
100
AcDbDimension
  2
*D33
 10
1016.95120817844
 20
-400
 30
0
 11
958.4756040892189
 21
-386.875
 31
0
 70
   33
 71
    5
  3
Standard
 53
0
210
0
220
0
230
1
100
AcDbAlignedDimension
 13
900
 23
5550
 33
0
 14
1016.95120817844
 24
5550
 34
0
  0
DIMENSION
  5
2FC
100
AcDbEntity
  8
crep v1 duplo
  6
ByLayer
 62
  256
370
   -1
100
AcDbDimension
  2
*D34
 10
774.4649628252429
 20
-399.9999999999982
 30
0
 11
687.2324814126049
 21
-386.8749999999977
 31
0
 70
   33
 71
    5
  3
Standard
 53
0
210
0
220
0
230
1
100
AcDbAlignedDimension
 13
600
 23
5830.000000000001
 33
0
 14
774.4649628252782
 24
5830
 34
0
  0
LINE
  5
2FD
100
AcDbEntity
  8
crep v1 duplo
  6
ByLayer
 62
  256
370
   -1
100
AcDbLine
 10
-1.25
 20
510
 11
5381.703624535316
 21
510
  0
LINE
  5
2FE
100
AcDbEntity
  8
crep v1 duplo
  6
ByLayer
 62
  256
370
   -1
100
AcDbLine
 10
-0.625
 20
230
 11
5624.189869888476
 21
230
  0
LINE
  5
2FF
100
AcDbEntity
  8
crep v1 duplo
  6
ByLayer
 62
  256
370
   -1
100
AcDbLine
 10
-0.625
 20
230
 11
5624.189869888476
 21
230
  0
LINE
  5
300
100
AcDbEntity
  8
crep v1 duplo
  6
ByLayer
 62
  256
370
   -1
100
AcDbLine
 10
-1.25
 20
230
 11
5623.564869888476
 21
230
  0
LINE
  5
301
100
AcDbEntity
  8
crep v1 duplo
  6
ByLayer
 62
  256
370
   -1
100
AcDbLine
 10
-1.875
 20
510
 11
5381.703624535316
 21
510
  0
LINE
  5
302
100
AcDbEntity
  8
crep v1 duplo
  6
ByLayer
 62
  256
370
   -1
100
AcDbLine
 10
-0.625
 20
790
 11
5139.217379182155
 21
790
  0
LINE
  5
303
100
AcDbEntity
  8
crep v1 duplo
  6
ByLayer
 62
  256
370
   -1
100
AcDbLine
 10
-0.625
 20
1070
 11
4896.731133828995
 21
1070
  0
LINE
  5
304
100
AcDbEntity
  8
crep v1 duplo
  6
ByLayer
 62
  256
370
   -1
100
AcDbLine
 10
-0.625
 20
1350
 11
4654.244888475836
 21
1350
  0
LINE
  5
305
100
AcDbEntity
  8
crep v1 duplo
  6
ByLayer
 62
  256
370
   -1
100
AcDbLine
 10
-0.625
 20
1630
 11
4411.758643122677
 21
1630
  0
LINE
  5
306
100
AcDbEntity
  8
crep v1 duplo
  6
ByLayer
 62
  256
370
   -1
100
AcDbLine
 10
-0.625
 20
1910
 11
4169.272397769517
 21
1910
  0
LINE
  5
307
100
AcDbEntity
  8
crep v1 duplo
  6
ByLayer
 62
  256
370
   -1
100
AcDbLine
 10
-0.625
 20
2190
 11
3926.786152416356
 21
2190
  0
LINE
  5
308
100
AcDbEntity
  8
crep v1 duplo
  6
ByLayer
 62
  256
370
   -1
100
AcDbLine
 10
-0.625
 20
2470
 11
3684.299907063198
 21
2470
  0
LINE
  5
309
100
AcDbEntity
  8
crep v1 duplo
  6
ByLayer
 62
  256
370
   -1
100
AcDbLine
 10
-0.625
 20
2750
 11
3441.813661710037
 21
2750
  0
LINE
  5
30A
100
AcDbEntity
  8
crep v1 duplo
  6
ByLayer
 62
  256
370
   -1
100
AcDbLine
 10
-0.625
 20
3030
 11
3199.327416356877
 21
3030
  0
LINE
  5
30B
100
AcDbEntity
  8
crep v1 duplo
  6
ByLayer
 62
  256
370
   -1
100
AcDbLine
 10
-0.625
 20
3310
 11
2956.841171003718
 21
3310
  0
LINE
  5
30C
100
AcDbEntity
  8
crep v1 duplo
  6
ByLayer
 62
  256
370
   -1
100
AcDbLine
 10
-0.625
 20
3590
 11
2714.354925650558
 21
3590
  0
LINE
  5
30D
100
AcDbEntity
  8
crep v1 duplo
  6
ByLayer
 62
  256
370
   -1
100
AcDbLine
 10
-0.625
 20
3870
 11
2471.868680297397
 21
3870
  0
LINE
  5
30E
100
AcDbEntity
  8
crep v1 duplo
  6
ByLayer
 62
  256
370
   -1
100
AcDbLine
 10
-0.625
 20
4150
 11
2229.382434944238
 21
4150
  0
LINE
  5
30F
100
AcDbEntity
  8
crep v1 duplo
  6
ByLayer
 62
  256
370
   -1
100
AcDbLine
 10
-0.625
 20
4430
 11
1986.896189591078
 21
4430
  0
LINE
  5
310
100
AcDbEntity
  8
crep v1 duplo
  6
ByLayer
 62
  256
370
   -1
100
AcDbLine
 10
-0.625
 20
4710
 11
1744.409944237917
 21
4710
  0
LINE
  5
311
100
AcDbEntity
  8
crep v1 duplo
  6
ByLayer
 62
  256
370
   -1
100
AcDbLine
 10
-0.625
 20
4990
 11
1501.923698884759
 21
4990
  0
LINE
  5
312
100
AcDbEntity
  8
crep v1 duplo
  6
ByLayer
 62
  256
370
   -1
100
AcDbLine
 10
-0.625
 20
5270
 11
1259.437453531598
 21
5270
  0
LINE
  5
313
100
AcDbEntity
  8
crep v1 duplo
  6
ByLayer
 62
  256
370
   -1
100
AcDbLine
 10
-0.625
 20
5550
 11
1016.95120817844
 21
5550
  0
LINE
  5
314
100
AcDbEntity
  8
crep v1 duplo
  6
ByLayer
 62
  256
370
   -1
100
AcDbLine
 10
-0.625
 20
6109.999999999999
 11
531.9787174721196
 21
6109.999999999999
  0
LINE
  5
315
100
AcDbEntity
  8
crep v1 duplo
  6
ByLayer
 62
  256
370
   -1
100
AcDbLine
 10
-0.625
 20
6390.000000000001
 11
289.4924721189573
 21
6390.000000000002
  0
LINE
  5
316
100
AcDbEntity
  8
crep v1 duplo
  6
ByLayer
 62
  256
370
   -1
100
AcDbLine
 10
-0.625
 20
6670
 11
47.0062267657986
 21
6670
  0
LINE
  5
317
100
AcDbEntity
  8
crep v1 duplo
  6
ByLayer
 62
  256
370
   -1
100
AcDbLine
 10
-0.625
 20
5830
 11
774.4649628252782
 21
5830
  0
LINE
  5
318
100
AcDbEntity
  8
crep v1 duplo
  6
ByLayer
 62
  256
370
   -1
100
AcDbLine
 10
-1.25
 20
-70
 11
-0.625
 21
6670
  0
LINE
  5
319
100
AcDbEntity
  8
crep v1 duplo
  6
ByLayer
 62
  256
370
   -1
100
AcDbLine
 10
300
 20
-70
 11
300
 21
6378.588598901099
  0
LINE
  5
31A
100
AcDbEntity
  8
crep v1 duplo
  6
ByLayer
 62
  256
370
   -1
100
AcDbLine
 10
600
 20
-70
 11
600
 21
6032.177197802198
  0
LINE
  5
31B
100
AcDbEntity
  8
crep v1 duplo
  6
ByLayer
 62
  256
370
   -1
100
AcDbLine
 10
900
 20
-70
 11
900
 21
5685.765796703296
  0
LINE
  5
31C
100
AcDbEntity
  8
crep v1 duplo
  6
ByLayer
 62
  256
370
   -1
100
AcDbLine
 10
1200
 20
-70.00000000000045
 11
1199.999999999999
 21
5339.354395604396
  0
LINE
  5
31D
100
AcDbEntity
  8
crep v1 duplo
  6
ByLayer
 62
  256
370
   -1
100
AcDbLine
 10
1500
 20
-70.00000000000045
 11
1500
 21
4992.942994505494
  0
LINE
  5
31E
100
AcDbEntity
  8
crep v1 duplo
  6
ByLayer
 62
  256
370
   -1
100
AcDbLine
 10
1800
 20
-70.00000000000045
 11
1800
 21
4646.531593406594
  0
LINE
  5
31F
100
AcDbEntity
  8
crep v1 duplo
  6
ByLayer
 62
  256
370
   -1
100
AcDbLine
 10
2100
 20
-70.00000000000045
 11
2100
 21
4300.120192307692
  0
LINE
  5
320
100
AcDbEntity
  8
crep v1 duplo
  6
ByLayer
 62
  256
370
   -1
100
AcDbLine
 10
2400
 20
-70.00000000000045
 11
2400
 21
3953.708791208791
  0
LINE
  5
321
100
AcDbEntity
  8
crep v1 duplo
  6
ByLayer
 62
  256
370
   -1
100
AcDbLine
 10
2700
 20
-70.00000000000045
 11
2700
 21
3607.29739010989
  0
LINE
  5
322
100
AcDbEntity
  8
crep v1 duplo
  6
ByLayer
 62
  256
370
   -1
100
AcDbLine
 10
3000
 20
-70.00000000000091
 11
3000
 21
3260.885989010989
  0
LINE
  5
323
100
AcDbEntity
  8
crep v1 duplo
  6
ByLayer
 62
  256
370
   -1
100
AcDbLine
 10
3300
 20
-70.00000000000091
 11
3300
 21
2914.474587912088
  0
LINE
  5
324
100
AcDbEntity
  8
crep v1 duplo
  6
ByLayer
 62
  256
370
   -1
100
AcDbLine
 10
3600
 20
-70.00000000000091
 11
3600
 21
2568.063186813187
  0
LINE
  5
325
100
AcDbEntity
  8
crep v1 duplo
  6
ByLayer
 62
  256
370
   -1
100
AcDbLine
 10
3900
 20
-70.00000000000091
 11
3900
 21
2221.651785714286
  0
LINE
  5
326
100
AcDbEntity
  8
crep v1 duplo
  6
ByLayer
 62
  256
370
   -1
100
AcDbLine
 10
4200
 20
-70.00000000000091
 11
4200
 21
1875.240384615385
  0
LINE
  5
327
100
AcDbEntity
  8
crep v1 duplo
  6
ByLayer
 62
  256
370
   -1
100
AcDbLine
 10
4500
 20
-70.00000000000091
 11
4500
 21
1528.828983516484
  0
LINE
  5
328
100
AcDbEntity
  8
crep v1 duplo
  6
ByLayer
 62
  256
370
   -1
100
AcDbLine
 10
4800
 20
-70.00000000000136
 11
4800
 21
1182.417582417582
  0
LINE
  5
329
100
AcDbEntity
  8
crep v1 duplo
  6
ByLayer
 62
  256
370
   -1
100
AcDbLine
 10
5100
 20
-70.00000000000136
 11
5100
 21
836.0061813186812
  0
LINE
  5
32A
100
AcDbEntity
  8
crep v1 duplo
  6
ByLayer
 62
  256
370
   -1
100
AcDbLine
 10
5400
 20
-70.00000000000136
 11
5400
 21
489.5947802197802
  0
LINE
  5
32B
100
AcDbEntity
  8
crep v1 duplo
  6
ByLayer
 62
  256
370
   -1
100
AcDbLine
 10
5700
 20
-70.00000000000136
 11
5700
 21
143.1833791208792
  0
LINE
  5
32C
100
AcDbEntity
  8
crep v1 duplo
  6
ByLayer
 62
  256
370
   -1
100
AcDbLine
 10
-1.25
 20
-70
 11
5824
 21
-70
  0
LINE
  5
32D
100
AcDbEntity
  8
crep v1 duplo
  6
ByLayer
 62
  256
370
   -1
100
AcDbLine
 10
5824
 20
0
 11
5824
 21
-70
  0
LINE
  5
32E
100
AcDbEntity
  8
crep v1 duplo
  6
ByLayer
 62
  256
370
   -1
100
AcDbLine
 10
-1.142433235346315
 20
509.9999900253372
 11
-5384.095965196269
 21
510.9983122764959
  0
LINE
  5
32F
100
AcDbEntity
  8
crep v1 duplo
  6
ByLayer
 62
  256
370
   -1
100
AcDbLine
 10
-1.819362007534018
 20
230.0001107531535
 11
-5626.634135162161
 21
231.0432885761361
  0
LINE
  5
330
100
AcDbEntity
  8
crep v1 duplo
  6
ByLayer
 62
  256
370
   -1
100
AcDbLine
 10
-1.819362007534018
 20
230.0001107531535
 11
-5626.634135162161
 21
231.0432885761361
  0
LINE
  5
331
100
AcDbEntity
  8
crep v1 duplo
  6
ByLayer
 62
  256
370
   -1
100
AcDbLine
 10
-1.194362018282577
 20
229.9999948406916
 11
-5626.00913517291
 21
231.0431726636741
  0
LINE
  5
332
100
AcDbEntity
  8
crep v1 duplo
  6
ByLayer
 62
  256
370
   -1
100
AcDbLine
 10
-0.5174332460948743
 20
509.9998741128752
 11
-5384.095965196269
 21
510.9983122764959
  0
LINE
  5
333
100
AcDbEntity
  8
crep v1 duplo
  6
ByLayer
 62
  256
370
   -1
100
AcDbLine
 10
-1.715504441661494
 20
790.0001011224444
 11
-5141.557795230377
 21
790.9533359768559
  0
LINE
  5
334
100
AcDbEntity
  8
crep v1 duplo
  6
ByLayer
 62
  256
370
   -1
100
AcDbLine
 10
-1.663575658725233
 20
1070.00009630709
 11
-4899.019625264485
 21
1070.908359677216
  0
LINE
  5
335
100
AcDbEntity
  8
crep v1 duplo
  6
ByLayer
 62
  256
370
   -1
100
AcDbLine
 10
-1.611646875788971
 20
1350.000091491735
 11
-4656.481455298594
 21
1350.863383377576
  0
LINE
  5
336
100
AcDbEntity
  8
crep v1 duplo
  6
ByLayer
 62
  256
370
   -1
100
AcDbLine
 10
-1.55971809285271
 20
1630.000086676381
 11
-4413.943285332703
 21
1630.818407077936
  0
LINE
  5
337
100
AcDbEntity
  8
crep v1 duplo
  6
ByLayer
 62
  256
370
   -1
100
AcDbLine
 10
-1.507789309916448
 20
1910.000081861027
 11
-4171.405115366812
 21
1910.773430778295
  0
LINE
  5
338
100
AcDbEntity
  8
crep v1 duplo
  6
ByLayer
 62
  256
370
   -1
100
AcDbLine
 10
-1.455860526980186
 20
2190.000077045672
 11
-3928.866945400918
 21
2190.728454478655
  0
LINE
  5
339
100
AcDbEntity
  8
crep v1 duplo
  6
ByLayer
 62
  256
370
   -1
100
AcDbLine
 10
-1.403931744043925
 20
2470.000072230318
 11
-3686.328775435029
 21
2470.683478179015
  0
LINE
  5
33A
100
AcDbEntity
  8
crep v1 duplo
  6
ByLayer
 62
  256
370
   -1
100
AcDbLine
 10
-1.352002961107663
 20
2750.000067414963
 11
-3443.790605469136
 21
2750.638501879375
  0
LINE
  5
33B
100
AcDbEntity
  8
crep v1 duplo
  6
ByLayer
 62
  256
370
   -1
100
AcDbLine
 10
-1.300074178171401
 20
3030.000062599608
 11
-3201.252435503244
 21
3030.593525579734
  0
LINE
  5
33C
100
AcDbEntity
  8
crep v1 duplo
  6
ByLayer
 62
  256
370
   -1
100
AcDbLine
 10
-1.24814539523514
 20
3310.000057784254
 11
-2958.714265537353
 21
3310.548549280095
  0
LINE
  5
33D
100
AcDbEntity
  8
crep v1 duplo
  6
ByLayer
 62
  256
370
   -1
100
AcDbLine
 10
-1.196216612298878
 20
3590.0000529689
 11
-2716.176095571461
 21
3590.503572980454
  0
LINE
  5
33E
100
AcDbEntity
  8
crep v1 duplo
  6
ByLayer
 62
  256
370
   -1
100
AcDbLine
 10
-1.144287829362616
 20
3870.000048153545
 11
-2473.637925605568
 21
3870.458596680815
  0
LINE
  5
33F
100
AcDbEntity
  8
crep v1 duplo
  6
ByLayer
 62
  256
370
   -1
100
AcDbLine
 10
-1.092359046426355
 20
4150.00004333819
 11
-2231.099755639677
 21
4150.413620381174
  0
LINE
  5
340
100
AcDbEntity
  8
crep v1 duplo
  6
ByLayer
 62
  256
370
   -1
100
AcDbLine
 10
-1.040430263490093
 20
4430.000038522836
 11
-1988.561585673785
 21
4430.368644081535
  0
LINE
  5
341
100
AcDbEntity
  8
crep v1 duplo
  6
ByLayer
 62
  256
370
   -1
100
AcDbLine
 10
-0.9885014805538315
 20
4710.000033707482
 11
-1746.023415707893
 21
4710.323667781895
  0
LINE
  5
342
100
AcDbEntity
  8
crep v1 duplo
  6
ByLayer
 62
  256
370
   -1
100
AcDbLine
 10
-0.9365726976175699
 20
4990.000028892127
 11
-1503.485245742003
 21
4990.278691482255
  0
LINE
  5
343
100
AcDbEntity
  8
crep v1 duplo
  6
ByLayer
 62
  256
370
   -1
100
AcDbLine
 10
-0.8846439146813081
 20
5270.000024076773
 11
-1260.94707577611
 21
5270.233715182614
  0
LINE
  5
344
100
AcDbEntity
  8
crep v1 duplo
  6
ByLayer
 62
  256
370
   -1
100
AcDbLine
 10
-0.8327151317450465
 20
5550.000019261419
 11
-1018.40890581022
 21
5550.188738882973
  0
LINE
  5
345
100
AcDbEntity
  8
crep v1 duplo
  6
ByLayer
 62
  256
370
   -1
100
AcDbLine
 10
-0.7288575658725234
 20
6110.000009630708
 11
-533.332565878436
 21
6110.098786283691
  0
LINE
  5
346
100
AcDbEntity
  8
crep v1 duplo
  6
ByLayer
 62
  256
370
   -1
100
AcDbLine
 10
-0.6769287829362616
 20
6390.000004815357
 11
-290.7943959125419
 21
6390.053809984058
  0
LINE
  5
347
100
AcDbEntity
  8
crep v1 duplo
  6
ByLayer
 62
  256
370
   -1
100
AcDbLine
 10
-0.625
 20
6670
 11
-48.25622594665131
 21
6670.008833684413
  0
LINE
  5
348
100
AcDbEntity
  8
crep v1 duplo
  6
ByLayer
 62
  256
370
   -1
100
AcDbLine
 10
-0.7807863488087849
 20
5830.000014446063
 11
-775.8707358443265
 21
5830.143762583335
  0
LINE
  5
349
100
AcDbEntity
  8
crep v1 duplo
  6
ByLayer
 62
  256
370
   -1
100
AcDbLine
 10
-1.25
 20
-70
 11
-0.625
 21
6670
  0
LINE
  5
34A
100
AcDbEntity
  8
crep v1 duplo
  6
ByLayer
 62
  256
370
   -1
100
AcDbLine
 10
-302.4999948191945
 20
-69.94413019335875
 11
-301.3040399706317
 21
6378.644357806882
  0
LINE
  5
34B
100
AcDbEntity
  8
crep v1 duplo
  6
ByLayer
 62
  256
370
   -1
100
AcDbLine
 10
-602.4999896598861
 20
-69.88849221164133
 11
-601.3682802486601
 21
6032.288600647177
  0
LINE
  5
34C
100
AcDbEntity
  8
crep v1 duplo
  6
ByLayer
 62
  256
370
   -1
100
AcDbLine
 10
-902.4999845005777
 20
-69.8328542299239
 11
-901.4325205266886
 21
5685.93284348747
  0
LINE
  5
34D
100
AcDbEntity
  8
crep v1 duplo
  6
ByLayer
 62
  256
370
   -1
100
AcDbLine
 10
-1202.499979341269
 20
-69.77721624820694
 11
-1201.496760804716
 21
5339.577086327763
  0
LINE
  5
34E
100
AcDbEntity
  8
crep v1 duplo
  6
ByLayer
 62
  256
370
   -1
100
AcDbLine
 10
-1502.499974181961
 20
-69.72157826648953
 11
-1501.561001082745
 21
4993.221329168056
  0
LINE
  5
34F
100
AcDbEntity
  8
crep v1 duplo
  6
ByLayer
 62
  256
370
   -1
100
AcDbLine
 10
-1802.499969022653
 20
-69.66594028477209
 11
-1801.625241360774
 21
4646.865572008353
  0
LINE
  5
350
100
AcDbEntity
  8
crep v1 duplo
  6
ByLayer
 62
  256
370
   -1
100
AcDbLine
 10
-2102.499963863344
 20
-69.61030230305468
 11
-2101.689481638802
 21
4300.509814848646
  0
LINE
  5
351
100
AcDbEntity
  8
crep v1 duplo
  6
ByLayer
 62
  256
370
   -1
100
AcDbLine
 10
-2402.499958704036
 20
-69.55466432133724
 11
-2401.753721916831
 21
3954.154057688938
  0
LINE
  5
352
100
AcDbEntity
  8
crep v1 duplo
  6
ByLayer
 62
  256
370
   -1
100
AcDbLine
 10
-2702.499953544727
 20
-69.49902633961983
 11
-2701.817962194859
 21
3607.798300529232
  0
LINE
  5
353
100
AcDbEntity
  8
crep v1 duplo
  6
ByLayer
 62
  256
370
   -1
100
AcDbLine
 10
-3002.499948385419
 20
-69.44338835790285
 11
-3001.882202472887
 21
3261.442543369527
  0
LINE
  5
354
100
AcDbEntity
  8
crep v1 duplo
  6
ByLayer
 62
  256
370
   -1
100
AcDbLine
 10
-3302.499943226111
 20
-69.38775037618544
 11
-3301.946442750916
 21
2915.08678620982
  0
LINE
  5
355
100
AcDbEntity
  8
crep v1 duplo
  6
ByLayer
 62
  256
370
   -1
100
AcDbLine
 10
-3602.499938066802
 20
-69.332112394468
 11
-3602.010683028945
 21
2568.731029050115
  0
LINE
  5
356
100
AcDbEntity
  8
crep v1 duplo
  6
ByLayer
 62
  256
370
   -1
100
AcDbLine
 10
-3902.499932907494
 20
-69.27647441275059
 11
-3902.074923306973
 21
2222.375271890408
  0
LINE
  5
357
100
AcDbEntity
  8
crep v1 duplo
  6
ByLayer
 62
  256
370
   -1
100
AcDbLine
 10
-4202.499927748186
 20
-69.22083643103315
 11
-4202.139163585001
 21
1876.019514730702
  0
LINE
  5
358
100
AcDbEntity
  8
crep v1 duplo
  6
ByLayer
 62
  256
370
   -1
100
AcDbLine
 10
-4502.499922588877
 20
-69.16519844931574
 11
-4502.20340386303
 21
1529.663757570997
  0
LINE
  5
359
100
AcDbEntity
  8
crep v1 duplo
  6
ByLayer
 62
  256
370
   -1
100
AcDbLine
 10
-4802.499917429569
 20
-69.10956046759878
 11
-4802.267644141059
 21
1183.308000411289
  0
LINE
  5
35A
100
AcDbEntity
  8
crep v1 duplo
  6
ByLayer
 62
  256
370
   -1
100
AcDbLine
 10
-5102.49991227026
 20
-69.05392248588134
 11
-5102.331884419086
 21
836.9522432515837
  0
LINE
  5
35B
100
AcDbEntity
  8
crep v1 duplo
  6
ByLayer
 62
  256
370
   -1
100
AcDbLine
 10
-5402.499907110951
 20
-68.99828450416393
 11
-5402.396124697115
 21
490.5964860918775
  0
LINE
  5
35C
100
AcDbEntity
  8
crep v1 duplo
  6
ByLayer
 62
  256
370
   -1
100
AcDbLine
 10
-5702.499901951644
 20
-68.94264652244649
 11
-5702.460364975143
 21
144.2407289321714
  0
LINE
  5
35D
100
AcDbEntity
  8
crep v1 duplo
  6
ByLayer
 62
  256
370
   -1
100
AcDbLine
 10
-1.25
 20
-70
 11
-5826.499899819129
 21
-68.91964949000194
  0
LINE
  5
35E
100
AcDbEntity
  8
crep v1 duplo
  6
ByLayer
 62
  256
370
   -1
100
AcDbLine
 10
-5826.486917623395
 20
1.080349306159434
 11
-5826.499899819129
 21
-68.91964949000194
  0
LWPOLYLINE
  5
35F
100
AcDbEntity
  8
crep v1 sneg
  6
ByLayer
 62
  256
370
   -1
100
AcDbPolyline
 90
    4
 70
    1
 43
0
 10
-5402.444269129233
 20
231.0017103365292
 10
-5102.392345505606
 20
231.0017103365292
 10
-5102.392345505606
 20
510.946067539457
 10
-5402.444269129233
 20
510.946067539457
  0
LWPOLYLINE
  5
360
100
AcDbEntity
  8
crep v1 sneg
  6
ByLayer
 62
  256
370
   -1
100
AcDbPolyline
 90
    4
 70
    1
 43
0
 10
-5102.392345505301
 20
510.9460675394571
 10
-4802.340421881979
 20
510.9460675394571
 10
-4802.340421881979
 20
790.8904247423853
 10
-5102.392345505301
 20
790.8904247423853
  0
LWPOLYLINE
  5
361
100
AcDbEntity
  8
crep v1 sneg
  6
ByLayer
 62
  256
370
   -1
100
AcDbPolyline
 90
    4
 70
    1
 43
0
 10
-4802.444279447851
 20
230.8904343730943
 10
-4502.392355824223
 20
230.8904343730943
 10
-4502.392355824223
 20
510.8347915760222
 10
-4802.444279447851
 20
510.8347915760222
  0
LWPOLYLINE
  5
362
100
AcDbEntity
  8
crep v1 sneg
  6
ByLayer
 62
  256
370
   -1
100
AcDbPolyline
 90
    4
 70
    1
 43
0
 10
-4502.392355823424
 20
510.8347915760222
 10
-4202.340432200595
 20
510.8347915760222
 10
-4202.340432200595
 20
790.7791487789505
 10
-4502.392355823424
 20
790.7791487789505
  0
LWPOLYLINE
  5
363
100
AcDbEntity
  8
crep v1 sneg
  6
ByLayer
 62
  256
370
   -1
100
AcDbPolyline
 90
    4
 70
    1
 43
0
 10
-4202.444289766469
 20
230.7791584096594
 10
-3902.39236614284
 20
230.7791584096594
 10
-3902.39236614284
 20
510.7235156125874
 10
-4202.444289766469
 20
510.7235156125874
  0
LWPOLYLINE
  5
364
100
AcDbEntity
  8
crep v1 sneg
  6
ByLayer
 62
  256
370
   -1
100
AcDbPolyline
 90
    4
 70
    1
 43
0
 10
-3900.647554657422
 20
510.7231920199501
 10
-3602.340442519213
 20
510.7231920199501
 10
-3602.340442519213
 20
790.6678728155156
 10
-3900.647554657422
 20
790.6678728155156
  0
LWPOLYLINE
  5
365
100
AcDbEntity
  8
crep v1 sneg
  6
ByLayer
 62
  256
370
   -1
100
AcDbPolyline
 90
    4
 70
    1
 43
0
 10
-3602.444300085086
 20
230.6678824462246
 10
-3302.392376461457
 20
230.6678824462246
 10
-3302.392376461457
 20
510.6122396491525
 10
-3602.444300085086
 20
510.6122396491525
  0
LWPOLYLINE
  5
366
100
AcDbEntity
  8
crep v1 sneg
  6
ByLayer
 62
  256
370
   -1
100
AcDbPolyline
 90
    4
 70
    1
 43
0
 10
-3302.392376461457
 20
510.6122396480953
 10
-3002.340452837829
 20
510.6122396480953
 10
-3002.340452837829
 20
790.5565968520807
 10
-3302.392376461457
 20
790.5565968520807
  0
LWPOLYLINE
  5
367
100
AcDbEntity
  8
crep v1 sneg
  6
ByLayer
 62
  256
370
   -1
100
AcDbPolyline
 90
    4
 70
    1
 43
0
 10
-3002.444310403701
 20
230.5566064827898
 10
-2702.392386780074
 20
230.5566064827898
 10
-2702.392386780074
 20
510.5009636857177
 10
-3002.444310403701
 20
510.5009636857177
  0
LWPOLYLINE
  5
368
100
AcDbEntity
  8
crep v1 sneg
  6
ByLayer
 62
  256
370
   -1
100
AcDbPolyline
 90
    4
 70
    1
 43
0
 10
-2702.392386780074
 20
510.5009636857177
 10
-2402.340463156446
 20
510.5009636857177
 10
-2402.340463156446
 20
790.4453208886458
 10
-2702.392386780074
 20
790.4453208886458
  0
LWPOLYLINE
  5
369
100
AcDbEntity
  8
crep v1 sneg
  6
ByLayer
 62
  256
370
   -1
100
AcDbPolyline
 90
    4
 70
    1
 43
0
 10
-2402.444320722318
 20
230.4453305193549
 10
-2102.39239709869
 20
230.4453305193549
 10
-2102.39239709869
 20
510.3896877222828
 10
-2402.444320722318
 20
510.3896877222828
  0
LWPOLYLINE
  5
36A
100
AcDbEntity
  8
crep v1 sneg
  6
ByLayer
 62
  256
370
   -1
100
AcDbPolyline
 90
    4
 70
    1
 43
0
 10
-2102.392397098243
 20
510.3896877222828
 10
-1802.340473475063
 20
510.3896877222828
 10
-1802.340473475063
 20
790.3340449252109
 10
-2102.392397098243
 20
790.3340449252109
  0
LWPOLYLINE
  5
36B
100
AcDbEntity
  8
crep v1 sneg
  6
ByLayer
 62
  256
370
   -1
100
AcDbPolyline
 90
    4
 70
    1
 43
0
 10
-1802.444331040935
 20
230.33405455592
 10
-1502.392407417307
 20
230.33405455592
 10
-1502.392407417307
 20
510.2784117588481
 10
-1802.444331040935
 20
510.2784117588481
  0
LWPOLYLINE
  5
36C
100
AcDbEntity
  8
crep v1 sneg
  6
ByLayer
 62
  256
370
   -1
100
AcDbPolyline
 90
    4
 70
    1
 43
0
 10
-1500
 20
500
 10
-1202.340483793679
 20
500
 10
-1202.340483793679
 20
790.2227689617761
 10
-1500
 20
790.2227689617761
  0
LWPOLYLINE
  5
36D
100
AcDbEntity
  8
crep v1 sneg
  6
ByLayer
 62
  256
370
   -1
100
AcDbPolyline
 90
    4
 70
    1
 43
0
 10
-1202.444341359552
 20
230.2227785924851
 10
-900
 20
230.2227785924851
 10
-900
 20
500
 10
-1202.444341359552
 20
500
  0
LWPOLYLINE
  5
36E
100
AcDbEntity
  8
crep v1 sneg
  6
ByLayer
 62
  256
370
   -1
100
AcDbPolyline
 90
    4
 70
    1
 43
0
 10
-902.3943033323415
 20
500.0000000000001
 10
-600
 20
500.0000000000001
 10
-600
 20
800
 10
-902.3943033323415
 20
800
  0
LWPOLYLINE
  5
36F
100
AcDbEntity
  8
crep v1 sneg
  6
ByLayer
 62
  256
370
   -1
100
AcDbPolyline
 90
    4
 70
    1
 43
0
 10
-602.4443516781687
 20
230.1115026290503
 10
-300
 20
230.1115026290503
 10
-300
 20
500
 10
-602.4443516781687
 20
500
  0
LWPOLYLINE
  5
370
100
AcDbEntity
  8
crep v1 sneg
  6
ByLayer
 62
  256
370
   -1
100
AcDbPolyline
 90
    4
 70
    1
 43
0
 10
-300
 20
500
 10
0
 20
500
 10
0
 20
800
 10
-300
 20
800
  0
LWPOLYLINE
  5
371
100
AcDbEntity
  8
crep v1 ventilacioni
  6
ByLayer
 62
  256
370
   -1
100
AcDbPolyline
 90
    4
 70
    1
 43
0
 10
-301.3538523958156
 20
6110.055763524887
 10
-0.6769287829362616
 20
6110.055763524887
 10
-0.6769287829362616
 20
6390.000004815357
 10
-301.3538523958156
 20
6390.000004815357
  0
LWPOLYLINE
  5
372
100
AcDbEntity
  8
crep v1 ventilacioni
  6
ByLayer
 62
  256
370
   -1
100
AcDbPolyline
 90
    4
 70
    1
 43
0
 10
300
 20
6109.999999999999
 10
0
 20
6109.999999999999
 10
0
 20
6390.000000000001
 10
300
 20
6390.000000000001
  0
LWPOLYLINE
  5
373
100
AcDbEntity
  8
crep v1 ventilacioni
  6
ByLayer
 62
  256
370
   -1
100
AcDbPolyline
 90
    4
 70
    1
 43
0
 10
-601.4577048023797
 20
5550.111411137314
 10
-301.4057811787518
 20
5550.111411137314
 10
-301.4057811787518
 20
5830.055768340243
 10
-601.4577048023797
 20
5830.055768340243
  0
LWPOLYLINE
  5
374
100
AcDbEntity
  8
crep v1 ventilacioni
  6
ByLayer
 62
  256
370
   -1
100
AcDbPolyline
 90
    4
 70
    1
 43
0
 10
600
 20
5550
 10
300
 20
5550
 10
300
 20
5830.000000000001
 10
600
 20
5830.000000000001
  0
LWPOLYLINE
  5
375
100
AcDbEntity
  8
crep v1 ventilacioni
  6
ByLayer
 62
  256
370
   -1
100
AcDbPolyline
 90
    4
 70
    1
 43
0
 10
-901.5096284260075
 20
5270.167053934387
 10
-601.4577048023797
 20
5270.167053934387
 10
-601.4577048023797
 20
5550.111411137314
 10
-901.5096284260075
 20
5550.111411137314
  0
LWPOLYLINE
  5
376
100
AcDbEntity
  8
crep v1 ventilacioni
  6
ByLayer
 62
  256
370
   -1
100
AcDbPolyline
 90
    4
 70
    1
 43
0
 10
-301.5096387446243
 20
5270.055777970952
 10
-0.8327151317450465
 20
5270.055777970952
 10
-0.8327151317450465
 20
5550.000019261419
 10
-301.5096387446243
 20
5550.000019261419
  0
LWPOLYLINE
  5
377
100
AcDbEntity
  8
crep v1 ventilacioni
  6
ByLayer
 62
  256
370
   -1
100
AcDbPolyline
 90
    4
 70
    1
 43
0
 10
0
 20
5270
 10
300
 20
5270
 10
300
 20
5550
 10
0
 20
5550
  0
LWPOLYLINE
  5
378
100
AcDbEntity
  8
crep v1 ventilacioni
  6
ByLayer
 62
  256
370
   -1
100
AcDbPolyline
 90
    4
 70
    1
 43
0
 10
600
 20
5270
 10
900
 20
5270
 10
900
 20
5550
 10
600
 20
5550
  0
LWPOLYLINE
  5
379
100
AcDbEntity
  8
crep v1 ventilacioni
  6
ByLayer
 62
  256
370
   -1
100
AcDbPolyline
 90
    4
 70
    1
 43
0
 10
-1201.561552049635
 20
4990.22269673146
 10
-901.5096284260076
 20
4990.22269673146
 10
-901.5096284260076
 20
5270.167053934169
 10
-1201.561552049635
 20
5270.167053934169
  0
LWPOLYLINE
  5
37A
100
AcDbEntity
  8
crep v1 ventilacioni
  6
ByLayer
 62
  256
370
   -1
100
AcDbPolyline
 90
    4
 70
    1
 43
0
 10
1199.999999999999
 20
4990
 10
900
 20
4990
 10
900
 20
5270
 10
1199.999999999999
 20
5270
  0
LWPOLYLINE
  5
37B
100
AcDbEntity
  8
crep v1 ventilacioni
  6
ByLayer
 62
  256
370
   -1
100
AcDbPolyline
 90
    4
 70
    1
 43
0
 10
600
 20
4990
 10
300
 20
4990
 10
300
 20
5270
 10
600
 20
5270
  0
LWPOLYLINE
  5
37C
100
AcDbEntity
  8
crep v1 ventilacioni
  6
ByLayer
 62
  256
370
   -1
100
AcDbPolyline
 90
    4
 70
    1
 43
0
 10
-600
 20
5000
 10
-301.5096387446243
 20
5000
 10
-301.5096387446243
 20
5270.055777970952
 10
-600
 20
5270.055777970952
  0
LWPOLYLINE
  5
37D
100
AcDbEntity
  8
crep v1 sneg
  6
ByLayer
 62
  256
370
   -1
100
AcDbPolyline
 90
    4
 70
    1
 43
0
 10
5402.444269129233
 20
231.0017103365292
 10
5102.392345505606
 20
231.0017103365292
 10
5102.392345505606
 20
510.946067539457
 10
5402.444269129233
 20
510.946067539457
  0
LWPOLYLINE
  5
37E
100
AcDbEntity
  8
crep v1 sneg
  6
ByLayer
 62
  256
370
   -1
100
AcDbPolyline
 90
    4
 70
    1
 43
0
 10
5102.392345505301
 20
510.9460675394571
 10
4802.340421881979
 20
510.9460675394571
 10
4802.340421881979
 20
790.8904247423853
 10
5102.392345505301
 20
790.8904247423853
  0
LWPOLYLINE
  5
37F
100
AcDbEntity
  8
crep v1 sneg
  6
ByLayer
 62
  256
370
   -1
100
AcDbPolyline
 90
    4
 70
    1
 43
0
 10
4802.444279447851
 20
230.8904343730943
 10
4502.392355824223
 20
230.8904343730943
 10
4502.392355824223
 20
510.8347915760222
 10
4802.444279447851
 20
510.8347915760222
  0
LWPOLYLINE
  5
380
100
AcDbEntity
  8
crep v1 sneg
  6
ByLayer
 62
  256
370
   -1
100
AcDbPolyline
 90
    4
 70
    1
 43
0
 10
4502.392355823424
 20
510.8347915760222
 10
4202.340432200595
 20
510.8347915760222
 10
4202.340432200595
 20
790.7791487789505
 10
4502.392355823424
 20
790.7791487789505
  0
LWPOLYLINE
  5
381
100
AcDbEntity
  8
crep v1 sneg
  6
ByLayer
 62
  256
370
   -1
100
AcDbPolyline
 90
    4
 70
    1
 43
0
 10
4202.444289766469
 20
230.7791584096594
 10
3902.39236614284
 20
230.7791584096594
 10
3902.39236614284
 20
510.7235156125874
 10
4202.444289766469
 20
510.7235156125874
  0
LWPOLYLINE
  5
382
100
AcDbEntity
  8
crep v1 sneg
  6
ByLayer
 62
  256
370
   -1
100
AcDbPolyline
 90
    4
 70
    1
 43
0
 10
3900.647554657422
 20
510.7231920199501
 10
3602.340442519213
 20
510.7231920199501
 10
3602.340442519213
 20
790.6678728155156
 10
3900.647554657422
 20
790.6678728155156
  0
LWPOLYLINE
  5
383
100
AcDbEntity
  8
crep v1 sneg
  6
ByLayer
 62
  256
370
   -1
100
AcDbPolyline
 90
    4
 70
    1
 43
0
 10
3602.444300085086
 20
230.6678824462245
 10
3302.392376461457
 20
230.6678824462245
 10
3302.392376461457
 20
510.6122396491525
 10
3602.444300085086
 20
510.6122396491525
  0
LWPOLYLINE
  5
384
100
AcDbEntity
  8
crep v1 sneg
  6
ByLayer
 62
  256
370
   -1
100
AcDbPolyline
 90
    4
 70
    1
 43
0
 10
3302.392376461457
 20
510.6122396480953
 10
3002.340452837829
 20
510.6122396480953
 10
3002.340452837829
 20
790.5565968520807
 10
3302.392376461457
 20
790.5565968520807
  0
LWPOLYLINE
  5
385
100
AcDbEntity
  8
crep v1 sneg
  6
ByLayer
 62
  256
370
   -1
100
AcDbPolyline
 90
    4
 70
    1
 43
0
 10
3002.444310403701
 20
230.5566064827898
 10
2702.392386780074
 20
230.5566064827898
 10
2702.392386780074
 20
510.5009636857177
 10
3002.444310403701
 20
510.5009636857177
  0
LWPOLYLINE
  5
386
100
AcDbEntity
  8
crep v1 sneg
  6
ByLayer
 62
  256
370
   -1
100
AcDbPolyline
 90
    4
 70
    1
 43
0
 10
2702.392386780074
 20
510.5009636857177
 10
2402.340463156446
 20
510.5009636857177
 10
2402.340463156446
 20
790.4453208886456
 10
2702.392386780074
 20
790.4453208886456
  0
LWPOLYLINE
  5
387
100
AcDbEntity
  8
crep v1 sneg
  6
ByLayer
 62
  256
370
   -1
100
AcDbPolyline
 90
    4
 70
    1
 43
0
 10
2402.444320722318
 20
230.4453305193549
 10
2102.39239709869
 20
230.4453305193549
 10
2102.39239709869
 20
510.3896877222828
 10
2402.444320722318
 20
510.3896877222828
  0
LWPOLYLINE
  5
388
100
AcDbEntity
  8
crep v1 sneg
  6
ByLayer
 62
  256
370
   -1
100
AcDbPolyline
 90
    4
 70
    1
 43
0
 10
2102.392397098243
 20
510.3896877222828
 10
1802.340473475063
 20
510.3896877222828
 10
1802.340473475063
 20
790.3340449252109
 10
2102.392397098243
 20
790.3340449252109
  0
LWPOLYLINE
  5
389
100
AcDbEntity
  8
crep v1 sneg
  6
ByLayer
 62
  256
370
   -1
100
AcDbPolyline
 90
    4
 70
    1
 43
0
 10
1802.444331040935
 20
230.3340545559201
 10
1502.392407417307
 20
230.3340545559201
 10
1502.392407417307
 20
510.2784117588481
 10
1802.444331040935
 20
510.2784117588481
  0
LWPOLYLINE
  5
38A
100
AcDbEntity
  8
crep v1 sneg
  6
ByLayer
 62
  256
370
   -1
100
AcDbPolyline
 90
    4
 70
    1
 43
0
 10
1500
 20
500
 10
1202.340483793679
 20
500
 10
1202.340483793679
 20
790.2227689617761
 10
1500
 20
790.2227689617761
  0
LWPOLYLINE
  5
38B
100
AcDbEntity
  8
crep v1 sneg
  6
ByLayer
 62
  256
370
   -1
100
AcDbPolyline
 90
    4
 70
    1
 43
0
 10
1202.444341359552
 20
230.2227785924851
 10
900
 20
230.2227785924851
 10
900
 20
500
 10
1202.444341359552
 20
500
  0
LWPOLYLINE
  5
38C
100
AcDbEntity
  8
crep v1 sneg
  6
ByLayer
 62
  256
370
   -1
100
AcDbPolyline
 90
    4
 70
    1
 43
0
 10
902.3943033323415
 20
500.0000000000001
 10
600
 20
500.0000000000001
 10
600
 20
800
 10
902.3943033323415
 20
800
  0
LWPOLYLINE
  5
38D
100
AcDbEntity
  8
crep v1 sneg
  6
ByLayer
 62
  256
370
   -1
100
AcDbPolyline
 90
    4
 70
    1
 43
0
 10
602.4443516781687
 20
230.1115026290503
 10
300
 20
230.1115026290503
 10
300
 20
500
 10
602.4443516781687
 20
500
  0
LWPOLYLINE
  5
38E
100
AcDbEntity
  8
crep v1 sneg
  6
ByLayer
 62
  256
370
   -1
100
AcDbPolyline
 90
    4
 70
    1
 43
0
 10
300
 20
500
 10
0
 20
500
 10
0
 20
800
 10
300
 20
800
  0
LINE
  5
38F
100
AcDbEntity
  8
poklopci 
  6
ByLayer
 62
  256
370
   -1
100
AcDbLine
 10
-5899.593010529912
 20
65.4652332083577
 11
-75.59301052991168
 21
6790.465233208358
  0
LINE
  5
390
100
AcDbEntity
  8
poklopci 
  6
ByLayer
 62
  256
370
   -1
100
AcDbLine
 10
0
 20
6725
 11
-75.59301052991168
 21
6790.465233208358
  0
LINE
  5
391
100
AcDbEntity
  8
poklopci 
  6
ByLayer
 62
  256
370
   -1
100
AcDbLine
 10
-242.2213628709239
 20
6445.305861039327
 11
-317.8143734008356
 21
6510.771094247685
  0
LINE
  5
392
100
AcDbEntity
  8
poklopci 
  6
ByLayer
 62
  256
370
   -1
100
AcDbLine
 10
-484.4427257418478
 20
6165.611722078655
 11
-560.0357362717594
 21
6231.076955287012
  0
LINE
  5
393
100
AcDbEntity
  8
poklopci 
  6
ByLayer
 62
  256
370
   -1
100
AcDbLine
 10
-726.6640886127716
 20
5885.917583117982
 11
-802.2570991426833
 21
5951.38281632634
  0
LINE
  5
394
100
AcDbEntity
  8
poklopci 
  6
ByLayer
 62
  256
370
   -1
100
AcDbLine
 10
-968.8854514836955
 20
5606.223444157309
 11
-1044.478462013607
 21
5671.688677365667
  0
LINE
  5
395
100
AcDbEntity
  8
poklopci 
  6
ByLayer
 62
  256
370
   -1
100
AcDbLine
 10
-1211.106814354619
 20
5326.529305196636
 11
-1286.699824884531
 21
5391.994538404994
  0
LINE
  5
396
100
AcDbEntity
  8
poklopci 
  6
ByLayer
 62
  256
370
   -1
100
AcDbLine
 10
-1453.328177225543
 20
5046.835166235964
 11
-1528.921187755455
 21
5112.300399444322
  0
LINE
  5
397
100
AcDbEntity
  8
poklopci 
  6
ByLayer
 62
  256
370
   -1
100
AcDbLine
 10
-1695.549540096467
 20
4767.141027275291
 11
-1771.142550626379
 21
4832.606260483649
  0
LINE
  5
398
100
AcDbEntity
  8
poklopci 
  6
ByLayer
 62
  256
370
   -1
100
AcDbLine
 10
-1937.770902967391
 20
4487.446888314618
 11
-2013.363913497303
 21
4552.912121522976
  0
LINE
  5
399
100
AcDbEntity
  8
poklopci 
  6
ByLayer
 62
  256
370
   -1
100
AcDbLine
 10
-2179.992265838315
 20
4207.752749353946
 11
-2255.585276368227
 21
4273.217982562303
  0
LINE
  5
39A
100
AcDbEntity
  8
poklopci 
  6
ByLayer
 62
  256
370
   -1
100
AcDbLine
 10
-2422.213628709239
 20
3928.058610393273
 11
-2497.806639239151
 21
3993.523843601631
  0
LINE
  5
39B
100
AcDbEntity
  8
poklopci 
  6
ByLayer
 62
  256
370
   -1
100
AcDbLine
 10
-2664.434991580163
 20
3648.3644714326
 11
-2740.028002110074
 21
3713.829704640958
  0
LINE
  5
39C
100
AcDbEntity
  8
poklopci 
  6
ByLayer
 62
  256
370
   -1
100
AcDbLine
 10
-2906.656354451086
 20
3368.670332471927
 11
-2982.249364980998
 21
3434.135565680285
  0
LINE
  5
39D
100
AcDbEntity
  8
poklopci 
  6
ByLayer
 62
  256
370
   -1
100
AcDbLine
 10
-3148.87771732201
 20
3088.976193511255
 11
-3224.470727851922
 21
3154.441426719613
  0
LINE
  5
39E
100
AcDbEntity
  8
poklopci 
  6
ByLayer
 62
  256
370
   -1
100
AcDbLine
 10
-3391.099080192934
 20
2809.282054550582
 11
-3466.692090722845
 21
2874.74728775894
  0
LINE
  5
39F
100
AcDbEntity
  8
poklopci 
  6
ByLayer
 62
  256
370
   -1
100
AcDbLine
 10
-3633.320443063858
 20
2529.587915589909
 11
-3708.913453593769
 21
2595.053148798267
  0
LINE
  5
3A0
100
AcDbEntity
  8
poklopci 
  6
ByLayer
 62
  256
370
   -1
100
AcDbLine
 10
-3875.541805934781
 20
2249.893776629237
 11
-3951.134816464693
 21
2315.359009837594
  0
LINE
  5
3A1
100
AcDbEntity
  8
poklopci 
  6
ByLayer
 62
  256
370
   -1
100
AcDbLine
 10
-4117.763168805705
 20
1970.199637668564
 11
-4193.356179335617
 21
2035.664870876921
  0
LINE
  5
3A2
100
AcDbEntity
  8
poklopci 
  6
ByLayer
 62
  256
370
   -1
100
AcDbLine
 10
-4359.98453167663
 20
1690.505498707892
 11
-4435.577542206542
 21
1755.970731916249
  0
LINE
  5
3A3
100
AcDbEntity
  8
poklopci 
  6
ByLayer
 62
  256
370
   -1
100
AcDbLine
 10
-4602.205894547556
 20
1410.811359747219
 11
-4677.798905077467
 21
1476.276592955577
  0
LINE
  5
3A4
100
AcDbEntity
  8
poklopci 
  6
ByLayer
 62
  256
370
   -1
100
AcDbLine
 10
-4844.427257418481
 20
1131.117220786547
 11
-4920.020267948392
 21
1196.582453994905
  0
LINE
  5
3A5
100
AcDbEntity
  8
poklopci 
  6
ByLayer
 62
  256
370
   -1
100
AcDbLine
 10
-5086.648620289406
 20
851.4230818258749
 11
-5162.241630819317
 21
916.8883150342327
  0
LINE
  5
3A6
100
AcDbEntity
  8
poklopci 
  6
ByLayer
 62
  256
370
   -1
100
AcDbLine
 10
-5328.869983160331
 20
571.7289428652027
 11
-5404.462993690242
 21
637.1941760735606
  0
LINE
  5
3A7
100
AcDbEntity
  8
poklopci 
  6
ByLayer
 62
  256
370
   -1
100
AcDbLine
 10
-5571.091346031256
 20
292.0348039045306
 11
-5646.684356561167
 21
357.5000371128884
  0
LINE
  5
3A8
100
AcDbEntity
  8
poklopci 
  6
ByLayer
 62
  256
370
   -1
100
AcDbLine
 10
-5813.312708902181
 20
12.34066494385843
 11
-5888.905719432092
 21
77.80589815221629
  0
DIMENSION
  5
3A9
100
AcDbEntity
  8
crep v1 duplo
  6
ByLayer
 62
  256
370
   -1
100
AcDbDimension
  2
*D35
 10
-988.7997837563967
 20
6112.932942005191
 30
0
 11
-635.3893220820629
 21
6541.066462304797
 31
0
 70
   33
 71
    5
  3
Standard
 53
0
210
0
220
0
230
1
100
AcDbAlignedDimension
 13
-75.59301052991168
 23
6790.465233208358
 33
0
 14
-802.257099142681
 24
5951.382816326339
 34
0
  0
DIMENSION
  5
3AA
100
AcDbEntity
  8
poklopci 
  6
ByLayer
 62
  256
370
   -1
100
AcDbDimension
  2
*D36
 10
-666.4677131443344
 20
6323.249421206105
 30
0
 11
-434.1679329054625
 21
6611.535872025374
 31
0
 70
   33
 71
    5
  3
Standard
 53
0
210
0
220
0
230
1
100
AcDbAlignedDimension
 13
-75.59301052991123
 23
6790.465233208358
 33
0
 14
-560.0357362717568
 24
6231.076955287012
 34
0
  0
DIMENSION
  5
3AB
100
AcDbEntity
  8
poklopci 
  6
ByLayer
 62
  256
370
   -1
100
AcDbDimension
  2
*D37
 10
-1189.189897771824
 20
5797.012008496649
 30
0
 11
-956.8901175329507
 21
6085.298459315919
 31
0
 70
   33
 71
    5
  3
Standard
 53
0
210
0
220
0
230
1
100
AcDbAlignedDimension
 13
-560.0357362717594
 23
6231.076955287012
 33
0
 14
-1044.478462013607
 24
5671.688677365667
 34
0
  0
DIMENSION
  5
3AC
100
AcDbEntity
  8
poklopci 
  6
ByLayer
 62
  256
370
   -1
100
AcDbDimension
  2
*D38
 10
-1719.56797417644
 20
5277.404768829574
 30
0
 11
-1487.268193937567
 21
5565.691219648844
 31
0
 70
   33
 71
    5
  3
Standard
 53
0
210
0
220
0
230
1
100
AcDbAlignedDimension
 13
-1044.478462013607
 23
5671.688677365667
 33
0
 14
-1528.921187755455
 24
5112.300399444322
 34
0
  0
DIMENSION
  5
3AD
100
AcDbEntity
  8
poklopci 
  6
ByLayer
 62
  256
370
   -1
100
AcDbDimension
  2
*D39
 10
-2192.803018171304
 20
4708.310388529873
 30
0
 11
-1960.503237932431
 21
4996.596839349143
 31
0
 70
   33
 71
    5
  3
Standard
 53
0
210
0
220
0
230
1
100
AcDbAlignedDimension
 13
-1528.921187755452
 23
5112.300399444319
 33
0
 14
-2013.363913497299
 24
4552.912121522972
 34
0
  0
DIMENSION
  5
3AE
100
AcDbEntity
  8
poklopci 
  6
ByLayer
 62
  256
370
   -1
100
AcDbDimension
  2
*D40
 10
-2655.540015868257
 20
4136.89586766195
 30
0
 11
-2422.074438667662
 21
4422.023406827877
 31
0
 70
   33
 71
    5
  3
Standard
 53
0
210
0
220
0
230
1
100
AcDbAlignedDimension
 13
-2013.363913497299
 23
4552.912121522972
 33
0
 14
-2500
 24
4000
 34
0
  0
DIMENSION
  5
3AF
100
AcDbEntity
  8
poklopci 
  6
ByLayer
 62
  256
370
   -1
100
AcDbDimension
  2
*D41
 10
-3132.342311849654
 20
3562.049998759216
 30
0
 11
-2901.207058106643
 21
3853.495554764605
 31
0
 70
   33
 71
    5
  3
Standard
 53
0
210
0
220
0
230
1
100
AcDbAlignedDimension
 13
-2500
 23
4000
 33
0
 14
-2982.249364980998
 24
3434.135565680285
 34
0
  0
DIMENSION
  5
3B0
100
AcDbEntity
  8
poklopci 
  6
ByLayer
 62
  256
370
   -1
100
AcDbDimension
  2
*D42
 10
-3654.33939901139
 20
3037.254042178641
 30
0
 11
-3422.039618772517
 21
3325.54049299791
 31
0
 70
   33
 71
    5
  3
Standard
 53
0
210
0
220
0
230
1
100
AcDbAlignedDimension
 13
-2982.249364980998
 23
3434.135565680285
 33
0
 14
-3466.692090722845
 24
2874.74728775894
 34
0
  0
DIMENSION
  5
3B1
100
AcDbEntity
  8
poklopci 
  6
ByLayer
 62
  256
370
   -1
100
AcDbDimension
  2
*D43
 10
-4127.574443006253
 20
2468.15966187894
 30
0
 11
-3895.274662767381
 21
2756.44611269821
 31
0
 70
   33
 71
    5
  3
Standard
 53
0
210
0
220
0
230
1
100
AcDbAlignedDimension
 13
-3466.692090722839
 23
2874.747287758935
 33
0
 14
-3951.134816464686
 24
2315.359009837588
 34
0
  0
DIMENSION
  5
3B2
100
AcDbEntity
  8
poklopci 
  6
ByLayer
 62
  256
370
   -1
100
AcDbDimension
  2
*D44
 10
-4593.153595223988
 20
1892.43510853686
 30
0
 11
-4360.853814985116
 21
2180.72155935613
 31
0
 70
   33
 71
    5
  3
Standard
 53
0
210
0
220
0
230
1
100
AcDbAlignedDimension
 13
-3951.134816464686
 23
2315.359009837588
 33
0
 14
-4435.577542206533
 24
1755.970731916242
 34
0
  0
DIMENSION
  5
3B3
100
AcDbEntity
  8
poklopci 
  6
ByLayer
 62
  256
370
   -1
100
AcDbDimension
  2
*D45
 10
-5066.388639218852
 20
1323.340728237161
 30
0
 11
-4834.088858979978
 21
1611.62717905643
 31
0
 70
   33
 71
    5
  3
Standard
 53
0
210
0
220
0
230
1
100
AcDbAlignedDimension
 13
-4435.577542206542
 23
1755.970731916249
 33
0
 14
-4920.020267948392
 24
1196.582453994905
 34
0
  0
DIMENSION
  5
3B4
100
AcDbEntity
  8
poklopci 
  6
ByLayer
 62
  256
370
   -1
100
AcDbDimension
  2
*D46
 10
-5539.623683213716
 20
754.2463479374595
 30
0
 11
-5307.323902974841
 21
1042.532798756729
 31
0
 70
   33
 71
    5
  3
Standard
 53
0
210
0
220
0
230
1
100
AcDbAlignedDimension
 13
-4920.020267948392
 23
1196.582453994905
 33
0
 14
-5404.462993690242
 24
637.1941760735606
 34
0
  0
DIMENSION
  5
3B5
100
AcDbEntity
  8
poklopci 
  6
ByLayer
 62
  256
370
   -1
100
AcDbDimension
  2
*D47
 10
-6012.85872720858
 20
185.1519676377584
 30
0
 11
-5780.558946969705
 21
473.4384184570275
 31
0
 70
   33
 71
    5
  3
Standard
 53
0
210
0
220
0
230
1
100
AcDbAlignedDimension
 13
-5404.462993690242
 23
637.1941760735606
 33
0
 14
-5888.905719432092
 24
77.80589815221629
 34
0
  0
ENDSEC
  0
SECTION
  2
OBJECTS
  0
DICTIONARY
  5
C
330
0
100
AcDbDictionary
281
    1
  3
ACAD_GROUP
350
D
  0
DICTIONARY
  5
D
330
C
100
AcDbDictionary
281
    1
  0
ENDSEC
  0
EOF
